<svg xmlns="http://www.w3.org/2000/svg" width="350.627" height="623.333" viewBox="0 0 350.627 623.333">
  <g id="Grupo_111645" data-name="Grupo 111645" transform="translate(-55.084 -244.653)">
    <rect id="Rectángulo_37021" data-name="Rectángulo 37021" width="350.621" height="623.333" transform="translate(55.087 244.653)" fill="#fff"/>
    <rect id="Rectángulo_37022" data-name="Rectángulo 37022" width="350.621" height="5.659" transform="translate(55.087 862.328)" fill="#dcdee3"/>
    <path id="Trazado_173885" data-name="Trazado 173885" d="M-63.281-9.637l5.142-9.637h2.426l-6.434,11.8V0h-2.268V-7.37l-6.42-11.9h2.452Zm22.359,2.4A7.971,7.971,0,0,1-42.7-1.72,6.268,6.268,0,0,1-47.619.264a6.513,6.513,0,0,1-3.441-.91,6,6,0,0,1-2.32-2.61A9.1,9.1,0,0,1-54.2-7.238a7.959,7.959,0,0,1,1.767-5.5,6.248,6.248,0,0,1,4.9-1.971A6.113,6.113,0,0,1-42.708-12.7,7.936,7.936,0,0,1-40.922-7.238Zm-11.008,0a6.858,6.858,0,0,0,1.107,4.219,3.844,3.844,0,0,0,3.256,1.45A3.87,3.87,0,0,0-44.3-3.012a6.823,6.823,0,0,0,1.114-4.225A6.714,6.714,0,0,0-44.3-11.424a3.914,3.914,0,0,0-3.289-1.43,3.852,3.852,0,0,0-3.243,1.411A6.789,6.789,0,0,0-51.93-7.238Zm16.9-7.211v9.374a3.771,3.771,0,0,0,.8,2.637,3.276,3.276,0,0,0,2.518.87,4.108,4.108,0,0,0,3.316-1.239,6.251,6.251,0,0,0,1.048-4.047v-7.594h2.188V0H-26.96l-.316-1.938H-27.4A4.362,4.362,0,0,1-29.261-.3a6.27,6.27,0,0,1-2.722.567A5.523,5.523,0,0,1-35.932-.989,5.332,5.332,0,0,1-37.244-5v-9.453Zm21.107-.264a8.563,8.563,0,0,1,1.727.158l-.3,2.03a7.455,7.455,0,0,0-1.582-.2,3.851,3.851,0,0,0-3,1.424,5.192,5.192,0,0,0-1.246,3.546V0h-2.188V-14.449h1.806l.25,2.676h.105a6.352,6.352,0,0,1,1.938-2.175A4.363,4.363,0,0,1-13.922-14.713ZM12.907,0H10.349L-.185-16.176H-.29q.211,2.848.211,5.221V0h-2.07V-19.274H.382L10.89-3.164H11q-.026-.356-.119-2.287t-.066-2.762V-19.274h2.1ZM26.763,0l-.435-2.057h-.105A6.08,6.08,0,0,1,24.067-.218a6.57,6.57,0,0,1-2.683.481A4.826,4.826,0,0,1,18.015-.844,4.039,4.039,0,0,1,16.8-3.995q0-4.377,7-4.588l2.452-.079v-.9a3.663,3.663,0,0,0-.732-2.511,3.009,3.009,0,0,0-2.34-.811,9.535,9.535,0,0,0-4.087,1.107l-.672-1.674a10.284,10.284,0,0,1,2.34-.91,10.135,10.135,0,0,1,2.551-.33,5.5,5.5,0,0,1,3.83,1.147,4.788,4.788,0,0,1,1.246,3.678V0ZM21.819-1.542a4.442,4.442,0,0,0,3.21-1.121A4.146,4.146,0,0,0,26.2-5.8V-7.106l-2.188.092a7.96,7.96,0,0,0-3.764.811A2.445,2.445,0,0,0,19.09-3.968a2.255,2.255,0,0,0,.719,1.806A2.982,2.982,0,0,0,21.819-1.542ZM51.311,0V-9.4a3.9,3.9,0,0,0-.738-2.591,2.856,2.856,0,0,0-2.294-.864,3.7,3.7,0,0,0-3.019,1.173,5.576,5.576,0,0,0-.976,3.612V0H42.1V-9.4a3.9,3.9,0,0,0-.738-2.591,2.873,2.873,0,0,0-2.307-.864,3.573,3.573,0,0,0-3.012,1.233,6.671,6.671,0,0,0-.956,4.041V0H32.893V-14.449h1.78l.356,1.978h.105a4.3,4.3,0,0,1,1.747-1.648,5.337,5.337,0,0,1,2.525-.593q3.388,0,4.43,2.452h.105a4.607,4.607,0,0,1,1.872-1.793,5.809,5.809,0,0,1,2.795-.659,4.893,4.893,0,0,1,3.672,1.259A5.632,5.632,0,0,1,53.5-9.426V0Zm12.8.264a6.639,6.639,0,0,1-5.056-1.951A7.554,7.554,0,0,1,57.2-7.106a8.377,8.377,0,0,1,1.72-5.55,5.715,5.715,0,0,1,4.621-2.057,5.449,5.449,0,0,1,4.3,1.786,6.847,6.847,0,0,1,1.582,4.713v1.384H59.471a5.728,5.728,0,0,0,1.285,3.863,4.446,4.446,0,0,0,3.434,1.318,11.638,11.638,0,0,0,4.614-.976V-.672a11.581,11.581,0,0,1-2.2.719A12.336,12.336,0,0,1,64.112.264ZM63.519-12.88a3.574,3.574,0,0,0-2.775,1.134,5.226,5.226,0,0,0-1.219,3.138h7.554a4.812,4.812,0,0,0-.923-3.171A3.248,3.248,0,0,0,63.519-12.88Z" transform="translate(229.59 656.097)" fill="#606770"/>
    <path id="Trazado_173889" data-name="Trazado 173889" d="M3.917-5l2.666-5H7.841L4.5-3.876V0H3.329V-3.821L0-9.994H1.271ZM15.511-3.753a4.133,4.133,0,0,1-.923,2.861A3.25,3.25,0,0,1,12.038.137a3.377,3.377,0,0,1-1.784-.472,3.113,3.113,0,0,1-1.2-1.354,4.717,4.717,0,0,1-.424-2.064,4.127,4.127,0,0,1,.916-2.854,3.24,3.24,0,0,1,2.543-1.022,3.169,3.169,0,0,1,2.5,1.046A4.115,4.115,0,0,1,15.511-3.753Zm-5.708,0a3.556,3.556,0,0,0,.574,2.188,1.993,1.993,0,0,0,1.688.752,2.006,2.006,0,0,0,1.692-.749,3.538,3.538,0,0,0,.578-2.191,3.481,3.481,0,0,0-.578-2.17,2.03,2.03,0,0,0-1.706-.742,2,2,0,0,0-1.682.731A3.52,3.52,0,0,0,9.8-3.753Zm8.764-3.739v4.86a1.955,1.955,0,0,0,.417,1.367,1.7,1.7,0,0,0,1.306.451,2.13,2.13,0,0,0,1.719-.643,3.241,3.241,0,0,0,.543-2.1V-7.492h1.135V0H22.75l-.164-1h-.062a2.262,2.262,0,0,1-.967.848,3.251,3.251,0,0,1-1.412.294A2.864,2.864,0,0,1,18.1-.513a2.764,2.764,0,0,1-.68-2.078v-4.9Zm10.944-.137a4.44,4.44,0,0,1,.9.082l-.157,1.053a3.865,3.865,0,0,0-.82-.1,2,2,0,0,0-1.555.738,2.692,2.692,0,0,0-.646,1.839V0H26.093V-7.492h.937l.13,1.388h.055a3.293,3.293,0,0,1,1-1.128A2.262,2.262,0,0,1,29.511-7.629Zm9.42.014a2.785,2.785,0,0,1,2.293,1.008,4.426,4.426,0,0,1,.817,2.854,4.458,4.458,0,0,1-.824,2.868A2.774,2.774,0,0,1,38.931.137a3.242,3.242,0,0,1-1.336-.27,2.513,2.513,0,0,1-1.015-.831H36.5L36.258,0h-.813V-10.637h1.135v2.584q0,.868-.055,1.559h.055A2.694,2.694,0,0,1,38.931-7.615Zm-.164.95A1.981,1.981,0,0,0,37.092-6a3.76,3.76,0,0,0-.513,2.246,3.749,3.749,0,0,0,.526,2.259,2,2,0,0,0,1.688.68,1.75,1.75,0,0,0,1.559-.762,3.917,3.917,0,0,0,.513-2.191,3.765,3.765,0,0,0-.513-2.181A1.817,1.817,0,0,0,38.767-6.665ZM48.631,0l-.226-1.066h-.055a3.153,3.153,0,0,1-1.118.954,3.407,3.407,0,0,1-1.391.25A2.5,2.5,0,0,1,44.1-.437a2.094,2.094,0,0,1-.632-1.634q0-2.27,3.63-2.379l1.271-.041v-.465a1.9,1.9,0,0,0-.379-1.3,1.56,1.56,0,0,0-1.213-.42,4.944,4.944,0,0,0-2.119.574L44.3-6.973a5.332,5.332,0,0,1,1.213-.472,5.255,5.255,0,0,1,1.323-.171,2.854,2.854,0,0,1,1.986.595,2.482,2.482,0,0,1,.646,1.907V0ZM46.067-.8a2.3,2.3,0,0,0,1.665-.581,2.15,2.15,0,0,0,.6-1.627v-.677L47.2-3.637a4.128,4.128,0,0,0-1.952.42,1.268,1.268,0,0,0-.6,1.159,1.169,1.169,0,0,0,.373.937A1.546,1.546,0,0,0,46.067-.8ZM56.643-2.044a1.877,1.877,0,0,1-.779,1.613,3.663,3.663,0,0,1-2.187.567,4.757,4.757,0,0,1-2.324-.472V-1.388a5.621,5.621,0,0,0,1.159.431A4.839,4.839,0,0,0,53.7-.8a2.705,2.705,0,0,0,1.367-.284.938.938,0,0,0,.479-.865.939.939,0,0,0-.379-.749,5.968,5.968,0,0,0-1.48-.735,8.025,8.025,0,0,1-1.487-.68,2.031,2.031,0,0,1-.656-.66,1.72,1.72,0,0,1-.215-.882A1.681,1.681,0,0,1,52.076-7.1a3.472,3.472,0,0,1,2.044-.53,5.98,5.98,0,0,1,2.365.492l-.4.923a5.429,5.429,0,0,0-2.044-.465,2.352,2.352,0,0,0-1.217.253.782.782,0,0,0-.41.7.849.849,0,0,0,.154.513,1.518,1.518,0,0,0,.5.4,11.075,11.075,0,0,0,1.313.554,4.9,4.9,0,0,1,1.8.978A1.724,1.724,0,0,1,56.643-2.044ZM59.623,0H58.488V-7.492h1.135Zm-1.23-9.522a.754.754,0,0,1,.191-.571.669.669,0,0,1,.479-.181.669.669,0,0,1,.472.185.74.74,0,0,1,.2.567.752.752,0,0,1-.2.571.662.662,0,0,1-.472.188.655.655,0,0,1-.479-.188A.768.768,0,0,1,58.393-9.522ZM65.023.137a3.2,3.2,0,0,1-2.519-1A4.118,4.118,0,0,1,61.612-3.7,4.247,4.247,0,0,1,62.518-6.6,3.261,3.261,0,0,1,65.1-7.629a5.121,5.121,0,0,1,1.08.116,3.558,3.558,0,0,1,.848.273l-.349.964a5.336,5.336,0,0,0-.82-.25,3.663,3.663,0,0,0-.786-.1q-2.283,0-2.283,2.912a3.468,3.468,0,0,0,.557,2.119A1.938,1.938,0,0,0,65-.854a5.048,5.048,0,0,0,1.921-.4v1A4.094,4.094,0,0,1,65.023.137ZM73.466,0H72.331V-7.492h1.135Zm-1.23-9.522a.754.754,0,0,1,.191-.571.669.669,0,0,1,.479-.181.669.669,0,0,1,.472.185.74.74,0,0,1,.2.567.752.752,0,0,1-.2.571.662.662,0,0,1-.472.188.655.655,0,0,1-.479-.188A.768.768,0,0,1,72.235-9.522ZM81,0V-4.847a1.955,1.955,0,0,0-.417-1.367,1.7,1.7,0,0,0-1.306-.451,2.153,2.153,0,0,0-1.723.636,3.21,3.21,0,0,0-.547,2.1V0H75.872V-7.492h.923l.185,1.025h.055a2.317,2.317,0,0,1,.978-.858,3.176,3.176,0,0,1,1.4-.3,2.846,2.846,0,0,1,2.037.653,2.778,2.778,0,0,1,.684,2.088V0Zm6.843-6.61H85.935V0H84.8V-6.61H83.46v-.513l1.34-.41V-7.95q0-2.762,2.413-2.762a4.966,4.966,0,0,1,1.395.239l-.294.909a3.754,3.754,0,0,0-1.121-.212,1.092,1.092,0,0,0-.95.427,2.384,2.384,0,0,0-.308,1.371v.485h1.907Zm7.834,2.857a4.133,4.133,0,0,1-.923,2.861A3.25,3.25,0,0,1,92.2.137a3.377,3.377,0,0,1-1.784-.472,3.113,3.113,0,0,1-1.2-1.354,4.717,4.717,0,0,1-.424-2.064,4.127,4.127,0,0,1,.916-2.854,3.24,3.24,0,0,1,2.543-1.022,3.169,3.169,0,0,1,2.5,1.046A4.115,4.115,0,0,1,95.676-3.753Zm-5.708,0a3.556,3.556,0,0,0,.574,2.188,1.993,1.993,0,0,0,1.688.752,2.006,2.006,0,0,0,1.692-.749A3.538,3.538,0,0,0,94.5-3.753a3.481,3.481,0,0,0-.578-2.17,2.03,2.03,0,0,0-1.706-.742,2,2,0,0,0-1.682.731A3.52,3.52,0,0,0,89.968-3.753ZM104.986,0h-1.107V-7.123q0-.889.055-1.682-.144.144-.321.3t-1.627,1.333l-.6-.779,2.646-2.044h.957ZM3.917,22l2.666-5H7.841L4.5,23.124V27H3.329V23.179L0,17.006H1.271Zm11.594,1.244a4.133,4.133,0,0,1-.923,2.861,3.25,3.25,0,0,1-2.55,1.029,3.377,3.377,0,0,1-1.784-.472,3.113,3.113,0,0,1-1.2-1.354,4.717,4.717,0,0,1-.424-2.064,4.127,4.127,0,0,1,.916-2.854,3.24,3.24,0,0,1,2.543-1.022,3.169,3.169,0,0,1,2.5,1.046A4.115,4.115,0,0,1,15.511,23.247Zm-5.708,0a3.556,3.556,0,0,0,.574,2.188,1.993,1.993,0,0,0,1.688.752,2.006,2.006,0,0,0,1.692-.749,3.538,3.538,0,0,0,.578-2.191,3.481,3.481,0,0,0-.578-2.17,2.03,2.03,0,0,0-1.706-.742,2,2,0,0,0-1.682.731A3.52,3.52,0,0,0,9.8,23.247Zm8.764-3.739v4.86a1.955,1.955,0,0,0,.417,1.367,1.7,1.7,0,0,0,1.306.451,2.13,2.13,0,0,0,1.719-.643,3.241,3.241,0,0,0,.543-2.1V19.508h1.135V27H22.75l-.164-1h-.062a2.262,2.262,0,0,1-.967.848,3.251,3.251,0,0,1-1.412.294,2.864,2.864,0,0,1-2.047-.649,2.764,2.764,0,0,1-.68-2.078v-4.9Zm10.944-.137a4.44,4.44,0,0,1,.9.082l-.157,1.053a3.865,3.865,0,0,0-.82-.1,2,2,0,0,0-1.555.738,2.692,2.692,0,0,0-.646,1.839V27H26.093V19.508h.937l.13,1.388h.055a3.293,3.293,0,0,1,1-1.128A2.262,2.262,0,0,1,29.511,19.371Zm9.42.014a2.785,2.785,0,0,1,2.293,1.008,4.426,4.426,0,0,1,.817,2.854,4.458,4.458,0,0,1-.824,2.868,2.774,2.774,0,0,1-2.287,1.022,3.242,3.242,0,0,1-1.336-.27,2.513,2.513,0,0,1-1.015-.831H36.5L36.258,27h-.813V16.363h1.135v2.584q0,.868-.055,1.559h.055A2.694,2.694,0,0,1,38.931,19.385Zm-.164.95A1.981,1.981,0,0,0,37.092,21a3.76,3.76,0,0,0-.513,2.246,3.749,3.749,0,0,0,.526,2.259,2,2,0,0,0,1.688.68,1.75,1.75,0,0,0,1.559-.762,3.917,3.917,0,0,0,.513-2.191,3.765,3.765,0,0,0-.513-2.181A1.817,1.817,0,0,0,38.767,20.335ZM48.631,27l-.226-1.066h-.055a3.153,3.153,0,0,1-1.118.954,3.407,3.407,0,0,1-1.391.25,2.5,2.5,0,0,1-1.747-.574,2.094,2.094,0,0,1-.632-1.634q0-2.27,3.63-2.379l1.271-.041v-.465a1.9,1.9,0,0,0-.379-1.3,1.56,1.56,0,0,0-1.213-.42,4.944,4.944,0,0,0-2.119.574l-.349-.868a5.332,5.332,0,0,1,1.213-.472,5.255,5.255,0,0,1,1.323-.171,2.854,2.854,0,0,1,1.986.595,2.482,2.482,0,0,1,.646,1.907V27Zm-2.563-.8a2.3,2.3,0,0,0,1.665-.581,2.15,2.15,0,0,0,.6-1.627v-.677l-1.135.048a4.128,4.128,0,0,0-1.952.42,1.268,1.268,0,0,0-.6,1.159,1.169,1.169,0,0,0,.373.937A1.546,1.546,0,0,0,46.067,26.2Zm10.575-1.244a1.877,1.877,0,0,1-.779,1.613,3.663,3.663,0,0,1-2.187.567,4.757,4.757,0,0,1-2.324-.472V25.612a5.621,5.621,0,0,0,1.159.431A4.838,4.838,0,0,0,53.7,26.2a2.705,2.705,0,0,0,1.367-.284.977.977,0,0,0,.1-1.613,5.968,5.968,0,0,0-1.48-.735,8.025,8.025,0,0,1-1.487-.68,2.031,2.031,0,0,1-.656-.66,1.72,1.72,0,0,1-.215-.882,1.681,1.681,0,0,1,.745-1.446,3.472,3.472,0,0,1,2.044-.53,5.98,5.98,0,0,1,2.365.492l-.4.923a5.429,5.429,0,0,0-2.044-.465,2.352,2.352,0,0,0-1.217.253.782.782,0,0,0-.41.7.849.849,0,0,0,.154.513,1.518,1.518,0,0,0,.5.4,11.076,11.076,0,0,0,1.313.554,4.9,4.9,0,0,1,1.8.978A1.724,1.724,0,0,1,56.643,24.956ZM59.623,27H58.488V19.508h1.135Zm-1.23-9.522a.754.754,0,0,1,.191-.571.709.709,0,0,1,.95,0,.74.74,0,0,1,.2.567.752.752,0,0,1-.2.571.694.694,0,0,1-.95,0A.768.768,0,0,1,58.393,17.478Zm6.631,9.659a3.2,3.2,0,0,1-2.519-1,4.118,4.118,0,0,1-.892-2.833,4.247,4.247,0,0,1,.906-2.905A3.261,3.261,0,0,1,65.1,19.371a5.121,5.121,0,0,1,1.08.116,3.558,3.558,0,0,1,.848.273l-.349.964a5.336,5.336,0,0,0-.82-.25,3.663,3.663,0,0,0-.786-.1q-2.283,0-2.283,2.912a3.468,3.468,0,0,0,.557,2.119A1.938,1.938,0,0,0,65,26.146a5.048,5.048,0,0,0,1.921-.4v1A4.094,4.094,0,0,1,65.023,27.137ZM73.466,27H72.331V19.508h1.135Zm-1.23-9.522a.754.754,0,0,1,.191-.571.709.709,0,0,1,.95,0,.74.74,0,0,1,.2.567.752.752,0,0,1-.2.571.694.694,0,0,1-.95,0A.768.768,0,0,1,72.235,17.478ZM81,27V22.153a1.955,1.955,0,0,0-.417-1.367,1.7,1.7,0,0,0-1.306-.451,2.153,2.153,0,0,0-1.723.636,3.21,3.21,0,0,0-.547,2.1V27H75.872V19.508h.923l.185,1.025h.055a2.317,2.317,0,0,1,.978-.858,3.176,3.176,0,0,1,1.4-.3,2.846,2.846,0,0,1,2.037.653,2.778,2.778,0,0,1,.684,2.088V27Zm6.843-6.61H85.935V27H84.8V20.39H83.46v-.513l1.34-.41V19.05q0-2.762,2.413-2.762a4.966,4.966,0,0,1,1.395.239l-.294.909a3.754,3.754,0,0,0-1.121-.212,1.092,1.092,0,0,0-.95.427,2.384,2.384,0,0,0-.308,1.371v.485h1.907Zm7.834,2.857a4.133,4.133,0,0,1-.923,2.861,3.25,3.25,0,0,1-2.55,1.029,3.377,3.377,0,0,1-1.784-.472,3.113,3.113,0,0,1-1.2-1.354,4.717,4.717,0,0,1-.424-2.064,4.127,4.127,0,0,1,.916-2.854,3.24,3.24,0,0,1,2.543-1.022,3.169,3.169,0,0,1,2.5,1.046A4.115,4.115,0,0,1,95.676,23.247Zm-5.708,0a3.556,3.556,0,0,0,.574,2.188,2.279,2.279,0,0,0,3.38,0,3.538,3.538,0,0,0,.578-2.191,3.481,3.481,0,0,0-.578-2.17,2.03,2.03,0,0,0-1.706-.742,2,2,0,0,0-1.682.731A3.52,3.52,0,0,0,89.968,23.247ZM107.352,27h-6.569v-.978l2.632-2.646A19.38,19.38,0,0,0,105,21.641a4.431,4.431,0,0,0,.574-1.012,2.9,2.9,0,0,0,.191-1.06,1.68,1.68,0,0,0-.485-1.268,1.859,1.859,0,0,0-1.347-.468,3.386,3.386,0,0,0-1.179.205,4.7,4.7,0,0,0-1.241.745l-.6-.772a4.607,4.607,0,0,1,3.008-1.148,3.178,3.178,0,0,1,2.208.721,2.48,2.48,0,0,1,.8,1.938,3.743,3.743,0,0,1-.533,1.88,11.935,11.935,0,0,1-2,2.352l-2.187,2.14v.055h5.141Z" transform="translate(112.482 766.79)" fill="#606770"/>
    <rect id="Rectángulo_37023" data-name="Rectángulo 37023" width="350.627" height="29.771" transform="translate(55.084 244.653)" fill="#334b80"/>
    <rect id="Rectángulo_37024" data-name="Rectángulo 37024" width="350.627" height="46.347" transform="translate(55.084 274.425)" fill="#3c5895"/>
    <rect id="Rectángulo_37025" data-name="Rectángulo 37025" width="350.627" height="46.347" transform="translate(55.084 815.621)" fill="#f6f7f8"/>
    <rect id="Rectángulo_37026" data-name="Rectángulo 37026" width="350.627" height="198.261" transform="translate(55.084 320.772)" fill="#b1bacc"/>
    <g id="Grupo_111549" data-name="Grupo 111549" transform="translate(267.285 249.788)">
      <path id="Trazado_170477" data-name="Trazado 170477" d="M125.656,251.024l1.982,2.485,1.97-2.485a3.81,3.81,0,0,0-3.952,0Z" transform="translate(-117.536 -237.443)" fill="#fff"/>
      <path id="Trazado_170478" data-name="Trazado 170478" d="M124.787,250.563l2.092,2.632a4.744,4.744,0,0,1,5.195,0l2.1-2.629a8.158,8.158,0,0,0-9.385,0Z" transform="translate(-119.38 -240.395)" fill="#fff"/>
      <path id="Trazado_170479" data-name="Trazado 170479" d="M133.158,246.3a16.654,16.654,0,0,0-10.1,3.375l2.079,2.616a13.469,13.469,0,0,1,16.047,0l2.067-2.616A16.632,16.632,0,0,0,133.158,246.3Z" transform="translate(-123.055 -246.298)" fill="#fff"/>
      <path id="Trazado_170480" data-name="Trazado 170480" d="M123.92,250.127l2.079,2.6a9.157,9.157,0,0,1,10.633,0l2.079-2.6a12.436,12.436,0,0,0-14.792,0Z" transform="translate(-121.22 -243.346)" fill="#fff"/>
      <path id="Trazado_170481" data-name="Trazado 170481" d="M123.25,253.906h4.177l-2.085-3.622Z" transform="translate(-122.641 -237.84)" fill="#fff"/>
    </g>
    <g id="Grupo_111554" data-name="Grupo 111554" transform="translate(243.388 250.344)">
      <g id="Grupo_111550" data-name="Grupo 111550" transform="translate(0 0.001)">
        <path id="Trazado_170482" data-name="Trazado 170482" d="M116.266,250.446l-.866-.872,3.1-3.1.872.866Z" transform="translate(-115.4 -246.477)" fill="#fff"/>
      </g>
      <g id="Grupo_111551" data-name="Grupo 111551" transform="translate(10.981)">
        <rect id="Rectángulo_37027" data-name="Rectángulo 37027" width="1.226" height="4.383" transform="matrix(0.708, -0.706, 0.706, 0.708, 0, 0.866)" fill="#fff"/>
      </g>
      <g id="Grupo_111552" data-name="Grupo 111552" transform="translate(0.885 0.892)">
        <path id="Trazado_170483" data-name="Trazado 170483" d="M122.274,259.93a6.584,6.584,0,1,1,6.584-6.581A6.6,6.6,0,0,1,122.274,259.93Zm0-11.938a5.354,5.354,0,1,0,5.348,5.357A5.369,5.369,0,0,0,122.274,247.992Z" transform="translate(-115.684 -246.762)" fill="#fff"/>
      </g>
      <g id="Grupo_111553" data-name="Grupo 111553" transform="translate(7.011 3.536)">
        <path id="Trazado_170484" data-name="Trazado 170484" d="M120.568,254.658c-2.36-2.354-2.866-2.866-2.916-3.106l-.006-.031v-3.912h.921v3.749c.556.553,2.654,2.654,2.654,2.654Z" transform="translate(-117.646 -247.609)" fill="#fff"/>
      </g>
    </g>
    <path id="Trazado_170485" data-name="Trazado 170485" d="M137.54,247.785l-2.616,2.616v8.3h2.616Z" transform="translate(169.415 6.646)" fill="#fff"/>
    <path id="Trazado_170486" data-name="Trazado 170486" d="M133.691,256.093h2.616v-7.076l-2.616,2.619Z" transform="translate(166.8 9.259)" fill="#fff"/>
    <path id="Trazado_170487" data-name="Trazado 170487" d="M136.154,249.589v12.146h3.232V246.357Z" transform="translate(172.026 3.616)" fill="#243559"/>
    <g id="Grupo_111555" data-name="Grupo 111555" transform="translate(326.303 251.193)">
      <path id="Trazado_170488" data-name="Trazado 170488" d="M145.343,246.748a.781.781,0,0,0-.78.771v2.463h-1.829a.772.772,0,0,0-.774.78v4.914a.768.768,0,0,0,.774.774h1.829v2.463a.786.786,0,0,0,.78.777h3.109V246.748Z" transform="translate(-141.959 -246.748)" fill="#243559"/>
      <path id="Trazado_170489" data-name="Trazado 170489" d="M164.51,258.914v-11.4a.771.771,0,0,0-.78-.771h-19.69v12.944h19.69A.776.776,0,0,0,164.51,258.914Z" transform="translate(-137.545 -246.748)" fill="#fff"/>
    </g>
    <g id="Grupo_111556" data-name="Grupo 111556" transform="translate(361.84 252.819)">
      <path id="Trazado_170490" data-name="Trazado 170490" d="M156.567,256.54h-.987v-6.575c0-.549.009-1.065.041-1.552a2.741,2.741,0,0,1-.287.278c-.1.094-.59.509-1.455,1.23l-.537-.718,2.373-1.889h.852Z" transform="translate(-153.342 -247.171)" fill="#fff"/>
      <path id="Trazado_170491" data-name="Trazado 170491" d="M161.388,252.014a6.926,6.926,0,0,1-.731,3.575,2.459,2.459,0,0,1-2.238,1.183,2.427,2.427,0,0,1-2.195-1.211,6.748,6.748,0,0,1-.756-3.547,6.872,6.872,0,0,1,.731-3.575,2.654,2.654,0,0,1,4.433.047A6.734,6.734,0,0,1,161.388,252.014Zm-4.889,0a7.02,7.02,0,0,0,.456,2.935,1.631,1.631,0,0,0,2.941-.016,9.68,9.68,0,0,0,0-5.832,1.637,1.637,0,0,0-2.941-.013A6.961,6.961,0,0,0,156.5,252.014Z" transform="translate(-148.829 -247.269)" fill="#fff"/>
      <path id="Trazado_170492" data-name="Trazado 170492" d="M157.863,248.857c0-.571.243-.859.727-.859.5,0,.749.287.749.859a.9.9,0,0,1-.2.628.714.714,0,0,1-.546.222.706.706,0,0,1-.518-.2A.894.894,0,0,1,157.863,248.857Zm0,5.57a.972.972,0,0,1,.19-.64.662.662,0,0,1,.537-.222.7.7,0,0,1,.546.222.91.91,0,0,1,.2.64.9.9,0,0,1-.2.631.778.778,0,0,1-1.065.022A.888.888,0,0,1,157.863,254.426Z" transform="translate(-143.749 -245.722)" fill="#fff"/>
      <path id="Trazado_170493" data-name="Trazado 170493" d="M165.372,254.455h-1.33v2.117h-.977v-2.117h-4.346v-.915l4.243-6.241h1.08v6.2h1.33Zm-2.307-.952v-3.066c0-.606.019-1.283.062-2.042h-.05a9.309,9.309,0,0,1-.549,1.005l-2.791,4.1Z" transform="translate(-141.932 -247.203)" fill="#fff"/>
      <path id="Trazado_170494" data-name="Trazado 170494" d="M167.048,252.014a6.926,6.926,0,0,1-.73,3.575,2.656,2.656,0,0,1-4.439-.028,6.814,6.814,0,0,1-.749-3.547,6.943,6.943,0,0,1,.724-3.575,2.66,2.66,0,0,1,4.439.047A6.734,6.734,0,0,1,167.048,252.014Zm-4.889,0a7.02,7.02,0,0,0,.456,2.935,1.626,1.626,0,0,0,2.935-.016,9.432,9.432,0,0,0,0-5.832,1.632,1.632,0,0,0-2.935-.013A6.961,6.961,0,0,0,162.159,252.014Z" transform="translate(-136.818 -247.269)" fill="#fff"/>
    </g>
    <path id="Trazado_170495" data-name="Trazado 170495" d="M66.622,259.744l-4.9,4.9,4.9,4.893" transform="translate(14.093 32.022)" fill="none" stroke="#fff" stroke-linecap="round" stroke-linejoin="round" stroke-width="0.75"/>
    <line id="Línea_137" data-name="Línea 137" x2="12.765" transform="translate(75.819 296.662)" fill="none" stroke="#fff" stroke-linecap="round" stroke-linejoin="round" stroke-width="0.75"/>
    <circle id="Elipse_4174" data-name="Elipse 4174" cx="5.71" cy="5.71" r="5.71" transform="translate(114.026 289.309)" fill="none" stroke="#fff" stroke-linecap="round" stroke-linejoin="round" stroke-width="0.4"/>
    <line id="Línea_138" data-name="Línea 138" x2="4.223" y2="4.222" transform="translate(123.773 299.056)" fill="none" stroke="#fff" stroke-linecap="round" stroke-linejoin="round" stroke-width="0.4"/>
    <line id="Línea_139" data-name="Línea 139" x2="278.544" transform="translate(110.566 311.601)" fill="none" stroke="#fff" stroke-linejoin="round" stroke-width="0.25"/>
    <rect id="Rectángulo_37028" data-name="Rectángulo 37028" width="128.518" height="128.521" rx="0.75" transform="translate(166.139 488.076)" fill="#fff"/>
    <rect id="Rectángulo_37029" data-name="Rectángulo 37029" width="123.835" height="123.838" transform="translate(168.48 490.418)" fill="#c1ceeb"/>
    <line id="Línea_140" data-name="Línea 140" x2="313.234" transform="translate(74.145 674.609)" fill="none" stroke="#a2aebd" stroke-miterlimit="10" stroke-width="0.25"/>
    <line id="Línea_141" data-name="Línea 141" x2="313.234" transform="translate(74.145 739.087)" fill="none" stroke="#a2aebd" stroke-miterlimit="10" stroke-width="0.25"/>
    <line id="Línea_142" data-name="Línea 142" x2="349.898" transform="translate(55.813 815.621)" fill="none" stroke="#dfe5eb" stroke-miterlimit="10" stroke-width="0.25"/>
    <line id="Línea_143" data-name="Línea 143" x2="349.898" transform="translate(55.813 861.968)" fill="none" stroke="#dfe5eb" stroke-miterlimit="10" stroke-width="0.25"/>
    <circle id="Elipse_4175" data-name="Elipse 4175" cx="10.341" cy="10.341" r="10.341" transform="translate(307.54 693.569)" fill="none" stroke="#606770" stroke-miterlimit="10" stroke-width="0.4"/>
    <g id="Grupo_111557" data-name="Grupo 111557" transform="translate(311.539 702.788)">
      <path id="Trazado_170496" data-name="Trazado 170496" d="M139.475,392.524a1.122,1.122,0,1,1-1.121-1.124A1.122,1.122,0,0,1,139.475,392.524Z" transform="translate(-137.23 -391.4)" fill="#606770"/>
      <path id="Trazado_170497" data-name="Trazado 170497" d="M141.147,392.524a1.122,1.122,0,1,1-1.121-1.124A1.122,1.122,0,0,1,141.147,392.524Z" transform="translate(-133.682 -391.4)" fill="#606770"/>
      <path id="Trazado_170498" data-name="Trazado 170498" d="M142.819,392.524A1.122,1.122,0,1,1,141.7,391.4,1.122,1.122,0,0,1,142.819,392.524Z" transform="translate(-130.134 -391.4)" fill="#606770"/>
    </g>
    <g id="Grupo_111558" data-name="Grupo 111558" transform="translate(133.292 693.569)">
      <path id="Trazado_170499" data-name="Trazado 170499" d="M91.842,388.447c-6.462,0-11.707,4.78-11.707,10.677a10.344,10.344,0,0,0,4.358,8.311v4.9l4.28-2.9a12.85,12.85,0,0,0,3.069.375c6.469,0,11.714-4.783,11.714-10.68S98.311,388.447,91.842,388.447Z" transform="translate(-80.135 -388.447)" fill="none" stroke="#606770" stroke-linecap="round" stroke-linejoin="round" stroke-width="0.4"/>
      <path id="Trazado_170500" data-name="Trazado 170500" d="M90.279,397.317l-3.116-3.3-5.622,3.3,5.9-6.549,3.116,3.292,5.622-3.292Z" transform="translate(-77.152 -383.521)" fill="#606770"/>
    </g>
    <path id="Trazado_173887" data-name="Trazado 173887" d="M-21.081,0l-1.283-3.568h-4.913L-28.534,0h-2.215l4.808-12.9h2.285L-18.848,0Zm-1.837-5.379-1.2-3.5q-.132-.352-.365-1.107t-.321-1.107A19.7,19.7,0,0,1-25.5-8.728l-1.16,3.349Zm5.766-7.471h3.814a7.24,7.24,0,0,1,3.836.773A2.708,2.708,0,0,1-8.319-9.633,2.961,2.961,0,0,1-8.9-7.761a2.594,2.594,0,0,1-1.67.94v.088A3.316,3.316,0,0,1-8.578-5.726a3.044,3.044,0,0,1,.637,2.035A3.3,3.3,0,0,1-9.149-.98,5.2,5.2,0,0,1-12.511,0h-4.641Zm2.1,5.309h2.021A3.461,3.461,0,0,0-11.1-7.958,1.6,1.6,0,0,0-10.5-9.378a1.422,1.422,0,0,0-.655-1.31,4.09,4.09,0,0,0-2.079-.4h-1.819Zm0,1.705v4.069h2.232a3.286,3.286,0,0,0,1.991-.505,1.866,1.866,0,0,0,.672-1.6,1.694,1.694,0,0,0-.686-1.485,3.633,3.633,0,0,0-2.083-.483Zm21.19-.606A7.029,7.029,0,0,1,4.57-1.564,5.674,5.674,0,0,1,.127.176,5.713,5.713,0,0,1-4.342-1.551,7.073,7.073,0,0,1-5.9-6.46a6.963,6.963,0,0,1,1.569-4.887A5.781,5.781,0,0,1,.145-13.052a5.664,5.664,0,0,1,4.43,1.731A7.022,7.022,0,0,1,6.139-6.442Zm-9.809,0a5.762,5.762,0,0,0,.958,3.6A3.382,3.382,0,0,0,.127-1.617,3.376,3.376,0,0,0,2.953-2.83a5.772,5.772,0,0,0,.954-3.612,5.784,5.784,0,0,0-.945-3.586A3.34,3.34,0,0,0,.145-11.25a3.41,3.41,0,0,0-2.852,1.222A5.706,5.706,0,0,0-3.669-6.442ZM18.971-12.85v8.314a4.931,4.931,0,0,1-.611,2.492A4.07,4.07,0,0,1,16.594-.4,6.14,6.14,0,0,1,13.83.176,5.171,5.171,0,0,1,10.112-1.09,4.581,4.581,0,0,1,8.785-4.57V-12.85h2.109v8.13a3.248,3.248,0,0,0,.738,2.347,3.043,3.043,0,0,0,2.268.756q2.971,0,2.971-3.12V-12.85ZM26.7,0H24.6V-11.048H20.817v-1.8h9.659v1.8H26.7Z" transform="translate(112.506 844.215)" fill="#606770"/>
    <path id="Trazado_173886" data-name="Trazado 173886" d="M-26.3-8.965A3.747,3.747,0,0,1-27.62-5.88a5.808,5.808,0,0,1-3.753,1.072h-1.336V0h-2.1V-12.85h3.7a5.6,5.6,0,0,1,3.608.984A3.534,3.534,0,0,1-26.3-8.965Zm-6.407,2.391h1.116a4,4,0,0,0,2.373-.562,2.047,2.047,0,0,0,.756-1.758,2,2,0,0,0-.677-1.652,3.343,3.343,0,0,0-2.109-.545h-1.459ZM-13.6,0H-15.71V-5.792h-5.924V0h-2.1V-12.85h2.1v5.256h5.924V-12.85H-13.6ZM1.191-6.442A7.029,7.029,0,0,1-.378-1.564,5.674,5.674,0,0,1-4.821.176,5.713,5.713,0,0,1-9.29-1.551,7.073,7.073,0,0,1-10.85-6.46a6.963,6.963,0,0,1,1.569-4.887A5.781,5.781,0,0,1-4.8-13.052,5.664,5.664,0,0,1-.374-11.32,7.022,7.022,0,0,1,1.191-6.442Zm-9.809,0a5.762,5.762,0,0,0,.958,3.6A3.382,3.382,0,0,0-4.821-1.617,3.376,3.376,0,0,0-2-2.83a5.772,5.772,0,0,0,.954-3.612,5.784,5.784,0,0,0-.945-3.586A3.34,3.34,0,0,0-4.8-11.25a3.41,3.41,0,0,0-2.852,1.222A5.706,5.706,0,0,0-8.618-6.442ZM8.389,0h-2.1V-11.048H2.509v-1.8h9.659v1.8H8.389ZM25.545-6.442a7.029,7.029,0,0,1-1.569,4.878A5.674,5.674,0,0,1,19.534.176a5.713,5.713,0,0,1-4.469-1.727A7.073,7.073,0,0,1,13.5-6.46a6.963,6.963,0,0,1,1.569-4.887,5.781,5.781,0,0,1,4.478-1.705,5.664,5.664,0,0,1,4.43,1.731A7.022,7.022,0,0,1,25.545-6.442Zm-9.809,0a5.762,5.762,0,0,0,.958,3.6,3.382,3.382,0,0,0,2.839,1.226A3.376,3.376,0,0,0,22.359-2.83a5.772,5.772,0,0,0,.954-3.612,5.784,5.784,0,0,0-.945-3.586,3.34,3.34,0,0,0-2.817-1.222A3.41,3.41,0,0,0,16.7-10.028,5.706,5.706,0,0,0,15.737-6.442ZM35.714-3.489A3.234,3.234,0,0,1,34.475-.8a5.393,5.393,0,0,1-3.419.976A8.158,8.158,0,0,1,27.488-.5V-2.487a9.7,9.7,0,0,0,1.868.65A7.919,7.919,0,0,0,31.2-1.6a2.929,2.929,0,0,0,1.841-.475,1.548,1.548,0,0,0,.593-1.274,1.6,1.6,0,0,0-.545-1.222,8.2,8.2,0,0,0-2.25-1.187,5.952,5.952,0,0,1-2.479-1.626,3.44,3.44,0,0,1-.721-2.2,3.077,3.077,0,0,1,1.143-2.531,4.74,4.74,0,0,1,3.067-.923,9.012,9.012,0,0,1,3.674.809l-.668,1.714a8.027,8.027,0,0,0-3.059-.721,2.347,2.347,0,0,0-1.547.444,1.458,1.458,0,0,0-.527,1.173,1.652,1.652,0,0,0,.211.857,2.155,2.155,0,0,0,.694.672,11.745,11.745,0,0,0,1.74.835,9.522,9.522,0,0,1,2.074,1.1A3.231,3.231,0,0,1,35.407-5,3.463,3.463,0,0,1,35.714-3.489Z" transform="translate(226.994 844.215)" fill="#606770"/>
    <path id="Trazado_173888" data-name="Trazado 173888" d="M-33.135,0h-2.083V-12.85h7.251v1.775h-5.168v4.017h4.843v1.784h-4.843Zm9.6-6.873h1.459a3.331,3.331,0,0,0,2.127-.545,1.977,1.977,0,0,0,.659-1.617A1.741,1.741,0,0,0-20-10.6a3.9,3.9,0,0,0-2.145-.475h-1.389Zm0,1.74V0h-2.1V-12.85h3.63a5.964,5.964,0,0,1,3.683.932,3.345,3.345,0,0,1,1.2,2.813,3.516,3.516,0,0,1-2.5,3.419L-16,0h-2.391l-3.076-5.133ZM-14.133,0V-12.85h2.1V0ZM-1.371,0H-8.64V-12.85h7.269v1.775H-6.539v3.5H-1.7v1.758H-6.539v4.034h5.168ZM12.111,0H9.536L3.217-10.239h-.07l.044.571q.123,1.635.123,2.988V0H1.406V-12.85H3.955l6.3,10.187h.053q-.018-.2-.07-1.472t-.053-1.982V-12.85h1.925ZM25.954-6.548a6.4,6.4,0,0,1-1.767,4.865A7.1,7.1,0,0,1,19.1,0H15.5V-12.85h3.973A6.573,6.573,0,0,1,24.249-11.2,6.174,6.174,0,0,1,25.954-6.548Zm-2.215.07q0-4.614-4.315-4.614H17.6v9.325H19.1Q23.739-1.767,23.739-6.478ZM36.123-3.489A3.234,3.234,0,0,1,34.884-.8a5.393,5.393,0,0,1-3.419.976A8.158,8.158,0,0,1,27.9-.5V-2.487a9.7,9.7,0,0,0,1.868.65,7.919,7.919,0,0,0,1.841.237,2.929,2.929,0,0,0,1.841-.475,1.548,1.548,0,0,0,.593-1.274A1.6,1.6,0,0,0,33.5-4.57a8.2,8.2,0,0,0-2.25-1.187,5.952,5.952,0,0,1-2.479-1.626,3.44,3.44,0,0,1-.721-2.2,3.077,3.077,0,0,1,1.143-2.531,4.74,4.74,0,0,1,3.067-.923,9.012,9.012,0,0,1,3.674.809l-.668,1.714a8.027,8.027,0,0,0-3.059-.721,2.347,2.347,0,0,0-1.547.444,1.458,1.458,0,0,0-.527,1.173,1.652,1.652,0,0,0,.211.857,2.155,2.155,0,0,0,.694.672,11.745,11.745,0,0,0,1.74.835,9.522,9.522,0,0,1,2.074,1.1A3.231,3.231,0,0,1,35.815-5,3.463,3.463,0,0,1,36.123-3.489Z" transform="translate(341.725 844.215)" fill="#606770"/>
  </g>
</svg>
