<svg xmlns="http://www.w3.org/2000/svg" xmlns:xlink="http://www.w3.org/1999/xlink" width="77" height="76" viewBox="0 0 77 76">
  <defs>
    <clipPath id="clip-path">
      <rect id="Rectángulo_5173" data-name="Rectángulo 5173" width="55" height="55" transform="translate(-0.024 -0.211)" fill="#fff" stroke="#707070" stroke-width="1"/>
    </clipPath>
  </defs>
  <g id="Grupo_111113" data-name="Grupo 111113" transform="translate(0 0.211)">
    <circle id="Elipse_4052" data-name="Elipse 4052" cx="34" cy="34" r="34" transform="translate(0 7.789)" fill="#ffcf19"/>
    <g id="Enmascarar_grupo_46" data-name="Enmascarar grupo 46" transform="translate(22.024 0)" clip-path="url(#clip-path)">
      <g id="cuenta-privada" transform="translate(9.968 0)">
        <g id="Grupo_53780" data-name="Grupo 53780" transform="translate(0.807 0.804)">
          <path id="Trazado_100493" data-name="Trazado 100493" d="M30.2,5.181C28.39.444,8.645-3.871,11.756,16.606H30.2Z" transform="translate(-8.414 -1.241)" fill="#56788b"/>
          <path id="Trazado_100494" data-name="Trazado 100494" d="M47.635,17.889c5.412-8.758-9.591-20.18-9.308-5.267v4.888Z" transform="translate(-17.888 -2.705)" fill="#415e6f"/>
          <path id="Trazado_100495" data-name="Trazado 100495" d="M39.756,42.711H8.362c1.727-4.488,1.849-12.688,1.849-12.688h27.7S38.029,38.223,39.756,42.711Z" transform="translate(-7.335 -11.379)" fill="#56788b"/>
          <path id="Trazado_100496" data-name="Trazado 100496" d="M48.3,42.711H32.612V30.023H46.448S46.57,38.223,48.3,42.711Z" transform="translate(-15.876 -11.379)" fill="#415e6f"/>
          <g id="Grupo_53777" data-name="Grupo 53777" transform="translate(0 35.57)">
            <path id="Trazado_100497" data-name="Trazado 100497" d="M40.247,74.032H6.777c0-14.914,5.774-17.405,10.51-17.806,1.174-.1,2.285-.07,3.229-.07h5.992c.936,0,2.037-.029,3.2.068,4.741.395,10.537,2.866,10.537,17.809Z" transform="translate(-6.777 -56.152)" fill="#4dd4f7"/>
            <path id="Trazado_100498" data-name="Trazado 100498" d="M50.732,74.032H48.581c0-14.942-5.8-17.414-10.537-17.809-.516-.043-1.02-.061-1.5-.068h.45c.936,0,2.037-.029,3.2.068C44.935,56.618,50.732,59.09,50.732,74.032Z" transform="translate(-17.261 -56.152)" fill="#00c2f3"/>
          </g>
          <path id="Trazado_100499" data-name="Trazado 100499" d="M35.452,56.268a6.233,6.233,0,0,1-12.45,0v-.044c1.174-.1,2.285-.07,3.229-.07h5.992c.936,0,2.037-.029,3.2.068Z" transform="translate(-12.492 -20.582)" fill="#d9f0f4"/>
          <g id="Grupo_53779" data-name="Grupo 53779" transform="translate(2.448 9.703)">
            <g id="Grupo_53778" data-name="Grupo 53778" transform="translate(0 5.099)">
              <path id="Trazado_100500" data-name="Trazado 100500" d="M49.652,24.093H47.776l.012,4.914h1.865a2.457,2.457,0,0,0,0-4.914Z" transform="translate(-23.666 -24.093)" fill="#fab684"/>
              <path id="Trazado_100501" data-name="Trazado 100501" d="M10.556,26.55a2.457,2.457,0,0,0,2.457,2.457h1.865l.012-4.914H13.013A2.457,2.457,0,0,0,10.556,26.55Z" transform="translate(-10.556 -24.093)" fill="#fab684"/>
            </g>
            <path id="Trazado_100502" data-name="Trazado 100502" d="M33.979,50.908H27.986a6.236,6.236,0,0,1,0,3.41,3,3,0,1,0,5.992,0,6.236,6.236,0,0,1,0-3.41Z" transform="translate(-16.696 -28.438)" fill="#fab684"/>
            <path id="Trazado_100503" data-name="Trazado 100503" d="M37.173,29.621c0,2.379-2.023,5.22-6.014,8.448a6.383,6.383,0,0,1-4.005,1.4,6.264,6.264,0,0,1-3.961-1.4C19.2,34.841,17.179,32,17.179,29.621c0-.253.01-.505.03-.754.1-1.038.073-5.776.071-8.836v0a2.655,2.655,0,0,1,1.486-2.452,22.442,22.442,0,0,1,8.409-1.355,27.371,27.371,0,0,1,6.434.7,12.143,12.143,0,0,1,1.976.658,2.656,2.656,0,0,1,1.485,2.452v0c0,3.06-.031,7.8.071,8.836C37.162,29.115,37.173,29.368,37.173,29.621Z" transform="translate(-12.889 -16.221)" fill="#fdd9b4"/>
            <path id="Trazado_100504" data-name="Trazado 100504" d="M42.014,30c0,2.379-2.023,5.22-6.014,8.448A6.383,6.383,0,0,1,32,39.849a6.247,6.247,0,0,1-1.072-.09,6.344,6.344,0,0,0,2.926-1.311C37.84,35.22,39.863,32.379,39.863,30c0-.253-.011-.505-.031-.754-.1-1.038-.073-5.776-.071-8.836v-.756a2.656,2.656,0,0,0-1.31-2.357,12.143,12.143,0,0,1,1.976.658,2.656,2.656,0,0,1,1.485,2.452v0c0,3.06-.031,7.8.071,8.836C42,29.494,42.014,29.747,42.014,30Z" transform="translate(-17.73 -16.599)" fill="#f9c19b"/>
          </g>
        </g>
        <g id="Grupo_53781" data-name="Grupo 53781" transform="translate(0 0)">
          <path id="Trazado_100507" data-name="Trazado 100507" d="M30.14,34.076a.806.806,0,0,0,1.115-.24.423.423,0,0,1,.712,0,.807.807,0,0,0,1.355-.875,2.037,2.037,0,0,0-3.423,0A.806.806,0,0,0,30.14,34.076Z" transform="translate(-14.069 -11.281)" fill="#12263f"/>
          <path id="Trazado_100508" data-name="Trazado 100508" d="M6.98,71.984a.807.807,0,0,0-.93.66,42.151,42.151,0,0,0-.519,6.96.807.807,0,0,0,1.613,0,40.551,40.551,0,0,1,.5-6.691A.807.807,0,0,0,6.98,71.984Z" transform="translate(-5.531 -25.351)" fill="#12263f"/>
          <path id="Trazado_100515" data-name="Trazado 100515" d="M6.216,71.987a.855.855,0,0,1,.948.819,63.4,63.4,0,0,1,.529,8.633.925.925,0,0,1-.822,1,.925.925,0,0,1-.822-1,61,61,0,0,0-.506-8.3,1,1,0,0,1,.673-1.154Z" transform="translate(27.433 -27.297)" fill="#12263f"/>
          <path id="Trazado_100509" data-name="Trazado 100509" d="M37.164,38.987c-3.043-3.412-7.151-3.432-9.914-3.418a6.482,6.482,0,0,1,.055-2.023,6.933,6.933,0,0,0,.817-.571l.041-.034H39.317a.807.807,0,0,0,.753-1.1,22.591,22.591,0,0,1-1.075-4.3.807.807,0,0,0-1.592.264,28.389,28.389,0,0,0,.788,3.518H30.024C32.954,28.6,34.435,26.1,34.435,23.9c0-.274-.011-.551-.034-.821v-.012c-.029-.294-.047-.927-.058-1.746h.989a3.245,3.245,0,0,0,1.386-.309c.04.83.109,1.933.225,3.168a.807.807,0,0,0,.8.731c.025,0,.051,0,.077,0a.807.807,0,0,0,.727-.879c-.223-2.365-.267-4.287-.273-4.563a3.257,3.257,0,0,0-.6-3.672A9.393,9.393,0,0,0,36.31,5.62c-1.94-2.377-4.491-3.436-6.5-2.7a3.786,3.786,0,0,0-.97.527A9.394,9.394,0,0,0,24.52.769,14.14,14.14,0,0,0,16.646.393a9.359,9.359,0,0,0-6.029,4.7C9.174,7.787,8.759,11.413,9.381,15.878a3.256,3.256,0,0,0-.421,3.79c-.036,1.353-.294,8.29-1.79,12.179a.807.807,0,0,0,.753,1.1H19.1l.04.032a7.038,7.038,0,0,0,.818.573,6.482,6.482,0,0,1,.054,2.022c-3.685-.019-9.748.023-12.492,8.038a.807.807,0,1,0,1.526.522c1.7-4.969,4.723-6.394,7.641-6.8a7.042,7.042,0,0,0,13.886.007,8.49,8.49,0,0,1,5.386,2.719.807.807,0,1,0,1.2-1.074ZM35.331,19.713h-1c0-1.049,0-2.209,0-3.3h1a1.649,1.649,0,1,1,0,3.3ZM30.365,4.436c1.333-.489,3.219.4,4.695,2.2A7.819,7.819,0,0,1,36.3,14.948a3.253,3.253,0,0,0-.967-.146h-1q0-.242,0-.475A3.468,3.468,0,0,0,32.4,11.141l-.027-.013a16.568,16.568,0,0,0-4.228-1.117c.05-3.054.848-5.071,2.224-5.576ZM12.039,5.857a7.683,7.683,0,0,1,5.018-3.9,12.489,12.489,0,0,1,6.95.346,7.389,7.389,0,0,1,3.734,2.373A10.136,10.136,0,0,0,26.53,9.826c-.916-.08-1.877-.121-2.863-.121H23.6c-.759,0-1.518.025-2.257.075a.807.807,0,1,0,.109,1.61c.7-.048,1.426-.072,2.15-.072h.064A21.691,21.691,0,0,1,31.7,12.6a1.851,1.851,0,0,1,1.021,1.7c0,.007,0,.017,0,.024,0,.5,0,1.037,0,1.6-.006,2.994-.012,6.387.077,7.306.018.224.028.453.028.681,0,2.092-1.976,4.795-5.716,7.818a5.608,5.608,0,0,1-3.484,1.22h-.028a5.469,5.469,0,0,1-3.438-1.221C16.417,28.7,14.441,26,14.441,23.905c0-.228.009-.457.028-.681.089-.919.083-4.312.077-7.307,0-.562,0-1.1,0-1.6q0-.01,0-.021a1.851,1.851,0,0,1,1.021-1.7,12.29,12.29,0,0,1,2.288-.715.807.807,0,0,0-.348-1.575,13.835,13.835,0,0,0-2.61.822l-.027.013a3.468,3.468,0,0,0-1.937,3.186q0,.231,0,.474H11.8a3.253,3.253,0,0,0-.915.131c-.437-3.782-.051-6.831,1.152-9.075Zm.894,13.855H11.8a1.649,1.649,0,1,1,0-3.3h1.132c0,1.089,0,2.249,0,3.3ZM9.049,31.329a47.553,47.553,0,0,0,1.474-10.264,3.247,3.247,0,0,0,1.278.261H12.92c-.011.819-.029,1.452-.058,1.746v.012c-.022.27-.034.546-.034.821,0,2.2,1.482,4.691,4.411,7.425H9.049Zm14.54,3.226h.037a7.226,7.226,0,0,0,1.97-.274,6.47,6.47,0,0,0,.22,2.223,2.19,2.19,0,0,1-4.372,0,6.464,6.464,0,0,0,.221-2.218A7.035,7.035,0,0,0,23.59,34.556Zm.042,7.036A5.42,5.42,0,0,1,18.3,37.2c.555-.021,1.1-.021,1.612-.018a3.8,3.8,0,0,0,7.434,0c.508,0,1.05,0,1.611.02A5.419,5.419,0,0,1,23.632,41.591Z" transform="translate(-6.089 0)" fill="#12263f"/>
          <path id="Trazado_100511" data-name="Trazado 100511" d="M28.7,41.141h4.454a.807.807,0,0,0,0-1.613H28.7a.807.807,0,0,0,0,1.613Z" transform="translate(-13.408 -13.923)" fill="#12263f"/>
          <path id="Trazado_100513" data-name="Trazado 100513" d="M19.067,78.19a1.015,1.015,0,0,0-.733.317c-.316.311-.737.99-.737,3.288a.807.807,0,0,0,1.613,0,5.68,5.68,0,0,1,.242-2.1.807.807,0,0,0-.384-1.508Z" transform="translate(-9.781 -27.54)" fill="#12263f"/>
          <path id="Trazado_100514" data-name="Trazado 100514" d="M45.66,78.506a1.018,1.018,0,0,0-.733-.317A.807.807,0,0,0,44.55,79.7a6.042,6.042,0,0,1,.234,2.093.807.807,0,1,0,1.613,0C46.4,79.5,45.976,78.817,45.66,78.506Z" transform="translate(-19.128 -27.54)" fill="#12263f"/>
        </g>
      </g>
    </g>
    <path id="Trazado_173870" data-name="Trazado 173870" d="M-20.354-2.653V0h-1.885V-7.82h3.121a3.635,3.635,0,0,1,1.587.33,2.489,2.489,0,0,1,1.069.94,2.567,2.567,0,0,1,.379,1.383A2.263,2.263,0,0,1-16.9-3.338a3.4,3.4,0,0,1-2.248.685Zm0-1.456h1.235a1.165,1.165,0,0,0,.835-.274A1.018,1.018,0,0,0-18-5.156a1.258,1.258,0,0,0-.3-.875,1.046,1.046,0,0,0-.806-.333h-1.257ZM-8.946-7.82V-2.7A2.942,2.942,0,0,1-9.316-1.2a2.4,2.4,0,0,1-1.063.969,3.746,3.746,0,0,1-1.638.333,3.237,3.237,0,0,1-2.25-.741,2.644,2.644,0,0,1-.838-2.03V-7.82h1.9v5.194q.032,1.284,1.192,1.284a1.154,1.154,0,0,0,.886-.322,1.506,1.506,0,0,0,.3-1.047V-7.82Zm-2.874-2.095h1.912L-11.4-8.229l-1.477,0ZM-7.769,0V-7.82H-4.96a3.978,3.978,0,0,1,2.3.553,1.841,1.841,0,0,1,.787,1.606,1.861,1.861,0,0,1-.279,1.037,1.627,1.627,0,0,1-.822.634,1.648,1.648,0,0,1,.94.6,1.749,1.749,0,0,1,.328,1.074A2.071,2.071,0,0,1-2.438-.588,3.463,3.463,0,0,1-4.595,0Zm1.885-3.325V-1.45h1.235a1.175,1.175,0,0,0,.784-.234.818.818,0,0,0,.274-.658.867.867,0,0,0-.972-.983Zm0-1.235H-4.9a1.4,1.4,0,0,0,.881-.226.8.8,0,0,0,.263-.652.843.843,0,0,0-.285-.714A1.524,1.524,0,0,0-4.96-6.37h-.924Zm7.1,3.11H4.493V0H-.674V-7.82H1.211ZM7.3,0H5.417V-7.82H7.3Zm7.638-2.648a2.856,2.856,0,0,1-.44,1.442,2.658,2.658,0,0,1-1.131.969A3.848,3.848,0,0,1,11.7.107a3.071,3.071,0,0,1-2.428-1,4.147,4.147,0,0,1-.886-2.836V-4.12a4.734,4.734,0,0,1,.4-2.011A3.032,3.032,0,0,1,9.939-7.463a3.214,3.214,0,0,1,1.74-.47,3.371,3.371,0,0,1,2.288.749,2.96,2.96,0,0,1,.983,2.065h-1.88a1.4,1.4,0,0,0-.36-1.026,1.48,1.48,0,0,0-1.031-.312,1.126,1.126,0,0,0-1.031.526A3.383,3.383,0,0,0,10.3-4.249V-3.7a3.743,3.743,0,0,0,.314,1.789A1.15,1.15,0,0,0,11.7-1.37a1.448,1.448,0,0,0,.994-.306,1.3,1.3,0,0,0,.365-.972Zm7.514-1.1a4.612,4.612,0,0,1-.424,2.025A3.136,3.136,0,0,1,20.818-.368a3.358,3.358,0,0,1-1.781.475,3.405,3.405,0,0,1-1.772-.459A3.131,3.131,0,0,1,16.06-1.665a4.479,4.479,0,0,1-.454-1.96v-.44a4.632,4.632,0,0,1,.422-2.028A3.128,3.128,0,0,1,17.236-7.45a3.381,3.381,0,0,1,1.791-.478,3.348,3.348,0,0,1,1.772.473A3.185,3.185,0,0,1,22.011-6.11a4.5,4.5,0,0,1,.438,2Zm-1.917-.328a3.289,3.289,0,0,0-.389-1.77,1.249,1.249,0,0,0-1.115-.6q-1.418,0-1.5,2.127l-.005.575A3.382,3.382,0,0,0,17.9-1.982a1.247,1.247,0,0,0,1.133.618,1.232,1.232,0,0,0,1.1-.607,3.29,3.29,0,0,0,.392-1.746Z" transform="translate(49 68.789)" fill="#12263f"/>
  </g>
</svg>
