<svg xmlns="http://www.w3.org/2000/svg" xmlns:xlink="http://www.w3.org/1999/xlink" width="83" height="76" viewBox="0 0 83 76">
  <defs>
    <clipPath id="clip-path">
      <rect id="Rectángulo_5172" data-name="Rectángulo 5172" width="55" height="55" transform="translate(0.061 -0.211)" fill="#fff" stroke="#707070" stroke-width="1"/>
    </clipPath>
  </defs>
  <g id="Grupo_111114" data-name="Grupo 111114" transform="translate(0.085 0.211)">
    <circle id="Elipse_4053" data-name="Elipse 4053" cx="34" cy="34" r="34" transform="translate(-0.085 7.789)" fill="#00ceeb"/>
    <g id="Enmascarar_grupo_45" data-name="Enmascarar grupo 45" transform="translate(27.854 0)" clip-path="url(#clip-path)">
      <g id="cuenta-privada" transform="translate(3.583 0)">
        <g id="Grupo_53775" data-name="Grupo 53775" transform="translate(0.807 0.804)">
          <path id="Trazado_100471" data-name="Trazado 100471" d="M30.2,5.181C28.39.444,8.645-3.871,11.756,16.606H30.2Z" transform="translate(-8.414 -1.241)" fill="#56788b"/>
          <path id="Trazado_100472" data-name="Trazado 100472" d="M47.635,17.889c5.412-8.758-9.591-20.18-9.308-5.267v4.888Z" transform="translate(-17.888 -2.705)" fill="#415e6f"/>
          <path id="Trazado_100473" data-name="Trazado 100473" d="M39.756,42.711H8.362c1.727-4.488,1.849-12.688,1.849-12.688h27.7S38.029,38.223,39.756,42.711Z" transform="translate(-7.335 -11.379)" fill="#56788b"/>
          <path id="Trazado_100474" data-name="Trazado 100474" d="M48.3,42.711H32.612V30.023H46.448S46.57,38.223,48.3,42.711Z" transform="translate(-15.876 -11.379)" fill="#415e6f"/>
          <g id="Grupo_53772" data-name="Grupo 53772" transform="translate(0 35.57)">
            <path id="Trazado_100475" data-name="Trazado 100475" d="M40.247,74.032H6.777c0-14.914,5.774-17.405,10.51-17.806,1.174-.1,2.285-.07,3.229-.07h5.992c.936,0,2.037-.029,3.2.068,4.741.395,10.537,2.866,10.537,17.809Z" transform="translate(-6.777 -56.152)" fill="#4dd4f7"/>
            <path id="Trazado_100476" data-name="Trazado 100476" d="M50.732,74.032H48.581c0-14.942-5.8-17.414-10.537-17.809-.516-.043-1.02-.061-1.5-.068h.45c.936,0,2.037-.029,3.2.068C44.935,56.618,50.732,59.09,50.732,74.032Z" transform="translate(-17.261 -56.152)" fill="#00c2f3"/>
          </g>
          <path id="Trazado_100477" data-name="Trazado 100477" d="M35.452,56.268a6.233,6.233,0,0,1-12.45,0v-.044c1.174-.1,2.285-.07,3.229-.07h5.992c.936,0,2.037-.029,3.2.068Z" transform="translate(-12.492 -20.582)" fill="#d9f0f4"/>
          <g id="Grupo_53774" data-name="Grupo 53774" transform="translate(2.448 9.703)">
            <g id="Grupo_53773" data-name="Grupo 53773" transform="translate(0 5.099)">
              <path id="Trazado_100478" data-name="Trazado 100478" d="M49.652,24.093H47.776l.012,4.914h1.865a2.457,2.457,0,0,0,0-4.914Z" transform="translate(-23.666 -24.093)" fill="#fab684"/>
              <path id="Trazado_100479" data-name="Trazado 100479" d="M10.556,26.55a2.457,2.457,0,0,0,2.457,2.457h1.865l.012-4.914H13.013A2.457,2.457,0,0,0,10.556,26.55Z" transform="translate(-10.556 -24.093)" fill="#fab684"/>
            </g>
            <path id="Trazado_100480" data-name="Trazado 100480" d="M33.979,50.908H27.986a6.236,6.236,0,0,1,0,3.41,3,3,0,1,0,5.992,0,6.236,6.236,0,0,1,0-3.41Z" transform="translate(-16.696 -28.438)" fill="#fab684"/>
            <path id="Trazado_100481" data-name="Trazado 100481" d="M37.173,29.621c0,2.379-2.023,5.22-6.014,8.448a6.383,6.383,0,0,1-4.005,1.4,6.264,6.264,0,0,1-3.961-1.4C19.2,34.841,17.179,32,17.179,29.621c0-.253.01-.505.03-.754.1-1.038.073-5.776.071-8.836v0a2.655,2.655,0,0,1,1.486-2.452,22.442,22.442,0,0,1,8.409-1.355,27.371,27.371,0,0,1,6.434.7,12.143,12.143,0,0,1,1.976.658,2.656,2.656,0,0,1,1.485,2.452v0c0,3.06-.031,7.8.071,8.836C37.162,29.115,37.173,29.368,37.173,29.621Z" transform="translate(-12.889 -16.221)" fill="#fdd9b4"/>
            <path id="Trazado_100482" data-name="Trazado 100482" d="M42.014,30c0,2.379-2.023,5.22-6.014,8.448A6.383,6.383,0,0,1,32,39.849a6.247,6.247,0,0,1-1.072-.09,6.344,6.344,0,0,0,2.926-1.311C37.84,35.22,39.863,32.379,39.863,30c0-.253-.011-.505-.031-.754-.1-1.038-.073-5.776-.071-8.836v-.756a2.656,2.656,0,0,0-1.31-2.357,12.143,12.143,0,0,1,1.976.658,2.656,2.656,0,0,1,1.485,2.452v0c0,3.06-.031,7.8.071,8.836C42,29.494,42.014,29.747,42.014,30Z" transform="translate(-17.73 -16.599)" fill="#f9c19b"/>
          </g>
          <path id="Trazado_100483" data-name="Trazado 100483" d="M69.863,66.4v8.95a1.7,1.7,0,0,1-1.695,1.695H56.182a1.7,1.7,0,0,1-1.695-1.695V66.4a1.7,1.7,0,0,1,1.695-1.695H68.168A1.694,1.694,0,0,1,69.863,66.4Z" transform="translate(-23.581 -23.595)" fill="#90abbd"/>
          <path id="Trazado_100484" data-name="Trazado 100484" d="M76.132,66.4v8.95a1.7,1.7,0,0,1-1.695,1.695H72.286a1.7,1.7,0,0,0,1.695-1.695V66.4a1.694,1.694,0,0,0-1.695-1.695h2.151A1.694,1.694,0,0,1,76.132,66.4Z" transform="translate(-29.851 -23.595)" fill="#56788b"/>
        </g>
        <g id="Grupo_53776" data-name="Grupo 53776" transform="translate(0 0)">
          <path id="Trazado_100485" data-name="Trazado 100485" d="M30.14,34.076a.806.806,0,0,0,1.115-.24.423.423,0,0,1,.712,0,.807.807,0,0,0,1.355-.875,2.037,2.037,0,0,0-3.423,0A.806.806,0,0,0,30.14,34.076Z" transform="translate(-14.069 -11.281)"/>
          <path id="Trazado_100486" data-name="Trazado 100486" d="M6.98,71.984a.807.807,0,0,0-.93.66,42.151,42.151,0,0,0-.519,6.96.807.807,0,0,0,1.613,0,40.551,40.551,0,0,1,.5-6.691A.807.807,0,0,0,6.98,71.984Z" transform="translate(-5.531 -25.351)"/>
          <path id="Trazado_100487" data-name="Trazado 100487" d="M37.164,38.987c-3.043-3.412-7.151-3.432-9.914-3.418a6.482,6.482,0,0,1,.055-2.023,6.933,6.933,0,0,0,.817-.571l.041-.034H39.317a.807.807,0,0,0,.753-1.1,22.591,22.591,0,0,1-1.075-4.3.807.807,0,0,0-1.592.264,28.389,28.389,0,0,0,.788,3.518H30.024C32.954,28.6,34.435,26.1,34.435,23.9c0-.274-.011-.551-.034-.821v-.012c-.029-.294-.047-.927-.058-1.746h.989a3.245,3.245,0,0,0,1.386-.309c.04.83.109,1.933.225,3.168a.807.807,0,0,0,.8.731c.025,0,.051,0,.077,0a.807.807,0,0,0,.727-.879c-.223-2.365-.267-4.287-.273-4.563a3.257,3.257,0,0,0-.6-3.672A9.393,9.393,0,0,0,36.31,5.62c-1.94-2.377-4.491-3.436-6.5-2.7a3.786,3.786,0,0,0-.97.527A9.394,9.394,0,0,0,24.52.769,14.14,14.14,0,0,0,16.646.393a9.359,9.359,0,0,0-6.029,4.7C9.174,7.787,8.759,11.413,9.381,15.878a3.256,3.256,0,0,0-.421,3.79c-.036,1.353-.294,8.29-1.79,12.179a.807.807,0,0,0,.753,1.1H19.1l.04.032a7.038,7.038,0,0,0,.818.573,6.482,6.482,0,0,1,.054,2.022c-3.685-.019-9.748.023-12.492,8.038a.807.807,0,1,0,1.526.522c1.7-4.969,4.723-6.394,7.641-6.8a7.042,7.042,0,0,0,13.886.007,8.49,8.49,0,0,1,5.386,2.719.807.807,0,1,0,1.2-1.074ZM35.331,19.713h-1c0-1.049,0-2.209,0-3.3h1a1.649,1.649,0,1,1,0,3.3ZM30.365,4.436c1.333-.489,3.219.4,4.695,2.2A7.819,7.819,0,0,1,36.3,14.948a3.253,3.253,0,0,0-.967-.146h-1q0-.242,0-.475A3.468,3.468,0,0,0,32.4,11.141l-.027-.013a16.568,16.568,0,0,0-4.228-1.117c.05-3.054.848-5.071,2.224-5.576ZM12.039,5.857a7.683,7.683,0,0,1,5.018-3.9,12.489,12.489,0,0,1,6.95.346,7.389,7.389,0,0,1,3.734,2.373A10.136,10.136,0,0,0,26.53,9.826c-.916-.08-1.877-.121-2.863-.121H23.6c-.759,0-1.518.025-2.257.075a.807.807,0,1,0,.109,1.61c.7-.048,1.426-.072,2.15-.072h.064A21.691,21.691,0,0,1,31.7,12.6a1.851,1.851,0,0,1,1.021,1.7c0,.007,0,.017,0,.024,0,.5,0,1.037,0,1.6-.006,2.994-.012,6.387.077,7.306.018.224.028.453.028.681,0,2.092-1.976,4.795-5.716,7.818a5.608,5.608,0,0,1-3.484,1.22h-.028a5.469,5.469,0,0,1-3.438-1.221C16.417,28.7,14.441,26,14.441,23.905c0-.228.009-.457.028-.681.089-.919.083-4.312.077-7.307,0-.562,0-1.1,0-1.6q0-.01,0-.021a1.851,1.851,0,0,1,1.021-1.7,12.29,12.29,0,0,1,2.288-.715.807.807,0,0,0-.348-1.575,13.835,13.835,0,0,0-2.61.822l-.027.013a3.468,3.468,0,0,0-1.937,3.186q0,.231,0,.474H11.8a3.253,3.253,0,0,0-.915.131c-.437-3.782-.051-6.831,1.152-9.075Zm.894,13.855H11.8a1.649,1.649,0,1,1,0-3.3h1.132c0,1.089,0,2.249,0,3.3ZM9.049,31.329a47.553,47.553,0,0,0,1.474-10.264,3.247,3.247,0,0,0,1.278.261H12.92c-.011.819-.029,1.452-.058,1.746v.012c-.022.27-.034.546-.034.821,0,2.2,1.482,4.691,4.411,7.425H9.049Zm14.54,3.226h.037a7.226,7.226,0,0,0,1.97-.274,6.47,6.47,0,0,0,.22,2.223,2.19,2.19,0,0,1-4.372,0,6.464,6.464,0,0,0,.221-2.218A7.035,7.035,0,0,0,23.59,34.556Zm.042,7.036A5.42,5.42,0,0,1,18.3,37.2c.555-.021,1.1-.021,1.612-.018a3.8,3.8,0,0,0,7.434,0c.508,0,1.05,0,1.611.02A5.419,5.419,0,0,1,23.632,41.591Z" transform="translate(-6.089 0)"/>
          <path id="Trazado_100488" data-name="Trazado 100488" d="M69.425,62.889a.807.807,0,0,0,.807-.807v-1.3a2.5,2.5,0,0,0-2.5-2.5h-.992V53.766a5,5,0,1,0-10,0v4.518h-.992a2.5,2.5,0,0,0-2.5,2.5v8.95a2.5,2.5,0,0,0,2.5,2.5H67.73a2.5,2.5,0,0,0,2.5-2.5V65.85a.807.807,0,0,0-1.613,0v3.886a.889.889,0,0,1-.889.888H55.744a.889.889,0,0,1-.888-.888v-8.95a.889.889,0,0,1,.888-.888H67.73a.889.889,0,0,1,.889.888v1.3A.807.807,0,0,0,69.425,62.889Zm-11.076-4.6V53.766a3.388,3.388,0,1,1,6.775,0v4.518Z" transform="translate(-22.336 -17.176)"/>
          <path id="Trazado_100489" data-name="Trazado 100489" d="M28.7,41.141h4.454a.807.807,0,0,0,0-1.613H28.7a.807.807,0,0,0,0,1.613Z" transform="translate(-13.408 -13.923)"/>
          <path id="Trazado_100490" data-name="Trazado 100490" d="M65.111,71.082v3.51a.807.807,0,0,0,1.613,0v-3.51a.807.807,0,0,0-1.613,0Z" transform="translate(-26.516 -24.753)"/>
          <path id="Trazado_100491" data-name="Trazado 100491" d="M19.067,78.19a1.015,1.015,0,0,0-.733.317c-.316.311-.737.99-.737,3.288a.807.807,0,0,0,1.613,0,5.68,5.68,0,0,1,.242-2.1.807.807,0,0,0-.384-1.508Z" transform="translate(-9.781 -27.54)"/>
          <path id="Trazado_100492" data-name="Trazado 100492" d="M45.66,78.506a1.018,1.018,0,0,0-.733-.317A.807.807,0,0,0,44.55,79.7a6.042,6.042,0,0,1,.234,2.093.807.807,0,1,0,1.613,0C46.4,79.5,45.976,78.817,45.66,78.506Z" transform="translate(-19.128 -27.54)"/>
        </g>
      </g>
    </g>
    <path id="Trazado_173871" data-name="Trazado 173871" d="M-20.883-2.653V0h-1.885V-7.82h3.121a3.635,3.635,0,0,1,1.587.33,2.489,2.489,0,0,1,1.069.94,2.567,2.567,0,0,1,.379,1.383,2.263,2.263,0,0,1-.819,1.829,3.4,3.4,0,0,1-2.248.685Zm0-1.456h1.235a1.165,1.165,0,0,0,.835-.274,1.018,1.018,0,0,0,.287-.773,1.258,1.258,0,0,0-.3-.875,1.046,1.046,0,0,0-.806-.333h-1.257Zm8.18,1.343h-1.021V0h-1.885V-7.82h3.078a3.435,3.435,0,0,1,2.175.617A2.091,2.091,0,0,1-9.571-5.46,2.539,2.539,0,0,1-9.9-4.107a2.345,2.345,0,0,1-1.034.869L-9.3-.081V0h-2.02Zm-1.021-1.45h1.192a1.07,1.07,0,0,0,.808-.283,1.093,1.093,0,0,0,.271-.789,1.106,1.106,0,0,0-.274-.794,1.06,1.06,0,0,0-.806-.288h-1.192ZM-6.424,0H-8.3V-7.82h1.88Zm4.345-2.127L-.521-7.82H1.584L-1.047,0H-3.11L-5.72-7.82h2.089Zm8.271.666H3.609L3.158,0H1.144L4.012-7.82H5.785L8.674,0H6.649ZM4.061-2.917H5.742L4.9-5.629ZM9.244,0V-7.82h2.519a3.706,3.706,0,0,1,1.864.47,3.3,3.3,0,0,1,1.292,1.327,4.005,4.005,0,0,1,.47,1.92v.36a4.029,4.029,0,0,1-.454,1.926A3.318,3.318,0,0,1,13.656-.486,3.624,3.624,0,0,1,11.816,0Zm1.885-6.365V-1.45h.655a1.467,1.467,0,0,0,1.246-.577,2.829,2.829,0,0,0,.435-1.716v-.338A2.806,2.806,0,0,0,13.03-5.79a1.492,1.492,0,0,0-1.268-.575ZM22.978-3.749a4.612,4.612,0,0,1-.424,2.025A3.136,3.136,0,0,1,21.347-.368a3.358,3.358,0,0,1-1.781.475,3.405,3.405,0,0,1-1.772-.459,3.131,3.131,0,0,1-1.206-1.313,4.479,4.479,0,0,1-.454-1.96v-.44a4.632,4.632,0,0,1,.422-2.028A3.128,3.128,0,0,1,17.765-7.45a3.381,3.381,0,0,1,1.791-.478,3.348,3.348,0,0,1,1.772.473A3.185,3.185,0,0,1,22.54-6.11a4.5,4.5,0,0,1,.438,2ZM21.06-4.077a3.289,3.289,0,0,0-.389-1.77,1.249,1.249,0,0,0-1.115-.6q-1.418,0-1.5,2.127l-.005.575a3.382,3.382,0,0,0,.381,1.767,1.247,1.247,0,0,0,1.133.618,1.232,1.232,0,0,0,1.1-.607,3.29,3.29,0,0,0,.392-1.746Z" transform="translate(54.915 68.789)" fill="#12263f"/>
  </g>
</svg>
