<svg xmlns="http://www.w3.org/2000/svg" width="223.017" height="184.438" viewBox="0 0 223.017 184.438">
  <g id="Grupo_115903" data-name="Grupo 115903" transform="translate(1923.017 8482.665)">
    <g id="Background_Complete" data-name="Background Complete" transform="translate(-1897.017 -8482.665)">
      <g id="Grupo_114869" data-name="Grupo 114869" transform="translate(-26 74.194)">
        <path id="Trazado_172704" data-name="Trazado 172704" d="M53.332,215.3v21.572a7.067,7.067,0,0,0,7.067,7.067h77.35a7.067,7.067,0,0,0,7.067-7.067V218.64l9.63-10.117-94.024-.294A7.066,7.066,0,0,0,53.332,215.3Z" transform="translate(-53.332 -208.229)" fill="#f5f5f5"/>
        <g id="Grupo_114866" data-name="Grupo 114866" transform="translate(9.892 10.588)">
          <path id="Trazado_172705" data-name="Trazado 172705" d="M145.366,234.091l-70.19-.324.007-2.157,70.19.324Z" transform="translate(-75.176 -231.609)" fill="#e0e0e0"/>
        </g>
        <g id="Grupo_114867" data-name="Grupo 114867" transform="translate(9.892 17.685)">
          <path id="Trazado_172706" data-name="Trazado 172706" d="M145.366,249.764l-70.19-.324.007-2.157,70.19.324Z" transform="translate(-75.176 -247.282)" fill="#e0e0e0"/>
        </g>
        <g id="Grupo_114868" data-name="Grupo 114868" transform="translate(52.309 24.791)">
          <rect id="Rectángulo_37211" data-name="Rectángulo 37211" width="2.157" height="27.772" transform="translate(0 2.157) rotate(-89.718)" fill="#e0e0e0"/>
        </g>
      </g>
      <g id="Grupo_114873" data-name="Grupo 114873" transform="translate(95.903 148.732)">
        <path id="Trazado_172707" data-name="Trazado 172707" d="M211.6,379.9v21.572a7.067,7.067,0,0,0,7.067,7.067h77.35a7.067,7.067,0,0,0,7.068-7.067V383.239l9.629-10.118-94.024-.294A7.067,7.067,0,0,0,211.6,379.9Z" transform="translate(-211.602 -372.828)" fill="#f5f5f5"/>
        <g id="Grupo_114870" data-name="Grupo 114870" transform="translate(10.228 10.027)">
          <path id="Trazado_172708" data-name="Trazado 172708" d="M304.378,397.453l-70.19-.324.007-2.157,70.19.324Z" transform="translate(-234.188 -394.971)" fill="#e0e0e0"/>
        </g>
        <g id="Grupo_114871" data-name="Grupo 114871" transform="translate(10.228 17.125)">
          <path id="Trazado_172709" data-name="Trazado 172709" d="M304.378,413.126l-70.19-.324.007-2.157,70.19.324Z" transform="translate(-234.188 -410.644)" fill="#e0e0e0"/>
        </g>
        <g id="Grupo_114872" data-name="Grupo 114872" transform="translate(52.645 24.23)">
          <rect id="Rectángulo_37212" data-name="Rectángulo 37212" width="2.157" height="27.772" transform="translate(0 2.157) rotate(-89.718)" fill="#e0e0e0"/>
        </g>
      </g>
      <path id="Trazado_172710" data-name="Trazado 172710" d="M144.63,44.39h45.621a4.089,4.089,0,0,1,4.089,4.089V70.793a4.089,4.089,0,0,1-4.089,4.089H151.539a4.089,4.089,0,0,1-4.089-4.089V47.209Z" transform="translate(-104.548 -44.39)" fill="#f5f5f5"/>
      <g id="Grupo_114877" data-name="Grupo 114877" transform="translate(-17.768 17.006)">
        <path id="Trazado_172711" data-name="Trazado 172711" d="M122,86.631v14.307a4.687,4.687,0,0,1-4.687,4.687h-51.3a4.687,4.687,0,0,1-4.687-4.687V88.849L54.94,82.139l62.361-.195A4.687,4.687,0,0,1,122,86.631Z" transform="translate(-54.94 -81.944)" fill="#e0e0e0"/>
        <g id="Grupo_114874" data-name="Grupo 114874" transform="translate(13.945 7.022)">
          <path id="Trazado_172712" data-name="Trazado 172712" d="M85.738,99.1l46.553-.215,0-1.431-46.553.215Z" transform="translate(-85.733 -97.451)" fill="#f5f5f5"/>
        </g>
        <g id="Grupo_114875" data-name="Grupo 114875" transform="translate(13.945 11.729)">
          <path id="Trazado_172713" data-name="Trazado 172713" d="M85.738,109.491l46.553-.215,0-1.431-46.553.215Z" transform="translate(-85.733 -107.846)" fill="#f5f5f5"/>
        </g>
        <g id="Grupo_114876" data-name="Grupo 114876" transform="translate(13.943 16.442)">
          <rect id="Rectángulo_37213" data-name="Rectángulo 37213" width="18.42" height="1.431" transform="translate(0 0.091) rotate(-0.282)" fill="#f5f5f5"/>
        </g>
      </g>
      <g id="Grupo_114881" data-name="Grupo 114881" transform="translate(129.953 83.353)">
        <path id="Trazado_172714" data-name="Trazado 172714" d="M336.614,233.141v14.308a4.687,4.687,0,0,1-4.687,4.687h-51.3a4.687,4.687,0,0,1-4.687-4.687V235.359l-6.387-6.71,62.361-.2A4.687,4.687,0,0,1,336.614,233.141Z" transform="translate(-269.551 -228.454)" fill="#e0e0e0"/>
        <g id="Grupo_114878" data-name="Grupo 114878" transform="translate(13.944 7.022)">
          <path id="Trazado_172715" data-name="Trazado 172715" d="M300.349,245.607l46.553-.215-.005-1.431-46.553.215Z" transform="translate(-300.344 -243.961)" fill="#f5f5f5"/>
        </g>
        <g id="Grupo_114879" data-name="Grupo 114879" transform="translate(13.944 11.73)">
          <path id="Trazado_172716" data-name="Trazado 172716" d="M300.349,256l46.553-.215-.005-1.431-46.553.215Z" transform="translate(-300.344 -254.356)" fill="#f5f5f5"/>
        </g>
        <g id="Grupo_114880" data-name="Grupo 114880" transform="translate(13.943 16.442)">
          <rect id="Rectángulo_37214" data-name="Rectángulo 37214" width="18.42" height="1.431" transform="translate(0 0.091) rotate(-0.282)" fill="#f5f5f5"/>
        </g>
      </g>
    </g>
    <g id="Device" transform="translate(-1842.933 -8464.942)">
      <g id="Grupo_112107" data-name="Grupo 112107">
        <g id="Grupo_112104" data-name="Grupo 112104">
          <g id="Grupo_112079" data-name="Grupo 112079">
            <g id="Grupo_112078" data-name="Grupo 112078">
              <g id="Grupo_112076" data-name="Grupo 112076">
                <path id="Trazado_172041" data-name="Trazado 172041" d="M244.064,201.684l-50.552-.234a11.011,11.011,0,0,1-10.961-11.058l.536-126.735a11.012,11.012,0,0,1,11.062-10.965l50.552.233a11.012,11.012,0,0,1,10.96,11.058l-.536,126.735A11.012,11.012,0,0,1,244.064,201.684Z" transform="translate(-182.551 -52.693)" fill="#263238"/>
              </g>
              <g id="Grupo_112077" data-name="Grupo 112077" transform="translate(3.357 4.374)">
                <path id="Trazado_172042" data-name="Trazado 172042" d="M248.678,62.576l-9.8-.045a2.434,2.434,0,0,0-2.39,2.477l-.008,1.778a2.434,2.434,0,0,1-2.39,2.477l-19.1-.088a2.437,2.437,0,0,1-2.369-2.5l.008-1.778a2.437,2.437,0,0,0-2.37-2.5l-3.447-.016-8.578-.039a7.712,7.712,0,0,0-7.748,7.68l-.523,123.7a7.712,7.712,0,0,0,7.676,7.745l50.451.233a7.712,7.712,0,0,0,7.748-7.679l.523-123.7A7.712,7.712,0,0,0,248.678,62.576Z" transform="translate(-189.957 -62.343)" fill="#fafafa"/>
              </g>
            </g>
          </g>
          <g id="Grupo_112080" data-name="Grupo 112080" transform="translate(30.844 19.809)">
            <rect id="Rectángulo_37105" data-name="Rectángulo 37105" width="13.016" height="2.388" transform="translate(0.011 0) rotate(0.264)" fill="#455a64"/>
          </g>
          <g id="Grupo_112084" data-name="Grupo 112084" transform="translate(7.038 27.476)">
            <g id="Grupo_112081" data-name="Grupo 112081" transform="translate(4.671 3.469)">
              <path id="Trazado_172043" data-name="Trazado 172043" d="M217.184,139.627a1.185,1.185,0,0,1,.306.044c0-.016.1-.02.285-.042Z" transform="translate(-213.194 -131.167)" fill="#455a64"/>
              <path id="Trazado_172044" data-name="Trazado 172044" d="M216.215,123.188a3.827,3.827,0,0,0-.864-.857,4.045,4.045,0,0,0-4.8,0,4.077,4.077,0,0,0-1.42,1.883,4.084,4.084,0,0,0,.564,3.861c.049.066.1.124.154.184a2.923,2.923,0,0,1,2.455-2.038,1.959,1.959,0,0,1-1.173-1.833,1.844,1.844,0,1,1,3.681.017,1.962,1.962,0,0,1-1.169,1.815,2.872,2.872,0,0,1,2.411,2.032c.05-.059.1-.115.148-.179a4.08,4.08,0,0,0,.564-3.861A3.821,3.821,0,0,0,216.215,123.188Z" transform="translate(-208.658 -121.281)" fill="#fafafa"/>
              <path id="Trazado_172045" data-name="Trazado 172045" d="M216.724,123.814a4.3,4.3,0,0,0-1.495-2.008,4.282,4.282,0,0,0-5.1,0,4.3,4.3,0,0,0-1.5,2.008,4.292,4.292,0,0,0-.174,2.26,4.223,4.223,0,0,0,.818,1.8,4.169,4.169,0,0,0,2.367,1.516,3.333,3.333,0,0,0,.766.094,1.042,1.042,0,0,0,.269-.013,1.185,1.185,0,0,0-.306-.044l.591,0c-.185.022-.286.025-.285.042a1.037,1.037,0,0,0,.268.013,3.33,3.33,0,0,0,.766-.094,4.168,4.168,0,0,0,2.367-1.516,4.229,4.229,0,0,0,.818-1.8A4.3,4.3,0,0,0,216.724,123.814Zm-.041,2.22a4.075,4.075,0,0,1-.752,1.724c-.048.064-.1.12-.148.179a2.872,2.872,0,0,0-2.411-2.032,1.962,1.962,0,0,0,1.169-1.815,1.844,1.844,0,1,0-3.681-.017,1.959,1.959,0,0,0,1.173,1.833,2.923,2.923,0,0,0-2.455,2.038c-.051-.061-.1-.118-.154-.184a4.084,4.084,0,0,1-.564-3.861,4.077,4.077,0,0,1,1.42-1.883,4.045,4.045,0,0,1,4.8,0,4.078,4.078,0,0,1,1.42,1.883A4.1,4.1,0,0,1,216.683,126.033Z" transform="translate(-208.382 -120.963)" fill="#455a64"/>
            </g>
            <g id="Grupo_112083" data-name="Grupo 112083">
              <g id="Grupo_112082" data-name="Grupo 112082">
                <path id="Trazado_172046" data-name="Trazado 172046" d="M256.017,129.058c0-.011.131,0,.376-.05a1.984,1.984,0,0,0,.965-.508,2.012,2.012,0,0,0,.61-1.621c0-.719-.008-1.547-.012-2.479-.006-1.868-.014-4.148-.022-6.8q0-.993-.005-2.055a1.926,1.926,0,0,0-.947-1.761,4.532,4.532,0,0,0-2.224-.259l-2.441,0-52.113.039a1.869,1.869,0,0,0-1.519.785,1.818,1.818,0,0,0-.322.814c-.036.282-.014.615-.021.924q0,1.885,0,3.744,0,3.714,0,7.313a1.847,1.847,0,0,0,.769,1.424,1.792,1.792,0,0,0,.758.323,5.74,5.74,0,0,0,.861.031l3.5,0,6.772,0,23.429.028,15.8.042,4.294.024,1.117.013c.252,0,.38.014.38.014s-.129.009-.38.013l-1.117.013-4.294.025-15.8.042L211,129.18l-6.772,0-3.5,0a5.777,5.777,0,0,1-.906-.034,2.05,2.05,0,0,1-.864-.366,2.107,2.107,0,0,1-.876-1.621q0-3.6-.007-7.325,0-1.858,0-3.744a9.355,9.355,0,0,1,.023-.961,2.084,2.084,0,0,1,.369-.929,2.134,2.134,0,0,1,1.734-.9l52.113.039,2.441,0,1.174,0a2.084,2.084,0,0,1,2.155,2.2q0,1.061,0,2.055c-.009,2.647-.016,4.928-.022,6.8,0,.931-.009,1.759-.012,2.479a2.065,2.065,0,0,1-.652,1.659,1.963,1.963,0,0,1-1,.5A1.422,1.422,0,0,1,256.017,129.058Z" transform="translate(-198.077 -113.309)" fill="#455a64"/>
              </g>
              <rect id="Rectángulo_37106" data-name="Rectángulo 37106" width="14.721" height="1.104" transform="translate(17.043 4.192)" fill="#455a64"/>
              <rect id="Rectángulo_37107" data-name="Rectángulo 37107" width="25.792" height="1.104" transform="translate(17.043 10.431)" fill="#455a64"/>
              <rect id="Rectángulo_37108" data-name="Rectángulo 37108" width="37.377" height="1.104" transform="translate(17.043 7.236)" fill="#455a64"/>
            </g>
          </g>
          <g id="Grupo_112088" data-name="Grupo 112088" transform="translate(7.038 66.534)">
            <g id="Grupo_112085" data-name="Grupo 112085" transform="translate(4.671 3.469)">
              <path id="Trazado_172047" data-name="Trazado 172047" d="M217.184,225.793a1.184,1.184,0,0,1,.306.044c0-.016.1-.02.285-.042Z" transform="translate(-213.194 -217.333)" fill="#455a64"/>
              <path id="Trazado_172048" data-name="Trazado 172048" d="M216.215,209.354a3.826,3.826,0,0,0-.864-.857,4.045,4.045,0,0,0-4.8,0,4.077,4.077,0,0,0-1.42,1.883,4.084,4.084,0,0,0,.564,3.861c.049.066.1.124.154.184a2.923,2.923,0,0,1,2.455-2.038,1.959,1.959,0,0,1-1.173-1.833,1.844,1.844,0,1,1,3.681.017,1.962,1.962,0,0,1-1.169,1.815,2.872,2.872,0,0,1,2.411,2.032c.05-.059.1-.115.148-.179a4.08,4.08,0,0,0,.564-3.861A3.82,3.82,0,0,0,216.215,209.354Z" transform="translate(-208.658 -207.447)" fill="#fafafa"/>
              <path id="Trazado_172049" data-name="Trazado 172049" d="M216.724,209.98a4.3,4.3,0,0,0-1.495-2.008,4.282,4.282,0,0,0-5.1,0,4.3,4.3,0,0,0-1.5,2.008,4.292,4.292,0,0,0-.174,2.26,4.223,4.223,0,0,0,.818,1.8,4.169,4.169,0,0,0,2.367,1.516,3.3,3.3,0,0,0,.766.094,1.034,1.034,0,0,0,.269-.013,1.186,1.186,0,0,0-.306-.044l.591,0c-.185.022-.286.025-.285.042a1.029,1.029,0,0,0,.268.013,3.3,3.3,0,0,0,.766-.094,4.168,4.168,0,0,0,2.367-1.516,4.229,4.229,0,0,0,.818-1.8A4.3,4.3,0,0,0,216.724,209.98Zm-.041,2.22a4.075,4.075,0,0,1-.752,1.724c-.048.064-.1.12-.148.179a2.872,2.872,0,0,0-2.411-2.032,1.962,1.962,0,0,0,1.169-1.815,1.844,1.844,0,1,0-3.681-.017,1.959,1.959,0,0,0,1.173,1.833,2.923,2.923,0,0,0-2.455,2.038c-.051-.061-.1-.118-.154-.184a4.084,4.084,0,0,1-.564-3.861,4.077,4.077,0,0,1,1.42-1.883,4.045,4.045,0,0,1,4.8,0,4.078,4.078,0,0,1,1.42,1.883A4.1,4.1,0,0,1,216.683,212.2Z" transform="translate(-208.382 -207.129)" fill="#455a64"/>
            </g>
            <g id="Grupo_112087" data-name="Grupo 112087">
              <g id="Grupo_112086" data-name="Grupo 112086">
                <path id="Trazado_172050" data-name="Trazado 172050" d="M256.017,215.224c0-.011.131,0,.376-.05a1.984,1.984,0,0,0,.965-.508,2.013,2.013,0,0,0,.61-1.621c0-.719-.008-1.547-.012-2.479-.006-1.868-.014-4.148-.022-6.8q0-.993-.005-2.055a1.926,1.926,0,0,0-.947-1.761,4.532,4.532,0,0,0-2.224-.259l-2.441,0-52.113.039a1.869,1.869,0,0,0-1.519.785,1.818,1.818,0,0,0-.322.814c-.036.282-.014.615-.021.924q0,1.885,0,3.744,0,3.714,0,7.313a1.847,1.847,0,0,0,.769,1.424,1.792,1.792,0,0,0,.758.323,5.736,5.736,0,0,0,.861.031l3.5,0,6.772,0,23.429.028,15.8.042,4.294.025,1.117.013c.252,0,.38.014.38.014s-.129.009-.38.013l-1.117.013-4.294.025-15.8.042L211,215.346l-6.772,0-3.5,0a5.779,5.779,0,0,1-.906-.034,2.05,2.05,0,0,1-.864-.366,2.107,2.107,0,0,1-.876-1.62q0-3.6-.007-7.325,0-1.858,0-3.744a9.355,9.355,0,0,1,.023-.961,2.084,2.084,0,0,1,.369-.929,2.134,2.134,0,0,1,1.734-.9l52.113.039,2.441,0,1.174,0a2.084,2.084,0,0,1,2.155,2.2q0,1.061,0,2.055c-.009,2.647-.016,4.928-.022,6.8,0,.932-.009,1.759-.012,2.479a2.066,2.066,0,0,1-.652,1.659,1.963,1.963,0,0,1-1,.5A1.423,1.423,0,0,1,256.017,215.224Z" transform="translate(-198.077 -199.475)" fill="#455a64"/>
              </g>
              <rect id="Rectángulo_37109" data-name="Rectángulo 37109" width="14.721" height="1.104" transform="translate(17.043 4.192)" fill="#455a64"/>
              <rect id="Rectángulo_37110" data-name="Rectángulo 37110" width="25.792" height="1.104" transform="translate(17.043 10.431)" fill="#455a64"/>
              <rect id="Rectángulo_37111" data-name="Rectángulo 37111" width="37.377" height="1.104" transform="translate(17.043 7.236)" fill="#455a64"/>
            </g>
          </g>
          <g id="Grupo_112092" data-name="Grupo 112092" transform="translate(7.282 46.642)">
            <g id="Grupo_112091" data-name="Grupo 112091" transform="translate(0 0)">
              <rect id="Rectángulo_37112" data-name="Rectángulo 37112" width="15.617" height="59.797" rx="3.932" transform="translate(0 15.617) rotate(-89.836)" fill="#5000a1"/>
              <rect id="Rectángulo_37113" data-name="Rectángulo 37113" width="14.721" height="1.104" transform="translate(16.943 4.108) rotate(0.164)" fill="#fafafa"/>
              <rect id="Rectángulo_37114" data-name="Rectángulo 37114" width="25.792" height="1.104" transform="translate(16.925 10.347) rotate(0.164)" fill="#fafafa"/>
              <rect id="Rectángulo_37115" data-name="Rectángulo 37115" width="37.377" height="1.104" transform="translate(16.934 7.152) rotate(0.164)" fill="#fafafa"/>
              <g id="Grupo_112090" data-name="Grupo 112090" transform="translate(4.572 3.377)">
                <path id="Trazado_172051" data-name="Trazado 172051" d="M215.148,169.327a1.963,1.963,0,0,0,1.131-1.84,1.844,1.844,0,1,0-3.681.062,1.959,1.959,0,0,0,1.212,1.807,2.946,2.946,0,0,0-2.446,2.194,4.173,4.173,0,0,0,2.583,1.322l1.134-.02a4.171,4.171,0,0,0,2.563-1.442A2.9,2.9,0,0,0,215.148,169.327Z" transform="translate(-210.157 -164.415)" fill="#fafafa"/>
                <g id="Grupo_112089" data-name="Grupo 112089">
                  <path id="Trazado_172052" data-name="Trazado 172052" d="M213.076,171.53c0-.029.373-.016,1.007-.2a4.174,4.174,0,0,0,2.217-1.577,4.093,4.093,0,0,0,.485-3.882,4.094,4.094,0,0,0-1.464-1.858,4.057,4.057,0,0,0-4.811.1,4.087,4.087,0,0,0-1.383,1.919,4.092,4.092,0,0,0,.652,3.859,4.174,4.174,0,0,0,2.282,1.48c.641.153,1.016.124,1.014.154a3.173,3.173,0,0,1-1.035-.064A4.169,4.169,0,0,1,209.649,170a4.218,4.218,0,0,1-.853-1.775,4.285,4.285,0,0,1,.126-2.257,4.287,4.287,0,0,1,1.448-2.033,4.27,4.27,0,0,1,5.085-.109,4.291,4.291,0,0,1,1.533,1.969,4.28,4.28,0,0,1,.223,2.249,4.215,4.215,0,0,1-.776,1.81,4.169,4.169,0,0,1-2.328,1.567A3.166,3.166,0,0,1,213.076,171.53Z" transform="translate(-208.702 -163.041)" fill="#fafafa"/>
                </g>
              </g>
            </g>
          </g>
          <g id="Grupo_112093" data-name="Grupo 112093" transform="translate(31.444 130.992)">
            <path id="Trazado_172053" data-name="Trazado 172053" d="M254,342.574a1.053,1.053,0,1,1-1.037-.9A.976.976,0,0,1,254,342.574Z" transform="translate(-251.92 -341.675)" fill="#455a64"/>
          </g>
          <g id="Grupo_112094" data-name="Grupo 112094" transform="translate(34.67 131.006)">
            <path id="Trazado_172054" data-name="Trazado 172054" d="M261.118,342.606a1.053,1.053,0,1,1-1.037-.9A.976.976,0,0,1,261.118,342.606Z" transform="translate(-259.036 -341.707)" fill="#455a64"/>
          </g>
          <g id="Grupo_112095" data-name="Grupo 112095" transform="translate(37.895 131.021)">
            <path id="Trazado_172055" data-name="Trazado 172055" d="M268.233,342.639a1.053,1.053,0,1,1-1.037-.9A.975.975,0,0,1,268.233,342.639Z" transform="translate(-266.151 -341.74)" fill="#455a64"/>
          </g>
          <g id="Grupo_112099" data-name="Grupo 112099" transform="translate(7.038 86.791)">
            <g id="Grupo_112096" data-name="Grupo 112096" transform="translate(4.671 3.469)">
              <path id="Trazado_172056" data-name="Trazado 172056" d="M217.184,270.482a1.2,1.2,0,0,1,.306.044c0-.016.1-.019.285-.041Z" transform="translate(-213.194 -262.021)" fill="#455a64"/>
              <path id="Trazado_172057" data-name="Trazado 172057" d="M216.215,254.043a3.825,3.825,0,0,0-.864-.856,4.046,4.046,0,0,0-4.8,0,4.084,4.084,0,0,0-1.42,1.883,4.084,4.084,0,0,0,.564,3.861c.049.066.1.124.154.185a2.922,2.922,0,0,1,2.455-2.038,1.96,1.96,0,0,1-1.173-1.833,1.844,1.844,0,1,1,3.681.017,1.963,1.963,0,0,1-1.169,1.816,2.872,2.872,0,0,1,2.411,2.032c.05-.059.1-.115.148-.179a4.081,4.081,0,0,0,.564-3.861A3.82,3.82,0,0,0,216.215,254.043Z" transform="translate(-208.658 -252.135)" fill="#fafafa"/>
              <path id="Trazado_172058" data-name="Trazado 172058" d="M216.724,254.668a4.3,4.3,0,0,0-1.495-2.008,4.281,4.281,0,0,0-5.1,0,4.3,4.3,0,0,0-1.5,2.008,4.294,4.294,0,0,0-.174,2.261,4.228,4.228,0,0,0,.818,1.8,4.165,4.165,0,0,0,2.367,1.515,3.331,3.331,0,0,0,.766.094,1.018,1.018,0,0,0,.269-.013,1.2,1.2,0,0,0-.306-.044l.591,0c-.185.022-.286.025-.285.041a1.013,1.013,0,0,0,.268.013,3.329,3.329,0,0,0,.766-.094,4.168,4.168,0,0,0,2.367-1.516,4.226,4.226,0,0,0,.818-1.8A4.3,4.3,0,0,0,216.724,254.668Zm-.041,2.22a4.077,4.077,0,0,1-.752,1.724c-.048.064-.1.119-.148.179a2.872,2.872,0,0,0-2.411-2.032,1.963,1.963,0,0,0,1.169-1.816,1.844,1.844,0,1,0-3.681-.017,1.96,1.96,0,0,0,1.173,1.833,2.922,2.922,0,0,0-2.455,2.038c-.051-.061-.1-.119-.154-.185a4.084,4.084,0,0,1-.564-3.861,4.083,4.083,0,0,1,1.42-1.883,4.046,4.046,0,0,1,4.8,0,4.074,4.074,0,0,1,1.42,1.883A4.1,4.1,0,0,1,216.683,256.888Z" transform="translate(-208.382 -251.817)" fill="#455a64"/>
            </g>
            <g id="Grupo_112098" data-name="Grupo 112098">
              <g id="Grupo_112097" data-name="Grupo 112097">
                <path id="Trazado_172059" data-name="Trazado 172059" d="M256.017,259.913c0-.011.131,0,.376-.05a1.98,1.98,0,0,0,.965-.508,2.011,2.011,0,0,0,.61-1.62c0-.719-.008-1.548-.012-2.479-.006-1.867-.014-4.148-.022-6.8q0-.993-.005-2.055a1.926,1.926,0,0,0-.947-1.761,4.527,4.527,0,0,0-2.224-.259l-2.441,0-52.113.039a1.869,1.869,0,0,0-1.519.786,1.816,1.816,0,0,0-.322.813c-.036.283-.014.615-.021.925q0,1.885,0,3.744,0,3.714,0,7.313a1.848,1.848,0,0,0,.769,1.424,1.8,1.8,0,0,0,.758.323,5.736,5.736,0,0,0,.861.031l3.5,0,6.772,0,23.429.028,15.8.042,4.294.025,1.117.013c.252,0,.38.014.38.014s-.129.009-.38.014l-1.117.013-4.294.024-15.8.042L211,260.034l-6.772,0-3.5,0a5.892,5.892,0,0,1-.906-.034,2.057,2.057,0,0,1-.864-.367,2.107,2.107,0,0,1-.876-1.62q0-3.6-.007-7.325,0-1.859,0-3.744a9.352,9.352,0,0,1,.023-.961,2.088,2.088,0,0,1,.369-.93,2.132,2.132,0,0,1,1.734-.9l52.113.039,2.441,0,1.174,0a2.085,2.085,0,0,1,2.155,2.2q0,1.061,0,2.055c-.009,2.647-.016,4.929-.022,6.8,0,.931-.009,1.76-.012,2.479a2.066,2.066,0,0,1-.652,1.659,1.97,1.97,0,0,1-1,.5A1.4,1.4,0,0,1,256.017,259.913Z" transform="translate(-198.077 -244.164)" fill="#455a64"/>
              </g>
              <rect id="Rectángulo_37116" data-name="Rectángulo 37116" width="14.721" height="1.104" transform="translate(17.043 4.192)" fill="#455a64"/>
              <rect id="Rectángulo_37117" data-name="Rectángulo 37117" width="25.792" height="1.104" transform="translate(17.043 10.431)" fill="#455a64"/>
              <rect id="Rectángulo_37118" data-name="Rectángulo 37118" width="37.377" height="1.104" transform="translate(17.043 7.235)" fill="#455a64"/>
            </g>
          </g>
          <g id="Grupo_112103" data-name="Grupo 112103" transform="translate(7.038 106.644)">
            <g id="Grupo_112100" data-name="Grupo 112100" transform="translate(4.671 3.469)">
              <path id="Trazado_172060" data-name="Trazado 172060" d="M217.184,314.28a1.2,1.2,0,0,1,.306.044c0-.016.1-.019.285-.041Z" transform="translate(-213.194 -305.819)" fill="#455a64"/>
              <path id="Trazado_172061" data-name="Trazado 172061" d="M216.215,297.841a3.825,3.825,0,0,0-.864-.856,4.046,4.046,0,0,0-4.8,0,4.083,4.083,0,0,0-1.42,1.883,4.084,4.084,0,0,0,.564,3.861c.049.066.1.124.154.185a2.922,2.922,0,0,1,2.455-2.038,1.96,1.96,0,0,1-1.173-1.833,1.844,1.844,0,1,1,3.681.017,1.963,1.963,0,0,1-1.169,1.816,2.872,2.872,0,0,1,2.411,2.032c.05-.059.1-.114.148-.178a4.081,4.081,0,0,0,.564-3.861A3.82,3.82,0,0,0,216.215,297.841Z" transform="translate(-208.658 -295.933)" fill="#fafafa"/>
              <path id="Trazado_172062" data-name="Trazado 172062" d="M216.724,298.466a4.3,4.3,0,0,0-1.495-2.008,4.281,4.281,0,0,0-5.1,0,4.3,4.3,0,0,0-1.5,2.008,4.294,4.294,0,0,0-.174,2.26,4.228,4.228,0,0,0,.818,1.8,4.168,4.168,0,0,0,2.367,1.515,3.333,3.333,0,0,0,.766.094,1.013,1.013,0,0,0,.269-.013,1.2,1.2,0,0,0-.306-.044l.591,0c-.185.022-.286.025-.285.041a1.008,1.008,0,0,0,.268.013,3.331,3.331,0,0,0,.766-.094,4.167,4.167,0,0,0,2.367-1.516,4.226,4.226,0,0,0,.818-1.8A4.3,4.3,0,0,0,216.724,298.466Zm-.041,2.22a4.077,4.077,0,0,1-.752,1.724c-.048.064-.1.119-.148.178a2.872,2.872,0,0,0-2.411-2.032,1.963,1.963,0,0,0,1.169-1.816,1.844,1.844,0,1,0-3.681-.017,1.96,1.96,0,0,0,1.173,1.833,2.922,2.922,0,0,0-2.455,2.038c-.051-.061-.1-.119-.154-.185a4.084,4.084,0,0,1-.564-3.861,4.084,4.084,0,0,1,1.42-1.883,4.046,4.046,0,0,1,4.8,0,4.075,4.075,0,0,1,1.42,1.883A4.1,4.1,0,0,1,216.683,300.686Z" transform="translate(-208.382 -295.615)" fill="#455a64"/>
            </g>
            <g id="Grupo_112102" data-name="Grupo 112102">
              <g id="Grupo_112101" data-name="Grupo 112101">
                <path id="Trazado_172063" data-name="Trazado 172063" d="M256.017,303.711c0-.011.131,0,.376-.05a1.98,1.98,0,0,0,.965-.508,2.011,2.011,0,0,0,.61-1.621c0-.719-.008-1.547-.012-2.479-.006-1.868-.014-4.148-.022-6.8q0-.993-.005-2.055a1.926,1.926,0,0,0-.947-1.761,4.527,4.527,0,0,0-2.224-.259l-2.441,0-52.113.039a1.869,1.869,0,0,0-1.519.786,1.816,1.816,0,0,0-.322.813c-.036.283-.014.615-.021.925q0,1.884,0,3.744,0,3.714,0,7.313a1.848,1.848,0,0,0,.769,1.424,1.792,1.792,0,0,0,.758.322,5.682,5.682,0,0,0,.861.032h3.5l6.772,0,23.429.029,15.8.042,4.294.025,1.117.013c.252,0,.38.014.38.014s-.129.009-.38.014l-1.117.013-4.294.024-15.8.042L211,303.832l-6.772,0-3.5,0a5.889,5.889,0,0,1-.906-.034,2.055,2.055,0,0,1-.864-.367,2.107,2.107,0,0,1-.876-1.62q0-3.6-.007-7.325,0-1.859,0-3.744a9.363,9.363,0,0,1,.023-.961,2.088,2.088,0,0,1,.369-.929,2.132,2.132,0,0,1,1.734-.9l52.113.039,2.441,0,1.174,0a2.085,2.085,0,0,1,2.155,2.2q0,1.061,0,2.055c-.009,2.647-.016,4.928-.022,6.8,0,.932-.009,1.76-.012,2.479a2.064,2.064,0,0,1-.652,1.659,1.968,1.968,0,0,1-1,.5A1.406,1.406,0,0,1,256.017,303.711Z" transform="translate(-198.077 -287.962)" fill="#455a64"/>
              </g>
              <rect id="Rectángulo_37119" data-name="Rectángulo 37119" width="14.721" height="1.104" transform="translate(17.043 4.192)" fill="#455a64"/>
              <rect id="Rectángulo_37120" data-name="Rectángulo 37120" width="25.792" height="1.104" transform="translate(17.043 10.431)" fill="#455a64"/>
              <rect id="Rectángulo_37121" data-name="Rectángulo 37121" width="37.377" height="1.104" transform="translate(17.043 7.235)" fill="#455a64"/>
            </g>
          </g>
        </g>
        <g id="Grupo_112106" data-name="Grupo 112106" transform="translate(62.134 44.913)">
          <circle id="Elipse_4181" data-name="Elipse 4181" cx="3.021" cy="3.021" r="3.021" fill="#59ffcc"/>
          <g id="Grupo_112105" data-name="Grupo 112105" transform="translate(1.315 1.923)">
            <path id="Trazado_172064" data-name="Trazado 172064" d="M324.019,158.214a.226.226,0,0,1-.15-.056l-1.268-1.116a.227.227,0,0,1,.3-.34l1.106.973,1.54-1.588a.227.227,0,0,1,.326.315l-1.691,1.743A.226.226,0,0,1,324.019,158.214Z" transform="translate(-322.525 -156.018)" fill="#5000a1"/>
          </g>
        </g>
      </g>
    </g>
    <g id="Speech_Bubbles" data-name="Speech Bubbles" transform="translate(-1905.461 -8433.3)">
      <g id="Grupo_114927" data-name="Grupo 114927" transform="translate(0 59.838)">
        <path id="Trazado_172744" data-name="Trazado 172744" d="M200.017,279.816H91.838a2.936,2.936,0,0,0-2.936,2.936v35.213a2.936,2.936,0,0,0,2.936,2.936h78.568l7.152,7.771s.751-4.368,1.382-7.771h21.077a2.936,2.936,0,0,0,2.936-2.936V282.752A2.936,2.936,0,0,0,200.017,279.816Z" transform="translate(-88.902 -279.816)" fill="#00ceeb"/>
        <g id="Grupo_114926" data-name="Grupo 114926" transform="translate(49.828 12.918)">
          <g id="Grupo_114922" data-name="Grupo 114922" transform="translate(0 5.116)">
            <path id="Trazado_172745" data-name="Trazado 172745" d="M250.639,317.832c0,.069-12.771.124-28.521.124s-28.523-.055-28.523-.124,12.768-.124,28.523-.124S250.639,317.763,250.639,317.832Z" transform="translate(-193.595 -317.708)" fill="#f5f5f5"/>
          </g>
          <g id="Grupo_114923" data-name="Grupo 114923">
            <path id="Trazado_172746" data-name="Trazado 172746" d="M250.639,307.082c0,.068-12.771.124-28.521.124s-28.523-.056-28.523-.124,12.768-.124,28.523-.124S250.639,307.014,250.639,307.082Z" transform="translate(-193.595 -306.958)" fill="#f5f5f5"/>
          </g>
          <g id="Grupo_114924" data-name="Grupo 114924" transform="translate(0 10.176)">
            <path id="Trazado_172747" data-name="Trazado 172747" d="M250.639,328.463c0,.069-12.771.124-28.521.124s-28.523-.055-28.523-.124,12.768-.124,28.523-.124S250.639,328.394,250.639,328.463Z" transform="translate(-193.595 -328.339)" fill="#f5f5f5"/>
          </g>
          <g id="Grupo_114925" data-name="Grupo 114925" transform="translate(0 15.417)">
            <path id="Trazado_172748" data-name="Trazado 172748" d="M230.959,339.475c0,.069-8.365.124-18.681.124s-18.683-.056-18.683-.124,8.363-.124,18.683-.124S230.959,339.407,230.959,339.475Z" transform="translate(-193.595 -339.351)" fill="#f5f5f5"/>
          </g>
        </g>
      </g>
    </g>
    <g id="Character_1" data-name="Character 1" transform="translate(-1908.625 -8402.729)">
      <g id="Grupo_115039" data-name="Grupo 115039">
        <ellipse id="Elipse_4192" data-name="Elipse 4192" cx="20.604" cy="19.655" rx="20.604" ry="19.655" transform="translate(8.448 29.474)" fill="#e0e0e0"/>
        <g id="Grupo_115016" data-name="Grupo 115016" transform="translate(15.479)">
          <path id="Trazado_172792" data-name="Trazado 172792" d="M124.151,221.982c-3.269.17-4.552,3.578-4.943,4.338a6.591,6.591,0,0,0-.524,2.493,5.423,5.423,0,0,1-.627,2.462c-.72,1.148-2.231,1.741-2.643,3.032-.466,1.46.73,3.021.411,4.52-.171.8-.758,1.467-.966,2.263a3.331,3.331,0,0,0,.441,2.471,6.475,6.475,0,0,0,5.431,2.846,19.117,19.117,0,0,0,6.257-1.193" transform="translate(-114.776 -220.242)" fill="#263238"/>
          <path id="Trazado_172793" data-name="Trazado 172793" d="M161.447,230.88a2.036,2.036,0,0,0,.484,2.106,13.117,13.117,0,0,0,1.769,1.442,2.889,2.889,0,0,1,1.208,1.868c.063.7-.286,1.389-.192,2.082.244,1.782,3.086,2.316,3.237,4.108.1,1.193-1.124,2.289-.784,3.438a5.451,5.451,0,0,0,.708,1.174,3.494,3.494,0,0,1-.909,4.224,6.944,6.944,0,0,1-4.354,1.474c-1.313.059-2.8-.156-3.578-1.218-.708-.972-.563-2.3-.421-3.493a122.251,122.251,0,0,0,.435-16.829" transform="translate(-137.689 -224.905)" fill="#263238"/>
          <g id="Grupo_115007" data-name="Grupo 115007" transform="translate(5.466 1.34)">
            <g id="Grupo_115006" data-name="Grupo 115006">
              <g id="Grupo_115005" data-name="Grupo 115005">
                <g id="Grupo_114999" data-name="Grupo 114999" transform="translate(0.054 2.862)">
                  <g id="Grupo_114984" data-name="Grupo 114984">
                    <path id="Trazado_172794" data-name="Trazado 172794" d="M131.088,254.739c.025-2.93,0-6.016,0-6.016s-3.768-.67-4.493-5.6c-.691-4.705.482-14.826.482-14.826h0c5.458-2.153,11.6-1.32,15.427,3.073h0l-.594,23.8a5.1,5.1,0,0,1-5.456,4.807h0A5.393,5.393,0,0,1,131.088,254.739Z" transform="translate(-126.375 -227.155)" fill="#ffbe9d"/>
                  </g>
                  <g id="Grupo_114988" data-name="Grupo 114988" transform="translate(0.699 7.771)">
                    <g id="Grupo_114985" data-name="Grupo 114985" transform="translate(1.025 0.574)">
                      <path id="Trazado_172795" data-name="Trazado 172795" d="M130,245.254a.632.632,0,0,0,.6.644.6.6,0,0,0,.657-.562.632.632,0,0,0-.6-.645A.6.6,0,0,0,130,245.254Z" transform="translate(-129.999 -244.69)" fill="#263238"/>
                    </g>
                    <g id="Grupo_114987" data-name="Grupo 114987">
                      <g id="Grupo_114986" data-name="Grupo 114986">
                        <path id="Trazado_172796" data-name="Trazado 172796" d="M127.854,244.133c.078.083.56-.265,1.24-.256,1.279.185,1.256.381,1.248.273.037-.037-.041-.186-.257-.347a1.733,1.733,0,0,0-1-.32,1.661,1.661,0,0,0-.988.306C127.889,243.947,127.816,244.1,127.854,244.133Z" transform="translate(-127.845 -243.483)" fill="#263238"/>
                      </g>
                    </g>
                  </g>
                  <g id="Grupo_114992" data-name="Grupo 114992" transform="translate(7.788 8.006)">
                    <g id="Grupo_114989" data-name="Grupo 114989" transform="translate(0.892 0.54)">
                      <path id="Trazado_172797" data-name="Trazado 172797" d="M144.614,245.675a.633.633,0,0,0,.6.644.6.6,0,0,0,.657-.562.632.632,0,0,0-.6-.645A.6.6,0,0,0,144.614,245.675Z" transform="translate(-144.614 -245.111)" fill="#263238"/>
                    </g>
                    <g id="Grupo_114991" data-name="Grupo 114991">
                      <g id="Grupo_114990" data-name="Grupo 114990">
                        <path id="Trazado_172798" data-name="Trazado 172798" d="M142.749,244.626c.078.083.561-.265,1.24-.256s1.174.355,1.248.273c.037-.037-.04-.186-.257-.346a1.735,1.735,0,0,0-1-.321,1.666,1.666,0,0,0-.988.306C142.784,244.441,142.711,244.589,142.749,244.626Z" transform="translate(-142.739 -243.976)" fill="#263238"/>
                      </g>
                    </g>
                  </g>
                  <g id="Grupo_114994" data-name="Grupo 114994" transform="translate(3.547 7.872)">
                    <g id="Grupo_114993" data-name="Grupo 114993">
                      <path id="Trazado_172799" data-name="Trazado 172799" d="M135.554,249.354a4.513,4.513,0,0,0-1.1-.212c-.173-.02-.337-.056-.365-.175a.882.882,0,0,1,.122-.513l.528-1.315a22.727,22.727,0,0,0,1.193-3.443,22.748,22.748,0,0,0-1.467,3.339l-.507,1.324a1,1,0,0,0-.1.68.436.436,0,0,0,.282.257,1.205,1.205,0,0,0,.294.044A4.435,4.435,0,0,0,135.554,249.354Z" transform="translate(-133.828 -243.694)" fill="#263238"/>
                    </g>
                  </g>
                  <g id="Grupo_114995" data-name="Grupo 114995" transform="translate(4.711 19.886)">
                    <path id="Trazado_172800" data-name="Trazado 172800" d="M136.273,270.619a12.526,12.526,0,0,0,6.616-1.683s-1.639,3.364-6.563,2.847Z" transform="translate(-136.273 -268.936)" fill="#eb996e"/>
                  </g>
                  <g id="Grupo_114996" data-name="Grupo 114996" transform="translate(5.472 14.722)">
                    <path id="Trazado_172801" data-name="Trazado 172801" d="M137.942,258.537a1.225,1.225,0,0,1,1.1-.442,1.117,1.117,0,0,1,.767.423.708.708,0,0,1,.045.811.822.822,0,0,1-.894.215,2.574,2.574,0,0,1-.862-.529.746.746,0,0,1-.192-.2.228.228,0,0,1,0-.253" transform="translate(-137.873 -258.086)" fill="#eb996e"/>
                  </g>
                  <g id="Grupo_114998" data-name="Grupo 114998" transform="translate(5.081 14.025)">
                    <g id="Grupo_114997" data-name="Grupo 114997">
                      <path id="Trazado_172802" data-name="Trazado 172802" d="M139.237,256.622c-.111-.008-.12.73-.758,1.246s-1.422.426-1.429.529c-.011.046.174.145.505.158a1.835,1.835,0,0,0,1.192-.4,1.6,1.6,0,0,0,.588-1.046C139.368,256.8,139.288,256.618,139.237,256.622Z" transform="translate(-137.05 -256.622)" fill="#263238"/>
                    </g>
                  </g>
                </g>
                <g id="Grupo_115000" data-name="Grupo 115000">
                  <path id="Trazado_172803" data-name="Trazado 172803" d="M140.3,224.7c-1.8,2.57-6.573,5.213-9.989,5.826.4-.525,2.5-1.819,2.9-2.344-1.549,1.157-3.765,2.7-5.819,2.808a1.247,1.247,0,0,1-.706-.11.953.953,0,0,1-.359-.774,20.528,20.528,0,0,1,.142-4.463,4.939,4.939,0,0,1,1.777-3.185,8.526,8.526,0,0,1,4.975-1.31,11.256,11.256,0,0,1,4.383.59,4.112,4.112,0,0,1,2.724,2.875" transform="translate(-126.261 -221.142)" fill="#263238"/>
                </g>
                <g id="Grupo_115001" data-name="Grupo 115001" transform="translate(9.854 0.57)">
                  <path id="Trazado_172804" data-name="Trazado 172804" d="M156.32,236.842a27.88,27.88,0,0,0,.492-3.292c.145-2.542-.589-11.922-9.351-11.167l-.354,2.669s-1.355,9.135,4.314,9.2a10.191,10.191,0,0,0,2.88,5.37s1.486-.045,2.019-2.782" transform="translate(-146.965 -222.339)" fill="#263238"/>
                </g>
                <g id="Grupo_115002" data-name="Grupo 115002" transform="translate(14.067 12.429)">
                  <path id="Trazado_172805" data-name="Trazado 172805" d="M156.059,247.312a2.938,2.938,0,0,1,1.584.12,2.05,2.05,0,0,1,1.148,1.066,2.144,2.144,0,0,1,0,1.574,3.628,3.628,0,0,1-.912,1.314,2.46,2.46,0,0,1-.963.623,1.174,1.174,0,0,1-1.1-.183" transform="translate(-155.816 -247.257)" fill="#ffbe9d"/>
                </g>
                <g id="Grupo_115004" data-name="Grupo 115004" transform="translate(14.554 13.166)">
                  <g id="Grupo_115003" data-name="Grupo 115003">
                    <path id="Trazado_172806" data-name="Trazado 172806" d="M156.85,251.319c-.06.019.165.34.648.216a1.038,1.038,0,0,0,.6-.513,2.336,2.336,0,0,0,.272-.871,1.374,1.374,0,0,0-.212-.93.916.916,0,0,0-.687-.417c-.5-.017-.653.325-.6.336.039.04.233-.134.557-.052a.887.887,0,0,1,.537,1.023c-.065.541-.279,1.035-.569,1.155C157.1,251.416,156.884,251.276,156.85,251.319Z" transform="translate(-156.841 -248.805)" fill="#eb996e"/>
                  </g>
                </g>
              </g>
            </g>
          </g>
          <path id="Trazado_172807" data-name="Trazado 172807" d="M157.507,222.34a2.987,2.987,0,0,0,4.044-1.063,1.913,1.913,0,0,0,.277-1.429,1.966,1.966,0,0,0-1.472-1.276,3.007,3.007,0,0,0-2.763.663,2.639,2.639,0,0,0-.713,2.712,2.353,2.353,0,0,0,2.273,1.568" transform="translate(-136.775 -218.405)" fill="#263238"/>
          <path id="Trazado_172808" data-name="Trazado 172808" d="M156.839,256.445a6.939,6.939,0,0,0-1.362,1.175,2.346,2.346,0,0,0-.588,1.657,4.312,4.312,0,0,1,.11,1,3.336,3.336,0,0,1-.691,1.187,2.822,2.822,0,0,0,.445,3.307,4.579,4.579,0,0,0,3.238,1.316,2.771,2.771,0,0,0,3.146-3.121" transform="translate(-135.307 -238.303)" fill="#263238"/>
          <g id="Grupo_115008" data-name="Grupo 115008" transform="translate(16.875 5.9)">
            <path id="Trazado_172809" data-name="Trazado 172809" d="M155.483,230.724a3.236,3.236,0,0,1-.516.9,10.406,10.406,0,0,1-3.768,3.238,3.245,3.245,0,0,1-.966.376,15.254,15.254,0,0,0,5.25-4.512Z" transform="translate(-150.233 -230.723)" fill="#455a64"/>
          </g>
          <g id="Grupo_115009" data-name="Grupo 115009" transform="translate(18.902 5.853)">
            <path id="Trazado_172810" data-name="Trazado 172810" d="M158.624,230.624a3.9,3.9,0,0,1-.161,1.2,9.7,9.7,0,0,1-2.985,4.96,3.9,3.9,0,0,1-.986.705,12.231,12.231,0,0,0,4.132-6.866Z" transform="translate(-154.491 -230.624)" fill="#455a64"/>
          </g>
          <g id="Grupo_115010" data-name="Grupo 115010" transform="translate(3.971 9.82)">
            <path id="Trazado_172811" data-name="Trazado 172811" d="M123.159,238.958c.073-.005.167.82.451,1.793s.638,1.723.574,1.758a5.637,5.637,0,0,1-1.025-3.551Z" transform="translate(-123.121 -238.958)" fill="#455a64"/>
          </g>
          <g id="Grupo_115011" data-name="Grupo 115011" transform="translate(23.043 10.849)">
            <path id="Trazado_172812" data-name="Trazado 172812" d="M165.149,256.93a1.377,1.377,0,0,0,.725.233,1.482,1.482,0,0,0,.839-.264,1.692,1.692,0,0,0,.635-.962,3.1,3.1,0,0,0,.009-1.434c-.1-.516-.3-1.05-.48-1.633a4.308,4.308,0,0,1-.211-1.918,10.763,10.763,0,0,1,.782-1.889,2.474,2.474,0,0,0-1.445-3.07c-.272-.116-.554-.215-.816-.357a1.664,1.664,0,0,1-.652-.584,2.741,2.741,0,0,1-.295-1.5,5.115,5.115,0,0,0-.049-1.21,1.978,1.978,0,0,0-.357-.82,1.178,1.178,0,0,0-.642-.4.434.434,0,0,1,.208.016.993.993,0,0,1,.508.318,2.012,2.012,0,0,1,.419.851,4.994,4.994,0,0,1,.089,1.241,2.606,2.606,0,0,0,.293,1.387,2.647,2.647,0,0,0,1.383.841,2.7,2.7,0,0,1,1.591,3.363,11.411,11.411,0,0,0-.777,1.849,4.124,4.124,0,0,0,.191,1.812c.167.574.364,1.119.462,1.659a3.233,3.233,0,0,1-.042,1.522,1.816,1.816,0,0,1-.727,1.029,1.548,1.548,0,0,1-.919.246,1.12,1.12,0,0,1-.57-.187A.52.52,0,0,1,165.149,256.93Z" transform="translate(-163.191 -241.12)" fill="#455a64"/>
          </g>
          <g id="Grupo_115012" data-name="Grupo 115012" transform="translate(21.562 18.177)">
            <path id="Trazado_172813" data-name="Trazado 172813" d="M160.083,264.664c.022-.014.062.153.293.257a.781.781,0,0,0,.923-.25,1.457,1.457,0,0,0-.077-1.49,6.241,6.241,0,0,1-.948-1.851,1.339,1.339,0,0,1,.265-1.1c.233-.287.506-.479.685-.714a2.074,2.074,0,0,0,.331-1.52,5.9,5.9,0,0,0-.273-1.08,1.418,1.418,0,0,1-.11-.4,1.321,1.321,0,0,1,.2.367,4.635,4.635,0,0,1,.356,1.089,2.2,2.2,0,0,1-.323,1.683c-.2.273-.479.474-.675.726a1.1,1.1,0,0,0-.212.908,6.627,6.627,0,0,0,.907,1.786,1.617,1.617,0,0,1,.016,1.7.853.853,0,0,1-.6.33.835.835,0,0,1-.505-.1C160.078,264.852,160.074,264.656,160.083,264.664Z" transform="translate(-160.081 -256.517)" fill="#455a64"/>
          </g>
          <g id="Grupo_115013" data-name="Grupo 115013" transform="translate(1.49 13.038)">
            <path id="Trazado_172814" data-name="Trazado 172814" d="M119.325,257.762a2.118,2.118,0,0,1-.387-.386,4.7,4.7,0,0,1-.831-1.251,2.5,2.5,0,0,1-.2-1.039,1.81,1.81,0,0,1,.419-1.153c.3-.343.723-.519.981-.84a1.4,1.4,0,0,0,.2-1.225,5.221,5.221,0,0,0-.522-1.258,4.318,4.318,0,0,1-.463-1.249,1.633,1.633,0,0,1,.245-1.2,4.192,4.192,0,0,1,.725-.756,2.173,2.173,0,0,0,.813-1.159,1.43,1.43,0,0,0-.02-.524c.006,0,.038.037.072.126a.849.849,0,0,1,.044.414,2.164,2.164,0,0,1-.789,1.274,4.222,4.222,0,0,0-.672.739,1.429,1.429,0,0,0-.192,1.052,4.231,4.231,0,0,0,.454,1.175,5.3,5.3,0,0,1,.548,1.314,1.636,1.636,0,0,1-.25,1.433c-.324.38-.749.545-1,.837a1.617,1.617,0,0,0-.386,1.01,2.379,2.379,0,0,0,.158.966,5.318,5.318,0,0,0,.742,1.255A2.543,2.543,0,0,1,119.325,257.762Z" transform="translate(-117.907 -245.72)" fill="#455a64"/>
          </g>
          <g id="Grupo_115014" data-name="Grupo 115014" transform="translate(20.067 2.499)">
            <path id="Trazado_172815" data-name="Trazado 172815" d="M159.629,225.635a4.811,4.811,0,0,0-2.689-2.034,2.846,2.846,0,0,1,2.689,2.034Z" transform="translate(-156.94 -223.576)" fill="#e8505b"/>
          </g>
          <g id="Grupo_115015" data-name="Grupo 115015" transform="translate(22.441)">
            <path id="Trazado_172816" data-name="Trazado 172816" d="M162.929,218.327c.025-.016.185.17.313.54a2.578,2.578,0,0,1-.77,2.785c-.3.251-.532.329-.545.3s.175-.163.425-.43a2.831,2.831,0,0,0,.721-2.611A3.6,3.6,0,0,1,162.929,218.327Z" transform="translate(-161.926 -218.326)" fill="#455a64"/>
          </g>
        </g>
        <path id="Trazado_172817" data-name="Trazado 172817" d="M113.254,338.423s11.825,11.228,18.854,9.2,9.11-7.307,9.11-7.307l.17-1.889-.7-.461-27.062-2.191Z" transform="translate(-98.5 -279.874)" opacity="0.3"/>
        <g id="Grupo_115038" data-name="Grupo 115038" transform="translate(0 27.916)">
          <g id="Grupo_115019" data-name="Grupo 115019" transform="translate(7.357 1.114)">
            <path id="Trazado_172818" data-name="Trazado 172818" d="M98.555,312.8l2.281-5.847,8.173,5.135-7.283,11.231A19.271,19.271,0,0,1,98.555,312.8Z" transform="translate(-98.154 -293.804)" fill="#eb996e"/>
            <g id="Grupo_115018" data-name="Grupo 115018">
              <g id="Grupo_115017" data-name="Grupo 115017">
                <path id="Trazado_172819" data-name="Trazado 172819" d="M107.337,282.164a29.181,29.181,0,0,1,8.728-2.559h0c1.429,2.861,5.935,3.225,8.662,1.272l2.3-1.555a8.346,8.346,0,0,1,.964.039,12.285,12.285,0,0,1,10.881,9.783,24.532,24.532,0,0,1,.575,6.184c-.3,5.2-5.684,5.669-5.684,5.669s-.277,5.14-.641,9.29h0A7.75,7.75,0,0,1,128.413,317a19.125,19.125,0,0,1-6,1.851,20.16,20.16,0,0,1-17.887-6.194c.817-4.952,1.6-11.365,1.542-11.652a.143.143,0,0,1,.009-.095l-5.337-4.738-3.025-2.54s6.638-9.852,9.625-11.474" transform="translate(-97.712 -279.32)" fill="#5000a1"/>
              </g>
            </g>
          </g>
          <g id="Grupo_115020" data-name="Grupo 115020" transform="translate(15.255 6.62)">
            <path id="Trazado_172820" data-name="Trazado 172820" d="M122.647,291.431a2.835,2.835,0,0,0-1.319-.365,2.171,2.171,0,0,0-1.361.472,5.822,5.822,0,0,0-.606.651,1.577,1.577,0,0,1-.863.573,1.406,1.406,0,0,1-1.006-.269c-.274-.175-.508-.367-.749-.505a1.633,1.633,0,0,0-1.4-.122,1.844,1.844,0,0,0-.811.56c-.15.185-.2.311-.225.3a.728.728,0,0,1,.147-.359,1.842,1.842,0,0,1,2.4-.58c.266.146.506.337.766.5a1.181,1.181,0,0,0,.832.231,1.368,1.368,0,0,0,.728-.492,5.455,5.455,0,0,1,.643-.666,2.281,2.281,0,0,1,1.506-.469,2.17,2.17,0,0,1,1.019.291C122.564,291.314,122.654,291.422,122.647,291.431Z" transform="translate(-114.307 -290.888)" fill="#fafafa"/>
          </g>
          <g id="Grupo_115021" data-name="Grupo 115021" transform="translate(20.703 12.167)">
            <path id="Trazado_172821" data-name="Trazado 172821" d="M134.067,304.643a2.836,2.836,0,0,0-1.134-.767,2.169,2.169,0,0,0-1.44.012,5.752,5.752,0,0,0-.782.423,1.577,1.577,0,0,1-1,.267,1.4,1.4,0,0,1-.866-.576c-.2-.254-.365-.511-.549-.719a1.634,1.634,0,0,0-1.284-.561,1.845,1.845,0,0,0-.948.271c-.2.128-.293.23-.31.215s.058-.132.254-.294a1.841,1.841,0,0,1,2.457.217c.205.223.372.482.566.717a1.184,1.184,0,0,0,.715.485,1.366,1.366,0,0,0,.846-.234,5.467,5.467,0,0,1,.822-.426,2.282,2.282,0,0,1,1.577.037,2.176,2.176,0,0,1,.873.6A.808.808,0,0,1,134.067,304.643Z" transform="translate(-125.752 -302.542)" fill="#fafafa"/>
          </g>
          <g id="Grupo_115022" data-name="Grupo 115022" transform="translate(33.183 3.58)">
            <path id="Trazado_172822" data-name="Trazado 172822" d="M159.854,284.785a2.828,2.828,0,0,0-1.367-.078,2.171,2.171,0,0,0-1.23.75,5.694,5.694,0,0,0-.455.764,1.574,1.574,0,0,1-.723.743,1.4,1.4,0,0,1-1.039-.05c-.305-.113-.575-.252-.84-.336a1.633,1.633,0,0,0-1.39.177,1.846,1.846,0,0,0-.674.719c-.107.213-.134.348-.156.343a.725.725,0,0,1,.068-.382,1.841,1.841,0,0,1,2.221-1.074c.29.086.566.223.854.325a1.181,1.181,0,0,0,.863.049,1.369,1.369,0,0,0,.607-.634,5.421,5.421,0,0,1,.487-.788,2.282,2.282,0,0,1,1.373-.777,2.173,2.173,0,0,1,1.058.069A.8.8,0,0,1,159.854,284.785Z" transform="translate(-151.974 -284.501)" fill="#fafafa"/>
          </g>
          <g id="Grupo_115023" data-name="Grupo 115023" transform="translate(29.145 9.79)">
            <path id="Trazado_172823" data-name="Trazado 172823" d="M149.85,299.431a2.439,2.439,0,0,0-.855-.613,1.66,1.66,0,0,0-1.1-.034,4.461,4.461,0,0,0-.613.3,1.241,1.241,0,0,1-.8.174,1.108,1.108,0,0,1-.664-.485c-.149-.2-.264-.408-.4-.573a1.242,1.242,0,0,0-.95-.474,1.732,1.732,0,0,0-.986.311c-.01-.008.044-.106.2-.227a1.371,1.371,0,0,1,.787-.259,1.4,1.4,0,0,1,1.126.5c.152.18.273.386.414.573a.888.888,0,0,0,.517.387c.437.077.839-.317,1.3-.447a1.773,1.773,0,0,1,1.23.089C149.723,298.961,149.875,299.437,149.85,299.431Z" transform="translate(-143.491 -297.549)" fill="#fafafa"/>
          </g>
          <g id="Grupo_115024" data-name="Grupo 115024" transform="translate(16.887 16.368)">
            <path id="Trazado_172824" data-name="Trazado 172824" d="M124.095,313.252a2.414,2.414,0,0,0-.854-.613,1.663,1.663,0,0,0-1.1-.034,4.464,4.464,0,0,0-.613.3,1.238,1.238,0,0,1-.8.174,1.109,1.109,0,0,1-.665-.485c-.149-.2-.263-.408-.4-.573a1.245,1.245,0,0,0-.95-.474,1.729,1.729,0,0,0-.986.311c-.01-.008.044-.106.2-.227a1.37,1.37,0,0,1,.787-.259,1.4,1.4,0,0,1,1.126.5c.153.181.273.386.414.573a.885.885,0,0,0,.518.387c.437.077.839-.317,1.3-.447a1.776,1.776,0,0,1,1.23.09C123.968,312.782,124.12,313.257,124.095,313.252Z" transform="translate(-117.736 -311.369)" fill="#fafafa"/>
          </g>
          <g id="Grupo_115025" data-name="Grupo 115025" transform="translate(28.235 17.913)">
            <path id="Trazado_172825" data-name="Trazado 172825" d="M148.049,315.1a2.435,2.435,0,0,0-1.007-.3,1.658,1.658,0,0,0-1.047.322,4.4,4.4,0,0,0-.483.481,1.242,1.242,0,0,1-.7.423,1.108,1.108,0,0,1-.786-.245c-.208-.145-.382-.3-.56-.414a1.243,1.243,0,0,0-1.052-.141,1.734,1.734,0,0,0-.832.613c-.012,0,.007-.114.116-.279a1.371,1.371,0,0,1,.661-.5,1.4,1.4,0,0,1,1.228.113c.2.122.384.277.577.408a.887.887,0,0,0,.615.2c.439-.069.692-.572,1.082-.843a1.773,1.773,0,0,1,1.192-.313A1.286,1.286,0,0,1,148.049,315.1Z" transform="translate(-141.577 -314.615)" fill="#fafafa"/>
          </g>
          <g id="Grupo_115026" data-name="Grupo 115026" transform="translate(24.449 23.14)">
            <path id="Trazado_172826" data-name="Trazado 172826" d="M140.1,326.084a2.422,2.422,0,0,0-1.007-.3,1.664,1.664,0,0,0-1.047.322,4.413,4.413,0,0,0-.483.481,1.242,1.242,0,0,1-.7.423,1.11,1.11,0,0,1-.786-.244c-.208-.146-.382-.3-.56-.414a1.243,1.243,0,0,0-1.052-.141,1.73,1.73,0,0,0-.832.613c-.012,0,.007-.114.116-.279a1.368,1.368,0,0,1,.661-.5,1.4,1.4,0,0,1,1.228.113c.2.121.384.277.577.407a.885.885,0,0,0,.615.2c.439-.069.692-.572,1.082-.842a1.77,1.77,0,0,1,1.192-.313A1.283,1.283,0,0,1,140.1,326.084Z" transform="translate(-133.624 -325.598)" fill="#fafafa"/>
          </g>
          <g id="Grupo_115027" data-name="Grupo 115027" transform="translate(16.548 34.794)">
            <path id="Trazado_172827" data-name="Trazado 172827" d="M123.4,351.89a2.418,2.418,0,0,0-.863-.6,1.662,1.662,0,0,0-1.1-.019,4.51,4.51,0,0,0-.609.307,1.237,1.237,0,0,1-.8.185,1.106,1.106,0,0,1-.672-.476c-.152-.2-.269-.4-.4-.567a1.244,1.244,0,0,0-.957-.46,1.735,1.735,0,0,0-.981.325c-.01-.008.042-.106.2-.229a1.369,1.369,0,0,1,.783-.27,1.4,1.4,0,0,1,1.133.488c.155.179.278.383.422.566a.883.883,0,0,0,.523.38c.439.07.835-.329,1.29-.465a1.773,1.773,0,0,1,1.231.072C123.269,351.422,123.428,351.9,123.4,351.89Z" transform="translate(-117.024 -350.083)" fill="#fafafa"/>
          </g>
          <g id="Grupo_115028" data-name="Grupo 115028" transform="translate(25.8 38.858)">
            <path id="Trazado_172828" data-name="Trazado 172828" d="M142.942,359.125a2.427,2.427,0,0,0-1-.317,1.663,1.663,0,0,0-1.051.307,4.505,4.505,0,0,0-.49.475,1.241,1.241,0,0,1-.706.414,1.11,1.11,0,0,1-.782-.255c-.206-.149-.377-.307-.554-.422a1.246,1.246,0,0,0-1.05-.156,1.73,1.73,0,0,0-.841.6c-.012,0,.009-.114.12-.278a1.371,1.371,0,0,1,.668-.491,1.4,1.4,0,0,1,1.226.13c.2.124.38.283.571.416a.885.885,0,0,0,.612.208c.44-.063.7-.562,1.093-.828a1.771,1.771,0,0,1,1.2-.3A1.283,1.283,0,0,1,142.942,359.125Z" transform="translate(-136.462 -358.623)" fill="#fafafa"/>
          </g>
          <g id="Grupo_115033" data-name="Grupo 115033">
            <g id="Grupo_115031" data-name="Grupo 115031">
              <g id="Grupo_115030" data-name="Grupo 115030">
                <path id="Trazado_172829" data-name="Trazado 172829" d="M83.712,276.979c.289.34,10.753,14.333,10.753,14.333l-1.473.835L82.254,278.332Z" transform="translate(-82.254 -276.979)" fill="#263238"/>
                <path id="Trazado_172830" data-name="Trazado 172830" d="M128.226,294.228s-9.815,16.926-10.478,17.237c-1.306.613-16.367-12.4-17.8-13.646-.2-.265-.606-.822-1.409-1.932,0,0-1.188-5.437-2.456-5.02s.694,2.763-.131,4.829-4.608-2.862-4.759-3.3l-.975-1.274a16.738,16.738,0,0,0-.954,4.11c.222,3.879,3.892,8.493,3.892,8.493s14.913,18.687,26.2,19.321c3.252.182,9.463-9.179,13.326-16.1,2.333-4.178,1.25-8.422-2.616-11.241Z" transform="translate(-85.924 -284.245)" fill="#ffbe9d"/>
                <g id="Grupo_115029" data-name="Grupo 115029" transform="translate(3.767 8.805)">
                  <path id="Trazado_172831" data-name="Trazado 172831" d="M91.591,298.347a8.934,8.934,0,0,1-1.419-2.867,15.979,15.979,0,0,1,.713,1.432C91.275,297.7,91.628,298.324,91.591,298.347Z" transform="translate(-90.169 -295.479)" fill="#eb996e"/>
                </g>
              </g>
            </g>
            <path id="Trazado_172832" data-name="Trazado 172832" d="M159.688,288.061c-.388.233-9.515,17.176-9.515,17.176l11.748,9.2a136.065,136.065,0,0,0,4.668-13.649,19.612,19.612,0,0,0-.405-7.813c-.878-2.434-2.2-1.828-4.183-3.253Z" transform="translate(-117.847 -282.787)" fill="#5000a1"/>
            <g id="Grupo_115032" data-name="Grupo 115032" transform="translate(32.17 4.785)" opacity="0.7">
              <path id="Trazado_172833" data-name="Trazado 172833" d="M163.375,287.522c-.007.01-.115-.065-.335-.175a1.972,1.972,0,0,0-1.033-.217,2.817,2.817,0,0,0-1.533.64,7.609,7.609,0,0,0-1.529,1.647c-.5.676-.906,1.5-1.407,2.362l-1.57,2.756-3.611,6.307-2.252,3.915-.03-.154,7.949,6.281,2.306,1.851.611.5a1.3,1.3,0,0,1,.2.186,1.355,1.355,0,0,1-.229-.152l-.636-.473-2.35-1.8-8-6.213-.082-.064.052-.091,2.245-3.918,3.627-6.3,1.589-2.744a27.181,27.181,0,0,1,1.446-2.366,7.616,7.616,0,0,1,1.589-1.656,2.882,2.882,0,0,1,1.612-.625,1.944,1.944,0,0,1,1.06.269,1.724,1.724,0,0,1,.238.157C163.353,287.5,163.378,287.519,163.375,287.522Z" transform="translate(-149.845 -287.032)"/>
            </g>
          </g>
          <g id="Grupo_115034" data-name="Grupo 115034" transform="translate(35.832 19.279)">
            <path id="Trazado_172834" data-name="Trazado 172834" d="M163.9,319.369a2.433,2.433,0,0,0-.855-.613,1.664,1.664,0,0,0-1.1-.034,4.578,4.578,0,0,0-.613.3,1.241,1.241,0,0,1-.8.174,1.109,1.109,0,0,1-.664-.486c-.149-.2-.264-.408-.4-.573a1.246,1.246,0,0,0-.95-.474,1.734,1.734,0,0,0-.986.311c-.01-.008.044-.106.2-.227a1.371,1.371,0,0,1,.787-.259,1.4,1.4,0,0,1,1.125.5c.153.181.273.386.414.573a.886.886,0,0,0,.517.387c.437.077.839-.316,1.3-.447a1.773,1.773,0,0,1,1.23.089C163.773,318.9,163.925,319.374,163.9,319.369Z" transform="translate(-157.541 -317.486)" fill="#fafafa"/>
          </g>
          <g id="Grupo_115035" data-name="Grupo 115035" transform="translate(41.815 15.664)">
            <path id="Trazado_172835" data-name="Trazado 172835" d="M175.857,313.2a2.429,2.429,0,0,0-.658-.82,1.661,1.661,0,0,0-1.046-.328,4.49,4.49,0,0,0-.671.123,1.241,1.241,0,0,1-.816-.049,1.108,1.108,0,0,1-.509-.647c-.089-.237-.144-.464-.227-.658a1.245,1.245,0,0,0-.787-.713,1.731,1.731,0,0,0-1.033.034c-.007-.01.071-.09.254-.165a1.371,1.371,0,0,1,.828-.037,1.4,1.4,0,0,1,.948.789c.1.215.158.446.244.663a.887.887,0,0,0,.394.513c.4.192.893-.079,1.368-.081a1.773,1.773,0,0,1,1.16.418A1.284,1.284,0,0,1,175.857,313.2Z" transform="translate(-170.11 -309.89)" fill="#fafafa"/>
          </g>
          <g id="Grupo_115036" data-name="Grupo 115036" transform="translate(42.091 8.66)">
            <path id="Trazado_172836" data-name="Trazado 172836" d="M176.437,298.481a2.421,2.421,0,0,0-.658-.821,1.662,1.662,0,0,0-1.045-.328,4.4,4.4,0,0,0-.671.122,1.239,1.239,0,0,1-.817-.048,1.108,1.108,0,0,1-.509-.647c-.089-.237-.144-.464-.227-.659a1.243,1.243,0,0,0-.787-.712,1.727,1.727,0,0,0-1.033.033c-.007-.01.07-.09.254-.165a1.373,1.373,0,0,1,.828-.037,1.4,1.4,0,0,1,.948.79c.1.215.159.445.244.662a.885.885,0,0,0,.394.513c.4.192.894-.079,1.369-.081a1.773,1.773,0,0,1,1.16.418A1.281,1.281,0,0,1,176.437,298.481Z" transform="translate(-170.69 -295.174)" fill="#fafafa"/>
          </g>
          <g id="Grupo_115037" data-name="Grupo 115037" transform="translate(39.491 24.761)">
            <path id="Trazado_172837" data-name="Trazado 172837" d="M170.976,332.311a2.428,2.428,0,0,0-.658-.821,1.662,1.662,0,0,0-1.046-.328,4.484,4.484,0,0,0-.671.122,1.238,1.238,0,0,1-.816-.048,1.109,1.109,0,0,1-.509-.647c-.089-.237-.144-.464-.227-.659a1.244,1.244,0,0,0-.787-.713,1.731,1.731,0,0,0-1.033.033c-.008-.01.07-.089.254-.164a1.367,1.367,0,0,1,.828-.038,1.4,1.4,0,0,1,.948.79c.1.215.158.446.244.663a.887.887,0,0,0,.394.513c.4.192.893-.079,1.368-.081a1.776,1.776,0,0,1,1.16.418A1.284,1.284,0,0,1,170.976,332.311Z" transform="translate(-165.229 -329.004)" fill="#fafafa"/>
          </g>
        </g>
      </g>
    </g>
  </g>
</svg>
