<?xml version="1.0" encoding="UTF-8" standalone="no"?><!DOCTYPE svg PUBLIC "-//W3C//DTD SVG 1.1//EN" "http://www.w3.org/Graphics/SVG/1.1/DTD/svg11.dtd"><svg width="100%" height="100%" viewBox="0 0 1418 1189" version="1.1" xmlns="http://www.w3.org/2000/svg" xmlns:xlink="http://www.w3.org/1999/xlink" xml:space="preserve" xmlns:serif="http://www.serif.com/" style="fill-rule:evenodd;clip-rule:evenodd;stroke-miterlimit:10;"><g id="Grupo_118084"><path id="Trazado_174274" d="M66.127,1067.21c15.129,8.75 15.129,22.917 0,31.667c-17.202,8.73 -37.581,8.73 -54.783,-0c-15.125,-8.75 -15.125,-22.917 -0,-31.667c17.201,-8.733 37.581,-8.733 54.783,0Z" style="fill:#5000a1;fill-rule:nonzero;"/><path id="Trazado_174275" d="M1123.22,1010.75c17.046,9.846 17.046,25.808 -0,35.654c-19.382,9.837 -42.343,9.837 -61.725,-0c-17.042,-9.85 -17.042,-25.813 -0,-35.654c19.381,-9.841 42.344,-9.841 61.725,-0Z" style="fill:#5000a1;fill-rule:nonzero;"/><g id="Grupo_118085"><g id="Grupo_117928"><path id="Trazado_173885" d="M485.177,789.381l-234.462,135.446c-8.661,4.394 -18.919,4.394 -27.58,-0c-7.616,-4.4 -7.616,-11.533 0,-15.933l234.459,-135.442c8.661,-4.398 18.922,-4.398 27.583,-0c7.617,4.396 7.617,11.529 0,15.929Z" style="fill:#5000a1;fill-rule:nonzero;"/><path id="Trazado_173886" d="M666.298,684.748l-123.904,71.579c-8.66,4.394 -18.919,4.394 -27.579,-0c-7.617,-4.4 -7.617,-11.533 -0,-15.933l123.912,-71.575c8.66,-4.397 18.92,-4.397 27.579,-0c7.613,4.395 7.613,11.529 -0.008,15.929Z" style="fill:#5000a1;fill-rule:nonzero;"/></g><path id="Trazado_173887" d="M554.685,678.16l-234.458,135.446c-8.662,4.394 -18.922,4.394 -27.583,0c-7.617,-4.4 -7.617,-11.533 -0,-15.933l234.479,-135.442c8.659,-4.397 18.92,-4.397 27.579,0c7.6,4.396 7.6,11.533 -0.017,15.929Z" style="fill:#5000a1;fill-rule:nonzero;"/><path id="Trazado_173888" d="M854.49,504.964l-234.459,135.455c-8.659,4.396 -18.919,4.396 -27.579,-0c-7.617,-4.4 -7.617,-11.53 0,-15.93l234.458,-135.445c8.661,-4.398 18.923,-4.398 27.584,-0c7.612,4.391 7.612,11.525 -0.004,15.92Z" style="fill:#5000a1;fill-rule:nonzero;"/><path id="Trazado_173889" d="M989.144,569.319l-234.459,135.441c-8.66,4.398 -18.922,4.398 -27.583,0c-7.617,-4.396 -7.617,-11.529 0,-15.929l234.463,-135.446c8.66,-4.394 18.919,-4.394 27.579,0c7.616,4.4 7.616,11.554 -0,15.934Z" style="fill:#5000a1;fill-rule:nonzero;"/><path id="Trazado_173890" d="M546.702,824.914l-68.629,39.646c-8.66,4.394 -18.919,4.394 -27.579,0c-7.617,-4.4 -7.617,-11.533 -0,-15.933l68.629,-39.646c8.659,-4.397 18.92,-4.397 27.579,0c7.604,4.404 7.604,11.538 0,15.933Z" style="fill:#5000a1;fill-rule:nonzero;"/><path id="Trazado_173891" d="M1135.09,485.01l-68.621,39.646c-8.661,4.398 -18.923,4.398 -27.584,0c-7.616,-4.4 -7.616,-11.533 0,-15.929l68.63,-39.646c8.661,-4.394 18.921,-4.394 27.583,0c7.621,4.396 7.621,11.529 -0.008,15.929Z" style="fill:#5000a1;fill-rule:nonzero;"/><path id="Trazado_173892" d="M601.327,580.148l-234.462,135.441c-8.661,4.394 -18.919,4.394 -27.58,0c-7.616,-4.4 -7.616,-11.533 0,-15.933l234.463,-135.446c8.66,-4.394 18.919,-4.394 27.579,0c7.613,4.404 7.613,11.538 0,15.938Z" style="fill:#5000a1;fill-rule:nonzero;"/><path id="Trazado_173893" d="M747.269,495.835l-68.617,39.629c-8.659,4.397 -18.92,4.397 -27.579,0c-7.617,-4.4 -7.617,-11.529 -0,-15.929l68.629,-39.641c8.66,-4.397 18.92,-4.397 27.579,-0c7.621,4.408 7.621,11.541 -0.012,15.941Z" style="fill:#5000a1;fill-rule:nonzero;"/></g><g id="Grupo_118086"><g id="Grupo_117930"><path id="Trazado_173894" d="M862.544,1049.51l-234.463,135.446c-8.659,4.397 -18.919,4.397 -27.579,0c-7.617,-4.4 -7.617,-11.529 0,-15.929l234.463,-135.433c8.66,-4.398 18.922,-4.398 27.583,-0c7.612,4.387 7.612,11.521 -0.004,15.916Z" style="fill:#5000a1;fill-rule:nonzero;"/><path id="Trazado_173895" d="M1043.69,944.881l-123.905,71.579c-8.659,4.397 -18.919,4.397 -27.579,0c-7.616,-4.4 -7.616,-11.529 0,-15.929l123.904,-71.579c8.66,-4.398 18.92,-4.398 27.58,-0c7.6,4.4 7.6,11.537 -0,15.929Z" style="fill:#5000a1;fill-rule:nonzero;"/></g><path id="Trazado_173896" d="M932.056,938.294l-234.458,135.445c-8.661,4.398 -18.923,4.398 -27.583,0c-7.617,-4.4 -7.617,-11.529 -0,-15.929l234.462,-135.446c8.66,-4.397 18.92,-4.397 27.579,0c7.617,4.4 7.617,11.517 0,15.93Z" style="fill:#5000a1;fill-rule:nonzero;"/><path id="Trazado_173897" d="M1231.86,765.119l-234.458,135.416c-8.66,4.394 -18.919,4.394 -27.579,0c-7.617,-4.4 -7.617,-11.533 -0,-15.929l234.458,-135.446c8.661,-4.397 18.923,-4.397 27.584,0c7.612,4.409 7.612,11.542 -0.005,15.959Z" style="fill:#5000a1;fill-rule:nonzero;"/><path id="Trazado_173898" d="M1366.52,829.452l-234.459,135.446c-8.661,4.397 -18.922,4.397 -27.583,-0c-7.617,-4.4 -7.617,-11.534 -0,-15.929l234.45,-135.446c8.659,-4.397 18.92,-4.397 27.579,-0c7.629,4.4 7.629,11.533 0.013,15.929Z" style="fill:#5000a1;fill-rule:nonzero;"/><path id="Trazado_173899" d="M924.056,1085.05l-68.641,39.646c-8.66,4.396 -18.92,4.396 -27.58,-0c-7.616,-4.396 -7.616,-11.53 0,-15.93l68.63,-39.641c8.659,-4.397 18.919,-4.397 27.579,-0c7.621,4.391 7.621,11.525 0.012,15.925Z" style="fill:#5000a1;fill-rule:nonzero;"/><path id="Trazado_173900" d="M978.698,840.289l-234.463,135.417c-8.659,4.397 -18.919,4.397 -27.579,0c-7.616,-4.4 -7.616,-11.533 0,-15.929l234.45,-135.425c8.66,-4.397 18.92,-4.397 27.579,-0c7.625,4.4 7.625,11.533 0.013,15.937Z" style="fill:#5000a1;fill-rule:nonzero;"/><path id="Trazado_173901" d="M1124.64,755.969l-68.63,39.645c-8.66,4.394 -18.918,4.394 -27.579,0c-7.616,-4.4 -7.616,-11.533 0,-15.933l68.629,-39.642c8.66,-4.397 18.92,-4.397 27.58,0c7.616,4.4 7.616,11.534 -0,15.93Z" style="fill:#5000a1;fill-rule:nonzero;"/></g><g id="Grupo_118087"><g id="Grupo_117932"><path id="Trazado_173902" d="M701.71,870.677l-234.462,135.446c-8.66,4.397 -18.92,4.397 -27.579,-0c-7.617,-4.4 -7.617,-11.534 -0,-15.929l234.458,-135.446c8.661,-4.398 18.923,-4.398 27.583,-0c7.617,4.4 7.617,11.529 0,15.929Z" style="fill:#5000a1;fill-rule:nonzero;"/><path id="Trazado_173903" d="M882.831,766.06l-123.904,71.579c-8.661,4.397 -18.922,4.397 -27.583,0c-7.617,-4.4 -7.617,-11.533 -0,-15.929l123.908,-71.579c8.66,-4.397 18.92,-4.397 27.579,0c7.621,4.379 7.621,11.513 0,15.929Z" style="fill:#5000a1;fill-rule:nonzero;"/></g><path id="Trazado_173904" d="M771.219,759.452l-234.463,135.446c-8.66,4.394 -18.919,4.394 -27.579,-0c-7.617,-4.4 -7.617,-11.534 0,-15.929l234.463,-135.446c8.659,-4.397 18.919,-4.397 27.579,-0c7.616,4.4 7.616,11.533 -0,15.929Z" style="fill:#5000a1;fill-rule:nonzero;"/><path id="Trazado_173905" d="M1071.02,586.264l-234.479,135.442c-8.66,4.397 -18.92,4.397 -27.579,0c-7.617,-4.396 -7.617,-11.529 -0,-15.929l234.462,-135.446c8.662,-4.394 18.922,-4.394 27.583,0c7.617,4.4 7.617,11.533 0.013,15.933Z" style="fill:#5000a1;fill-rule:nonzero;"/><path id="Trazado_173906" d="M1205.68,650.627l-234.462,135.417c-8.662,4.394 -18.922,4.394 -27.584,-0c-7.616,-4.4 -7.616,-11.534 0,-15.934l234.463,-135.441c8.659,-4.397 18.919,-4.397 27.579,-0c7.621,4.412 7.621,11.545 0.004,15.958Z" style="fill:#5000a1;fill-rule:nonzero;"/><path id="Trazado_173907" d="M763.219,906.21l-68.629,39.642c-8.66,4.397 -18.92,4.397 -27.58,-0c-7.616,-4.4 -7.616,-11.533 0,-15.929l68.63,-39.646c8.66,-4.394 18.918,-4.394 27.579,-0c7.621,4.4 7.621,11.517 -0,15.933Z" style="fill:#5000a1;fill-rule:nonzero;"/><path id="Trazado_173908" d="M1351.62,566.302l-68.629,39.642c-8.66,4.396 -18.92,4.396 -27.579,-0c-7.617,-4.396 -7.617,-11.53 -0,-15.93l68.629,-39.641c8.661,-4.398 18.922,-4.398 27.583,-0c7.613,4.396 7.613,11.529 -0.004,15.929Z" style="fill:#5000a1;fill-rule:nonzero;"/><path id="Trazado_173909" d="M817.856,661.444l-234.462,135.445c-8.66,4.395 -18.919,4.395 -27.579,0c-7.617,-4.4 -7.617,-11.533 -0,-15.933l234.458,-135.442c8.661,-4.397 18.922,-4.397 27.583,0c7.617,4.396 7.617,11.53 0,15.93Z" style="fill:#5000a1;fill-rule:nonzero;"/><path id="Trazado_173910" d="M963.802,577.131l-68.625,39.646c-8.659,4.397 -18.92,4.397 -27.579,-0c-7.617,-4.396 -7.617,-11.529 -0,-15.929l68.629,-39.642c8.659,-4.398 18.92,-4.398 27.579,0c7.613,4.392 7.613,11.525 -0.004,15.925Z" style="fill:#5000a1;fill-rule:nonzero;"/></g><g id="Grupo_118088"><g id="Grupo_117934"><path id="Trazado_173911" d="M260.331,709.835l-221.816,128.142c-8.194,4.157 -17.899,4.157 -26.092,-0c-7.204,-4.167 -7.204,-10.913 -0,-15.071l221.817,-128.142c8.192,-4.158 17.898,-4.158 26.091,0c7.204,4.159 7.204,10.909 0,15.071Z" style="fill:#5000a1;fill-rule:nonzero;"/><path id="Trazado_173912" d="M431.69,610.844l-117.225,67.72c-8.193,4.158 -17.899,4.158 -26.092,0c-7.204,-4.166 -7.204,-10.912 -0,-15.07l117.225,-67.721c8.193,-4.159 17.899,-4.159 26.092,-0c7.204,4.158 7.204,10.908 -0,15.071Z" style="fill:#5000a1;fill-rule:nonzero;"/></g><path id="Trazado_173913" d="M326.094,604.61l-221.821,128.121c-8.193,4.158 -17.899,4.158 -26.092,0c-7.204,-4.167 -7.204,-10.912 0,-15.071l221.817,-128.121c8.193,-4.158 17.899,-4.158 26.092,0c7.204,4.159 7.204,10.909 0.004,15.071Z" style="fill:#5000a1;fill-rule:nonzero;"/><path id="Trazado_173914" d="M609.727,440.756l-221.833,128.142c-8.193,4.158 -17.899,4.158 -26.092,-0c-7.204,-4.167 -7.204,-10.913 0,-15.071l221.817,-128.142c8.193,-4.158 17.899,-4.158 26.091,0c7.221,4.159 7.221,10.909 0.017,15.071Z" style="fill:#5000a1;fill-rule:nonzero;"/><path id="Trazado_173915" d="M737.119,501.639l-221.817,128.142c-8.193,4.158 -17.899,4.158 -26.092,0c-7.204,-4.167 -7.204,-10.912 0,-15.071l221.817,-128.125c8.193,-4.158 17.899,-4.158 26.092,0c7.204,4.142 7.204,10.892 -0,15.054Z" style="fill:#5000a1;fill-rule:nonzero;"/><path id="Trazado_173916" d="M318.531,743.452l-64.929,37.5c-8.193,4.158 -17.899,4.158 -26.092,-0c-7.204,-4.167 -7.204,-10.913 0,-15.071l64.925,-37.5c8.193,-4.158 17.899,-4.158 26.092,0c7.204,4.163 7.204,10.908 0.004,15.071Z" style="fill:#5000a1;fill-rule:nonzero;"/><path id="Trazado_173917" d="M875.198,421.877l-64.925,37.5c-8.192,4.16 -17.899,4.16 -26.092,-0c-7.204,-4.167 -7.204,-10.913 0,-15.071l64.929,-37.5c8.192,-4.162 17.9,-4.162 26.092,0c7.213,4.158 7.213,10.908 -0.004,15.071Z" style="fill:#5000a1;fill-rule:nonzero;"/><path id="Trazado_173918" d="M370.215,511.881l-221.817,128.142c-8.193,4.158 -17.899,4.158 -26.092,-0c-7.204,-4.167 -7.204,-10.913 0,-15.071l221.817,-128.142c8.193,-4.158 17.899,-4.158 26.092,0c7.204,4.163 7.204,10.909 -0,15.071Z" style="fill:#5000a1;fill-rule:nonzero;"/><path id="Trazado_173919" d="M508.294,432.119l-64.925,37.5c-8.195,4.158 -17.902,4.158 -26.096,-0c-7.204,-4.167 -7.204,-10.913 -0,-15.071l64.929,-37.5c8.193,-4.159 17.899,-4.159 26.092,-0c7.204,4.158 7.204,10.908 -0,15.071Z" style="fill:#5000a1;fill-rule:nonzero;"/></g><ellipse id="Elipse_4254" cx="144.019" cy="317.127" rx="27.117" ry="15.662" style="fill:#5000a1;"/><path id="Trazado_174276" d="M1409.38,263.652c10.592,6.112 10.592,16.033 0,22.154c-12.037,6.108 -26.296,6.108 -38.333,0c-10.587,-6.117 -10.587,-16.037 0,-22.154c12.037,-6.108 26.296,-6.108 38.333,-0Z" style="fill:#5000a1;fill-rule:nonzero;"/><g id="Grupo_118025"><g id="Grupo_117967"><path id="Trazado_174099" d="M368.727,1113.83l-254.667,-146.338c-39.366,-22.729 -38.537,-59.812 0.834,-82.545l665.196,-384.084c39.366,-22.729 103.187,-22.729 142.554,0l253.841,146.571c39.367,22.729 39.367,59.583 0,82.313l-665.195,384.083c-39.388,22.729 -103.213,22.729 -142.563,-0Z" style="fill:#808080;fill-opacity:0.4;fill-rule:nonzero;"/><g id="Grupo_117966"><path id="Trazado_174100" d="M373.219,994.677l0.35,26.162l13.8,8.53c34.096,19.733 83.054,14.291 122.641,-5.267l35.188,-20.317c-7.129,-5.196 -14.346,-9.937 -21.179,-14.287c-45.329,-28.054 -110.746,-26.692 -150.8,5.179Z" style="fill:#ebebeb;fill-rule:nonzero;"/><path id="Trazado_174101" d="M114.423,871.448l11.296,4.75l-14.304,-105.6c-38.367,19.179 -36.255,78.15 3.008,100.85Z" style="fill:#ebebeb;fill-rule:nonzero;"/><path id="Trazado_174102" d="M1174.95,569.248l0,70.975l1.508,-0.867c23.817,-13.75 29.838,-26.725 29.463,-70.733l-30.971,0.625Z" style="fill:#ebebeb;fill-rule:nonzero;"/><path id="Trazado_174103" d="M368.727,996.481l-254.667,-146.333c-39.366,-22.734 -38.537,-59.817 0.834,-82.546l665.171,-384.067c39.366,-22.733 103.187,-22.733 142.554,0l253.841,146.567c39.367,22.733 39.367,59.583 0,82.312l-665.195,384.084c-39.363,22.712 -103.188,22.712 -142.538,-0.017Z" style="fill:#fff;fill-rule:nonzero;"/><path id="Trazado_174104" d="M513.285,971.127l-353.016,-203.829l623.75,-360.159l353.016,203.83l-623.75,360.158Z" style="fill:#adcce3;fill-rule:nonzero;"/><ellipse id="Elipse_4240" cx="291.906" cy="895.131" rx="38.079" ry="21.988" style="fill:#fff;stroke:#808080;stroke-width:3.93px;"/><ellipse id="Elipse_4241" cx="934.36" cy="445.289" rx="7.404" ry="4.275" style="fill:#201712;"/><path id="Trazado_174105" d="M1030.84,504.739l-64.321,-37.137c-0.741,-0.248 -1.244,-0.946 -1.244,-1.727c-0,-0.782 0.503,-1.48 1.244,-1.727c1.879,-0.951 4.104,-0.951 5.983,-0l64.321,37.137c0.737,0.252 1.235,0.949 1.235,1.727c0,0.779 -0.498,1.476 -1.235,1.727c-1.879,0.954 -4.105,0.954 -5.983,0Z" style="fill:#201712;fill-rule:nonzero;"/><path id="Trazado_174106" d="M1029.59,473.502c0.925,-0.311 1.553,-1.184 1.553,-2.161c-0,-0.976 -0.628,-1.849 -1.553,-2.16c-2.348,-1.189 -5.128,-1.189 -7.475,0c-0.926,0.311 -1.553,1.184 -1.553,2.16c-0,0.977 0.627,1.85 1.553,2.161c2.347,1.192 5.128,1.192 7.475,-0Z" style="fill:#201712;fill-rule:nonzero;"/><path id="Trazado_174108" d="M373.573,999.281l-259.167,-148.75l0,20.738l259.271,149.704l-0.104,-21.692Z" style="fill:#dedede;fill-rule:nonzero;"/><path id="Trazado_174110" d="M509.927,1024.18l0,-27.167l673.442,-389.558l-0,27.729l-673.442,388.996Z" style="fill:#dedede;fill-rule:nonzero;"/><path id="Trazado_174111" d="M510.102,996.835l0,27.167l17.917,-10.304l0.125,-27.209l-18.042,10.346Z" style="fill:#fff;fill-rule:nonzero;"/><path id="Trazado_174112" d="M1163.92,618.398l-0,27.733l19.808,-12.183l0,-27.721l-19.808,12.171Z" style="fill:#fff;fill-rule:nonzero;"/><g id="Grupo_117964"><path id="Trazado_174113" d="M1055.1,703.31c-2.213,0 -4.446,-1.641 -4.446,-5.304c0.203,-4.276 2.469,-8.199 6.071,-10.512l45.396,-26.205c0.941,-0.58 2.019,-0.901 3.125,-0.929c2.216,0 4.446,1.642 4.446,5.304c-0.202,4.277 -2.468,8.2 -6.071,10.513l-45.388,26.204c-0.944,0.581 -2.025,0.901 -3.133,0.929Z" style="fill:#bfbfbf;fill-rule:nonzero;"/><path id="Trazado_174114" d="M1109.31,663.656c-0.033,0 -0.054,-0.046 -0.087,-0.062c-0.034,-0.017 -0.05,-0.046 -0.084,-0.067c-0.026,-0.023 -0.054,-0.044 -0.083,-0.063c-0.026,-0.022 -0.054,-0.043 -0.083,-0.062l-0.084,-0.067c-0.033,0 -0.054,-0.046 -0.083,-0.062c-0.029,-0.017 -0.054,-0.05 -0.087,-0.067c-0.034,-0.017 -0.05,-0.05 -0.084,-0.062c-0.026,-0.023 -0.054,-0.044 -0.083,-0.063c-0.029,0 -0.054,-0.046 -0.083,-0.067c-0.03,-0.02 -0.055,-0.05 -0.084,-0.062c-0.029,-0.013 -0.054,-0.05 -0.087,-0.063c-0.034,-0.012 -0.05,-0.05 -0.084,-0.066c-0.026,-0.023 -0.054,-0.044 -0.083,-0.063c-0.029,0 -0.054,-0.05 -0.083,-0.062l-0.084,-0.067c-0.033,0 -0.054,-0.046 -0.083,-0.062c-0.029,-0.017 -0.054,-0.046 -0.087,-0.067c-0.034,-0.021 -0.05,-0.046 -0.084,-0.063c-0.026,-0.022 -0.054,-0.043 -0.083,-0.062l-0.083,-0.067c-0.03,0 -0.055,-0.046 -0.084,-0.062c-0.029,-0.017 -0.054,-0.05 -0.083,-0.063c-0.029,-0.012 -0.054,-0.046 -0.088,-0.066c-0.026,-0.023 -0.054,-0.044 -0.083,-0.063c-1.233,-0.63 -2.721,-0.51 -3.837,0.308l-45.388,26.205c-3.139,2.044 -5.119,5.471 -5.321,9.212c-0.138,1.346 0.462,2.665 1.567,3.446l0.083,0.067c0.034,-0 0.054,0.05 0.084,0.062c0.029,0.013 0.054,0.046 0.087,0.067c0.027,0.022 0.054,0.043 0.083,0.062c0.027,0.023 0.055,0.044 0.084,0.063l0.083,0.066c0.029,0 0.054,0.046 0.083,0.063c0.03,0.017 0.055,0.05 0.084,0.062c0.029,0.013 0.054,0.05 0.087,0.067c0.027,0.022 0.055,0.043 0.084,0.063c0.029,-0 0.054,0.045 0.083,0.062l0.083,0.067c0.034,-0 0.054,0.05 0.088,0.062c0.033,0.013 0.05,0.046 0.083,0.067c0.033,0.021 0.05,0.05 0.083,0.062c0.027,0.023 0.055,0.044 0.084,0.063l0.083,0.067c0.033,-0 0.054,0.045 0.083,0.062c0.03,0.017 0.055,0.05 0.088,0.063c0.033,0.012 0.05,0.05 0.083,0.066c0.027,0.023 0.054,0.044 0.084,0.063l0.083,0.066c0.029,0 0.054,0.046 0.083,0.063c0.029,0.017 0.054,0.05 0.084,0.062c0.029,0.013 0.054,0.046 0.087,0.067c1.232,0.629 2.72,0.508 3.833,-0.312l45.392,-26.205c3.139,-2.045 5.118,-5.471 5.321,-9.212c0.138,-1.346 -0.462,-2.666 -1.567,-3.446Z" style="fill:#dfdfdf;fill-rule:nonzero;"/><path id="Trazado_174115" d="M1105.63,676.381l-45.387,26.204c-2.942,1.696 -5.321,0.321 -5.321,-3.071c0.202,-3.74 2.182,-7.167 5.321,-9.212l45.391,-26.204c2.917,-1.696 5.321,-0.321 5.321,3.071c-0.203,3.741 -2.184,7.169 -5.325,9.212Z" style="fill:#f2f2f2;fill-rule:nonzero;"/></g><g id="Grupo_117965"><path id="Trazado_174116" d="M802.948,847.148l-79.438,45.858c-2.545,1.467 -4.608,0.279 -4.612,-2.662c0.176,-3.241 1.89,-6.211 4.608,-7.984l79.438,-45.858c2.546,-1.467 4.608,-0.279 4.608,2.662c-0.176,3.24 -1.888,6.209 -4.604,7.984Z" style="fill:#e5e5e5;fill-rule:nonzero;"/><path id="Trazado_174117" d="M725.281,886.66c-0.052,0.934 -0.546,1.789 -1.329,2.3c-0.733,0.417 -1.329,0.079 -1.329,-0.766c0.051,-0.936 0.545,-1.793 1.329,-2.305c0.733,-0.42 1.329,-0.075 1.329,0.771Z" style="fill:#808080;fill-rule:nonzero;"/></g></g></g><g id="Grupo_118024"><g id="Grupo_118023"><path id="Trazado_174118" d="M513.135,971.202l-353.016,-203.842l623.75,-360.158l353.016,203.829l-623.75,360.171Z" style="fill:#d4e2ff;fill-rule:nonzero;"/><path id="Trazado_174119" d="M1114.59,623.919l-353.017,-203.834l22.3,-12.875l353.017,203.829l-22.3,12.88Z" style="fill:#2c4be5;fill-rule:nonzero;"/><path id="Trazado_174120" d="M1114.59,623.919l-353.017,-203.821l-64.362,37.162l353.037,203.821l64.342,-37.162Z" style="fill:#558cff;fill-rule:nonzero;"/><path id="Trazado_174121" d="M985.873,698.252l-352.996,-203.842l-7.062,4.079l353.016,203.83l7.042,-4.067Z" style="fill:#bfbfbf;fill-rule:nonzero;"/><path id="Trazado_174122" d="M900.381,747.606l-353.016,-203.833l-7.063,4.079l353.017,203.833l7.062,-4.079Z" style="fill:#bfbfbf;fill-rule:nonzero;"/><path id="Trazado_174123" d="M811.548,798.894l-353.017,-203.85l-7.062,4.079l353.016,203.837l7.063,-4.066Z" style="fill:#bfbfbf;fill-rule:nonzero;"/><g id="Grupo_117974"><g id="Grupo_117968"><ellipse id="Elipse_4242" cx="267.685" cy="796.048" rx="19.296" ry="11.142" style="fill:#fde356;"/></g><g id="Grupo_117969"><path id="Trazado_174124" d="M259.76,788.844c-0.581,0.254 -1.145,0.548 -1.687,0.879c-5.317,3.287 -4.875,8.516 0.987,11.666c6.394,3.151 13.923,3.064 20.242,-0.233c0.546,-0.335 1.061,-0.718 1.538,-1.146c-2.718,-2.431 -5.723,-4.519 -8.95,-6.216c-3.864,-2.059 -7.929,-3.718 -12.13,-4.95Z" style="fill:#201712;fill-rule:nonzero;"/></g><g id="Grupo_117970"><path id="Trazado_174125" d="M271.86,803.535c-1.152,-2.629 -3.228,-4.748 -5.833,-5.954c-3.613,-1.836 -7.583,-2.864 -11.633,-3.012c-0.321,2.445 1.25,5 4.658,6.82c3.967,1.955 8.421,2.701 12.808,2.146Z" style="fill:#fe3d5f;fill-rule:nonzero;"/></g><g id="Grupo_117973"><g id="Grupo_117971"><path id="Trazado_174126" d="M282.169,797.964c-0.033,-0.016 -0.064,-0.037 -0.092,-0.062l-4.104,-3.671c-0.067,-0.044 -0.107,-0.119 -0.107,-0.198c0,-0.095 0.057,-0.181 0.144,-0.219c0.205,-0.123 0.451,-0.16 0.684,-0.104l5.441,1.25c0.309,0.071 0.459,0.271 0.338,0.45c-0.203,0.201 -0.501,0.276 -0.775,0.196l-3.708,-0.833l3.091,2.766c0.179,0.163 0.1,0.375 -0.179,0.48c-0.241,0.082 -0.506,0.062 -0.733,-0.055Z" style="fill:#201712;fill-rule:nonzero;"/></g><g id="Grupo_117972"><path id="Trazado_174127" d="M263.381,787.839c-0.2,-0.104 -0.254,-0.279 -0.116,-0.416c0.236,-0.185 0.551,-0.236 0.833,-0.134l5,1.592l-1.713,-2.083c-0.141,-0.171 0,-0.375 0.284,-0.459c0.276,-0.089 0.58,-0.027 0.8,0.163l2.5,3.05c0.112,0.137 0.062,0.3 -0.129,0.417c-0.22,0.105 -0.472,0.123 -0.705,0.05l-6.62,-2.113c-0.048,-0.016 -0.092,-0.039 -0.134,-0.067Z" style="fill:#201712;fill-rule:nonzero;"/></g></g></g><g id="Grupo_117977"><g id="Grupo_117975"><path id="Trazado_174128" d="M251.535,786.685c7.313,-4.246 7.284,-11.108 -0.066,-15.329c-8.345,-4.219 -18.222,-4.205 -26.554,0.038c-7.313,4.245 -7.284,11.108 0.066,15.333c8.346,4.216 18.222,4.2 26.554,-0.042Z" style="fill:#fe3d5f;fill-rule:nonzero;"/></g><g id="Grupo_117976"><path id="Trazado_174129" d="M249.731,778.085c-2.326,-1.418 -5.122,-1.857 -7.771,-1.221c0.459,-0.862 1.23,-3.1 -2.162,-4.483c-4.904,-2 -10.779,0.763 -10.688,5.171c-0.144,2.082 0.35,4.16 1.417,5.954c3.396,0.637 6.851,0.898 10.304,0.779c7.65,0.029 12.396,-3.379 8.9,-6.2Z" style="fill:#fff;fill-rule:nonzero;"/></g></g><g id="Grupo_117982"><g id="Grupo_117978"><path id="Trazado_174130" d="M220.99,769.914c-8.654,4.072 -18.755,3.762 -27.142,-0.833c-7.083,-4.554 -6.463,-11.571 1.425,-15.671c8.654,-4.072 18.754,-3.762 27.142,0.834c7.108,4.554 6.466,11.57 -1.425,15.67Z" style="fill:#558cff;fill-rule:nonzero;"/></g><g id="Grupo_117981"><g id="Grupo_117979"><path id="Trazado_174131" d="M196.46,761.948c-1.033,-0.663 -0.941,-1.7 0.213,-2.296l4.708,-2.45c1.269,-0.594 2.749,-0.549 3.979,0.121c1.038,0.662 0.942,1.7 -0.208,2.296l-4.712,2.45c-1.269,0.595 -2.749,0.55 -3.98,-0.121Z" style="fill:#fff;fill-rule:nonzero;"/></g><g id="Grupo_117980"><path id="Trazado_174132" d="M215.16,765.106c0.67,0.179 1.383,0.119 2.013,-0.171c0.754,-0.391 0.833,-1.071 0.137,-1.504l-3.504,-2.246c0.338,-0.1 2.084,-0.321 2.713,-0.416c0.488,-0.086 0.959,-0.249 1.396,-0.484c0.461,-0.228 0.869,-0.552 1.195,-0.95c0.38,-0.496 0.621,-1.112 -0.237,-1.496c-0.793,-0.339 -1.71,-0.229 -2.4,0.288c-0.167,0.166 -0.358,0.307 -0.567,0.417c-0.593,0.107 -1.196,0.156 -1.8,0.145c-1.716,0.067 -3.991,0.175 -4.733,0.271c-0.675,0.071 -1.337,0.237 -1.967,0.492c-0.115,0.031 -0.226,0.072 -0.333,0.125l-5.788,3.012c-0.533,0.275 -0.575,0.755 -0.095,1.063l6.141,3.958c0.746,0.407 1.643,0.435 2.413,0.075c0.239,-0.105 0.429,-0.3 0.529,-0.541c0.633,0.182 1.311,0.13 1.908,-0.146c0.267,-0.112 0.47,-0.339 0.55,-0.617c0.636,0.143 1.301,0.073 1.892,-0.2c0.542,-0.267 0.725,-0.696 0.537,-1.075Z" style="fill:#fff;fill-rule:nonzero;"/></g></g></g><g id="Grupo_117987"><g id="Grupo_117983"><path id="Trazado_174133" d="M1122.21,609.906l-25.187,-14.546c-2.89,-1.464 -6.311,-1.464 -9.2,0l-0.309,0.179c-1.133,0.387 -1.899,1.458 -1.899,2.655c0,1.196 0.766,2.267 1.899,2.654l25.188,14.546c2.89,1.46 6.31,1.46 9.2,-0l0.308,-0.18c1.133,-0.386 1.9,-1.457 1.9,-2.654c-0,-1.197 -0.767,-2.268 -1.9,-2.654Zm-1.212,4.963c-2.321,1.173 -5.067,1.173 -7.388,-0l-25.187,-14.542c-0.911,-0.311 -1.526,-1.172 -1.526,-2.133c-0,-0.962 0.615,-1.823 1.526,-2.134l0.308,-0.179c2.32,-1.176 5.068,-1.176 7.388,0l25.187,14.542c0.915,0.306 1.535,1.168 1.535,2.133c-0,0.965 -0.62,1.827 -1.535,2.133l-0.308,0.18Z" style="fill:#f2f2f2;fill-rule:nonzero;"/><path id="Trazado_174134" d="M1118.4,610.002l-12.15,-7.013l-5.529,3.188l12.146,7.017c1.981,1.211 4.417,1.436 6.587,0.608c1.525,-0.875 1.05,-2.579 -1.054,-3.8Z" style="fill:#f2f2f2;fill-rule:nonzero;"/></g><g id="Grupo_117984"><path id="Trazado_174135" d="M1057.99,583.898l2.85,1.666l1.983,-1.145l-2.862,-1.642l-1.971,1.121Z" style="fill:#f2f2f2;fill-rule:nonzero;"/><path id="Trazado_174136" d="M1061.53,585.935l2.85,1.667l4.529,-2.617l-2.862,-1.641l-4.517,2.591Z" style="fill:#f2f2f2;fill-rule:nonzero;"/><path id="Trazado_174137" d="M1065.06,587.973l2.85,1.666l7.084,-4.083l-2.863,-1.642l-7.071,4.059Z" style="fill:#f2f2f2;fill-rule:nonzero;"/><path id="Trazado_174138" d="M1068.29,590.014l3.146,1.817l9.921,-5.725l-3.162,-1.812l-9.905,5.72Zm9.909,-5.375l2.562,1.467l-9.321,5.383l-2.554,-1.475l9.313,-5.375Z" style="fill:#f2f2f2;fill-rule:nonzero;"/><path id="Trazado_174139" d="M1084.29,584.864l-12.45,7.192l3.145,1.817l12.463,-7.196l-3.158,-1.813Zm-9.305,8.667l-2.554,-1.475l11.859,-6.85l2.562,1.471l-11.867,6.854Z" style="fill:#f2f2f2;fill-rule:nonzero;"/></g><g id="Grupo_117985"><path id="Trazado_174140" d="M1048.36,576.556c-1.019,-0.516 -2.226,-0.516 -3.245,0c-0.404,0.133 -0.678,0.513 -0.678,0.938c0,0.424 0.274,0.804 0.678,0.937c1.018,0.52 2.227,0.52 3.245,0c0.404,-0.133 0.678,-0.513 0.678,-0.937c-0,-0.425 -0.274,-0.805 -0.678,-0.938Z" style="fill:#f2f2f2;fill-rule:nonzero;"/><path id="Trazado_174141" d="M1052.21,574.331c-2.069,-1.104 -4.388,-1.658 -6.733,-1.608c-0.375,-0 -0.679,0.175 -0.679,0.391c-0,0.217 0.304,0.392 0.679,0.392c2.01,-0.042 3.997,0.433 5.771,1.379c1.339,0.596 2.256,1.873 2.391,3.334c0.011,0.122 0.088,0.229 0.2,0.279c0.147,0.079 0.313,0.119 0.48,0.116c0.375,0 0.679,-0.175 0.679,-0.391c-0.156,-1.705 -1.224,-3.196 -2.788,-3.892Z" style="fill:#f2f2f2;fill-rule:nonzero;"/><path id="Trazado_174142" d="M1045.46,569.977c-0.375,-0 -0.679,0.175 -0.679,0.392c0,0.216 0.309,0.387 0.679,0.387c7.121,0 12.917,3.333 12.917,7.463c0.012,0.122 0.088,0.228 0.2,0.279c0.149,0.079 0.315,0.119 0.483,0.116c0.375,0 0.68,-0.175 0.68,-0.391c0.02,-4.546 -6.388,-8.246 -14.28,-8.246Z" style="fill:#f2f2f2;fill-rule:nonzero;"/><path id="Trazado_174143" d="M1065.2,578.239c-0.328,-3.527 -2.543,-6.613 -5.779,-8.054c-4.286,-2.288 -9.089,-3.436 -13.946,-3.333l-0.417,-0c-0.375,-0 -0.675,0.183 -0.666,0.417c0.016,0.117 0.091,0.218 0.2,0.266c0.152,0.083 0.323,0.123 0.496,0.117l0.366,-0c4.524,-0.094 8.997,0.977 12.988,3.108c3.014,1.341 5.075,4.215 5.379,7.5c-0,0.217 0.308,0.392 0.683,0.392c0.375,-0 0.696,-0.213 0.696,-0.413Z" style="fill:#f2f2f2;fill-rule:nonzero;"/></g><path id="Trazado_174144" d="M1031.43,566.585l-2.391,-5.154l8.925,1.383c0.2,0.034 0.406,0.002 0.587,-0.091c0.154,-0.088 0.213,-0.217 0.158,-0.338l-2.558,-5.512c-0.092,-0.144 -0.247,-0.236 -0.417,-0.25c-0.2,-0.034 -0.406,-0.002 -0.587,0.091l-6.167,3.559l-2.204,-4.759c-0.18,-0.219 -0.471,-0.315 -0.746,-0.245c-0.325,0.05 -0.516,0.237 -0.416,0.416l2.287,4.925l-8.529,-1.321c-0.274,-0.067 -0.564,0.031 -0.742,0.25c-0.058,0.125 0,0.25 0.159,0.338c0.084,0.045 0.176,0.075 0.27,0.087l8.242,1.275l-6.4,3.696c-0.154,0.088 -0.212,0.217 -0.158,0.338c0.034,0.068 0.09,0.124 0.158,0.158c0.084,0.045 0.176,0.075 0.271,0.088l9.546,1.479c0.199,0.033 0.403,0.002 0.583,-0.088c0.121,-0.075 0.183,-0.204 0.129,-0.325Zm3.817,-8.941l2.012,4.333l-7.5,-1.163l5.488,-3.17Zm-12.775,7.379l5.5,-3.175l2.012,4.337l-7.512,-1.162Z" style="fill:#f2f2f2;fill-rule:nonzero;"/><g id="Grupo_117986"><path id="Trazado_174145" d="M775.156,420.944l2.584,1.491l8.912,-5.15l-3.375,-1.296l1.442,-0.833l3.358,1.288l1.579,0.912l-10.354,5.979l2.583,1.492l-1.329,0.767l-6.729,-3.884l1.329,-0.766Z" style="fill:#f2f2f2;fill-rule:nonzero;"/><path id="Trazado_174146" d="M795.031,420.464l7.5,4.338l-0.675,0.387l-15.254,3.909l-1.667,-0.95l14.346,-3.675l-5.608,-3.242l1.358,-0.767Z" style="fill:#f2f2f2;fill-rule:nonzero;"/><path id="Trazado_174147" d="M802.398,428.639l1.667,0.955l-1.988,1.145l-1.667,-0.954l1.988,-1.146Zm-6.3,3.638l1.667,0.954l-1.988,1.15l-1.667,-0.954l1.988,-1.15Z" style="fill:#f2f2f2;fill-rule:nonzero;"/><path id="Trazado_174148" d="M810.44,435.577c0.518,0.362 0.809,0.973 0.762,1.604c-0.174,0.651 -0.634,1.189 -1.25,1.463c-1.173,0.669 -2.521,0.968 -3.867,0.858c-1.531,-0.129 -3.011,-0.611 -4.325,-1.408c-0.485,-0.278 -0.943,-0.599 -1.37,-0.959c-0.424,-0.358 -0.816,-0.753 -1.171,-1.179l1.525,-0.879c0.211,0.44 0.503,0.836 0.862,1.167c0.436,0.41 0.92,0.766 1.442,1.058c0.865,0.532 1.839,0.864 2.85,0.971c0.869,0.087 1.744,-0.101 2.5,-0.538c0.686,-0.397 0.983,-0.847 0.892,-1.35c-0.092,-0.503 -0.57,-1.003 -1.434,-1.5l-1.358,-0.787l1.3,-0.75l1.425,0.833c0.684,0.417 1.453,0.676 2.25,0.758c0.68,0.068 1.365,-0.078 1.958,-0.416c0.6,-0.345 0.847,-0.734 0.742,-1.167c-0.104,-0.417 -0.554,-0.875 -1.346,-1.333c-0.493,-0.277 -1.006,-0.517 -1.533,-0.721c-0.592,-0.233 -1.286,-0.464 -2.084,-0.692l1.409,-0.833c0.769,0.253 1.457,0.505 2.062,0.758c0.553,0.226 1.09,0.488 1.609,0.784c1.2,0.691 1.876,1.397 2.029,2.116c0.153,0.72 -0.235,1.347 -1.163,1.884c-0.672,0.379 -1.424,0.594 -2.196,0.625c-0.856,0.043 -1.712,-0.082 -2.52,-0.367Z" style="fill:#f2f2f2;fill-rule:nonzero;"/><path id="Trazado_174149" d="M817.565,439.781c-0.451,-0.342 -0.693,-0.895 -0.638,-1.458c0.163,-0.582 0.577,-1.062 1.129,-1.309c0.977,-0.549 2.096,-0.794 3.213,-0.704c1.254,0.085 2.47,0.464 3.55,1.109c1.164,0.675 1.805,1.359 1.925,2.054c0.119,0.694 -0.288,1.311 -1.221,1.85c-0.694,0.393 -1.47,0.617 -2.267,0.654c-0.856,0.046 -1.712,-0.077 -2.521,-0.363c0.514,0.377 0.794,0.996 0.738,1.63c-0.175,0.65 -0.635,1.188 -1.25,1.462c-1.102,0.645 -2.366,0.961 -3.642,0.908c-1.371,-0.073 -2.703,-0.482 -3.879,-1.191c-1.292,-0.746 -1.975,-1.492 -2.062,-2.242c-0.088,-0.75 0.416,-1.45 1.57,-2.083c0.775,-0.441 1.644,-0.689 2.534,-0.725c0.958,-0.054 1.917,0.085 2.821,0.408Zm0.908,1.304c-0.72,-0.426 -1.539,-0.658 -2.375,-0.675c-0.808,-0.025 -1.606,0.177 -2.304,0.584c-0.703,0.405 -1.041,0.85 -1.013,1.333c0.028,0.483 0.417,0.94 1.167,1.371c0.723,0.425 1.544,0.658 2.383,0.675c0.807,0.023 1.605,-0.177 2.304,-0.579c0.703,-0.406 1.041,-0.85 1.013,-1.334c-0.028,-0.483 -0.421,-0.941 -1.179,-1.375l0.004,0Zm1.008,-3.079c-0.604,0.35 -0.887,0.729 -0.833,1.146c0.054,0.417 0.417,0.833 1.083,1.212c0.633,0.377 1.348,0.592 2.084,0.625c0.696,0.032 1.387,-0.136 1.991,-0.483c0.609,-0.35 0.884,-0.733 0.834,-1.15c-0.05,-0.417 -0.417,-0.833 -1.084,-1.212c-0.632,-0.379 -1.347,-0.595 -2.083,-0.63c-0.697,-0.026 -1.387,0.144 -1.992,0.492Z" style="fill:#f2f2f2;fill-rule:nonzero;"/></g></g><g id="Grupo_117988"><ellipse id="Elipse_4243" cx="763.323" cy="459.914" rx="12.792" ry="7.387" style="fill:#fff;"/><path id="Trazado_174150" d="M794.598,460.281l-5.171,-2.983c2.271,-1.579 2.154,-3.913 -0.417,-5.396l-11.825,-6.825c-2.921,-1.471 -6.353,-1.558 -9.345,-0.238l-5.171,-2.983c-2.959,-1.5 -6.463,-1.5 -9.421,0l-21.217,12.25c-1.165,0.392 -1.955,1.491 -1.955,2.721c0,1.229 0.79,2.328 1.955,2.721l31.938,18.416c2.958,1.5 6.462,1.5 9.421,0l21.216,-12.25c1.157,-0.397 1.939,-1.492 1.939,-2.715c-0,-1.226 -0.786,-2.323 -1.947,-2.718Zm-41.946,5.792c-5.883,-3.396 -5.883,-8.925 0,-12.321c6.702,-3.395 14.636,-3.395 21.338,-0c5.883,3.396 5.883,8.925 -0,12.321c-6.702,3.395 -14.636,3.395 -21.338,-0Zm32.025,-4.042c-0.345,-0.131 -0.574,-0.464 -0.574,-0.833c-0,-0.37 0.229,-0.702 0.574,-0.834c0.916,-0.465 2.001,-0.465 2.917,0c0.345,0.132 0.574,0.464 0.574,0.834c0,0.369 -0.229,0.702 -0.574,0.833c-0.916,0.464 -2.001,0.464 -2.917,0Z" style="fill:#fff;fill-rule:nonzero;"/></g><path id="Trazado_174151" d="M839.577,484.519c0,-4.85 -6.833,-8.796 -15.229,-8.796c-8.396,-0 -15.233,3.946 -15.233,8.796c-0,4.72 6.483,8.575 14.583,8.775l-0.417,12.558l0,0.021c0,0.341 0.5,0.616 1.088,0.608c0.587,-0.008 1.066,-0.287 1.058,-0.633l-0.417,-12.559c8.084,-0.195 14.567,-4.05 14.567,-8.77Zm-15.229,8.05c-7.692,-0 -13.946,-3.613 -13.946,-8.05c0,-4.438 6.25,-8.05 13.946,-8.05c7.696,-0 13.942,3.612 13.942,8.05c-0,4.437 -6.255,8.05 -13.942,8.05Z" style="fill:#f2f2f2;fill-rule:nonzero;"/><g id="Grupo_117989"><path id="Trazado_174152" d="M1071.58,633.335c-13.619,6.912 -29.752,6.912 -43.371,0c-2.997,-1.601 -5.53,-3.95 -7.354,-6.816c-0.35,-0.592 -6.25,-0.292 -6.704,-0.9c-0.454,-0.609 5.417,-2.121 5.283,-2.738c-1.054,-5.196 1.871,-10.604 8.775,-14.583c13.619,-6.912 29.752,-6.912 43.371,-0c11.992,6.912 11.992,18.125 0,25.037Z" style="fill:#f2f2f2;fill-rule:nonzero;"/><path id="Trazado_174153" d="M1053.79,623.114l3.696,-6.816l-30.587,2.35l20.2,1.212l-3.904,6.434l29.741,-1.88l-19.146,-1.3Z" style="fill:#558cff;fill-rule:nonzero;"/></g><g id="Grupo_117991"><path id="Trazado_174155" d="M698.919,517.61l-26.725,-15.416c-1.708,-0.579 -2.864,-2.191 -2.864,-3.994c-0,-1.803 1.156,-3.416 2.864,-3.994l25.166,-14.529c4.343,-2.204 9.487,-2.204 13.83,-0l26.725,15.417c1.707,0.578 2.863,2.19 2.863,3.993c0,1.803 -1.156,3.416 -2.863,3.994l-25.167,14.529c-4.343,2.204 -9.487,2.204 -13.829,0Z" style="fill:#fff;fill-rule:nonzero;"/><path id="Trazado_174156" d="M740.819,496.385l-31.863,-18.4c-2.94,-1.49 -6.422,-1.49 -9.362,0l-30.304,17.5c-1.164,0.387 -1.954,1.482 -1.954,2.709c0,1.226 0.79,2.321 1.954,2.708l31.862,18.396c2.94,1.49 6.422,1.49 9.363,-0l30.304,-17.5c1.16,-0.389 1.947,-1.483 1.947,-2.707c0,-1.223 -0.787,-2.317 -1.947,-2.706Zm-27.917,-8.65l21.225,12.254l-2.004,1.159l-21.225,-12.259l2.004,-1.154Zm-5,2.892l21.225,12.258l-2.004,1.159l-21.225,-12.259l2.004,-1.158Zm-1.337,-6.754c0.907,0.307 1.521,1.164 1.521,2.123c0,0.958 -0.614,1.815 -1.521,2.123c-2.31,1.171 -5.045,1.171 -7.355,-0c-0.907,-0.308 -1.521,-1.165 -1.521,-2.123c-0,-0.959 0.614,-1.816 1.521,-2.123c2.307,-1.172 5.04,-1.172 7.346,-0l0.009,-0Zm3.287,35.025c-2.519,1.275 -5.501,1.275 -8.021,-0l-31.866,-18.396c-0.991,-0.336 -1.662,-1.271 -1.662,-2.317c0,-1.046 0.671,-1.981 1.662,-2.316l15.375,-8.88l39.887,23.034l-15.375,8.875Z" style="fill:#558cff;fill-rule:nonzero;"/></g><g id="Grupo_117992"><path id="Trazado_174157" d="M767.994,534.856c5.624,2.689 12.252,2.314 17.537,-0.992c5.092,-2.941 5.129,-6.291 0.104,-9.195c-4.908,-2.897 -11.031,-2.873 -15.916,0.062c-5.763,3.325 -6.454,7.396 -1.725,10.125Zm17.016,-9.825c2.721,1.571 6.321,4.758 -0.104,8.471c-4.899,3.086 -11.05,3.461 -16.287,0.992c-4.354,-2.5 -3.663,-6.292 1.725,-9.405c4.496,-2.75 10.169,-2.772 14.687,-0.058l-0.021,0Z" style="fill:#ccc;fill-rule:nonzero;"/><path id="Trazado_174158" d="M783.631,542.619c3.851,1.841 8.387,1.587 12.009,-0.671c3.541,-2.046 3.6,-4.363 0.158,-6.354c-3.401,-1.988 -7.633,-1.952 -11,0.091c-3.946,2.275 -4.421,5.059 -1.167,6.934Zm11.534,-6.667c1.791,1.033 4.166,3.142 -0.159,5.629c-3.231,2.041 -7.291,2.293 -10.75,0.667c-2.871,-1.667 -2.404,-4.167 1.159,-6.209c2.977,-1.838 6.743,-1.868 9.75,-0.079l-0,-0.008Z" style="fill:#ccc;fill-rule:nonzero;"/><path id="Trazado_174159" d="M785.777,545.698c-3.846,-3.688 -9.044,-5.637 -14.367,-5.388c-1.509,-1.908 -3.388,-3.493 -5.525,-4.658c-6.666,-3.85 -16.816,-5.792 -23.3,-2.05c-5.47,3.158 0.171,7.287 7.084,11.279c5.766,3.333 13.116,6.842 18.821,4.446c0.244,-0.103 0.482,-0.222 0.712,-0.354c0.233,-0.134 0.446,-0.267 0.654,-0.417l1.4,0.833c3.917,2.263 8.925,4.646 12.917,2.971c0.171,-0.071 0.338,-0.153 0.5,-0.246c1.478,-0.537 2.468,-1.951 2.468,-3.524c-0,-1.118 -0.501,-2.18 -1.364,-2.892Zm-17.804,3.229c-4.029,1.692 -9.479,0.333 -17.671,-4.396c-6.587,-3.804 -12.008,-7.712 -7.083,-10.554c6.071,-3.504 15.683,-1.621 22.046,2.054c6.058,3.492 9.675,8.925 3.333,12.596c-0.203,0.114 -0.413,0.214 -0.629,0.3l0.004,-0Zm15.662,3.033c-2.641,1.113 -6.375,0.184 -11.75,-2.916c-0.5,-0.292 -0.987,-0.575 -1.462,-0.859c1.49,-0.906 2.402,-2.528 2.402,-4.272c-0,-1.122 -0.378,-2.213 -1.073,-3.094c4.92,-0.15 9.697,1.697 13.238,5.116c0.791,0.648 1.25,1.618 1.25,2.64c0,1.417 -0.883,2.694 -2.209,3.194c-0.129,0.07 -0.263,0.132 -0.4,0.187l0.004,0.004Z" style="fill:#ccc;fill-rule:nonzero;"/></g><path id="Trazado_174160" d="M868.477,583.785l0.417,-0.246c0.279,-0.166 0.554,-0.333 0.833,-0.5l2.004,-1.145l5.854,-7.405l-33.67,-19.441l-12.721,3.458l0.041,0.046l-0.058,-0.033l-0.462,0.266c-1.346,0.771 -4.505,2.613 -4.821,2.917c-1.052,1.093 -1.573,2.594 -1.425,4.104c0.051,0.476 0.179,0.94 0.379,1.375l-18.333,10.588c-0.686,0.234 -1.15,0.883 -1.15,1.608c0,0.725 0.464,1.373 1.15,1.608l26.279,15.171c1.748,0.884 3.818,0.884 5.566,0l18.184,-10.496c1.2,0.199 2.416,0.291 3.633,0.275c1.834,-0.006 3.658,-0.274 5.417,-0.796c1.012,-0.334 1.98,-0.788 2.883,-1.354Zm-24.85,-27.837l32.375,18.691l-5.271,6.667l-38.591,-22.237l11.487,-3.121Zm-27.237,29.329l14.837,-8.571l8.967,5.175l-14.838,8.571l-8.966,-5.175Zm21.02,10.35c-1.164,0.589 -2.543,0.589 -3.708,-0l-7.725,-4.458l16.075,-9.284l-10.833,-6.25l-16.075,9.284l-7.729,-4.463c-0.456,-0.158 -0.763,-0.589 -0.763,-1.071c0,-0.481 0.307,-0.913 0.763,-1.071l17.854,-10.308l0.091,0.113c0.12,0.167 0.248,0.329 0.384,0.483l0.129,0.154c0.588,0.629 1.268,1.166 2.017,1.592c0.104,0.062 0.225,0.112 0.333,0.171l0.121,0.062c0.287,0.15 0.579,0.292 0.896,0.417l0.175,0.066c0.304,0.13 0.612,0.25 0.933,0.359l0.158,0.046c0.741,0.243 1.496,0.437 2.263,0.579c0.724,1.191 1.756,2.164 2.987,2.816c1.516,0.847 3.164,1.432 4.875,1.73c0.727,1.188 1.761,2.16 2.992,2.812c1.515,0.849 3.164,1.433 4.875,1.729c0.15,0.271 0.323,0.529 0.517,0.771l0.062,0.071c0.174,0.213 0.359,0.416 0.554,0.608c0.084,0.084 0.175,0.159 0.267,0.238c0.092,0.079 0.296,0.254 0.458,0.379c0.163,0.125 0.296,0.217 0.45,0.325l0.346,0.225c0.113,0.067 0.213,0.142 0.325,0.212c0.113,0.071 0.263,0.134 0.392,0.205l0.025,-0c1.028,0.527 2.117,0.929 3.241,1.195l-17.725,10.263Zm27.525,-11.15c-1.56,0.463 -3.18,0.7 -4.808,0.704c-1.005,0.011 -2.01,-0.06 -3.004,-0.212l-0.571,-0.105c-1.863,-0.304 -3.631,-1.037 -5.162,-2.141c-0.08,-0.063 -0.15,-0.129 -0.225,-0.196c-0.159,-0.129 -0.313,-0.263 -0.455,-0.417c-0.198,-0.198 -0.383,-0.41 -0.554,-0.633c-0.174,-0.234 -0.326,-0.484 -0.454,-0.746l-0.1,-0.2l-0.35,-0.058c-1.632,-0.249 -3.207,-0.788 -4.65,-1.592c-1.158,-0.606 -2.114,-1.537 -2.75,-2.679l-0.1,-0.204l-0.354,-0.059c-1.632,-0.25 -3.207,-0.789 -4.65,-1.591c-1.158,-0.608 -2.114,-1.541 -2.75,-2.684l-0.104,-0.204l-0.354,-0.058c-1.824,-0.267 -3.57,-0.916 -5.125,-1.904c-0.15,-0.1 -0.3,-0.2 -0.417,-0.309c-0.117,-0.108 -0.342,-0.27 -0.5,-0.416c-0.219,-0.201 -0.424,-0.417 -0.613,-0.646c-0.05,-0.063 -0.112,-0.121 -0.158,-0.183c-0.49,-0.624 -0.799,-1.371 -0.892,-2.159c-0.132,-1.348 0.324,-2.691 1.25,-3.679c0.213,-0.192 2.196,-1.383 4.167,-2.5l38.717,22.308l-1.071,0.609l-0.871,0.516l-0.417,0.242c-0.837,0.508 -1.734,0.91 -2.67,1.196l-0.005,-0Z" style="fill:#ccc;fill-rule:nonzero;"/><path id="Trazado_174161" d="M921.402,626.577c-0.449,-2.044 0.294,-4.175 1.917,-5.496l2.833,-2.458c5.617,-4.871 4.767,-11.175 -1.575,-15.246c0.159,-0.08 0.311,-0.173 0.454,-0.279c1.296,-1.125 0.363,-2.804 -2.083,-3.75c-2.186,-0.967 -4.706,-0.843 -6.788,0.333c-0.123,0.11 -0.231,0.236 -0.32,0.375c-3.387,-0.658 -6.85,-0.822 -10.284,-0.487c-5.103,0.315 -9.999,2.145 -14.058,5.254l-3.217,2.791c-2.452,1.532 -5.186,2.557 -8.041,3.013c-2.33,0.26 -4.526,1.222 -6.296,2.758c-2.213,1.917 -0.95,3.588 0.954,4.829c-1.325,1.946 0.179,4.338 3.721,5.7c3.257,1.269 6.875,1.269 10.133,0l18.046,6.934c2.221,0.854 8.983,3.454 12.858,0.1c1.759,-1.55 2.104,-2.409 1.746,-4.371Zm-3.925,-26.4c1.434,-0.727 3.126,-0.755 4.583,-0.075c1.713,0.658 2.45,1.762 1.646,2.462c-0.078,0.05 -0.16,0.093 -0.246,0.13c-0.512,-0.28 -1.05,-0.546 -1.62,-0.8c-1.462,-0.633 -2.974,-1.14 -4.521,-1.517c0.045,-0.071 0.098,-0.137 0.158,-0.196l0,-0.004Zm-37.987,22.95c-2.68,-1.029 -3.984,-2.738 -3.367,-4.213c0.949,0.47 1.922,0.887 2.917,1.25l8.308,3.196c-2.568,0.827 -5.344,0.745 -7.858,-0.233Zm28.175,6.946l-17.717,-6.809l-10.021,-3.85c-1.223,-0.454 -2.405,-1.012 -3.533,-1.666l-0.417,-0.267c-1.85,-1.25 -2.083,-2.404 -0.7,-3.6c1.605,-1.407 3.616,-2.268 5.742,-2.458c3.065,-0.505 5.992,-1.64 8.596,-3.334l3.216,-2.791c3.741,-2.895 8.273,-4.589 12.996,-4.859c4.73,-0.496 9.512,0.096 13.979,1.73c0.363,0.141 0.717,0.287 1.071,0.441c8.108,3.575 9.854,10.371 3.971,15.479l-2.833,2.459c-1.819,1.457 -2.663,3.825 -2.175,6.104c0.32,1.758 0.066,2.392 -1.509,3.75c-2.091,1.821 -5.383,1.712 -10.666,-0.325l-0,-0.004Z" style="fill:#ccc;fill-rule:nonzero;"/><g id="Grupo_117993"><path id="Trazado_174162" d="M972.698,635.41l-1.096,0.634l36.171,20.883l1.096,-0.633l-36.171,-20.884Z" style="fill:#ccc;fill-rule:nonzero;"/><path id="Trazado_174163" d="M956.765,644.614l36.17,20.884l1.096,-0.634l-36.171,-20.883l-1.095,0.633Z" style="fill:#ccc;fill-rule:nonzero;"/><path id="Trazado_174164" d="M941.927,653.177l36.171,20.883l1.096,-0.633l-36.171,-20.883l-1.096,0.633Z" style="fill:#ccc;fill-rule:nonzero;"/></g><path id="Trazado_174165" d="M992.119,611.914l-204.788,-118.245l-0.533,0.308l204.787,118.254l0.534,-0.317Z" style="fill:#c0d7ff;fill-rule:nonzero;"/><g id="Grupo_117995"><g id="Grupo_117994"><path id="Trazado_174166" d="M649.527,557.269c-17.372,8.811 -37.948,8.811 -55.321,-0c-15.275,-8.821 -15.275,-23.121 0,-31.942c17.372,-8.814 37.949,-8.814 55.321,-0c15.275,8.821 15.275,23.121 0,31.942Z" style="fill:#fff;fill-rule:nonzero;"/><path id="Trazado_174167" d="M611.94,532.285c8.017,-4.068 17.515,-4.068 25.533,0c7.05,4.071 7.05,10.671 -0,14.742c-8.018,4.068 -17.516,4.068 -25.533,-0c-7.05,-4.071 -7.05,-10.65 -0,-14.742Z" style="fill:#558cff;fill-rule:nonzero;"/></g><path id="Trazado_174168" d="M594.21,557.269c6.581,3.577 13.845,5.723 21.313,6.295c1.396,-4.97 -1.196,-10.245 -7.833,-14.075c-7.495,-3.897 -15.985,-5.473 -24.38,-4.525c1.895,5.361 5.807,9.777 10.9,12.305Z" style="fill:#558cff;fill-rule:nonzero;"/></g><g id="Grupo_117997"><g id="Grupo_117996"><path id="Trazado_174169" d="M558.402,609.889c-17.371,8.811 -37.946,8.811 -55.317,0c-15.275,-8.82 -15.275,-23.12 0,-31.941c17.371,-8.814 37.947,-8.814 55.317,-0c15.267,8.821 15.267,23.121 0,31.941Z" style="fill:#fff;fill-rule:nonzero;"/><ellipse id="Elipse_4244" cx="533.569" cy="592.281" rx="18.054" ry="10.425" style="fill:#558cff;"/></g><path id="Trazado_174170" d="M503.073,609.889c6.579,3.578 13.841,5.723 21.308,6.296c1.396,-4.971 -1.196,-10.246 -7.833,-14.075c-7.494,-3.897 -15.982,-5.472 -24.375,-4.525c1.893,5.362 5.805,9.779 10.9,12.304Z" style="fill:#558cff;fill-rule:nonzero;"/></g><g id="Grupo_117998"><path id="Trazado_174171" d="M856.623,697.264c-8.527,0.173 -16.958,-1.835 -24.492,-5.833l-174.471,-100.737c-6.666,-3.863 -10.362,-9.038 -10.362,-14.584c-0,-5.546 3.679,-10.712 10.362,-14.583c15.386,-7.784 33.594,-7.784 48.98,-0l174.466,100.737c6.667,3.863 10.363,9.034 10.363,14.584c-0,5.55 -3.679,10.716 -10.363,14.583c-7.531,3.997 -15.959,6.005 -24.483,5.833Zm-23.75,-7.15c14.911,7.551 32.564,7.551 47.475,0c6.196,-3.579 9.608,-8.295 9.608,-13.275c0,-4.979 -3.412,-9.691 -9.608,-13.266l-174.446,-100.738c-14.911,-7.552 -32.564,-7.552 -47.475,0c-6.196,3.579 -9.612,8.292 -9.612,13.271c-0,4.979 3.416,9.692 9.612,13.271l174.446,100.737Z" style="fill:#ccc;fill-rule:nonzero;"/></g><g id="Grupo_117999"><path id="Trazado_174172" d="M947.01,703.585l-19.858,-11.466c-3.842,-1.946 -8.391,-1.946 -12.233,-0l-31.209,18.02c-1.488,0.532 -2.488,1.951 -2.488,3.532c0,1.58 1,2.999 2.488,3.531l19.859,11.467c3.842,1.945 8.391,1.945 12.233,-0l31.208,-18.021c1.489,-0.532 2.488,-1.951 2.488,-3.532c0,-1.58 -0.999,-2.999 -2.488,-3.531Zm-32.804,24.167c-2.839,1.439 -6.202,1.439 -9.041,-0l-19.859,-11.454c-1.118,-0.376 -1.876,-1.431 -1.876,-2.611c0,-1.179 0.758,-2.234 1.876,-2.61l8.888,-5.133l13.654,-0l-0,8.587l2.262,0l0,-4.083l19.017,-0l0,8.7l-14.921,8.604Zm17.179,-9.917l0,-8.7l-21.27,0l-0,-4.504l-13.65,0l20.062,-11.583c2.84,-1.44 6.202,-1.44 9.042,-0l19.858,11.462c1.114,0.38 1.867,1.434 1.867,2.611c0,1.177 -0.753,2.23 -1.867,2.61l-14.042,8.104Z" style="fill:#ccc;fill-rule:nonzero;"/><ellipse id="Elipse_4245" cx="918.552" cy="698.927" rx="4.012" ry="2.317" style="fill:#ccc;"/><path id="Trazado_174173" d="M879.19,713.489c-2.055,-1.25 -2.246,-3.225 -0.417,-4.608l26.1,-19.55c1.213,-0.823 2.631,-1.294 4.096,-1.358c1.554,-0.135 3.119,0.11 4.558,0.712l3.175,1.413c0.758,-0.243 1.528,-0.443 2.308,-0.6l-4.116,-1.838c-1.962,-0.82 -4.094,-1.152 -6.213,-0.966c-1.995,0.086 -3.927,0.727 -5.579,1.85l-26.096,19.55c-2.571,1.929 -2.262,4.675 0.709,6.391c0.254,0.146 0.525,0.284 0.833,0.417l0.483,0.212c0.008,-0.545 0.061,-1.088 0.159,-1.625Z" style="fill:#ccc;fill-rule:nonzero;"/></g><path id="Trazado_174174" d="M640.306,657.594c-17.371,8.813 -37.949,8.813 -55.321,-0c-15.275,-8.821 -15.275,-23.121 0,-31.942c17.373,-8.811 37.949,-8.811 55.321,-0c15.275,8.821 15.275,23.121 0,31.942Z" style="fill:#7fa9ff;fill-rule:nonzero;"/><ellipse id="Elipse_4246" cx="455.198" cy="638.552" rx="23.575" ry="13.613" style="fill:#7fa9ff;"/><path id="Trazado_174175" d="M722.573,705.098c-17.37,8.813 -37.947,8.813 -55.317,-0c-15.275,-8.821 -15.275,-23.121 0,-31.942c17.37,-8.814 37.947,-8.814 55.317,0c15.279,8.829 15.279,23.121 -0,31.942Z" style="fill:#c2d6ff;fill-rule:nonzero;"/><path id="Trazado_174176" d="M804.844,752.602c-17.371,8.81 -37.946,8.81 -55.317,-0c-15.275,-8.821 -15.275,-23.121 0,-31.942c17.37,-8.814 37.947,-8.814 55.317,0c15.279,8.821 15.279,23.121 -0,31.942Z" style="fill:#7fa9ff;fill-rule:nonzero;"/><path id="Trazado_174177" d="M831.794,768.16c-11.504,6.646 -14.338,16.392 -8.513,24.584l51.071,-29.496c-14.313,-3.509 -29.421,-1.765 -42.558,4.912Z" style="fill:#558cff;fill-rule:nonzero;"/><g id="Grupo_118000"><ellipse id="Elipse_4247" cx="572.044" cy="592.152" rx="16.613" ry="9.592" style="fill:#558cff;"/><path id="Trazado_174178" d="M579.59,596.264l-7.125,-4.112l7.125,-4.113l-0.417,-0.241l-7.125,4.112l-7.125,-4.112l-0.417,0.241l7.125,4.113l-7.125,4.112l0.417,0.242l7.125,-4.112l7.125,4.112l0.417,-0.242Z" style="fill:#fff;fill-rule:nonzero;"/></g><path id="Trazado_174179" d="M720.09,780.039l-225,-129.916l6.383,-3.688l225,129.917l-6.383,3.687Z" style="fill:#bfbfbf;fill-rule:nonzero;"/><path id="Trazado_174180" d="M707.323,787.406l-225,-129.917l6.383,-3.687l225,129.917l-6.383,3.687Z" style="fill:#bfbfbf;fill-rule:nonzero;"/><path id="Trazado_174181" d="M694.556,794.781l-225,-129.912l6.384,-3.688l225,129.917l-6.384,3.683Z" style="fill:#bfbfbf;fill-rule:nonzero;"/><g id="Grupo_118001"><path id="Trazado_174182" d="M755.727,794.477c-1.335,-0.68 -2.919,-0.68 -4.254,-0c-0.524,0.178 -0.879,0.673 -0.879,1.227c-0,0.554 0.355,1.049 0.879,1.227c1.335,0.68 2.919,0.68 4.254,0c0.524,-0.178 0.879,-0.673 0.879,-1.227c0,-0.554 -0.355,-1.049 -0.879,-1.227Z" style="fill:#999;fill-rule:nonzero;"/><path id="Trazado_174183" d="M763.702,799.081c-1.335,-0.68 -2.919,-0.68 -4.254,0c-0.524,0.178 -0.879,0.673 -0.879,1.227c-0,0.554 0.355,1.049 0.879,1.227c1.335,0.68 2.919,0.68 4.254,0c0.524,-0.178 0.879,-0.673 0.879,-1.227c0,-0.554 -0.355,-1.049 -0.879,-1.227Z" style="fill:#999;fill-rule:nonzero;"/><path id="Trazado_174184" d="M771.685,803.689c-1.335,-0.679 -2.918,-0.679 -4.254,0c-0.524,0.178 -0.879,0.674 -0.879,1.227c-0,0.554 0.355,1.05 0.879,1.228c1.336,0.678 2.919,0.678 4.254,-0c0.525,-0.178 0.88,-0.674 0.88,-1.228c-0,-0.553 -0.355,-1.049 -0.88,-1.227Z" style="fill:#999;fill-rule:nonzero;"/></g><path id="Trazado_174185" d="M564.06,940.764l-352.125,-203.333l169.859,-98.075l352.125,203.333l-169.859,98.075Z" style="fill:#558cff;fill-rule:nonzero;"/><g id="Grupo_118012"><g id="Grupo_118006"><path id="Trazado_174190" d="M342.131,838.773c7.363,-4.396 7.159,-11.409 -0.454,-15.659c-8.556,-4.24 -18.644,-4.142 -27.117,0.263c-7.362,4.392 -7.158,11.404 0.455,15.654c8.556,4.24 18.643,4.144 27.116,-0.258Z" style="fill:#fd7458;fill-rule:nonzero;"/></g><g id="Grupo_118008"><g id="Grupo_118007"><path id="Trazado_174191" d="M315.648,834.385c-0.246,-0.141 -0.317,-0.362 -0.146,-0.546c0.303,-0.237 0.706,-0.306 1.071,-0.183c2.879,0.83 5.555,2.249 7.858,4.167c0.238,0.212 0.138,0.496 -0.229,0.633c-0.365,0.138 -0.775,0.088 -1.096,-0.133c-2.135,-1.779 -4.617,-3.096 -7.287,-3.867c-0.059,-0.019 -0.116,-0.043 -0.171,-0.071Z" style="fill:#201712;fill-rule:nonzero;"/></g></g><g id="Grupo_118011"><g id="Grupo_118009"><path id="Trazado_174192" d="M322.869,831.877c-1.764,-1.469 -3.008,-3.469 -3.546,-5.7c-0.042,-0.188 -0.338,-0.321 -0.663,-0.3c-0.325,0.021 -0.558,0.196 -0.516,0.383c0.154,0.719 0.39,1.418 0.704,2.084c-0.399,-0.003 -0.796,0.06 -1.175,0.187c-1.133,0.383 -1.508,1.229 -0.833,1.879c0.936,0.695 2.16,0.877 3.258,0.484c0.114,-0.04 0.225,-0.088 0.333,-0.142c0.313,0.371 0.65,0.742 1.034,1.112l0.416,0.384c0.242,0.174 0.556,0.215 0.834,0.108c0.25,-0.104 0.333,-0.325 0.154,-0.479Z" style="fill:#201712;fill-rule:nonzero;"/></g><g id="Grupo_118010"><path id="Trazado_174193" d="M327.14,834.264c3.229,1.086 6.596,1.712 10,1.859c0.329,-0 0.57,0.183 0.537,0.375c-0.033,0.191 -0.321,0.329 -0.65,0.312c-1.25,-0.066 -2.446,-0.179 -3.604,-0.337c0.004,0.258 -0.099,0.507 -0.283,0.687c-0.915,0.715 -2.131,0.92 -3.23,0.546c-1.154,-0.362 -1.579,-1.2 -0.95,-1.867c0.071,-0.075 0.149,-0.142 0.234,-0.2c-0.654,-0.17 -1.304,-0.354 -1.963,-0.562l-0.675,-0.217c-0.283,-0.096 -0.379,-0.308 -0.216,-0.471c0.23,-0.168 0.529,-0.215 0.8,-0.125Z" style="fill:#201712;fill-rule:nonzero;"/></g></g></g><g id="Grupo_118022"><g id="Grupo_118013"><path id="Trazado_174194" d="M311.585,820.535c7.084,-4.583 6.421,-11.579 -1.483,-15.671c-8.656,-4.064 -18.755,-3.744 -27.137,0.859c-7.084,4.562 -6.421,11.579 1.483,15.671c8.656,4.064 18.755,3.744 27.137,-0.859Z" style="fill:#fde356;fill-rule:nonzero;"/></g><g id="Grupo_118014"><path id="Trazado_174195" d="M296.794,825.594c-1.527,0.756 -3.317,0.779 -4.863,0.062c-1.841,-0.954 -1.183,-2.312 -0.416,-2.8c2.63,-1.137 5.41,-1.893 8.254,-2.246c-0.426,1.939 -1.47,3.689 -2.975,4.984Z" style="fill:#558cff;fill-rule:nonzero;"/></g><g id="Grupo_118015"><path id="Trazado_174196" d="M293.24,819.539c-0.096,-0.043 -0.175,-0.114 -0.23,-0.204c-0.569,-0.945 -1.408,-1.7 -2.408,-2.166c-1.071,-0.538 -2.222,-0.898 -3.408,-1.067c-0.417,-0.067 -0.675,-0.321 -0.563,-0.567c0.235,-0.286 0.616,-0.411 0.975,-0.321c1.41,0.196 2.779,0.618 4.054,1.25c1.191,0.554 2.189,1.451 2.867,2.575c0.129,0.242 -0.104,0.5 -0.525,0.575c-0.256,0.056 -0.522,0.03 -0.762,-0.075Z" style="fill:#201712;fill-rule:nonzero;"/></g><g id="Grupo_118021"><g id="Grupo_118016"><path id="Trazado_174197" d="M305.756,817.494c-1.09,0.697 -2.448,0.838 -3.658,0.379c-0.942,-0.488 -0.833,-1.446 0.254,-2.142c1.09,-0.699 2.449,-0.84 3.658,-0.379c0.942,0.5 0.821,1.458 -0.254,2.142Z" style="fill:#201712;fill-rule:nonzero;"/></g><g id="Grupo_118017"><path id="Trazado_174198" d="M308.673,816.756c-0.116,-0.04 -0.196,-0.148 -0.2,-0.271c0.035,-0.936 -0.531,-1.798 -1.404,-2.137c-0.17,-0.088 -0.345,-0.165 -0.525,-0.229c-0.279,-0.105 -0.363,-0.317 -0.184,-0.475c0.243,-0.173 0.556,-0.213 0.834,-0.105c0.231,0.084 0.456,0.183 0.675,0.296c1.108,0.421 1.833,1.503 1.8,2.688c-0,0.187 -0.296,0.333 -0.625,0.325c-0.129,-0.002 -0.256,-0.033 -0.371,-0.092Z" style="fill:#201712;fill-rule:nonzero;"/></g><g id="Grupo_118020"><g id="Grupo_118018"><path id="Trazado_174199" d="M288.815,808.739c-1.084,0.696 -1.196,1.667 -0.255,2.142c1.21,0.459 2.569,0.318 3.659,-0.379c1.083,-0.696 1.196,-1.667 0.254,-2.142c-1.21,-0.461 -2.569,-0.32 -3.658,0.379Z" style="fill:#201712;fill-rule:nonzero;"/></g><g id="Grupo_118019"><path id="Trazado_174200" d="M289.781,806.989c-0.088,-0.038 -0.157,-0.11 -0.191,-0.2c-0.05,-0.187 0.17,-0.362 0.495,-0.416c1.646,-0.207 3.318,0.05 4.825,0.741c0.204,0.105 0.399,0.225 0.584,0.359c0.208,0.146 0.166,0.362 -0.092,0.483c-0.269,0.119 -0.58,0.1 -0.833,-0.05c-0.144,-0.103 -0.296,-0.195 -0.454,-0.275c-1.2,-0.544 -2.527,-0.743 -3.834,-0.575c-0.169,0.025 -0.343,0.002 -0.5,-0.067Z" style="fill:#201712;fill-rule:nonzero;"/></g></g></g></g></g></g></g><g id="Grupo_118151"><g id="Grupo_118099"><g id="Grupo_118090"><path id="Trazado_174277" d="M504.34,404.323l-14.684,-8.534l-38.004,-77.6l14.683,8.534l38.005,77.6Z" style="fill:#ffeae8;fill-rule:nonzero;"/><path id="Trazado_174278" d="M611.198,13.139c18.546,-10.708 33.625,-2.112 33.683,19.192l0.417,152.417c0.058,21.304 -14.921,47.254 -33.463,57.958l-70.045,40.442l-37.467,121.175l-38.004,-77.6l-70.046,40.437c-18.542,10.709 -33.621,2.113 -33.683,-19.191l-0.417,-152.417c-0.058,-21.304 14.921,-47.254 33.467,-57.958l215.558,-124.455Z" style="fill:#00ceeb;fill-rule:nonzero;"/><path id="Trazado_174279" d="M620.423,2.264c-6.104,-3.545 -14.558,-3.045 -23.888,2.342l-215.562,124.454c-18.542,10.704 -33.525,36.667 -33.467,57.959l0.417,152.416c0.029,10.584 3.75,18.034 9.792,21.534l14.683,8.533c-6.025,-3.5 -9.763,-10.95 -9.792,-21.533l-0.416,-152.417c-0.059,-21.304 14.92,-47.254 33.466,-57.958l215.559,-124.455c9.333,-5.387 17.787,-5.887 23.891,-2.341l-14.683,-8.534Z" style="fill:#ffeae8;fill-rule:nonzero;"/></g><g id="Grupo_118098"><g id="Grupo_118093"><g id="Grupo_118091"><path id="Trazado_174280" d="M536.319,132.144l0.187,65.537l-12.025,6.942l0.092,33.046l-28.825,-16.459l-39.267,22.671l-0.183,-65.554l80.021,-46.183Z" style="fill:#5000a1;fill-rule:nonzero;"/></g><g id="Grupo_118092"><path id="Trazado_174281" d="M447.923,210.677l0.129,45.7l44.771,-25.833l0.042,14.641l-24.634,14.221l-25.987,45l-0.084,-29.958l-12.82,7.404l-0.042,-14.642l-0.129,-45.7l18.754,-10.833Z" style="fill:#5000a1;fill-rule:nonzero;"/></g></g><g id="Grupo_118094"><path id="Trazado_174282" d="M591.198,79.323c3.883,-2.242 7.083,-0.417 7.083,4.033l0.167,58.813c-0.267,4.942 -2.882,9.469 -7.029,12.17l-65.734,37.95c-3.883,2.246 -7.033,0.417 -7.045,-4.045l-0.167,-58.813c0.256,-4.934 2.861,-9.457 7,-12.154l65.725,-37.954Z" style="fill:#fff;fill-rule:nonzero;"/></g><g id="Grupo_118097"><g id="Grupo_118095"><path id="Trazado_174283" d="M546.702,118.623c6.25,-3.609 9.513,-1.25 9.533,6.225l0,1.191c0.235,4.493 -1.37,8.893 -4.441,12.18c3.2,-0.255 4.483,2.462 4.5,7.2l-0,3.637c0.314,7.04 -3.347,13.691 -9.463,17.192c-6.25,3.608 -9.508,1.25 -9.533,-6.225l-0,-3.85l6.037,-3.488l0,4.342c0,3.3 1.25,3.862 3.313,2.679c2.432,-1.506 3.73,-4.337 3.283,-7.162l0,-3.667c0,-4.313 -1.296,-5.196 -4.196,-3.521l-2.154,1.25l0,-6.633l2.5,-1.446c2.579,-1.399 4.084,-4.212 3.817,-7.133l-0,-2.596c-0,-4.188 -1.292,-4.584 -3.313,-3.417c-2.262,1.337 -3.549,3.877 -3.287,6.492l-0,2.996l-6.038,3.487l0,-2.537c-0.319,-7.038 3.333,-13.689 9.442,-17.196Z" style="fill:#ffcf19;fill-rule:nonzero;"/></g><g id="Grupo_118096"><path id="Trazado_174284" d="M578.148,101.019l-0,6.633l-11.058,6.387l-0.5,11.434c1.046,-2.766 3.004,-5.095 5.55,-6.6c4.708,-2.721 7.083,-0.296 7.104,6.55l0.029,10.362c0.314,7.04 -3.347,13.691 -9.463,17.192c-6.25,3.608 -9.508,1.25 -9.529,-6.225l0,-3.85l6.013,-3.471l-0,4.342c-0,3.3 1.291,3.783 3.312,2.616c2.257,-1.311 3.544,-3.832 3.284,-6.429l-0.03,-10.271c0,-3.3 -1.25,-3.862 -3.308,-2.679c-2.252,1.347 -3.534,3.879 -3.287,6.492l-0,1.404l-6.013,3.471l1.096,-27.667l16.8,-9.691Z" style="fill:#ffcf19;fill-rule:nonzero;"/></g></g></g></g><g id="Grupo_118114"><g id="Grupo_118112"><path id="Trazado_174293" d="M225.148,729.16l-11.388,-6.616l-29.475,-60.18l11.388,6.617l29.475,60.179Z" style="fill:#ffeae8;fill-rule:nonzero;"/><path id="Trazado_174294" d="M308.023,425.777c14.379,-8.304 26.071,-1.638 26.121,14.883l0.333,118.204c-0.963,18.257 -10.621,34.987 -25.95,44.95l-54.325,31.363l-29.054,93.983l-29.475,-60.179l-54.321,31.363c-14.379,8.3 -26.075,1.637 -26.121,-14.888l-0.333,-118.2c0.96,-18.257 10.619,-34.989 25.95,-44.95l167.175,-96.529Z" style="fill:#00ceeb;fill-rule:nonzero;"/><path id="Trazado_174295" d="M315.16,417.344c-4.733,-2.75 -11.291,-2.363 -18.525,1.816l-167.175,96.517c-15.331,9.96 -24.991,26.692 -25.95,44.95l0.334,118.2c0.025,8.208 2.916,13.983 7.596,16.7l11.387,6.617c-4.675,-2.717 -7.571,-8.492 -7.596,-16.7l-0.333,-118.2c0.96,-18.258 10.619,-34.989 25.95,-44.95l167.175,-96.517c7.233,-4.167 13.792,-4.583 18.525,-1.817l-11.388,-6.616Z" style="fill:#ffeae8;fill-rule:nonzero;"/></g><g id="Grupo_118113"><path id="Trazado_174296" d="M207.506,535.319c4.468,-3.232 10.346,-3.818 15.363,-1.53l2.337,1.38l2.346,-4.038c3.612,-6.474 8.813,-11.924 15.113,-15.833c4.466,-3.233 10.346,-3.814 15.358,-1.517c8.333,4.871 8.304,20.683 -0.108,35.108l-32.909,56.521l-32.704,-19.133c-8.333,-4.896 -8.304,-20.683 0.104,-35.108c3.604,-6.481 8.802,-11.937 15.1,-15.85Z" style="fill:#5000a1;fill-rule:nonzero;"/></g></g><g id="Grupo_118122"><g id="Grupo_118115"><path id="Trazado_174297" d="M774.46,520.802l-17.541,-10.196l-45.417,-92.712l17.542,10.195l45.416,92.713Z" style="fill:#ffeae8;fill-rule:nonzero;"/><path id="Trazado_174298" d="M902.135,53.427c22.155,-12.792 40.171,-2.525 40.242,22.917l0.517,182.083c0.071,25.454 -17.829,56.458 -40,69.25l-83.688,48.333l-44.762,144.771l-45.417,-92.712l-83.687,48.333c-22.155,12.792 -40.171,2.525 -40.242,-22.917l-0.508,-182.116c-0.071,-25.455 17.829,-56.459 40,-69.246l257.545,-148.696Z" style="fill:#00ceeb;fill-rule:nonzero;"/><path id="Trazado_174299" d="M913.135,40.435c-7.295,-4.237 -17.395,-3.641 -28.545,2.796l-257.546,148.696c-22.154,12.787 -40.05,43.792 -40,69.25l0.516,182.083c0.034,12.646 4.5,21.542 11.7,25.729l17.542,10.192c-7.2,-4.167 -11.667,-13.079 -11.7,-25.729l-0.512,-182.083c-0.071,-25.455 17.829,-56.459 40,-69.246l257.545,-148.696c11.146,-6.438 21.25,-7.033 28.542,-2.796l-17.542,-10.196Z" style="fill:#ffeae8;fill-rule:nonzero;"/></g><g id="Grupo_118121"><g id="Grupo_118116"><path id="Trazado_174300" d="M786.54,200.264c15.108,5.33 24.829,21.188 24.9,45.146c0.07,23.959 -9.534,50.975 -24.584,73.7c-0.3,0.538 -0.65,1.046 -1.046,1.517c-10.487,16.119 -24.421,29.712 -40.795,39.796c-15.446,8.921 -29.671,10.987 -41.017,7.329c-0.318,-0.031 -0.63,-0.11 -0.925,-0.233c-15.104,-5.363 -24.825,-21.188 -24.896,-45.184c-0.071,-23.996 9.504,-50.921 24.496,-73.625c0.332,-0.587 0.714,-1.144 1.142,-1.666c10.485,-16.097 24.408,-29.67 40.766,-39.742c15.384,-8.883 29.546,-10.95 40.888,-7.367c0.38,0.012 0.749,0.126 1.071,0.329Zm-41.817,49.388c-6.2,3.649 -12.927,6.319 -19.942,7.917c-2.714,11.445 -4.26,23.137 -4.612,34.895l49.233,-28.425c-0.177,-10.001 -1.798,-19.924 -4.812,-29.462c-6.036,5.759 -12.707,10.813 -19.884,15.067m0.192,68.441c6.19,-3.646 12.905,-6.316 19.908,-7.916c2.73,-11.442 4.276,-23.134 4.613,-34.892l-49.234,28.425c0.189,9.999 1.804,19.92 4.796,29.462c6.046,-5.767 12.728,-10.829 19.917,-15.087m56.433,-72.5c-1.287,-16.083 -8.166,-27.113 -18.429,-31.942c-2.917,4.025 -5.996,7.888 -9.2,11.534c3.458,10.729 5.313,21.911 5.504,33.183l22.125,-12.775m-18.158,64.333c10.147,-16.019 16.379,-34.207 18.187,-53.083l-22.12,12.771c-0.385,13.29 -2.161,26.504 -5.3,39.425c3.102,-0.072 6.201,0.226 9.233,0.887m-76.746,-52.121c-10.145,16.029 -16.385,34.219 -18.217,53.1l22.155,-12.791c0.358,-13.284 2.123,-26.493 5.266,-39.404c-3.092,0.054 -6.181,-0.25 -9.204,-0.905m-18.183,64.346c1.316,16.067 8.191,27.084 18.458,31.925c2.917,-4.025 5.996,-7.887 9.167,-11.512c-3.463,-10.734 -5.308,-21.923 -5.475,-33.2l-22.15,12.787m56.741,26.979c5.625,-3.25 11.555,-12.962 16.163,-26.379c-5.702,1.397 -11.167,3.628 -16.217,6.621c-5.846,3.428 -11.296,7.492 -16.25,12.117c4.7,8.037 10.629,10.908 16.288,7.641m-0.367,-130.533c-5.658,3.267 -11.554,12.963 -16.196,26.4c5.714,-1.404 11.189,-3.642 16.25,-6.642c5.83,-3.417 11.263,-7.469 16.2,-12.083c-4.671,-8.058 -10.629,-10.908 -16.25,-7.662m-29.6,137.954c2.851,0.377 5.736,0.418 8.596,0.121c-1.529,-1.783 -2.868,-3.72 -3.996,-5.78c-1.554,1.813 -3.108,3.7 -4.583,5.659m8.254,-120.771c-3.021,3.199 -5.88,6.548 -8.567,10.033c1.529,0.223 3.072,0.335 4.617,0.334c1.229,-3.638 2.525,-7.084 3.95,-10.367m43.125,96.192c3.011,-3.188 5.859,-6.526 8.533,-10c-1.527,-0.233 -3.071,-0.345 -4.616,-0.334c-1.2,3.617 -2.525,7.084 -3.917,10.346m8.221,-120.75c-2.838,-0.387 -5.713,-0.435 -8.563,-0.142c1.518,1.792 2.846,3.735 3.963,5.8c1.587,-1.833 3.108,-3.7 4.583,-5.658" style="fill:#5000a1;fill-rule:nonzero;"/></g><g id="Grupo_118117"><path id="Trazado_174301" d="M877.852,161.423c4.642,-2.679 8.438,-0.517 8.45,4.816l0.2,70.267c-0.316,5.905 -3.44,11.316 -8.396,14.542l-78.516,45.329c-4.675,2.696 -8.438,0.517 -8.45,-4.817l-0.2,-70.271c0.308,-5.907 3.434,-11.321 8.395,-14.541l78.517,-45.325Z" style="fill:#fff;fill-rule:nonzero;"/></g><g id="Grupo_118120"><g id="Grupo_118118"><path id="Trazado_174302" d="M829.427,207.114l0.163,55.621l-7.596,4.388l-0.121,-42.438l-5.879,3.392l-0,-6.208c4.453,-2.429 7.534,-6.792 8.333,-11.8l5.1,-2.955Z" style="fill:#ffcf19;fill-rule:nonzero;"/></g><g id="Grupo_118119"><path id="Trazado_174303" d="M849.956,194.639c7.471,-4.312 11.363,-1.475 11.388,7.438c0.05,17.454 -15.063,32.729 -15.038,41.858c-0.008,0.392 0.015,0.783 0.067,1.171l14.4,-8.312l0.021,7.916l-21.992,12.696l-0.021,-6.829c-0.046,-16.363 15,-27.763 14.967,-43.833c-0,-5 -1.546,-5.475 -3.958,-4.08c-2.69,1.61 -4.222,4.634 -3.93,7.755l0.021,5.991l-7.183,4.146l-0,-5.417c-0.385,-8.39 3.972,-16.322 11.258,-20.5Z" style="fill:#ffcf19;fill-rule:nonzero;"/></g></g></g></g></g></g></svg>