<svg xmlns="http://www.w3.org/2000/svg" width="448.364" height="412" viewBox="0 0 448.364 412">
  <g id="Grupo_111722" data-name="Grupo 111722" transform="translate(-70.144 -56.706)">
    <g id="Grupo_111688" data-name="Grupo 111688" transform="translate(114.406 80.871)">
      <g id="Grupo_111676" data-name="Grupo 111676">
        <g id="Grupo_111667" data-name="Grupo 111667" transform="translate(4.05)">
          <path id="Trazado_171788" data-name="Trazado 171788" d="M402.8,422.385,289.958,98.059C285.7,85.825,272.911,76.829,261.4,77.977L128.743,91.2c-8.861.883-14.364,7.534-14.492,16.129-2.036,3.61-2.42,8.406-.647,13.5L224.083,438.351a25.8,25.8,0,0,0,13.636,14.678c5.605,4.759,12.657,7.481,19.292,6.821l132.653-13.225C401.179,445.476,407.06,434.619,402.8,422.385Z" transform="translate(-112.473 -77.878)" fill="#c75e21"/>
        </g>
        <g id="Grupo_111668" data-name="Grupo 111668" transform="translate(4.05)">
          <path id="Trazado_171789" data-name="Trazado 171789" d="M402.8,422.385,289.958,98.059C285.7,85.825,272.911,76.829,261.4,77.977L128.743,91.2c-8.861.883-14.364,7.534-14.492,16.129-2.036,3.61-2.42,8.406-.647,13.5L224.083,438.351a25.8,25.8,0,0,0,13.636,14.678c5.605,4.759,12.657,7.481,19.292,6.821l132.653-13.225C401.179,445.476,407.06,434.619,402.8,422.385Z" transform="translate(-112.473 -77.878)" fill="#5000a1"/>
        </g>
        <g id="Grupo_111670" data-name="Grupo 111670" transform="translate(75.849 11.104)">
          <g id="Grupo_111669" data-name="Grupo 111669">
            <path id="Trazado_171790" data-name="Trazado 171790" d="M193.438,87.615a2.261,2.261,0,0,1,2.172,1.527,1.278,1.278,0,0,1-1,1.843l-16.952,1.69a2.261,2.261,0,0,1-2.172-1.527,1.278,1.278,0,0,1,1-1.843Z" transform="translate(-175.382 -87.608)" fill="#fae5c6"/>
          </g>
        </g>
        <g id="Grupo_111672" data-name="Grupo 111672" transform="translate(98.677 10.514)">
          <g id="Grupo_111671" data-name="Grupo 111671">
            <path id="Trazado_171791" data-name="Trazado 171791" d="M196.474,87.1a1.488,1.488,0,0,1,.333.006.915.915,0,0,1,.333.072l.323.127.315.191a2.247,2.247,0,0,1,.543.506,2.3,2.3,0,0,1,.348.631,1.52,1.52,0,0,1-.064,1.243,1.134,1.134,0,0,1-.934.6,1.93,1.93,0,0,1-1.294-.378,2.355,2.355,0,0,1-.878-1.149,1.858,1.858,0,0,1-.118-.654,1.425,1.425,0,0,1,.167-.576A1.128,1.128,0,0,1,196.474,87.1Z" transform="translate(-195.383 -87.09)" fill="#fae5c6"/>
          </g>
        </g>
        <g id="Grupo_111674" data-name="Grupo 111674" transform="translate(9.849 4.049)">
          <g id="Grupo_111673" data-name="Grupo 111673">
            <path id="Trazado_171792" data-name="Trazado 171792" d="M385.178,435.285,252.521,448.513c-9.416.936-19.871-6.426-23.352-16.424L189.291,317.5,154.458,217.382,144.425,188.54l-22.073-63.47-3.664-10.512c-3.481-10.009,1.324-18.889,10.74-19.825l33.795-3.367a9.1,9.1,0,0,1,5.513,1.392L175.6,96.9a9.073,9.073,0,0,0,5.513,1.381l35.142-3.492a5.726,5.726,0,0,0,4.212-2.363l3.629-5.182a5.7,5.7,0,0,1,4.212-2.374l33.783-3.367c9.416-.936,19.882,6.426,23.363,16.435l7.51,21.571,21.742,62.5,10.261,29.481,2.7,7.8,17.725,50.938,2.625,7.533,47.913,137.7C399.411,425.47,394.594,434.349,385.178,435.285Z" transform="translate(-117.555 -81.426)" fill="#fbf8f1"/>
          </g>
        </g>
        <g id="Grupo_111675" data-name="Grupo 111675" transform="translate(0 17.776)">
          <path id="Trazado_171793" data-name="Trazado 171793" d="M390.164,444.423,257.512,457.648c-11.507,1.147-24.3-7.849-28.554-20.084L116.112,113.239c-2.76-7.931-1.258-15.282,3.273-19.786l-5.8,5.765c-4.531,4.5-6.033,11.856-3.273,19.787L223.157,443.33c4.257,12.234,17.047,21.23,28.554,20.084l132.653-13.225a15.98,15.98,0,0,0,9.868-4.457l5.8-5.765A15.979,15.979,0,0,1,390.164,444.423Z" transform="translate(-108.925 -93.453)" fill="#12263f"/>
        </g>
      </g>
      <g id="Grupo_111679" data-name="Grupo 111679" transform="translate(14.647 19.963)">
        <g id="Grupo_111678" data-name="Grupo 111678">
          <g id="Grupo_111677" data-name="Grupo 111677">
            <path id="Trazado_171794" data-name="Trazado 171794" d="M397.9,136.511c-2.477,7.6-45.916,3.3-46.658,4.839s5.17,4.7,3.732,7.339-7.989,5.9-8.48,6.871,2.363,3.995,2,6.985-7.259,5.353-7.259,5.353c0,.148-.011,7.042-2.2,9.519-1.78,2.02-7.693,3.938-24.927,2.625-4.234-.32-9.153-.833-14.86-1.6-10.923-1.449-116.222,5.467-155.415,8.126L121.758,123.1c21.08,1.381,136.983,8.834,147.883,8.161,7.27-.445,15.1-7.841,22.724-13.719,4.953-3.835,9.827-7.019,14.4-7.236,20.909-1.016,28.134-19.357,33.418-13.936,7.8,8-15.5,26.342-15.5,26.342S399.9,130.37,397.9,136.511Z" transform="translate(-121.758 -95.37)" fill="#feb070"/>
          </g>
        </g>
      </g>
      <g id="Grupo_111687" data-name="Grupo 111687" transform="translate(46.752 108.543)">
        <g id="Grupo_111683" data-name="Grupo 111683" transform="translate(21.967)">
          <g id="Grupo_111680" data-name="Grupo 111680">
            <path id="Trazado_171795" data-name="Trazado 171795" d="M191.32,288.4S359.189,251.68,374.03,250.841s40.944-4.513,42.936-7.584.832-10.679.832-10.679,7.072-3.667,6.99-6.971-3.661-6.118-3.292-7.25,6.932-5.734,8.06-8.826-5.594-12.554-5.044-14.341,48.515-4.4,48.321-11.706c-.178-6.734-53.91-4.012-53.91-4.012s.119-.962-7.263-4.726-35.48-.589-40.572,1.051-23.931,25.992-36.814,28.746-165.138,15.545-165.138,15.545Z" transform="translate(-169.135 -172.98)" fill="#e8935d"/>
          </g>
          <g id="Grupo_111681" data-name="Grupo 111681" transform="translate(193.445 14.739)">
            <path id="Trazado_171796" data-name="Trazado 171796" d="M339.767,218.754a1.142,1.142,0,0,1-.417-2.205C363.5,207.1,369.279,188,369.335,187.808a1.142,1.142,0,0,1,1.075-.825l12.843-.247h.023a1.142,1.142,0,0,1,1.095.817c3.374,11.391,8.056,21.4,9.846,21,1.87-.422,3.051-10.45,2.527-21.459a1.142,1.142,0,1,1,2.28-.108c.252,5.3.685,22.668-4.3,23.795-4.788,1.069-10.013-14.213-12.289-21.741l-11.167.215c-1.375,3.914-8.416,20.562-31.082,29.425A1.137,1.137,0,0,1,339.767,218.754Z" transform="translate(-338.625 -185.894)" fill="#bf6019"/>
          </g>
          <g id="Grupo_111682" data-name="Grupo 111682" transform="translate(195.139 57.869)">
            <path id="Trazado_171797" data-name="Trazado 171797" d="M356.4,234.73a1.134,1.134,0,0,1-.645-.2,113.882,113.882,0,0,0-15.008-8.68,1.141,1.141,0,0,1,1.007-2.049,116.122,116.122,0,0,1,15.294,8.846,1.141,1.141,0,0,1-.647,2.083Z" transform="translate(-340.109 -223.683)" fill="#bf6019"/>
          </g>
        </g>
        <g id="Grupo_111684" data-name="Grupo 111684" transform="translate(0 18.594)">
          <path id="Trazado_171798" data-name="Trazado 171798" d="M300.327,269.4s.126,13.137-16.264,17.736c-11.55,3.253-67.384,10.888-99.342,15.123L149.888,202.139c31.729-3.664,116.747-13.319,125.524-12.851,12.315.673,13.4,9.61,13.4,9.61l1.381,8.434,9.176,56.176Z" transform="translate(-149.888 -189.272)" fill="#59ffcc"/>
        </g>
        <g id="Grupo_111685" data-name="Grupo 111685" transform="translate(134.217 24.178)">
          <path id="Trazado_171799" data-name="Trazado 171799" d="M320.373,201.548a13.322,13.322,0,0,0,6.743-2.91l-1.058-2.132c-2.208-3.142-4.918-2.287-8.754-2.08L272.2,198.206c-15.285,33.821,11.508,70.5,11.508,70.5l44.779-7.14a11.145,11.145,0,0,0,8.371-6.352l1.721-3.747-8.87,1.44s-6.713-7.726-9.82-26.83S320.373,201.548,320.373,201.548Z" transform="translate(-267.485 -194.164)" fill="#59ffcc"/>
        </g>
        <g id="Grupo_111686" data-name="Grupo 111686" transform="translate(134.235 30.867)">
          <path id="Trazado_171800" data-name="Trazado 171800" d="M282,266.35a1.142,1.142,0,0,1-.961-.523c-12.7-19.71-16.972-45.838-10.636-65.02a1.142,1.142,0,0,1,2.169.716c-6.132,18.562-1.957,43.906,10.386,63.067a1.141,1.141,0,0,1-.958,1.76Z" transform="translate(-267.5 -200.025)" fill="#261b13"/>
        </g>
      </g>
    </g>
    <g id="Grupo_111691" data-name="Grupo 111691" transform="translate(90.671 362.903)">
      <g id="Grupo_111689" data-name="Grupo 111689">
        <path id="Trazado_171801" data-name="Trazado 171801" d="M190.219,337.381l-19.251,6.767a45.534,45.534,0,1,0,4.564,7.984Z" transform="translate(-88.129 -324.986)" fill="#5000a1"/>
      </g>
      <g id="Grupo_111690" data-name="Grupo 111690" transform="translate(11.627 26.894)">
        <path id="Trazado_171802" data-name="Trazado 171802" d="M132.353,375.761c24.73,0,34.038-12.888,34.038-12.888,0,15.768-13.976,32.954-34.038,32.954S98.316,378.64,98.316,362.873C98.316,362.873,107.624,375.761,132.353,375.761ZM108.07,348.55A16.94,16.94,0,0,0,124.8,365.687C122.976,357.121,116.729,349.85,108.07,348.55Zm31.84,17.137a16.942,16.942,0,0,0,16.727-17.137C147.978,349.85,141.73,357.121,139.91,365.687Z" transform="translate(-98.316 -348.55)" fill="#fff"/>
      </g>
    </g>
    <g id="Grupo_111694" data-name="Grupo 111694" transform="translate(70.144 131.948)">
      <g id="Grupo_111692" data-name="Grupo 111692">
        <circle id="Elipse_4176" data-name="Elipse 4176" cx="68.927" cy="68.927" r="68.927" transform="matrix(0.929, -0.369, 0.369, 0.929, 0, 50.864)" fill="#fff"/>
      </g>
      <g id="Grupo_111693" data-name="Grupo 111693" transform="translate(48.913 50.436)">
        <path id="Trazado_171803" data-name="Trazado 171803" d="M127.456,204.9a26.126,26.126,0,0,1,52.251,0c0,11.159-1.769,18.573-11.614,21.369v6.443a1.746,1.746,0,0,1-1.747,1.746H140.818a1.747,1.747,0,0,1-1.747-1.746v-6.443C129.225,223.47,127.456,216.056,127.456,204.9Zm14.046-7.648a8.725,8.725,0,1,0,9.27,8.708A9,9,0,0,0,141.5,197.249Zm14.889,8.708a9.289,9.289,0,1,0,9.27-8.708A9,9,0,0,0,156.391,205.957Zm-2.809,10.335s-7.866,5.9,0,5.9S153.582,216.292,153.582,216.292Zm-17.788-34.223-5.895-5.895a5.478,5.478,0,1,0-8.495-.947,5.475,5.475,0,1,0,.946,8.495l5.848,5.848Q131.995,185.819,135.795,182.069Zm43.17,7.5,5.848-5.848a5.478,5.478,0,1,0,.947-8.495,5.474,5.474,0,1,0-8.495.947l-5.9,5.895Q175.177,185.81,178.965,189.57Zm-7.6,40.122,5.9,5.895a5.478,5.478,0,1,0,8.495.947,5.474,5.474,0,1,0-.947-8.495l-5.848-5.848Q175.169,225.943,171.369,229.692Zm-43.17-7.5-5.848,5.848a5.478,5.478,0,1,0-.946,8.495,5.474,5.474,0,1,0,8.495-.947l5.895-5.895Q131.987,225.952,128.2,222.192Z" transform="translate(-113 -166.822)" fill="#5000a1"/>
      </g>
    </g>
    <g id="Grupo_111698" data-name="Grupo 111698" transform="translate(143.115 262.073)">
      <g id="Grupo_111695" data-name="Grupo 111695" transform="translate(0.379 0.934)">
        <path id="Trazado_171804" data-name="Trazado 171804" d="M134.411,262.9a68.874,68.874,0,0,0,65.465-18.876A46.7,46.7,0,0,0,134.411,262.9Z" transform="translate(-134.411 -237.46)" fill="#001a2d"/>
      </g>
      <g id="Grupo_111696" data-name="Grupo 111696">
        <circle id="Elipse_4177" data-name="Elipse 4177" cx="46.71" cy="46.71" r="46.71" fill="#00ceeb"/>
      </g>
      <g id="Grupo_111697" data-name="Grupo 111697" transform="translate(28.054 22.494)">
        <path id="Trazado_171805" data-name="Trazado 171805" d="M158.659,298.337a6.445,6.445,0,1,1,6.445,6.445A6.485,6.485,0,0,1,158.659,298.337Zm.34-28.421V256.35h12.21v13.566l-2.036,16.959h-8.139Zm24.08,28.421a6.445,6.445,0,1,1,6.445,6.445A6.486,6.486,0,0,1,183.079,298.337Zm.34-28.421V256.35h12.21v13.566l-2.035,16.959h-8.139Z" transform="translate(-158.659 -256.35)" fill="#fff"/>
      </g>
    </g>
    <g id="Grupo_111699" data-name="Grupo 111699" transform="translate(398.696 244.844)">
      <path id="Trazado_171806" data-name="Trazado 171806" d="M373.546,238.829c-5.835,0-12.3-1.89-14.308-3.707-2.63-2.382-.332-10.385.434-12.782a1.142,1.142,0,1,1,2.175.7c-1.362,4.257-2.118,9.45-1.076,10.393,1.961,1.778,11.063,4.132,16.987,2.667a1.141,1.141,0,0,1,.548,2.215A20,20,0,0,1,373.546,238.829Z" transform="translate(-358.01 -221.547)" fill="#bf6019"/>
    </g>
    <g id="Grupo_111700" data-name="Grupo 111700" transform="translate(399.407 218.702)">
      <path id="Trazado_171807" data-name="Trazado 171807" d="M371.241,218.046a4.328,4.328,0,0,1-.725-.043c-1.641-.306-5.594-6.253-11.747-17.678a1.142,1.142,0,0,1,2.01-1.083c4.012,7.449,8.892,15.577,10.249,16.529,1.614.13,12-1.069,21.2-2.3a1.142,1.142,0,0,1,.3,2.263C389.467,216.142,375.049,218.046,371.241,218.046Zm-.151-2.236Z" transform="translate(-358.634 -198.641)" fill="#bf6019"/>
    </g>
    <g id="Grupo_111701" data-name="Grupo 111701" transform="translate(396.248 225.15)">
      <path id="Trazado_171808" data-name="Trazado 171808" d="M370.283,232.812a9.689,9.689,0,0,1-3.231-.357c-2.892-1.254-10.563-10.161-11.15-14.266-.571-3.991,5.718-11.927,6.984-13.478a1.141,1.141,0,0,1,1.768,1.444c-2.687,3.292-6.825,9.382-6.493,11.711.463,3.24,7.558,11.522,9.8,12.494,1.412.613,10.953-.275,19.366-1.486a1.141,1.141,0,0,1,.325,2.259C385.33,231.467,375.662,232.812,370.283,232.812Z" transform="translate(-355.866 -204.291)" fill="#bf6019"/>
    </g>
    <g id="Grupo_111702" data-name="Grupo 111702" transform="translate(407.236 205.241)">
      <path id="Trazado_171809" data-name="Trazado 171809" d="M376.974,200.508a1.14,1.14,0,0,1-.845-.374l-10.34-11.377a1.142,1.142,0,1,1,1.69-1.535l9.956,10.955,5.771-.544a1.141,1.141,0,1,1,.213,2.272l-6.338.6A.846.846,0,0,1,376.974,200.508Z" transform="translate(-365.493 -186.847)" fill="#bf6019"/>
    </g>
    <g id="Grupo_111703" data-name="Grupo 111703" transform="translate(417.595 125.558)" opacity="0.47">
      <path id="Trazado_171810" data-name="Trazado 171810" d="M463.595,117.032l-67.184,13.136,18.632,15.038L374.57,161.783l72.951-10.432-18.4-18.432Z" transform="translate(-374.57 -117.032)" fill="#59ffcc"/>
    </g>
    <g id="Grupo_111704" data-name="Grupo 111704" transform="translate(465.42 213.788)" opacity="0.47">
      <path id="Trazado_171811" data-name="Trazado 171811" d="M469.56,198.5l-36.709-4.16,7.144,10.767-23.522,1.952,39.237,6.489-6.471-12.475Z" transform="translate(-416.473 -194.336)" fill="#59ffcc"/>
    </g>
    <g id="Grupo_111705" data-name="Grupo 111705" transform="translate(408.382 273.556)" opacity="0.47">
      <path id="Trazado_171812" data-name="Trazado 171812" d="M436.729,259.845,390.3,246.7l6.924,15.391L366.5,259.624,415.69,276.3l-5.7-17.449Z" transform="translate(-366.497 -246.703)" fill="#59ffcc"/>
    </g>
    <g id="Grupo_111709" data-name="Grupo 111709" transform="translate(267.618 302.409)">
      <g id="Grupo_111706" data-name="Grupo 111706" transform="translate(1.15 0)">
        <path id="Trazado_171813" data-name="Trazado 171813" d="M383.527,393.045,344.894,282.01l-.769.483L327.4,271.984l-12.968,15.1-19.064-4.6-7.121,18.748-44.077-9.373,27.161,32.9L257.519,338.9l13.813,14.129L269,372.926l19.242,3.625,7.123,18.749,19.066-4.6,12.969,15.1,16.72-10.51,16.722,10.509,12.968-15.1Z" transform="translate(-244.172 -271.984)" fill="#001a2d"/>
      </g>
      <g id="Grupo_111707" data-name="Grupo 111707">
        <path id="Trazado_171814" data-name="Trazado 171814" d="M430.871,336.848l-13.813,13.7,2.326,19.293-19.242,3.512-7.121,18.174-19.064-4.457-12.968,14.643-16.722-10.188-16.72,10.188-12.969-14.643-19.066,4.456-7.123-18.176-19.242-3.513,2.327-19.292-13.812-13.7,13.813-13.7-28.31-32.608,45.227,9.8,7.121-18.174,19.064,4.457,12.968-14.643,16.722,10.188,16.72-10.188,12.969,14.643,19.066-4.456,7.123,18.176,19.242,3.513-2.327,19.292Z" transform="translate(-243.164 -271.983)" fill="#ffcf19"/>
      </g>
      <g id="Grupo_111708" data-name="Grupo 111708" transform="translate(43.888 29.97)">
        <path id="Trazado_171815" data-name="Trazado 171815" d="M300.321,314.987l-.572,3.266h4.329l-.694,4.493h-4.369l-1.021,6.126h-4.656l1.022-6.126H290.6l-1.021,6.126h-4.656l1.022-6.126h-4.329l.734-4.493h4.329l.572-3.266h-4.369l.735-4.491h4.37l1.02-6.127h4.655l-1.02,6.127H296.4l1.02-6.127h4.656l-1.02,6.127h4.288l-.736,4.491Zm-4.656,0h-3.757l-.572,3.266h3.757ZM320.173,331.4V335h-2.859v-3.553c-4.614-.326-8.045-2.695-9.515-6.615l5.636-3.268c.858,1.961,2.042,3.1,3.879,3.431v-5.636c-.163-.082-.368-.122-.531-.2-3.553-1.43-7.8-3.43-7.8-8.9,0-5.309,4-8.045,8.332-8.455v-3.553h2.859v3.636a9.746,9.746,0,0,1,8.045,5.92l-5.513,3.227a4.027,4.027,0,0,0-2.533-2.655v5.514c3.553,1.511,8.372,2.859,8.372,8.821C328.545,327.809,325.033,330.833,320.173,331.4Zm-2.859-18.867v-4.289a2.075,2.075,0,0,0-1.8,2.042C315.518,311.066,315.885,311.72,317.314,312.537Zm4.7,10.25c0-1.021-.613-1.634-1.838-2.247v4.37A2.144,2.144,0,0,0,322.011,322.787Zm9.805-14.091a6.923,6.923,0,0,1,7.106-6.942,6.839,6.839,0,0,1,7.065,6.942,7.087,7.087,0,0,1-14.171,0ZM353.665,306l2.7,1.552L337.9,328.015l-2.695-1.592ZM341.086,308.7a2.186,2.186,0,1,0-2.205,2.247A2.2,2.2,0,0,0,341.086,308.7Zm5.31,15.765A7.087,7.087,0,1,1,353.5,331.4,6.924,6.924,0,0,1,346.4,324.462Zm9.271,0a2.186,2.186,0,1,0-2.206,2.246A2.205,2.205,0,0,0,355.667,324.462Zm37.74-4.574c0,5.84-2.819,8.943-6.7,8.943-2.9,0-4.779-1.266-5.6-3.185a4.911,4.911,0,0,1-3.92,1.8c-3.431,0-5.8-2.859-5.8-6.738s2.368-6.738,5.8-6.738a5.01,5.01,0,0,1,3.512,1.347v-.857h4.983v9.637c0,1.674.694,2.7,2.286,2.7,2.206,0,3.8-2.205,3.8-6.9a12.405,12.405,0,0,0-12.66-12.5A13.094,13.094,0,0,0,365.882,320.7c0,7.677,5.88,13.314,13.966,13.314a19.357,19.357,0,0,0,6.494-.982v1.553a21.105,21.105,0,0,1-6.494.9c-8.9,0-15.6-6.209-15.6-14.784a14.645,14.645,0,0,1,14.866-14.784A13.962,13.962,0,0,1,393.407,319.887Zm-12.742.817a2.114,2.114,0,1,0-4.207,0,2.114,2.114,0,1,0,4.207,0ZM315.149,350.9l-.572,3.266h4.329l-.7,4.493h-4.369l-1.02,6.126h-4.657l1.022-6.126H305.43l-1.021,6.126h-4.656l1.022-6.126h-4.329l.734-4.493h4.329l.572-3.266h-4.369l.735-4.492h4.37l1.02-6.125h4.657l-1.022,6.125h3.757l1.021-6.125h4.656l-1.022,6.125h4.288l-.736,4.492Zm-4.656,0h-3.757l-.572,3.266h3.757Zm13.154,12.619a3.88,3.88,0,1,1,3.879,3.881A3.9,3.9,0,0,1,323.648,363.517Zm.2-17.111v-8.167h7.35v8.167l-1.225,10.21h-4.9ZM335.9,363.517a3.88,3.88,0,1,1,3.881,3.881A3.9,3.9,0,0,1,335.9,363.517Zm.2-17.111v-8.167h7.35v8.167l-1.225,10.21h-4.9Zm24.506-.816-3.675-.369,2.246,2.818-2.982,1.88-1.715-3.472-1.714,3.472-2.982-1.88,2.247-2.818-3.676.369V342l3.676.366-2.247-2.817,2.982-1.879,1.714,3.471,1.715-3.471,2.982,1.879-2.246,2.817,3.675-.366Zm17.154,0-3.675-.369,2.246,2.818-2.981,1.88-1.715-3.472-1.715,3.472-2.982-1.88,2.247-2.818-3.675.369V342l3.675.366-2.247-2.817,2.982-1.879,1.715,3.471,1.715-3.471,2.981,1.879-2.246,2.817,3.675-.366Z" transform="translate(-281.618 -298.242)" fill="#fff"/>
      </g>
    </g>
    <g id="Grupo_111713" data-name="Grupo 111713" transform="translate(361.823 56.706)">
      <g id="Grupo_111711" data-name="Grupo 111711">
        <g id="Grupo_111710" data-name="Grupo 111710">
          <circle id="Elipse_4178" data-name="Elipse 4178" cx="33.177" cy="33.177" r="33.177" fill="#fff"/>
        </g>
      </g>
      <g id="Grupo_111712" data-name="Grupo 111712" transform="translate(15.87 18.519)">
        <path id="Trazado_171816" data-name="Trazado 171816" d="M347.582,95.083h-6.5a1.471,1.471,0,0,1-1.471-1.471V76.986a1.472,1.472,0,0,1,1.471-1.472h6.5a1.472,1.472,0,0,1,1.471,1.472V93.612A1.471,1.471,0,0,1,347.582,95.083Zm26.611-7.852a2.764,2.764,0,0,0-2.763-2.816h.026a2.715,2.715,0,0,0,2.7-2.222,2.686,2.686,0,0,0-2.646-3.146h-1.325a2.038,2.038,0,0,0,2.038-2.038,4.077,4.077,0,0,0-4.077-4.077h-7.37a11.445,11.445,0,0,0-3.645.6L351.9,75.29a.98.98,0,0,0-.669.929V94.1a.981.981,0,0,0,.982.982h0a2.787,2.787,0,0,1,2.456,1.469l2.2,4.1,1.432,3.528a3.606,3.606,0,0,0,4.327,2.11h0A3.605,3.605,0,0,0,365,101.509l-2.014-5.135h8.289a2.922,2.922,0,0,0,2.922-2.922v-.587a2.922,2.922,0,0,0-2.922-2.922h.066A2.824,2.824,0,0,0,374.194,87.231Z" transform="translate(-339.609 -72.932)" fill="#5000a1"/>
      </g>
    </g>
    <g id="Grupo_111720" data-name="Grupo 111720" transform="translate(192.761 387.346)">
      <g id="Grupo_111714" data-name="Grupo 111714" transform="translate(24.967 2.452)">
        <path id="Trazado_171817" data-name="Trazado 171817" d="M214.826,397.665l54.781-4.794c4.309-.377,6.623-4.392,5.162-8.975l-8.827-27.7c-1.461-4.585-6.143-8-10.451-7.622l-56.038,4.9Z" transform="translate(-199.452 -348.55)" fill="#001a2d"/>
      </g>
      <g id="Grupo_111715" data-name="Grupo 111715" transform="translate(0)">
        <path id="Trazado_171818" data-name="Trazado 171818" d="M280.306,381.747l-8.827-27.7c-1.461-4.584-6.143-8-10.451-7.621l-77.855,6.811c-4.307.377-6.619,4.4-5.158,8.987l8.827,27.7c1.461,4.584,6.139,7.988,10.447,7.61l77.856-6.812C279.452,390.347,281.767,386.332,280.306,381.747Z" transform="translate(-177.577 -346.402)" fill="#fff"/>
      </g>
      <g id="Grupo_111716" data-name="Grupo 111716" transform="translate(13.211 14.813)">
        <path id="Trazado_171819" data-name="Trazado 171819" d="M194.471,359.407c-4.1.36-6.289,4.19-4.9,8.543s5.833,7.6,9.933,7.244,6.283-4.178,4.893-8.542-5.833-7.6-9.924-7.245" transform="translate(-189.152 -359.38)" fill="#59ffcc"/>
      </g>
      <g id="Grupo_111717" data-name="Grupo 111717" transform="translate(31.859 11.733)">
        <path id="Trazado_171820" data-name="Trazado 171820" d="M227.569,356.691l-20.353,1.78a1.964,1.964,0,0,0-1.59,2.772,3.355,3.355,0,0,0,3.225,2.36l20.353-1.78a1.968,1.968,0,0,0,1.6-2.783,3.354,3.354,0,0,0-3.232-2.35" transform="translate(-205.491 -356.682)" fill="#59ffcc"/>
      </g>
      <g id="Grupo_111718" data-name="Grupo 111718" transform="translate(35.269 20.045)">
        <path id="Trazado_171821" data-name="Trazado 171821" d="M257.811,363.974,210.2,368.139a1.967,1.967,0,0,0-1.588,2.783,3.354,3.354,0,0,0,3.223,2.35l47.608-4.165a1.959,1.959,0,0,0,1.59-2.771,3.345,3.345,0,0,0-3.225-2.361" transform="translate(-208.479 -363.965)" fill="#59ffcc"/>
      </g>
      <g id="Grupo_111719" data-name="Grupo 111719" transform="translate(38.678 30.752)">
        <path id="Trazado_171822" data-name="Trazado 171822" d="M260.8,373.355l-47.607,4.166a1.959,1.959,0,0,0-1.591,2.771,3.354,3.354,0,0,0,3.223,2.35l47.608-4.165a1.959,1.959,0,0,0,1.59-2.771,3.333,3.333,0,0,0-3.223-2.351" transform="translate(-211.466 -373.346)" fill="#59ffcc"/>
      </g>
    </g>
    <g id="Grupo_111721" data-name="Grupo 111721" transform="translate(86.448 292.477)" opacity="0.47">
      <path id="Trazado_171823" data-name="Trazado 171823" d="M117.181,305.555a5.633,5.633,0,1,1,5.976,5.267A5.666,5.666,0,0,1,117.181,305.555Zm-1.27-24.809-.746-11.833,10.65-.672.748,11.832-.841,14.906-7.1.449ZM98.85,318.262a8.086,8.086,0,1,1,10.036,5.483A8.136,8.136,0,0,1,98.85,318.262ZM89.22,283.925l-4.791-16.331,14.7-4.313,4.791,16.332,3.539,21.136-9.8,2.875Z" transform="translate(-84.429 -263.281)" fill="#59ffcc"/>
    </g>
  </g>
</svg>
