<svg xmlns="http://www.w3.org/2000/svg" xmlns:xlink="http://www.w3.org/1999/xlink" width="196.02" height="189.665" viewBox="0 0 196.02 189.665">
  <defs>
    <clipPath id="clip-path">
      <path id="Trazado_171874" data-name="Trazado 171874" d="M344.693,102.6" transform="translate(-344.693 -102.599)" fill="#e0e0e0"/>
    </clipPath>
  </defs>
  <g id="Grupo_111988" data-name="Grupo 111988" transform="translate(-57.509 -46.912)">
    <g id="Background_Complete" data-name="Background Complete" transform="translate(77.509 46.912)">
      <g id="Grupo_111727" data-name="Grupo 111727" transform="translate(-20)">
        <g id="Grupo_111725" data-name="Grupo 111725" transform="translate(20.071 2.767)">
          <path id="Trazado_171824" data-name="Trazado 171824" d="M152.17,74.1l4.034,10.32L153.7,84.41l-2.01-6.342Z" transform="translate(-137.009 -64.567)" fill="#e0e0e0"/>
          <g id="Grupo_111724" data-name="Grupo 111724">
            <g id="Grupo_111723" data-name="Grupo 111723">
              <path id="Trazado_171825" data-name="Trazado 171825" d="M120.632,53.027,119.245,72.8l14.316.3,1.611-20.072Z" transform="translate(-119.245 -53.027)" fill="#ebebeb"/>
              <path id="Trazado_171826" data-name="Trazado 171826" d="M124.078,56.428l-1.154,16.458,10.642.5,1.487-17.055Z" transform="translate(-121.259 -54.836)" fill="#fafafa"/>
            </g>
            <path id="Trazado_171827" data-name="Trazado 171827" d="M129.592,61.69l-.863,11.569H134.6l1.036-11.569Z" transform="translate(-124.438 -57.77)" fill="#e0e0e0"/>
          </g>
        </g>
        <g id="Grupo_111726" data-name="Grupo 111726" transform="translate(5.671)">
          <path id="Trazado_171828" data-name="Trazado 171828" d="M91.1,85.023v-9.9h7.25v9.892Z" transform="translate(-89.436 -62.359)" fill="#f5f5f5"/>
          <path id="Trazado_171829" data-name="Trazado 171829" d="M97.382,59.676s1.749-12.781,1.259-12.764-1.72,11.654-1.72,11.654-.052-9.637-.513-9.585,0,10.2,0,10.2-.788-8.237-1.214-8.04.183,8.535.183,8.535h2.005" transform="translate(-91.593 -46.912)" fill="#e0e0e0"/>
          <path id="Trazado_171830" data-name="Trazado 171830" d="M97.3,62.9s.606-6.37.806-5.935a23.833,23.833,0,0,1,0,3.792s1.679-8.232,2.118-7.953-1.718,8.935-1.718,8.935,1.639-4.942,2-4.421-1.359,5.156-1.359,5.156,1.759-3.277,1.879-2.837a16.668,16.668,0,0,1-.839,3.261Z" transform="translate(-92.83 -50.134)" fill="#ebebeb"/>
          <path id="Trazado_171831" data-name="Trazado 171831" d="M90.856,66.278s-3.877-7.61-3.4-7.374,2.958,5.151,2.958,5.151-1.64-4.744-1.28-4.89S91.3,64.5,91.3,64.5l.4,1.783Z" transform="translate(-87.418 -53.476)" fill="#ebebeb"/>
          <path id="Trazado_171832" data-name="Trazado 171832" d="M94.49,75.12l.183,9.9H91.226l-.066-9.933Z" transform="translate(-89.467 -62.339)" fill="#e0e0e0"/>
          <path id="Trazado_171833" data-name="Trazado 171833" d="M91.007,75.91l3.339.056,3.9-.056.122-.946H90.912Z" transform="translate(-89.331 -62.272)" fill="#ebebeb"/>
        </g>
        <rect id="Rect치ngulo_37089" data-name="Rect치ngulo 37089" width="50.756" height="2.614" transform="translate(0 22.388)" fill="#e0e0e0"/>
      </g>
      <g id="Grupo_111815" data-name="Grupo 111815" transform="translate(117.411 22.065)">
        <g id="Grupo_111812" data-name="Grupo 111812" transform="translate(3.911 1.952)">
          <g id="Grupo_111730" data-name="Grupo 111730" transform="translate(0.751 1.178)">
            <g id="Grupo_111729" data-name="Grupo 111729">
              <g id="Grupo_111728" data-name="Grupo 111728">
                <rect id="Rect치ngulo_37090" data-name="Rect치ngulo 37090" width="50.291" height="87.989" fill="#fafafa"/>
              </g>
            </g>
          </g>
          <g id="Grupo_111732" data-name="Grupo 111732" transform="translate(0 0.175)">
            <g id="Grupo_111731" data-name="Grupo 111731">
              <path id="Trazado_171834" data-name="Trazado 171834" d="M359.449,190.218s-5.508-39.587-8.4-43.937c0,0,16.477-12.372,16.981-45.9h-25v89.836Z" transform="translate(-343.032 -100.382)" fill="#ebebeb"/>
            </g>
          </g>
          <g id="Grupo_111734" data-name="Grupo 111734" transform="translate(26.785)">
            <g id="Grupo_111733" data-name="Grupo 111733">
              <path id="Trazado_171835" data-name="Trazado 171835" d="M410.817,189.831s5.508-39.586,8.4-43.937c0,0-16.477-12.371-16.981-45.9h25v89.836Z" transform="translate(-402.232 -99.995)" fill="#ebebeb"/>
            </g>
          </g>
          <g id="Grupo_111811" data-name="Grupo 111811" transform="translate(0.751 1.178)">
            <g id="Grupo_111810" data-name="Grupo 111810">
              <path id="Trazado_171836" data-name="Trazado 171836" d="M344.693,102.6" transform="translate(-344.693 -102.599)" fill="#e0e0e0"/>
              <g id="Grupo_111809" data-name="Grupo 111809" clip-path="url(#clip-path)">
                <g id="Grupo_111736" data-name="Grupo 111736">
                  <g id="Grupo_111735" data-name="Grupo 111735">
                    <path id="Trazado_171837" data-name="Trazado 171837" d="M344.693,102.6Z" transform="translate(-344.693 -102.599)" fill="#e0e0e0"/>
                  </g>
                </g>
                <g id="Grupo_111738" data-name="Grupo 111738">
                  <g id="Grupo_111737" data-name="Grupo 111737">
                    <path id="Trazado_171838" data-name="Trazado 171838" d="M344.693,102.6Z" transform="translate(-344.693 -102.599)" fill="#e0e0e0"/>
                  </g>
                </g>
                <g id="Grupo_111740" data-name="Grupo 111740">
                  <g id="Grupo_111739" data-name="Grupo 111739">
                    <path id="Trazado_171839" data-name="Trazado 171839" d="M344.693,102.6Z" transform="translate(-344.693 -102.599)" fill="#e0e0e0"/>
                  </g>
                </g>
                <g id="Grupo_111742" data-name="Grupo 111742">
                  <g id="Grupo_111741" data-name="Grupo 111741">
                    <path id="Trazado_171840" data-name="Trazado 171840" d="M344.693,102.6Z" transform="translate(-344.693 -102.599)" fill="#e0e0e0"/>
                  </g>
                </g>
                <g id="Grupo_111744" data-name="Grupo 111744">
                  <g id="Grupo_111743" data-name="Grupo 111743">
                    <path id="Trazado_171841" data-name="Trazado 171841" d="M344.693,102.6Z" transform="translate(-344.693 -102.599)" fill="#e0e0e0"/>
                  </g>
                </g>
                <g id="Grupo_111746" data-name="Grupo 111746">
                  <g id="Grupo_111745" data-name="Grupo 111745">
                    <path id="Trazado_171842" data-name="Trazado 171842" d="M344.693,102.6Z" transform="translate(-344.693 -102.599)" fill="#e0e0e0"/>
                  </g>
                </g>
                <g id="Grupo_111748" data-name="Grupo 111748">
                  <g id="Grupo_111747" data-name="Grupo 111747">
                    <path id="Trazado_171843" data-name="Trazado 171843" d="M344.693,102.6Z" transform="translate(-344.693 -102.599)" fill="#e0e0e0"/>
                  </g>
                </g>
                <g id="Grupo_111750" data-name="Grupo 111750">
                  <g id="Grupo_111749" data-name="Grupo 111749">
                    <path id="Trazado_171844" data-name="Trazado 171844" d="M344.693,102.6Z" transform="translate(-344.693 -102.599)" fill="#e0e0e0"/>
                  </g>
                </g>
                <g id="Grupo_111752" data-name="Grupo 111752">
                  <g id="Grupo_111751" data-name="Grupo 111751">
                    <path id="Trazado_171845" data-name="Trazado 171845" d="M344.693,102.6Z" transform="translate(-344.693 -102.599)" fill="#e0e0e0"/>
                  </g>
                </g>
                <g id="Grupo_111754" data-name="Grupo 111754">
                  <g id="Grupo_111753" data-name="Grupo 111753">
                    <path id="Trazado_171846" data-name="Trazado 171846" d="M344.693,102.6Z" transform="translate(-344.693 -102.599)" fill="#e0e0e0"/>
                  </g>
                </g>
                <g id="Grupo_111756" data-name="Grupo 111756">
                  <g id="Grupo_111755" data-name="Grupo 111755">
                    <path id="Trazado_171847" data-name="Trazado 171847" d="M344.693,102.6Z" transform="translate(-344.693 -102.599)" fill="#e0e0e0"/>
                  </g>
                </g>
                <g id="Grupo_111758" data-name="Grupo 111758">
                  <g id="Grupo_111757" data-name="Grupo 111757">
                    <path id="Trazado_171848" data-name="Trazado 171848" d="M344.693,102.6Z" transform="translate(-344.693 -102.599)" fill="#e0e0e0"/>
                  </g>
                </g>
                <g id="Grupo_111760" data-name="Grupo 111760">
                  <g id="Grupo_111759" data-name="Grupo 111759">
                    <path id="Trazado_171849" data-name="Trazado 171849" d="M344.693,102.6Z" transform="translate(-344.693 -102.599)" fill="#e0e0e0"/>
                  </g>
                </g>
                <g id="Grupo_111762" data-name="Grupo 111762">
                  <g id="Grupo_111761" data-name="Grupo 111761">
                    <path id="Trazado_171850" data-name="Trazado 171850" d="M344.693,102.6Z" transform="translate(-344.693 -102.599)" fill="#e0e0e0"/>
                  </g>
                </g>
                <g id="Grupo_111764" data-name="Grupo 111764">
                  <g id="Grupo_111763" data-name="Grupo 111763">
                    <path id="Trazado_171851" data-name="Trazado 171851" d="M344.693,102.6Z" transform="translate(-344.693 -102.599)" fill="#e0e0e0"/>
                  </g>
                </g>
                <g id="Grupo_111766" data-name="Grupo 111766">
                  <g id="Grupo_111765" data-name="Grupo 111765">
                    <path id="Trazado_171852" data-name="Trazado 171852" d="M344.693,102.6Z" transform="translate(-344.693 -102.599)" fill="#e0e0e0"/>
                  </g>
                </g>
                <g id="Grupo_111768" data-name="Grupo 111768">
                  <g id="Grupo_111767" data-name="Grupo 111767">
                    <path id="Trazado_171853" data-name="Trazado 171853" d="M344.693,102.6Z" transform="translate(-344.693 -102.599)" fill="#e0e0e0"/>
                  </g>
                </g>
                <g id="Grupo_111770" data-name="Grupo 111770">
                  <g id="Grupo_111769" data-name="Grupo 111769">
                    <path id="Trazado_171854" data-name="Trazado 171854" d="M344.693,102.6Z" transform="translate(-344.693 -102.599)" fill="#e0e0e0"/>
                  </g>
                </g>
                <g id="Grupo_111772" data-name="Grupo 111772">
                  <g id="Grupo_111771" data-name="Grupo 111771">
                    <path id="Trazado_171855" data-name="Trazado 171855" d="M344.693,102.6Z" transform="translate(-344.693 -102.599)" fill="#e0e0e0"/>
                  </g>
                </g>
                <g id="Grupo_111774" data-name="Grupo 111774">
                  <g id="Grupo_111773" data-name="Grupo 111773">
                    <path id="Trazado_171856" data-name="Trazado 171856" d="M344.693,102.6Z" transform="translate(-344.693 -102.599)" fill="#e0e0e0"/>
                  </g>
                </g>
                <g id="Grupo_111776" data-name="Grupo 111776">
                  <g id="Grupo_111775" data-name="Grupo 111775">
                    <path id="Trazado_171857" data-name="Trazado 171857" d="M344.693,102.6Z" transform="translate(-344.693 -102.599)" fill="#e0e0e0"/>
                  </g>
                </g>
                <g id="Grupo_111778" data-name="Grupo 111778">
                  <g id="Grupo_111777" data-name="Grupo 111777">
                    <path id="Trazado_171858" data-name="Trazado 171858" d="M344.693,102.6Z" transform="translate(-344.693 -102.599)" fill="#e0e0e0"/>
                  </g>
                </g>
                <g id="Grupo_111780" data-name="Grupo 111780">
                  <g id="Grupo_111779" data-name="Grupo 111779">
                    <path id="Trazado_171859" data-name="Trazado 171859" d="M344.693,102.6Z" transform="translate(-344.693 -102.599)" fill="#e0e0e0"/>
                  </g>
                </g>
                <g id="Grupo_111782" data-name="Grupo 111782">
                  <g id="Grupo_111781" data-name="Grupo 111781">
                    <path id="Trazado_171860" data-name="Trazado 171860" d="M344.693,102.6Z" transform="translate(-344.693 -102.599)" fill="#e0e0e0"/>
                  </g>
                </g>
                <g id="Grupo_111784" data-name="Grupo 111784">
                  <g id="Grupo_111783" data-name="Grupo 111783">
                    <path id="Trazado_171861" data-name="Trazado 171861" d="M344.693,102.6Z" transform="translate(-344.693 -102.599)" fill="#e0e0e0"/>
                  </g>
                </g>
                <g id="Grupo_111786" data-name="Grupo 111786">
                  <g id="Grupo_111785" data-name="Grupo 111785">
                    <path id="Trazado_171862" data-name="Trazado 171862" d="M344.693,102.6Z" transform="translate(-344.693 -102.599)" fill="#e0e0e0"/>
                  </g>
                </g>
                <g id="Grupo_111788" data-name="Grupo 111788">
                  <g id="Grupo_111787" data-name="Grupo 111787">
                    <path id="Trazado_171863" data-name="Trazado 171863" d="M344.693,102.6Z" transform="translate(-344.693 -102.599)" fill="#e0e0e0"/>
                  </g>
                </g>
                <g id="Grupo_111790" data-name="Grupo 111790">
                  <g id="Grupo_111789" data-name="Grupo 111789">
                    <path id="Trazado_171864" data-name="Trazado 171864" d="M344.693,102.6Z" transform="translate(-344.693 -102.599)" fill="#e0e0e0"/>
                  </g>
                </g>
                <g id="Grupo_111792" data-name="Grupo 111792">
                  <g id="Grupo_111791" data-name="Grupo 111791">
                    <path id="Trazado_171865" data-name="Trazado 171865" d="M344.693,102.6Z" transform="translate(-344.693 -102.599)" fill="#e0e0e0"/>
                  </g>
                </g>
                <g id="Grupo_111794" data-name="Grupo 111794">
                  <g id="Grupo_111793" data-name="Grupo 111793">
                    <path id="Trazado_171866" data-name="Trazado 171866" d="M344.693,102.6Z" transform="translate(-344.693 -102.599)" fill="#e0e0e0"/>
                  </g>
                </g>
                <g id="Grupo_111796" data-name="Grupo 111796">
                  <g id="Grupo_111795" data-name="Grupo 111795">
                    <path id="Trazado_171867" data-name="Trazado 171867" d="M344.693,102.6Z" transform="translate(-344.693 -102.599)" fill="#e0e0e0"/>
                  </g>
                </g>
                <g id="Grupo_111798" data-name="Grupo 111798">
                  <g id="Grupo_111797" data-name="Grupo 111797">
                    <path id="Trazado_171868" data-name="Trazado 171868" d="M344.693,102.6Z" transform="translate(-344.693 -102.599)" fill="#e0e0e0"/>
                  </g>
                </g>
                <g id="Grupo_111800" data-name="Grupo 111800">
                  <g id="Grupo_111799" data-name="Grupo 111799">
                    <path id="Trazado_171869" data-name="Trazado 171869" d="M344.693,102.6Z" transform="translate(-344.693 -102.599)" fill="#e0e0e0"/>
                  </g>
                </g>
                <g id="Grupo_111802" data-name="Grupo 111802">
                  <g id="Grupo_111801" data-name="Grupo 111801">
                    <path id="Trazado_171870" data-name="Trazado 171870" d="M344.693,102.6Z" transform="translate(-344.693 -102.599)" fill="#e0e0e0"/>
                  </g>
                </g>
                <g id="Grupo_111804" data-name="Grupo 111804">
                  <g id="Grupo_111803" data-name="Grupo 111803">
                    <path id="Trazado_171871" data-name="Trazado 171871" d="M344.693,102.6Z" transform="translate(-344.693 -102.599)" fill="#e0e0e0"/>
                  </g>
                </g>
                <g id="Grupo_111806" data-name="Grupo 111806">
                  <g id="Grupo_111805" data-name="Grupo 111805">
                    <path id="Trazado_171872" data-name="Trazado 171872" d="M344.693,102.6Z" transform="translate(-344.693 -102.599)" fill="#e0e0e0"/>
                  </g>
                </g>
                <g id="Grupo_111808" data-name="Grupo 111808">
                  <g id="Grupo_111807" data-name="Grupo 111807">
                    <path id="Trazado_171873" data-name="Trazado 171873" d="M344.693,102.6Z" transform="translate(-344.693 -102.599)" fill="#e0e0e0"/>
                  </g>
                </g>
              </g>
            </g>
          </g>
        </g>
        <g id="Grupo_111814" data-name="Grupo 111814">
          <g id="Grupo_111813" data-name="Grupo 111813">
            <path id="Trazado_171875" data-name="Trazado 171875" d="M390.666,95.68H334.388v94.25H393V95.68Zm-41.507,48.967V167.06H339.05V144.647Zm-10.108-1.621v-23.2h10.108v23.2Zm25.495,0v-23.2h12.644v23.2Zm12.644,1.621V167.06H364.545V144.647Zm-27.581-1.621v-23.2h13.316v23.2Zm13.316,1.621V167.06H349.609V144.647Zm-13.316-25.219v-20.4h13.316v20.4Zm13.316,48.033v19.568H349.609V167.461Zm1.62,0h12.644v19.568H364.545Zm0-48.033v-20.4h12.644v20.4Zm13.094,25.219h10.7V167.06h-10.7Zm0-1.621v-23.2h10.7v23.2Zm10.7-23.6h-10.7v-20.4h10.7Zm-39.176-20.4v20.4H339.05v-20.4Zm-10.108,68.43h10.108v19.568H339.05Zm38.589,19.568V167.461h10.7v19.568Z" transform="translate(-334.388 -95.68)" fill="#e0e0e0"/>
          </g>
        </g>
      </g>
      <g id="Grupo_111824" data-name="Grupo 111824" transform="translate(117.411 136.299)">
        <g id="Grupo_111822" data-name="Grupo 111822">
          <g id="Grupo_111816" data-name="Grupo 111816" transform="translate(6.528)">
            <path id="Trazado_171876" data-name="Trazado 171876" d="M397.332,348.189c-2.227.358-3.222,3.095-3.028,5.342s1.118,4.444.871,6.686c-.314,2.847-2.465,5.254-2.716,8.107-.3,3.365,2.083,6.35,2.794,9.652.346,1.607.3,3.306.9,4.837a6.047,6.047,0,0,0,11.677-2.086c.049-2.584-1.545-5.018-1.351-7.595.143-1.905,1.26-3.71,1.021-5.6-.285-2.255-2.374-3.856-3.111-6.006s-.029-4.52-.284-6.78c-.457-4.052-2.7-6.878-6.769-6.553" transform="translate(-392.434 -348.164)" fill="#f5f5f5"/>
          </g>
          <g id="Grupo_111817" data-name="Grupo 111817" transform="translate(0 19.649)">
            <path id="Trazado_171877" data-name="Trazado 171877" d="M378.059,391.593c-.379,3.755,1.282,8.174,3.213,11.417a17.9,17.9,0,0,0,8.407,7.3.926.926,0,0,0,1.519-.929,18.438,18.438,0,0,0-13.139-17.784" transform="translate(-378.005 -391.593)" fill="#ebebeb"/>
          </g>
          <g id="Grupo_111819" data-name="Grupo 111819" transform="translate(4.844 26.42)">
            <g id="Grupo_111818" data-name="Grupo 111818">
              <path id="Trazado_171878" data-name="Trazado 171878" d="M400.28,426.353a1,1,0,0,1-.107-.209l-.268-.615c-.226-.537-.563-1.308-.993-2.256a78.016,78.016,0,0,0-8.188-14.011c-.615-.839-1.122-1.512-1.479-1.972l-.4-.535a1,1,0,0,1-.13-.2.975.975,0,0,1,.163.169l.436.511c.377.444.9,1.1,1.535,1.934a68.14,68.14,0,0,1,8.205,14.039c.413.957.729,1.74.932,2.287l.231.63A.974.974,0,0,1,400.28,426.353Z" transform="translate(-388.711 -406.558)" fill="#e0e0e0"/>
            </g>
          </g>
          <g id="Grupo_111821" data-name="Grupo 111821" transform="translate(13.989 10.415)">
            <g id="Grupo_111820" data-name="Grupo 111820">
              <path id="Trazado_171879" data-name="Trazado 171879" d="M408.931,371.183a2.259,2.259,0,0,1,.041.36q.028.383.075,1.034c.059.918.143,2.213.245,3.805.2,3.213.488,7.652.833,12.552s.685,9.337.934,12.547c.122,1.59.221,2.884.291,3.8q.045.652.071,1.034a2.26,2.26,0,0,1,.01.362,2.312,2.312,0,0,1-.053-.358q-.041-.381-.11-1.031c-.086-.917-.208-2.209-.358-3.8-.288-3.207-.651-7.641-1-12.544s-.606-9.342-.77-12.558c-.074-1.593-.134-2.89-.177-3.809q-.022-.654-.035-1.037A2.355,2.355,0,0,1,408.931,371.183Z" transform="translate(-408.925 -371.183)" fill="#e0e0e0"/>
            </g>
          </g>
        </g>
        <g id="Grupo_111823" data-name="Grupo 111823" transform="translate(10.541 40.859)">
          <path id="Trazado_171880" data-name="Trazado 171880" d="M401.3,438.472h9.4v6.9a4.514,4.514,0,0,1-4.514,4.514h0a4.514,4.514,0,0,1-4.508-4.273Z" transform="translate(-401.304 -438.472)" fill="#e0e0e0"/>
        </g>
      </g>
    </g>
    <g id="Character" transform="translate(75.647 95.794)">
      <g id="Grupo_111943" data-name="Grupo 111943">
        <g id="Grupo_111830" data-name="Grupo 111830" transform="translate(1.221 62.265)">
          <g id="Grupo_111828" data-name="Grupo 111828">
            <g id="Grupo_111826" data-name="Grupo 111826">
              <path id="Trazado_171882" data-name="Trazado 171882" d="M106.62,363.882s11.41-36.24,11.652-37.417c.219-1.063-4.141-27.143-4.69-33.893l15.417.575v.112l6.553.364-5.87,74.118H122.59l.7-24.59a239.542,239.542,0,0,1-10.644,23.715Z" transform="translate(-106.62 -292.572)" fill="#ffbe9d"/>
            </g>
            <g id="Grupo_111827" data-name="Grupo 111827" transform="translate(16.384 43.74)">
              <path id="Trazado_171883" data-name="Trazado 171883" d="M142.832,404.9c-.006-.225.086-8.239.086-8.239.089.48,2.72-6.958,2.656-7.41C145.541,389.015,142.832,404.9,142.832,404.9Z" transform="translate(-142.831 -389.247)" fill="#eb996e"/>
            </g>
          </g>
          <g id="Grupo_111829" data-name="Grupo 111829" transform="translate(16.467 40.221)">
            <path id="Trazado_171884" data-name="Trazado 171884" d="M145.975,381.47a1.7,1.7,0,0,1,.045.449,11.856,11.856,0,0,1-.009,1.229c-.01.26-.037.543-.071.847s-.081.628-.151.965a16.6,16.6,0,0,1-.58,2.16c-.515,1.5-1.084,2.81-1.487,3.762l-.494,1.12a1.669,1.669,0,0,1-.21.4,1.683,1.683,0,0,1,.125-.433c.1-.274.24-.666.424-1.149.364-.967.908-2.289,1.418-3.775a18.788,18.788,0,0,0,.59-2.127c.075-.331.123-.65.17-.948s.078-.578.1-.834c.049-.512.071-.928.084-1.217A1.666,1.666,0,0,1,145.975,381.47Z" transform="translate(-143.016 -381.47)" fill="#eb996e"/>
          </g>
        </g>
        <g id="Grupo_111843" data-name="Grupo 111843" transform="translate(3.841 21.026)">
          <g id="Grupo_111839" data-name="Grupo 111839">
            <g id="Grupo_111834" data-name="Grupo 111834" transform="translate(0.294)">
              <g id="Grupo_111833" data-name="Grupo 111833">
                <g id="Grupo_111832" data-name="Grupo 111832">
                  <g id="Grupo_111831" data-name="Grupo 111831">
                    <path id="Trazado_171885" data-name="Trazado 171885" d="M139.639,257.379c.273-10.333-.887-21.036-1.806-24.283-.088-.309-.163-.622-.238-.935l-1.753-7.339s-.73-.6,1.22-3.192c.9-1.2.735-5.8.735-5.8l-.872,6.075,9.158-4.41S142.239,206.541,141,204.94c-3.226-4.155-9.055-3.428-9.055-3.428l-7.63-.088a17.77,17.77,0,0,0-5.694,1.485l-.19.05V203a8.059,8.059,0,0,0-4.7,5.791,24.711,24.711,0,0,0-.628,6.952l6.216-.11-.552,13.157c-.47,1.619-1.783,1.231-3.725,8.71a60.028,60.028,0,0,0-1.563,8.6,43.162,43.162,0,0,0,.14,10.29l3.49,26.5h21.119Z" transform="translate(-113.059 -201.424)" fill="#455a64"/>
                  </g>
                </g>
              </g>
            </g>
            <path id="Trazado_171886" data-name="Trazado 171886" d="M121.962,224.137l1.132,4.825H112.41l.7-8.089Z" transform="translate(-112.41 -212.074)" fill="#455a64"/>
            <g id="Grupo_111835" data-name="Grupo 111835" transform="translate(0 16.66)">
              <path id="Trazado_171887" data-name="Trazado 171887" d="M112.41,238.475a7.961,7.961,0,0,1,1.414-.14c.875-.051,2.087-.095,3.426-.089s2.551.065,3.426.134a7.664,7.664,0,0,1,1.411.174,9.473,9.473,0,0,1-1.42-.008c-.875-.027-2.083-.058-3.418-.065s-2.544.011-3.419.019A9.116,9.116,0,0,1,112.41,238.475Z" transform="translate(-112.41 -238.246)" fill="#263238"/>
            </g>
            <g id="Grupo_111836" data-name="Grupo 111836" transform="translate(23.015 12.513)">
              <path id="Trazado_171888" data-name="Trazado 171888" d="M163.341,240.313a1.623,1.623,0,0,1-.062-.471,3.386,3.386,0,0,1,.041-.558,3.491,3.491,0,0,1,.185-.719,5.427,5.427,0,0,1,.375-.815c.153-.283.336-.572.526-.875a9.368,9.368,0,0,0,1.056-2.035,4.7,4.7,0,0,0,.224-1.15,5.967,5.967,0,0,0-.033-1.1,11.225,11.225,0,0,0-.385-1.841c-.3-1.032-.559-1.654-.522-1.669a1.734,1.734,0,0,1,.217.42c.123.277.292.683.464,1.2a10.024,10.024,0,0,1,.442,1.865,5.955,5.955,0,0,1,.048,1.14,4.829,4.829,0,0,1-.231,1.21,8.993,8.993,0,0,1-1.1,2.078c-.2.3-.381.582-.538.855a5.651,5.651,0,0,0-.39.779,3.689,3.689,0,0,0-.211.683,4.217,4.217,0,0,0-.078.537A2.1,2.1,0,0,1,163.341,240.313Z" transform="translate(-163.279 -229.08)" fill="#263238"/>
            </g>
            <g id="Grupo_111837" data-name="Grupo 111837" transform="translate(4.342 23.399)">
              <path id="Trazado_171889" data-name="Trazado 171889" d="M122.007,311.2a.778.778,0,0,1,.042-.153l.145-.44.58-1.686c.248-.734.584-1.62.961-2.653s.822-2.2,1.314-3.5l3.5-9.073,2.059-5.361c.714-1.859,1.432-3.791,2.166-5.771s1.432-3.92,2.077-5.8l.952-2.772.865-2.673c.582-1.735,1.035-3.414,1.51-4.97.22-.783.409-1.545.6-2.274s.4-1.427.53-2.1l.424-1.927.2-.886.14-.84.249-1.51a12.4,12.4,0,0,0,.177-1.274c.071-.759.128-1.353.167-1.773.02-.193.037-.345.049-.461a.776.776,0,0,1,.025-.157.787.787,0,0,1,0,.158c-.006.116-.015.269-.026.463-.029.422-.071,1.018-.123,1.78a11.963,11.963,0,0,1-.158,1.28c-.071.467-.147.974-.23,1.517-.042.272-.086.554-.131.844l-.187.89-.409,1.934c-.129.681-.337,1.378-.516,2.112s-.377,1.5-.593,2.282c-.467,1.56-.914,3.244-1.491,4.982l-.859,2.679-.948,2.777c-.642,1.887-1.352,3.824-2.074,5.81s-1.454,3.914-2.172,5.772l-2.072,5.357-3.549,9.054-1.346,3.485c-.389,1.028-.737,1.91-1,2.638l-.622,1.671-.167.433A.815.815,0,0,1,122.007,311.2Z" transform="translate(-122.007 -253.141)" fill="#263238"/>
            </g>
            <g id="Grupo_111838" data-name="Grupo 111838" transform="translate(9.65 8.76)">
              <path id="Trazado_171890" data-name="Trazado 171890" d="M134.1,220.786a6.42,6.42,0,0,1,.036,1.227c-.008.757-.036,1.8-.081,2.956s-.1,2.2-.149,2.954a6.339,6.339,0,0,1-.131,1.221,6.368,6.368,0,0,1-.036-1.227c.008-.757.036-1.8.081-2.957s.1-2.2.149-2.954A6.335,6.335,0,0,1,134.1,220.786Z" transform="translate(-133.738 -220.786)" fill="#263238"/>
            </g>
            <path id="Trazado_171891" data-name="Trazado 171891" d="M140.181,237.08s-2.288,14.414-8.963,13.948c0,0-3.006-.036-3.972-2.034v-.786Z" transform="translate(-120.534 -220.948)" opacity="0.3"/>
          </g>
          <g id="Grupo_111840" data-name="Grupo 111840" transform="translate(16.596 23.351)">
            <path id="Trazado_171892" data-name="Trazado 171892" d="M155.573,253.083a22.485,22.485,0,0,1-3.237.239,22.476,22.476,0,0,1-3.244,0,22.4,22.4,0,0,1,3.238-.239A22.382,22.382,0,0,1,155.573,253.083Z" transform="translate(-149.091 -253.035)" fill="#263238"/>
          </g>
          <g id="Grupo_111841" data-name="Grupo 111841" transform="translate(19.41 20.854)">
            <path id="Trazado_171893" data-name="Trazado 171893" d="M156.533,250.16c0,.012-.1.032-.232-.067a1.434,1.434,0,0,1-.358-.534l-.4-.833a2.777,2.777,0,0,1-.212-.529.566.566,0,0,1,.255-.638.42.42,0,0,1,.394.018.783.783,0,0,1,.244.232,2.746,2.746,0,0,1,.262.509,3.11,3.11,0,0,1,.209.926,1.62,1.62,0,0,1-.106.858c-.039-.005.012-.331-.06-.841a3.43,3.43,0,0,0-.245-.86,2.809,2.809,0,0,0-.247-.456c-.1-.139-.241-.233-.347-.174a.342.342,0,0,0-.133.382,2.873,2.873,0,0,0,.184.486l.356.854a1.735,1.735,0,0,0,.267.534C156.453,250.126,156.537,250.141,156.533,250.16Z" transform="translate(-155.311 -247.517)" fill="#263238"/>
          </g>
          <g id="Grupo_111842" data-name="Grupo 111842" transform="translate(20.641 20.819)">
            <path id="Trazado_171894" data-name="Trazado 171894" d="M158.037,250.361a3.439,3.439,0,0,1,.289-.945c.11-.285.252-.619.425-.984.086-.182.181-.372.283-.567a1.078,1.078,0,0,1,.213-.3.388.388,0,0,1,.448-.082.466.466,0,0,1,.231.376,1.073,1.073,0,0,1-.045.367,2.7,2.7,0,0,1-.235.611,2.793,2.793,0,0,1-.7.846,1.677,1.677,0,0,1-.895.436,7.89,7.89,0,0,0,.786-.561,2.911,2.911,0,0,0,.614-.819,2.667,2.667,0,0,0,.2-.566c.059-.2.058-.413-.071-.48-.1-.071-.258.1-.347.285l-.292.554c-.181.356-.338.68-.467.954A5.1,5.1,0,0,1,158.037,250.361Z" transform="translate(-158.032 -247.439)" fill="#263238"/>
          </g>
        </g>
        <path id="Trazado_171895" data-name="Trazado 171895" d="M133.86,223.079l1.278,8.631-.827,1.515L133.3,230.29l.226-.04Z" transform="translate(-120.007 -192.256)" opacity="0.3"/>
        <g id="Grupo_111877" data-name="Grupo 111877" transform="translate(17.034 136.816)">
          <g id="Grupo_111876" data-name="Grupo 111876">
            <g id="Grupo_111846" data-name="Grupo 111846" transform="translate(0.101)">
              <g id="Grupo_111844" data-name="Grupo 111844">
                <path id="Trazado_171896" data-name="Trazado 171896" d="M149.077,458.33l0-.666-7.267-.317-.02,2.749.448.03c1.995.117,10.151.453,11.486.053C155.216,459.732,149.077,458.33,149.077,458.33Z" transform="translate(-141.793 -457.347)" fill="#e8505b"/>
              </g>
              <g id="Grupo_111845" data-name="Grupo 111845" transform="translate(0.008 0.618)" opacity="0.5">
                <path id="Trazado_171897" data-name="Trazado 171897" d="M144.424,460.794a2.511,2.511,0,0,0-.918-1.545,2.439,2.439,0,0,0-1.689-.531l-.008,2.021Z" transform="translate(-141.81 -458.712)" fill="#fff"/>
              </g>
            </g>
            <g id="Grupo_111847" data-name="Grupo 111847" transform="translate(0.101 1.775)">
              <path id="Trazado_171898" data-name="Trazado 171898" d="M152.077,461.27s2.151.628,1.881.981-8.524.324-12.165-.008l.012-.162,9.628.117S151.655,461.286,152.077,461.27Z" transform="translate(-141.793 -461.27)" fill="#fff" opacity="0.5"/>
            </g>
            <g id="Grupo_111849" data-name="Grupo 111849" transform="translate(0 2.578)">
              <g id="Grupo_111848" data-name="Grupo 111848">
                <path id="Trazado_171899" data-name="Trazado 171899" d="M141.569,463.049a.657.657,0,0,0,.124.014l.357.023,1.313.061c1.11.044,2.644.084,4.339.092s3.23-.019,4.34-.054l1.314-.05.357-.02a.708.708,0,0,0,.124-.013.658.658,0,0,0-.125-.005l-.357,0-1.315.022c-1.11.018-2.644.035-4.338.028s-3.227-.038-4.337-.066l-1.314-.033-.358-.006A.666.666,0,0,0,141.569,463.049Z" transform="translate(-141.569 -463.046)" fill="#263238"/>
              </g>
            </g>
            <g id="Grupo_111851" data-name="Grupo 111851" transform="translate(9.727 1.686)">
              <g id="Grupo_111850" data-name="Grupo 111850">
                <path id="Trazado_171900" data-name="Trazado 171900" d="M163.081,462.2a1.91,1.91,0,0,1,.7-1.128,1.168,1.168,0,0,0-.7,1.128Z" transform="translate(-163.069 -461.074)" fill="#263238"/>
              </g>
            </g>
            <g id="Grupo_111853" data-name="Grupo 111853" transform="translate(7.607 1.125)">
              <g id="Grupo_111852" data-name="Grupo 111852">
                <path id="Trazado_171901" data-name="Trazado 171901" d="M158.386,460.434c.02.013.123-.111.229-.276s.176-.311.155-.324-.123.111-.229.277S158.365,460.421,158.386,460.434Z" transform="translate(-158.382 -459.833)" fill="#263238"/>
              </g>
            </g>
            <g id="Grupo_111855" data-name="Grupo 111855" transform="translate(7.024 1.008)">
              <g id="Grupo_111854" data-name="Grupo 111854">
                <path id="Trazado_171902" data-name="Trazado 171902" d="M157.1,459.981c.016.018.131-.057.256-.169s.213-.217.2-.235-.131.058-.256.169S157.08,459.963,157.1,459.981Z" transform="translate(-157.094 -459.575)" fill="#263238"/>
              </g>
            </g>
            <g id="Grupo_111857" data-name="Grupo 111857" transform="translate(6.659 0.692)">
              <g id="Grupo_111856" data-name="Grupo 111856">
                <path id="Trazado_171903" data-name="Trazado 171903" d="M156.286,458.916a.841.841,0,0,0,.377.049.191.191,0,1,0-.377-.049Z" transform="translate(-156.286 -458.877)" fill="#263238"/>
              </g>
            </g>
            <g id="Grupo_111859" data-name="Grupo 111859" transform="translate(6.533 0.242)">
              <g id="Grupo_111858" data-name="Grupo 111858">
                <path id="Trazado_171904" data-name="Trazado 171904" d="M156.009,457.888a1.064,1.064,0,0,0,.855.068,2.344,2.344,0,0,0-.428-.031A2.375,2.375,0,0,0,156.009,457.888Z" transform="translate(-156.008 -457.881)" fill="#263238"/>
              </g>
            </g>
            <g id="Grupo_111861" data-name="Grupo 111861" transform="translate(7.858 0.45)">
              <g id="Grupo_111860" data-name="Grupo 111860">
                <path id="Trazado_171905" data-name="Trazado 171905" d="M158.937,458.987a1.322,1.322,0,0,0,.465,0,2.673,2.673,0,0,0,.495-.107,1.353,1.353,0,0,0,.284-.115.252.252,0,0,0,.115-.144.183.183,0,0,0-.07-.186.852.852,0,0,0-1.055.245.824.824,0,0,0-.152.309.26.26,0,0,0-.013.125,1.314,1.314,0,0,1,.213-.4.842.842,0,0,1,.4-.257.721.721,0,0,1,.554.04c.073.055.044.142-.038.19a1.383,1.383,0,0,1-.262.111,3.2,3.2,0,0,1-.479.123C159.114,458.973,158.937,458.973,158.937,458.987Z" transform="translate(-158.937 -458.341)" fill="#263238"/>
              </g>
            </g>
            <g id="Grupo_111863" data-name="Grupo 111863" transform="translate(7.374 0.219)">
              <g id="Grupo_111862" data-name="Grupo 111862">
                <path id="Trazado_171906" data-name="Trazado 171906" d="M158.472,458.732a.459.459,0,0,0,.055-.322.763.763,0,0,0-.126-.34.466.466,0,0,0-.386-.238.185.185,0,0,0-.144.214.5.5,0,0,0,.078.208,1.4,1.4,0,0,0,.218.282.668.668,0,0,0,.266.189c.008-.011-.092-.084-.22-.231a1.623,1.623,0,0,1-.194-.28c-.063-.1-.106-.275.01-.3s.235.105.305.2a.756.756,0,0,1,.13.3A1.7,1.7,0,0,1,158.472,458.732Z" transform="translate(-157.868 -457.831)" fill="#263238"/>
              </g>
            </g>
            <g id="Grupo_111865" data-name="Grupo 111865" transform="translate(0.155 0.557)">
              <g id="Grupo_111864" data-name="Grupo 111864">
                <path id="Trazado_171907" data-name="Trazado 171907" d="M141.911,458.626c0,.016.207-.019.534.021a2.265,2.265,0,0,1,1.888,1.516c.109.31.119.519.136.517a.412.412,0,0,0,0-.146,1.878,1.878,0,0,0-.077-.39,2.2,2.2,0,0,0-1.941-1.559,1.883,1.883,0,0,0-.4.009A.4.4,0,0,0,141.911,458.626Z" transform="translate(-141.911 -458.578)" fill="#263238"/>
              </g>
            </g>
            <g id="Grupo_111867" data-name="Grupo 111867" transform="translate(3.635 1.997)">
              <g id="Grupo_111866" data-name="Grupo 111866">
                <path id="Trazado_171908" data-name="Trazado 171908" d="M149.6,461.77a5.937,5.937,0,0,0,2.113.011c0-.025-.475.005-1.057,0S149.606,461.745,149.6,461.77Z" transform="translate(-149.603 -461.761)" fill="#263238"/>
              </g>
            </g>
            <g id="Grupo_111869" data-name="Grupo 111869" transform="translate(2.215 1.988)">
              <g id="Grupo_111868" data-name="Grupo 111868">
                <path id="Trazado_171909" data-name="Trazado 171909" d="M146.468,461.743c-.018.018.038.1.086.209s.074.2.1.2.038-.114-.019-.239S146.484,461.726,146.468,461.743Z" transform="translate(-146.465 -461.741)" fill="#263238"/>
              </g>
            </g>
            <g id="Grupo_111871" data-name="Grupo 111871" transform="translate(1.683 1.321)">
              <g id="Grupo_111870" data-name="Grupo 111870">
                <path id="Trazado_171910" data-name="Trazado 171910" d="M145.293,460.27c-.017.017.029.092.1.168s.149.124.167.107-.029-.092-.1-.168S145.31,460.253,145.293,460.27Z" transform="translate(-145.289 -460.266)" fill="#263238"/>
              </g>
            </g>
            <g id="Grupo_111873" data-name="Grupo 111873" transform="translate(0.924 0.977)">
              <g id="Grupo_111872" data-name="Grupo 111872">
                <path id="Trazado_171911" data-name="Trazado 171911" d="M143.611,459.547c0,.025.1.024.207.062s.183.095.2.078-.041-.116-.173-.161S143.6,459.525,143.611,459.547Z" transform="translate(-143.61 -459.506)" fill="#263238"/>
              </g>
            </g>
            <g id="Grupo_111875" data-name="Grupo 111875" transform="translate(0.379 0.856)">
              <g id="Grupo_111874" data-name="Grupo 111874">
                <path id="Trazado_171912" data-name="Trazado 171912" d="M142.408,459.255c-.009.023.033.06.092.083s.116.024.124,0-.033-.06-.092-.083S142.417,459.233,142.408,459.255Z" transform="translate(-142.407 -459.239)" fill="#263238"/>
              </g>
            </g>
          </g>
        </g>
        <g id="Grupo_111911" data-name="Grupo 111911" transform="translate(0 133.285)">
          <g id="Grupo_111910" data-name="Grupo 111910">
            <g id="Grupo_111880" data-name="Grupo 111880" transform="translate(0.024)">
              <g id="Grupo_111878" data-name="Grupo 111878">
                <path id="Trazado_171913" data-name="Trazado 171913" d="M111.343,453.416l.276-.607-6.5-3.266-1.144,2.5.4.211c1.772.924,9.075,4.571,10.456,4.753C116.369,457.21,111.343,453.416,111.343,453.416Z" transform="translate(-103.975 -449.544)" fill="#e8505b"/>
              </g>
              <g id="Grupo_111879" data-name="Grupo 111879" transform="translate(0.049 0.568)" opacity="0.5">
                <path id="Trazado_171914" data-name="Trazado 171914" d="M106.446,453.76a2.506,2.506,0,0,0-.2-1.785,2.436,2.436,0,0,0-1.323-1.176l-.835,1.841Z" transform="translate(-104.084 -450.799)" fill="#fff"/>
              </g>
            </g>
            <g id="Grupo_111881" data-name="Grupo 111881" transform="translate(0.024 2.357)">
              <path id="Trazado_171915" data-name="Trazado 171915" d="M113.755,458.22s1.705,1.454,1.314,1.666-7.91-3.2-11.094-4.99l.077-.142,8.736,4.051S113.364,458.062,113.755,458.22Z" transform="translate(-103.975 -454.753)" fill="#fff" opacity="0.5"/>
            </g>
            <g id="Grupo_111883" data-name="Grupo 111883" transform="translate(0 2.305)">
              <g id="Grupo_111882" data-name="Grupo 111882">
                <path id="Trazado_171916" data-name="Trazado 171916" d="M103.921,454.64a.641.641,0,0,0,.108.064l.316.167,1.174.594c.994.495,2.377,1.16,3.92,1.861s2.954,1.3,3.981,1.728l1.22.493.334.128a.593.593,0,0,0,.119.039.7.7,0,0,0-.112-.055l-.328-.144L113.444,459c-1.02-.438-2.426-1.051-3.969-1.751s-2.928-1.356-3.929-1.837l-1.185-.569-.323-.152A.685.685,0,0,0,103.921,454.64Z" transform="translate(-103.921 -454.639)" fill="#263238"/>
              </g>
            </g>
            <g id="Grupo_111885" data-name="Grupo 111885" transform="translate(8.787 5.756)">
              <g id="Grupo_111884" data-name="Grupo 111884">
                <path id="Trazado_171917" data-name="Trazado 171917" d="M123.345,463.019a1.91,1.91,0,0,1,1.1-.743,1.167,1.167,0,0,0-1.1.743Z" transform="translate(-123.342 -462.266)" fill="#263238"/>
              </g>
            </g>
            <g id="Grupo_111887" data-name="Grupo 111887" transform="translate(7.292 4.249)">
              <g id="Grupo_111886" data-name="Grupo 111886">
                <path id="Trazado_171918" data-name="Trazado 171918" d="M120.04,459.328c.013.02.157-.051.322-.159s.287-.211.274-.232-.157.051-.322.158S120.027,459.308,120.04,459.328Z" transform="translate(-120.039 -458.934)" fill="#263238"/>
              </g>
            </g>
            <g id="Grupo_111889" data-name="Grupo 111889" transform="translate(6.888 3.927)">
              <g id="Grupo_111888" data-name="Grupo 111888">
                <path id="Trazado_171919" data-name="Trazado 171919" d="M119.145,458.415c.007.023.143,0,.3-.049s.283-.11.276-.133-.143,0-.3.05S119.137,458.392,119.145,458.415Z" transform="translate(-119.144 -458.223)" fill="#263238"/>
              </g>
            </g>
            <g id="Grupo_111891" data-name="Grupo 111891" transform="translate(6.832 3.339)">
              <g id="Grupo_111890" data-name="Grupo 111890">
                <path id="Trazado_171920" data-name="Trazado 171920" d="M119.022,456.93c-.01.022.135.111.324.2a.847.847,0,0,0,.361.12c.01-.022-.135-.111-.324-.2A.845.845,0,0,0,119.022,456.93Z" transform="translate(-119.022 -456.925)" fill="#263238"/>
              </g>
            </g>
            <g id="Grupo_111893" data-name="Grupo 111893" transform="translate(6.914 2.851)">
              <g id="Grupo_111892" data-name="Grupo 111892">
                <path id="Trazado_171921" data-name="Trazado 171921" d="M119.2,455.849c-.016.016.117.168.333.285a.738.738,0,0,0,.42.127,32.537,32.537,0,0,1-.753-.412Z" transform="translate(-119.203 -455.846)" fill="#263238"/>
              </g>
            </g>
            <g id="Grupo_111895" data-name="Grupo 111895" transform="translate(7.777 3.883)">
              <g id="Grupo_111894" data-name="Grupo 111894">
                <path id="Trazado_171922" data-name="Trazado 171922" d="M121.11,458.412a1.34,1.34,0,0,0,.424.189,2.732,2.732,0,0,0,.5.1,1.345,1.345,0,0,0,.306.01.249.249,0,0,0,.164-.084.183.183,0,0,0,.013-.2.852.852,0,0,0-1.063-.208.834.834,0,0,0-.266.22c-.05.065-.067.106-.062.109a1.314,1.314,0,0,1,.356-.274.84.84,0,0,1,.468-.071.719.719,0,0,1,.489.263c.045.08-.017.147-.112.158a1.357,1.357,0,0,1-.284-.006,3.174,3.174,0,0,1-.487-.084C121.277,458.472,121.116,458.4,121.11,458.412Z" transform="translate(-121.11 -458.125)" fill="#263238"/>
              </g>
            </g>
            <g id="Grupo_111897" data-name="Grupo 111897" transform="translate(7.464 3.228)">
              <g id="Grupo_111896" data-name="Grupo 111896">
                <path id="Trazado_171923" data-name="Trazado 171923" d="M120.831,457.69a.46.46,0,0,0,.182-.271.762.762,0,0,0,.024-.362.465.465,0,0,0-.254-.375c-.1-.032-.346.176-.363.255s.122.038.13.1a1.416,1.416,0,0,0,.084.347.675.675,0,0,0,.165.281c.012-.007-.05-.114-.106-.3a1.629,1.629,0,0,1-.062-.334c-.018-.116.015-.295.13-.266s.171.192.2.306a.768.768,0,0,1,0,.329A1.7,1.7,0,0,1,120.831,457.69Z" transform="translate(-120.417 -456.679)" fill="#263238"/>
              </g>
            </g>
            <g id="Grupo_111899" data-name="Grupo 111899" transform="translate(0.951 0.564)">
              <g id="Grupo_111898" data-name="Grupo 111898">
                <path id="Trazado_171924" data-name="Trazado 171924" d="M106.024,450.791c-.005.015.2.067.478.237a2.265,2.265,0,0,1,1.1,2.157c-.028.328-.1.522-.088.527a.419.419,0,0,0,.061-.133,1.92,1.92,0,0,0,.089-.388,2.2,2.2,0,0,0-1.132-2.217,1.9,1.9,0,0,0-.366-.155A.41.41,0,0,0,106.024,450.791Z" transform="translate(-106.024 -450.789)" fill="#263238"/>
              </g>
            </g>
            <g id="Grupo_111901" data-name="Grupo 111901" transform="translate(3.552 3.268)">
              <g id="Grupo_111900" data-name="Grupo 111900">
                <path id="Trazado_171925" data-name="Trazado 171925" d="M111.772,456.768a5.922,5.922,0,0,0,1.923.876c.008-.024-.435-.189-.964-.432S111.785,456.746,111.772,456.768Z" transform="translate(-111.771 -456.767)" fill="#263238"/>
              </g>
            </g>
            <g id="Grupo_111903" data-name="Grupo 111903" transform="translate(2.254 2.675)">
              <g id="Grupo_111902" data-name="Grupo 111902">
                <path id="Trazado_171926" data-name="Trazado 171926" d="M108.915,455.456c-.024.009-.006.107-.007.225s-.016.217.007.226.081-.089.081-.226S108.936,455.446,108.915,455.456Z" transform="translate(-108.902 -455.455)" fill="#263238"/>
              </g>
            </g>
            <g id="Grupo_111905" data-name="Grupo 111905" transform="translate(2.042 1.849)">
              <g id="Grupo_111904" data-name="Grupo 111904">
                <path id="Trazado_171927" data-name="Trazado 171927" d="M108.447,453.63c-.023.009-.011.1.026.2s.085.174.108.166.011-.1-.026-.2S108.47,453.622,108.447,453.63Z" transform="translate(-108.435 -453.63)" fill="#263238"/>
              </g>
            </g>
            <g id="Grupo_111907" data-name="Grupo 111907" transform="translate(1.483 1.246)">
              <g id="Grupo_111906" data-name="Grupo 111906">
                <path id="Trazado_171928" data-name="Trazado 171928" d="M107.2,452.309c-.005.024.082.063.164.141s.128.161.152.154.01-.123-.092-.218S107.2,452.285,107.2,452.309Z" transform="translate(-107.199 -452.297)" fill="#263238"/>
              </g>
            </g>
            <g id="Grupo_111909" data-name="Grupo 111909" transform="translate(1.042 0.897)">
              <g id="Grupo_111908" data-name="Grupo 111908">
                <path id="Trazado_171929" data-name="Trazado 171929" d="M106.229,451.531c-.017.017,0,.068.05.114s.1.07.113.053,0-.068-.05-.114S106.246,451.514,106.229,451.531Z" transform="translate(-106.223 -451.526)" fill="#263238"/>
              </g>
            </g>
          </g>
        </g>
        <g id="Grupo_111913" data-name="Grupo 111913" transform="translate(28.372 18.121)">
          <path id="Trazado_171930" data-name="Trazado 171930" d="M166.684,201.3c.061-.6.18-1.42.208-1.8.085-1.145.28-1.4.661-1.23.62.277-.029,3.2.416,3.242.239.021.561-1.69.689-2.533.137-.9.231-2.125.289-2.56.063-.48.88-.59.85.262a14.1,14.1,0,0,0,.133,3.4c.567.263.546-3.2.681-4.33a1.466,1.466,0,0,1,.157-.552.426.426,0,0,1,.781.177c.15,1.1-.07,4.084.014,4.567.026.148.4.223.488-.271.123-.664.068-3.839.721-3.558.718.309-.053,4.067.24,4.449.547.713.608-3.371,1.287-3.194.343.09.336.218-.013,2.4-.16,1-.832,3.178-1.2,5.039,1.574,5.552,4.328,15.95,3.925,19.378-.231,1.965-4.788,3.322-6.742,1.856s-3.315-7.991-3.315-7.991l2.349-1.389-2.3-12.579h0c-.1-.264-.14-.949-.28-1.274A3.821,3.821,0,0,1,166.684,201.3Z" transform="translate(-166.63 -195.004)" fill="#ffbe9d"/>
          <g id="Grupo_111912" data-name="Grupo 111912" transform="translate(2.706 21.677)">
            <path id="Trazado_171931" data-name="Trazado 171931" d="M173.915,249.531a48.358,48.358,0,0,1-1.293-6.616,48.209,48.209,0,0,1,1.293,6.616Z" transform="translate(-172.611 -242.915)" fill="#eb996e"/>
          </g>
        </g>
        <g id="Grupo_111939" data-name="Grupo 111939" transform="translate(5.004)">
          <g id="Grupo_111937" data-name="Grupo 111937">
            <path id="Trazado_171932" data-name="Trazado 171932" d="M161.988,175.895a29.131,29.131,0,0,1,6.017-.243,2.2,2.2,0,0,0-1.216-3.149,1.854,1.854,0,0,1-.714-.308,1.221,1.221,0,0,1-.161-1.2,1.815,1.815,0,0,0,.054-1.24c-.295-.593-1.159-.6-1.639-1.061-.552-.525-.423-1.413-.528-2.168a3.219,3.219,0,0,0-2.748-2.673" transform="translate(-140.208 -159.827)" fill="#263238"/>
            <path id="Trazado_171933" data-name="Trazado 171933" d="M129.454,156.048a5.422,5.422,0,0,0-5.858,2.586c-.6,1.091-.9,2.5-2.017,3.054a6.217,6.217,0,0,1-2.24.327c-.757.071-1.61.423-1.791,1.161s.388,1.66-.116,2.241c-.323.372-.9.35-1.351.542a2.434,2.434,0,0,0-1.08,2.576,8.965,8.965,0,0,1,.2,2.97,12.975,12.975,0,0,0,3.087.676,4.363,4.363,0,0,0,2.982-.837,1.109,1.109,0,0,0,.572,1.1,2.779,2.779,0,0,0,1.274.311,12.558,12.558,0,0,0,4.293-.478" transform="translate(-114.981 -155.478)" fill="#263238"/>
            <g id="Grupo_111933" data-name="Grupo 111933" transform="translate(6.725 0.051)">
              <g id="Grupo_111926" data-name="Grupo 111926">
                <g id="Grupo_111914" data-name="Grupo 111914" transform="translate(4.627 1.352)">
                  <path id="Trazado_171934" data-name="Trazado 171934" d="M148.159,178.3c-.029-1.886-.057-3.753-.057-3.753a3.669,3.669,0,0,0,3.268-3.4c.218-3.1.107-10.255.107-10.255l-5.522-2.843-5.883,4.762.24,15.675a3.924,3.924,0,0,0,4.119,3.792h0A3.924,3.924,0,0,0,148.159,178.3Z" transform="translate(-140.073 -158.052)" fill="#ffbe9d"/>
                </g>
                <g id="Grupo_111918" data-name="Grupo 111918" transform="translate(14.222 8.57)">
                  <g id="Grupo_111915" data-name="Grupo 111915" transform="translate(0.375 0.517)">
                    <path id="Trazado_171935" data-name="Trazado 171935" d="M162.883,175.551a.387.387,0,1,1-.383-.4A.392.392,0,0,1,162.883,175.551Z" transform="translate(-162.109 -175.15)" fill="#263238"/>
                  </g>
                  <g id="Grupo_111917" data-name="Grupo 111917">
                    <g id="Grupo_111916" data-name="Grupo 111916">
                      <path id="Trazado_171936" data-name="Trazado 171936" d="M162.808,174.5c-.051.051-.333-.2-.75-.229s-.731.175-.774.117c-.021-.025.032-.119.17-.214a1.007,1.007,0,0,1,1.216.089C162.793,174.373,162.832,174.474,162.808,174.5Z" transform="translate(-161.279 -174.007)" fill="#263238"/>
                    </g>
                  </g>
                </g>
                <g id="Grupo_111922" data-name="Grupo 111922" transform="translate(9.606 8.57)">
                  <g id="Grupo_111919" data-name="Grupo 111919" transform="translate(0.509 0.518)">
                    <path id="Trazado_171937" data-name="Trazado 171937" d="M152.976,175.554a.387.387,0,1,1-.383-.4A.392.392,0,0,1,152.976,175.554Z" transform="translate(-152.202 -175.153)" fill="#263238"/>
                  </g>
                  <g id="Grupo_111921" data-name="Grupo 111921">
                    <g id="Grupo_111920" data-name="Grupo 111920">
                      <path id="Trazado_171938" data-name="Trazado 171938" d="M152.6,174.5c-.05.051-.333-.2-.75-.229s-.731.175-.774.118c-.021-.026.032-.12.17-.215a1.007,1.007,0,0,1,1.216.089C152.59,174.373,152.629,174.474,152.6,174.5Z" transform="translate(-151.076 -174.007)" fill="#263238"/>
                    </g>
                  </g>
                </g>
                <g id="Grupo_111924" data-name="Grupo 111924" transform="translate(12.564 8.821)">
                  <g id="Grupo_111923" data-name="Grupo 111923">
                    <path id="Trazado_171939" data-name="Trazado 171939" d="M157.65,178.291a2.557,2.557,0,0,1,.682-.085c.107,0,.208-.02.23-.1a.626.626,0,0,0-.057-.342l-.276-.889a16.013,16.013,0,0,1-.608-2.316,15.855,15.855,0,0,1,.779,2.262l.263.893a.709.709,0,0,1,.036.451.266.266,0,0,1-.182.155.7.7,0,0,1-.181.014A2.555,2.555,0,0,1,157.65,178.291Z" transform="translate(-157.615 -174.562)" fill="#263238"/>
                  </g>
                </g>
                <g id="Grupo_111925" data-name="Grupo 111925">
                  <path id="Trazado_171940" data-name="Trazado 171940" d="M129.85,164.016c.034-.22-.03.238.014-.106h0a11.884,11.884,0,0,1,.2-1.256,9.726,9.726,0,0,1,8.364-7.588c1.175.012,4.537-.086,6.408,2.256a6.149,6.149,0,0,1,1.07,6.156h0l-4.9-.867a5.825,5.825,0,0,0-.42-3.455l-.028-.027c-.93,4.633-5.924,5.674-5.924,5.674l-.058,6.792c-3.639-.527-4.812-4.892-4.727-7.578Z" transform="translate(-129.846 -155.065)" fill="#263238"/>
                </g>
              </g>
              <g id="Grupo_111932" data-name="Grupo 111932" transform="translate(2.599 10.005)">
                <g id="Grupo_111928" data-name="Grupo 111928">
                  <g id="Grupo_111927" data-name="Grupo 111927">
                    <path id="Trazado_171941" data-name="Trazado 171941" d="M137.841,179.731a7.428,7.428,0,0,0,.09-2.019c-.156-.439-.643-.538-1.18-.533a1.208,1.208,0,0,0-1.161,1.159,1.578,1.578,0,0,0,.654,1.362,1.777,1.777,0,0,0,1.55.087" transform="translate(-135.589 -177.179)" fill="#ffbe9d"/>
                  </g>
                </g>
                <g id="Grupo_111931" data-name="Grupo 111931" transform="translate(0.69 0.669)">
                  <g id="Grupo_111930" data-name="Grupo 111930">
                    <g id="Grupo_111929" data-name="Grupo 111929">
                      <path id="Trazado_171942" data-name="Trazado 171942" d="M138.1,179.93c-.016-.031-.152.033-.348-.032a.627.627,0,0,1-.4-.605.471.471,0,0,1,.11-.369.417.417,0,0,1,.307-.082c.209.024.355.084.368.048s-.09-.133-.338-.211a.551.551,0,0,0-.471.078.64.64,0,0,0-.208.545.871.871,0,0,0,.194.528.647.647,0,0,0,.4.229C137.988,180.094,138.119,179.947,138.1,179.93Z" transform="translate(-137.113 -178.657)" fill="#eb996e"/>
                    </g>
                  </g>
                </g>
              </g>
            </g>
            <g id="Grupo_111934" data-name="Grupo 111934" transform="translate(19.088 13.39)">
              <path id="Trazado_171943" data-name="Trazado 171943" d="M157.38,184.651c-.022-.019.077-.139.29-.092a.367.367,0,0,1,.265.26.415.415,0,0,1-.146.44.408.408,0,0,1-.465,0,.348.348,0,0,1-.149-.345c.043-.218.2-.252.208-.223s-.056.1-.042.232a.184.184,0,0,0,.1.152.211.211,0,0,0,.21-.009.219.219,0,0,0,.074-.2.21.21,0,0,0-.111-.153C157.5,184.65,157.395,184.681,157.38,184.651Z" transform="translate(-157.169 -184.548)" fill="#263238"/>
            </g>
            <g id="Grupo_111935" data-name="Grupo 111935" transform="translate(16.13 7.731)">
              <path id="Trazado_171944" data-name="Trazado 171944" d="M152.6,172.194c-.015.067-.471,0-1.006.126s-.918.375-.961.321.309-.417.909-.551A1.279,1.279,0,0,1,152.6,172.194Z" transform="translate(-150.632 -172.04)" fill="#263238"/>
            </g>
            <g id="Grupo_111936" data-name="Grupo 111936" transform="translate(10.426)">
              <path id="Trazado_171945" data-name="Trazado 171945" d="M143.694,155.048a4.221,4.221,0,0,1-.51,0,4.2,4.2,0,0,0-1.34.262,4.824,4.824,0,0,0-1.692,1.087,5.955,5.955,0,0,0-1.323,2.081,11.65,11.65,0,0,0-.605,4.486c.02.547.038,1.013.052,1.392a2.17,2.17,0,0,1,0,.513,2.124,2.124,0,0,1-.087-.506c-.039-.328-.09-.8-.127-1.392a15,15,0,0,1,.006-2.08,8.852,8.852,0,0,1,.546-2.5A5.968,5.968,0,0,1,140,156.244a4.8,4.8,0,0,1,1.789-1.089,3.8,3.8,0,0,1,1.4-.2,2.514,2.514,0,0,1,.38.05C143.652,155.027,143.7,155.04,143.694,155.048Z" transform="translate(-138.025 -154.953)" fill="#455a64"/>
            </g>
          </g>
          <g id="Grupo_111938" data-name="Grupo 111938" transform="translate(15.167 16.312)">
            <path id="Trazado_171946" data-name="Trazado 171946" d="M153.053,192.525a1.843,1.843,0,0,1-.729.136,5.139,5.139,0,0,1-1.781-.205,4.051,4.051,0,0,1-1.574-.866c-.342-.314-.485-.566-.464-.581s.217.185.571.453a4.824,4.824,0,0,0,1.536.769A11.127,11.127,0,0,0,153.053,192.525Z" transform="translate(-148.502 -191.007)" fill="#eb996e"/>
          </g>
        </g>
        <g id="Grupo_111942" data-name="Grupo 111942" transform="translate(6.007 18.111)">
          <path id="Trazado_171947" data-name="Trazado 171947" d="M120.9,214.8l3.58.2a18,18,0,0,0,1.012,2.935,59.457,59.457,0,0,0,5.67-14.4c-.081-.269-.176-.566-.3-.9a3.825,3.825,0,0,1,.046-1.514c.1-.6.264-1.406.314-1.78.154-1.138.337-1.317.734-1.188.54.175-.221,3.2.221,3.262.238.035.528-1,.613-1.849s.468-3.461.749-3.635c.411-.255.77.149.666.994s-.238,3.408.211,3.442.813-4.3.813-4.3-.07-.942.45-.919c.937.04.2,4.606.125,5.038-.056.3.431.356.473.029s.271-4.33,1.225-4.3c.732.024-.567,3.762-.157,4.628s.7-2.943,1.4-2.89c.26.02.453.071-.026,2.226a48.441,48.441,0,0,1-1.672,5.052c-1.108,5.977-5.971,25.1-13.6,21.6-4.267-1.958-6.257-11.654-6.257-11.654Z" transform="translate(-117.197 -195.078)" fill="#ffbe9d"/>
          <g id="Grupo_111941" data-name="Grupo 111941" transform="translate(8.292)">
            <g id="Grupo_111940" data-name="Grupo 111940">
              <path id="Trazado_171948" data-name="Trazado 171948" d="M146.076,200.35a.232.232,0,0,1-.1-.014.221.221,0,0,1-.156-.239c.01-.257.05-.631.109-1.114a15.978,15.978,0,0,0,.19-1.762c.006-.347,0-.718-.023-1.113a3.811,3.811,0,0,0-.06-.6c-.033-.187-.158-.4-.3-.376l-.016,0h-.007c-.147-.007-.262.108-.309.283a1.619,1.619,0,0,0-.054.554v.013a33.525,33.525,0,0,1-.442,3.453c-.033.154-.067.31-.115.467a2.271,2.271,0,0,1-.086.237.715.715,0,0,1-.07.123.225.225,0,0,1-.173.109.309.309,0,0,1-.26-.217,1.275,1.275,0,0,1-.077-.254,3.775,3.775,0,0,1-.067-.5,15.033,15.033,0,0,1,.028-2.069,4.756,4.756,0,0,0,.043-1.036.574.574,0,0,0-.2-.386.221.221,0,0,0-.178-.023.4.4,0,0,0-.1.043.132.132,0,0,0-.046.061,5.154,5.154,0,0,0-.287,1.04c-.073.366-.137.739-.2,1.116s-.112.759-.157,1.143a8.015,8.015,0,0,1-.19,1.177,4.054,4.054,0,0,1-.187.585,1.065,1.065,0,0,1-.171.292.246.246,0,0,1-.247.09.265.265,0,0,1-.169-.186,2.051,2.051,0,0,1-.044-.644c.009-.205.026-.408.043-.611.03-.348.063-.693.075-1.033a3.543,3.543,0,0,0-.013-.5.787.787,0,0,0-.05-.216.177.177,0,0,0-.04-.062c-.006-.007-.01,0-.016-.01l-.054-.015c-.274-.114-.366.268-.438.576s-.1.652-.169.979c-.109.652-.248,1.3-.32,1.921a2.219,2.219,0,0,0,.036.89l.29.887.009.027-.006.028a47.828,47.828,0,0,1-1.85,5.98c-.655,1.765-1.309,3.29-1.888,4.538s-1.093,2.211-1.45,2.867l-.43.74a1.72,1.72,0,0,1-.16.248,1.821,1.821,0,0,1,.127-.267l.4-.756c.336-.666.833-1.635,1.39-2.889s1.2-2.781,1.836-4.546a49.113,49.113,0,0,0,1.809-5.96l0,.054-.29-.875a2.4,2.4,0,0,1-.051-.99c.074-.647.209-1.275.318-1.93.063-.324.1-.656.17-.994a1.923,1.923,0,0,1,.169-.512.5.5,0,0,1,.228-.23.51.51,0,0,1,.327-.013l.069.02a.363.363,0,0,1,.094.053.407.407,0,0,1,.1.147,1.007,1.007,0,0,1,.069.282,3.715,3.715,0,0,1,.014.533c-.012.351-.046.7-.076,1.045-.017.2-.034.4-.043.6a1.937,1.937,0,0,0,.031.556c.01.043.031.035.007.057v0c0-.014,0,.021,0,.015v0a.028.028,0,0,0,0-.014s-.011-.019-.006-.019a.064.064,0,0,0,.025-.023.867.867,0,0,0,.126-.224,3.786,3.786,0,0,0,.176-.549,7.819,7.819,0,0,0,.187-1.147c.046-.389.1-.773.16-1.152s.124-.755.2-1.126a5.162,5.162,0,0,1,.314-1.1.373.373,0,0,1,.13-.145.645.645,0,0,1,.154-.065.452.452,0,0,1,.35.049.776.776,0,0,1,.305.538,1.969,1.969,0,0,1,.007.566c-.021.177-.038.35-.052.524a14.91,14.91,0,0,0-.038,2.037,3.679,3.679,0,0,0,.06.478,1.077,1.077,0,0,0,.063.214.274.274,0,0,0,.045.077c.015.034.028-.008.027.048-.021-.042,0-.019.015-.054a.547.547,0,0,0,.049-.086,2.131,2.131,0,0,0,.078-.212c.046-.147.081-.3.114-.449a34.382,34.382,0,0,0,.467-3.427v.013a1.775,1.775,0,0,1,.067-.615.626.626,0,0,1,.162-.275.428.428,0,0,1,.306-.112l-.023,0a.358.358,0,0,1,.357.171.89.89,0,0,1,.127.321,3.887,3.887,0,0,1,.055.622c.015.4.018.772.006,1.122a14.787,14.787,0,0,1-.228,1.77c-.072.48-.126.854-.149,1.1a.2.2,0,0,0,.12.217C146.043,200.341,146.077,200.345,146.076,200.35Z" transform="translate(-135.524 -194.982)" fill="#eb996e"/>
            </g>
          </g>
        </g>
      </g>
    </g>
    <g id="Plant" transform="translate(175.785 135.907)">
      <g id="Grupo_111961" data-name="Grupo 111961" transform="translate(0 0)">
        <g id="Grupo_111945" data-name="Grupo 111945">
          <g id="Grupo_111944" data-name="Grupo 111944">
            <path id="Trazado_171949" data-name="Trazado 171949" d="M333.634,292.153c-7.036-4.916-8.633-14.041-8.354-22.243.046-1.369-.1-2.812.547-4.014a2.788,2.788,0,0,1,3.4-1.445c1.017.478,1.46,1.661,2.029,2.639a8.012,8.012,0,0,0,3.211,3.067,3.052,3.052,0,0,0,2.811.254c1.181-.651,1.32-2.283,1.312-3.645q-.024-3.807-.048-7.614a12.691,12.691,0,0,1,.411-4.044,4.225,4.225,0,0,1,2.655-2.856,2.562,2.562,0,0,1,3.171,1.717,12.608,12.608,0,0,1,.039,1.7,1.431,1.431,0,0,0,.838,1.348,1.647,1.647,0,0,0,1.5-.625,18.107,18.107,0,0,0,3.251-4.908,25.121,25.121,0,0,1,3.032-5.065,7.365,7.365,0,0,1,4.99-2.8,4.409,4.409,0,0,1,4.521,3.008c.494,1.92-.626,3.867-1.845,5.422a30.389,30.389,0,0,1-6.329,6.032,2.5,2.5,0,0,0-1.059,1.138c-.3.908.565,1.809,1.461,2.108a15.784,15.784,0,0,0,3.178.358,3.062,3.062,0,0,1,2.614,1.6c.558,1.392-.606,2.851-1.751,3.806a26.043,26.043,0,0,1-7.706,4.448,8.781,8.781,0,0,0-2.863,1.392,2.521,2.521,0,0,0-.808,2.887,2.567,2.567,0,0,0,2.79,1.072,18.148,18.148,0,0,0,2.988-1.141c1.871-.706,4.288-.577,5.487,1.04a4.31,4.31,0,0,1,.459,3.81,9.938,9.938,0,0,1-2.064,3.365,26.182,26.182,0,0,1-11.18,7.857c-4.341,1.505-8.363,1.913-12.677.335" transform="translate(-325.25 -243.611)" fill="#455a64"/>
          </g>
        </g>
        <g id="Grupo_111948" data-name="Grupo 111948" transform="translate(8.276 1.147)">
          <g id="Grupo_111947" data-name="Grupo 111947">
            <g id="Grupo_111946" data-name="Grupo 111946">
              <path id="Trazado_171950" data-name="Trazado 171950" d="M343.543,299.623a59.791,59.791,0,0,1,2.225-11.223,121.921,121.921,0,0,1,4.843-13.137l1.446-3.378c.477-1.108.951-2.206,1.48-3.252a60.959,60.959,0,0,1,3.386-5.836c1.167-1.8,2.34-3.473,3.448-5.026s2.175-2.978,3.2-4.236a48.364,48.364,0,0,1,5.273-5.574c.672-.607,1.208-1.061,1.576-1.363l.42-.342a.093.093,0,1,1,.017.02l-.4.361c-.357.315-.882.78-1.543,1.4a51.094,51.094,0,0,0-5.2,5.614c-1.013,1.262-2.066,2.691-3.169,4.245s-2.265,3.229-3.424,5.031a61.624,61.624,0,0,0-3.359,5.82c-.525,1.041-.993,2.131-1.471,3.241s-.956,2.237-1.445,3.377a125.119,125.119,0,0,0-4.853,13.1,60.852,60.852,0,0,0-2.269,11.173" transform="translate(-343.543 -246.146)" fill="#263238"/>
            </g>
          </g>
        </g>
        <g id="Grupo_111951" data-name="Grupo 111951" transform="translate(16.35 8.641)">
          <g id="Grupo_111950" data-name="Grupo 111950">
            <g id="Grupo_111949" data-name="Grupo 111949">
              <path id="Trazado_171951" data-name="Trazado 171951" d="M363.38,277.693a2.8,2.8,0,0,1-.133-.581c-.071-.376-.157-.924-.252-1.6-.193-1.356-.395-3.237-.609-5.313s-.443-3.949-.656-5.3c-.1-.675-.195-1.22-.262-1.6a2.683,2.683,0,0,1-.076-.591,2.735,2.735,0,0,1,.171.571c.1.371.214.913.34,1.586.258,1.346.516,3.224.73,5.3.207,2.049.394,3.9.537,5.318.068.639.127,1.178.174,1.61A2.7,2.7,0,0,1,363.38,277.693Z" transform="translate(-361.387 -262.711)" fill="#263238"/>
            </g>
          </g>
        </g>
        <g id="Grupo_111954" data-name="Grupo 111954" transform="translate(18.343 20.333)">
          <g id="Grupo_111953" data-name="Grupo 111953">
            <g id="Grupo_111952" data-name="Grupo 111952">
              <path id="Trazado_171952" data-name="Trazado 171952" d="M383.3,288.57a3.77,3.77,0,0,1-.7.084c-.449.04-1.1.094-1.9.187-1.6.173-3.81.49-6.229.946s-4.591.97-6.151,1.384c-.782.2-1.41.381-1.845.5a3.743,3.743,0,0,1-.683.168,3.759,3.759,0,0,1,.654-.262c.427-.151,1.049-.358,1.827-.582,1.552-.46,3.725-1,6.152-1.461a61.8,61.8,0,0,1,6.258-.874c.806-.071,1.46-.1,1.913-.107A3.726,3.726,0,0,1,383.3,288.57Z" transform="translate(-365.792 -288.552)" fill="#263238"/>
            </g>
          </g>
        </g>
        <g id="Grupo_111957" data-name="Grupo 111957" transform="translate(1.9 20.717)">
          <g id="Grupo_111956" data-name="Grupo 111956">
            <g id="Grupo_111955" data-name="Grupo 111955">
              <path id="Trazado_171953" data-name="Trazado 171953" d="M338.267,311.762a.9.9,0,0,1-.12-.214l-.3-.633c-.257-.551-.609-1.358-1.031-2.361-.845-2.006-1.924-4.813-3.074-7.927s-2.2-5.928-3-7.949l-.956-2.39-.257-.652a.885.885,0,0,1-.074-.234.922.922,0,0,1,.12.214l.3.633c.257.551.609,1.358,1.031,2.362.845,2.005,1.924,4.813,3.074,7.928s2.2,5.927,3,7.948l.956,2.39.257.652A.893.893,0,0,1,338.267,311.762Z" transform="translate(-329.451 -289.402)" fill="#263238"/>
            </g>
          </g>
        </g>
        <g id="Grupo_111960" data-name="Grupo 111960" transform="translate(10.716 35.578)">
          <g id="Grupo_111959" data-name="Grupo 111959">
            <g id="Grupo_111958" data-name="Grupo 111958">
              <path id="Trazado_171954" data-name="Trazado 171954" d="M372.2,322.248a.928.928,0,0,1-.231.1l-.676.226-2.491.808c-2.1.682-5,1.658-8.195,2.74s-6.1,2.033-8.222,2.671c-1.059.32-1.919.57-2.516.731l-.689.181a.916.916,0,0,1-.245.046.947.947,0,0,1,.231-.1l.676-.226,2.491-.807c2.1-.682,5-1.658,8.2-2.74s6.1-2.032,8.221-2.671c1.059-.32,1.918-.57,2.516-.73l.689-.181A.927.927,0,0,1,372.2,322.248Z" transform="translate(-348.936 -322.246)" fill="#263238"/>
            </g>
          </g>
        </g>
      </g>
    </g>
    <g id="Device" transform="translate(116.455 60.89)">
      <g id="Grupo_111985" data-name="Grupo 111985">
        <g id="Grupo_111968" data-name="Grupo 111968">
          <g id="Grupo_111967" data-name="Grupo 111967">
            <g id="Grupo_111966" data-name="Grupo 111966">
              <g id="Grupo_111965" data-name="Grupo 111965">
                <g id="Grupo_111964" data-name="Grupo 111964">
                  <g id="Grupo_111962" data-name="Grupo 111962">
                    <path id="Trazado_171955" data-name="Trazado 171955" d="M253.513,221.668l-48.811-.226a10.632,10.632,0,0,1-10.583-10.677l.517-122.371a10.633,10.633,0,0,1,10.682-10.588l48.812.226a10.633,10.633,0,0,1,10.583,10.678l-.518,122.371A10.632,10.632,0,0,1,253.513,221.668Z" transform="translate(-194.118 -77.806)" fill="#263238"/>
                  </g>
                  <g id="Grupo_111963" data-name="Grupo 111963" transform="translate(3.241 3.982)">
                    <path id="Trazado_171956" data-name="Trazado 171956" d="M257.981,86.831l-9.464-.044a2.351,2.351,0,0,0-2.308,2.392L246.2,90.9a2.351,2.351,0,0,1-2.308,2.392L225.447,93.2a2.354,2.354,0,0,1-2.288-2.413l.008-1.717a2.353,2.353,0,0,0-2.288-2.413l-3.328-.015-8.283-.038a7.448,7.448,0,0,0-7.481,7.416l-.5,119.443a7.447,7.447,0,0,0,7.412,7.478l48.714.225a7.447,7.447,0,0,0,7.481-7.415l.5-119.444A7.446,7.446,0,0,0,257.981,86.831Z" transform="translate(-201.281 -86.606)" fill="#fafafa"/>
                  </g>
                </g>
              </g>
            </g>
          </g>
        </g>
        <g id="Grupo_111984" data-name="Grupo 111984" transform="translate(5.388 24.526)">
          <g id="Grupo_111983" data-name="Grupo 111983">
            <rect id="Rect치ngulo_37091" data-name="Rect치ngulo 37091" width="59.817" height="82.949" rx="5.784" transform="translate(0 3.564)" fill="#ebebeb"/>
            <g id="Grupo_111979" data-name="Grupo 111979" transform="translate(1.017 15.212)">
              <g id="Grupo_111970" data-name="Grupo 111970" transform="translate(10.081 4.196)">
                <path id="Trazado_171957" data-name="Trazado 171957" d="M243.173,177.823l-12.167,27.869a5.259,5.259,0,0,0,5.35,7.338c8.453-.857,21.12-2.163,29.9-3.07a5.59,5.59,0,0,0,3.852-8.975L251.461,176.8A4.852,4.852,0,0,0,243.173,177.823Z" transform="translate(-230.558 -174.912)" fill="#5000a1"/>
                <g id="Grupo_111969" data-name="Grupo 111969" transform="translate(1.567 2.019)" opacity="0.5">
                  <path id="Trazado_171958" data-name="Trazado 171958" d="M245.7,182.139a.877.877,0,0,1,.1-.272c.041-.087.085-.2.154-.325l.272-.417c.11-.153.26-.3.413-.482a5.006,5.006,0,0,1,.6-.485A4.281,4.281,0,0,1,249,179.44a4.582,4.582,0,0,1,2.393.23,4.645,4.645,0,0,1,1.2.708l.281.238c.086.088.167.183.253.276.177.187.323.381.478.579l4.2,5.366,10.894,14.006,1.552,2.008a5.324,5.324,0,0,1,1.049,2.526,5.368,5.368,0,0,1-4.811,6.072l-2.778.288-5.677.585-11.195,1.142-5.323.538-1.3.13-.644.064-.686.022a4.957,4.957,0,0,1-2.558-.8,5.111,5.111,0,0,1-2.31-4.414c.021-.21.021-.422.061-.627s.083-.409.136-.609l.211-.582c.074-.185.155-.355.231-.533l.915-2.072,3.345-7.554c2.05-4.616,3.72-8.347,4.89-10.919l1.362-2.954a6.8,6.8,0,0,1,.519-1.011,6.885,6.885,0,0,1-.389,1.068l-1.241,3.007c-1.091,2.606-2.692,6.367-4.684,11.009l-3.266,7.589-.9,2.079c-.074.176-.157.355-.225.529l-.182.514c-.044.176-.076.357-.115.536s-.03.366-.048.549a4.479,4.479,0,0,0,2.042,3.848,4.3,4.3,0,0,0,2.225.688l.6-.022.643-.067,1.3-.136,5.322-.555,11.193-1.156,5.677-.581,2.779-.283a4.684,4.684,0,0,0,4.213-5.289,4.651,4.651,0,0,0-.909-2.214l-1.538-2.011-10.774-14.1-4.121-5.431c-.152-.2-.3-.4-.452-.57-.077-.087-.149-.176-.227-.259l-.254-.223a4.095,4.095,0,0,0-3.316-.948,4.143,4.143,0,0,0-1.7.622,5.032,5.032,0,0,0-.59.438c-.154.163-.307.3-.423.442l-.293.386c-.077.116-.13.221-.181.3C245.763,182.062,245.706,182.144,245.7,182.139Z" transform="translate(-234.022 -179.374)" fill="#fff"/>
                </g>
                <path id="Trazado_171959" data-name="Trazado 171959" d="M264.108,197.179l1.816,11.106a1.823,1.823,0,0,0,1.87,1.527h0a1.822,1.822,0,0,0,1.75-1.8l.127-11.356a1.43,1.43,0,0,0-1.591-1.437l-2.722.309A1.43,1.43,0,0,0,264.108,197.179Z" transform="translate(-248.918 -186.026)" fill="#fff" opacity="0.5"/>
                <path id="Trazado_171960" data-name="Trazado 171960" d="M273.136,235.733a2.741,2.741,0,1,1-2.072-3.277A2.741,2.741,0,0,1,273.136,235.733Z" transform="translate(-250.907 -206.384)" fill="#fff" opacity="0.5"/>
              </g>
              <g id="Grupo_111972" data-name="Grupo 111972">
                <path id="Trazado_171961" data-name="Trazado 171961" d="M218.027,166.152l-9.06,8.286a2.124,2.124,0,0,0,.771,3.585c3.259,1.07,8.146,2.666,11.534,3.772a2.257,2.257,0,0,0,2.893-2.679l-2.912-11.98A1.958,1.958,0,0,0,218.027,166.152Z" transform="translate(-208.276 -165.637)" fill="#5000a1"/>
                <g id="Grupo_111971" data-name="Grupo 111971" transform="translate(0.573 0.727)" opacity="0.5">
                  <path id="Trazado_171962" data-name="Trazado 171962" d="M218.645,167.825c-.01-.01.076-.155.341-.325a1.769,1.769,0,0,1,1.344-.207,1.926,1.926,0,0,1,.9.487,2.146,2.146,0,0,1,.563,1.069l.7,2.662,1.766,6.943.247,1a2.344,2.344,0,0,1-.027,1.206,2.371,2.371,0,0,1-3.028,1.592l-1.073-.349-2.191-.714-4.316-1.419-2.05-.68-.5-.166-.248-.082-.281-.115a2.192,2.192,0,0,1-.888-.789,2.249,2.249,0,0,1-.133-2.193,2.4,2.4,0,0,1,.3-.461l.189-.195.175-.159.681-.61,2.49-2.219c1.527-1.353,2.77-2.439,3.64-3.177a8.544,8.544,0,0,1,1.4-1.094,8.594,8.594,0,0,1-1.214,1.3c-.813.8-2.005,1.943-3.488,3.343l-2.432,2.283-.669.624-.167.158-.136.145a1.819,1.819,0,0,0-.211.336,1.62,1.62,0,0,0,.118,1.568,1.542,1.542,0,0,0,.631.546l.2.08.248.08.5.161,2.056.663,4.32,1.4,2.189.718,1.071.352a1.687,1.687,0,0,0,2.164-1.119,1.682,1.682,0,0,0,.028-.864l-.233-.993c-.609-2.623-1.156-4.986-1.618-6.979-.222-.993-.423-1.893-.6-2.687a1.811,1.811,0,0,0-.42-.928,1.679,1.679,0,0,0-.726-.456,1.724,1.724,0,0,0-1.206.067C218.787,167.742,218.667,167.851,218.645,167.825Z" transform="translate(-209.543 -167.243)" fill="#fff"/>
                </g>
                <path id="Trazado_171963" data-name="Trazado 171963" d="M227.518,173.907l-1.152,4.4a.736.736,0,0,0,.44.87h0a.736.736,0,0,0,.941-.377l1.909-4.169a.577.577,0,0,0-.351-.791l-1.055-.333A.577.577,0,0,0,227.518,173.907Z" transform="translate(-218.168 -169.929)" fill="#fff" opacity="0.5"/>
                <path id="Trazado_171964" data-name="Trazado 171964" d="M225.671,189.679a1.106,1.106,0,1,1-.227-1.549A1.106,1.106,0,0,1,225.671,189.679Z" transform="translate(-216.709 -177.833)" fill="#fff" opacity="0.5"/>
              </g>
              <g id="Grupo_111974" data-name="Grupo 111974" transform="translate(42.422 1.882)">
                <path id="Trazado_171965" data-name="Trazado 171965" d="M304.133,171l-2.055,9.368a1.659,1.659,0,0,0,2.105,1.942c2.563-.784,6.4-1.964,9.061-2.783a1.763,1.763,0,0,0,.642-3.013l-7.251-6.338A1.53,1.53,0,0,0,304.133,171Z" transform="translate(-302.038 -169.796)" fill="#5000a1"/>
                <g id="Grupo_111973" data-name="Grupo 111973" transform="translate(0.21 0.501)" opacity="0.5">
                  <path id="Trazado_171966" data-name="Trazado 171966" d="M304.7,172.147c-.016,0-.032-.136.057-.368a1.389,1.389,0,0,1,.769-.758,1.529,1.529,0,0,1,.808-.1,1.72,1.72,0,0,1,.862.433l1.653,1.376,4.263,3.626.608.524a1.907,1.907,0,0,1,.547.813A1.927,1.927,0,0,1,313,180.168l-.842.261-1.72.53-3.4,1.035-1.616.487-.394.118-.2.058-.24.055a1.786,1.786,0,0,1-.96-.109,1.827,1.827,0,0,1-1.113-1.4,1.956,1.956,0,0,1-.014-.448l.034-.217.041-.181.162-.7c.216-.91.417-1.759.6-2.536.372-1.549.686-2.8.918-3.662a5.273,5.273,0,0,1,.431-1.322,5.3,5.3,0,0,1-.162,1.381c-.149.879-.389,2.146-.7,3.709l-.516,2.554-.144.7-.035.176-.02.146a1.379,1.379,0,0,0,.016.293,1.2,1.2,0,0,0,.741.893,1.134,1.134,0,0,0,.611.059l.155-.038.194-.061.392-.124,1.611-.5,3.39-1.049,1.721-.527.842-.257a1.244,1.244,0,0,0,.831-1.592,1.238,1.238,0,0,0-.349-.534l-.595-.53-4.164-3.74-1.584-1.454a1.25,1.25,0,0,0-1.316-.372,1.343,1.343,0,0,0-.736.565C304.761,172.033,304.727,172.155,304.7,172.147Z" transform="translate(-302.503 -170.904)" fill="#fff"/>
                </g>
                <path id="Trazado_171967" data-name="Trazado 171967" d="M309.512,176.688l1.243,3.325a.574.574,0,0,0,.672.357h0a.575.575,0,0,0,.431-.664l-.657-3.521a.451.451,0,0,0-.58-.347l-.823.262A.451.451,0,0,0,309.512,176.688Z" transform="translate(-306.115 -173.093)" fill="#fff" opacity="0.5"/>
                <path id="Trazado_171968" data-name="Trazado 171968" d="M314.734,188.157a.864.864,0,1,1-.842-.887A.864.864,0,0,1,314.734,188.157Z" transform="translate(-308.043 -179.364)" fill="#fff" opacity="0.5"/>
              </g>
              <g id="Grupo_111975" data-name="Grupo 111975" transform="translate(3.245 34.367)">
                <path id="Trazado_171969" data-name="Trazado 171969" d="M218.282,251.795c-.012.011-.124-.093-.319-.293a3.8,3.8,0,0,1-.337-.38,6.463,6.463,0,0,1-.408-.536,9.527,9.527,0,0,1-.869-1.524,10.078,10.078,0,0,1-.9-4.18,9.483,9.483,0,0,1,.164-1.747,6.328,6.328,0,0,1,.151-.656,3.814,3.814,0,0,1,.15-.485,1.551,1.551,0,0,1,.17-.4c.043.014-.161.595-.306,1.567a10.774,10.774,0,0,0-.111,1.717,10.729,10.729,0,0,0,.883,4.094,10.789,10.789,0,0,0,.809,1.519C217.89,251.319,218.315,251.764,218.282,251.795Z" transform="translate(-215.449 -241.596)" fill="#263238"/>
              </g>
              <g id="Grupo_111976" data-name="Grupo 111976" transform="translate(5.847 34.863)">
                <path id="Trazado_171970" data-name="Trazado 171970" d="M225.371,252.965a1.718,1.718,0,0,1-.387-.246,3.77,3.77,0,0,1-.423-.333,6.311,6.311,0,0,1-.524-.484,9.408,9.408,0,0,1-1.173-1.441,10.037,10.037,0,0,1-1.584-4.238,9.467,9.467,0,0,1-.059-1.857,6.381,6.381,0,0,1,.078-.709,3.817,3.817,0,0,1,.1-.528,1.7,1.7,0,0,1,.132-.439c.046.009-.11.644-.144,1.684a10.48,10.48,0,0,0,.107,1.819,10.584,10.584,0,0,0,1.551,4.15,10.485,10.485,0,0,0,1.112,1.443C224.866,252.552,225.4,252.927,225.371,252.965Z" transform="translate(-221.199 -242.692)" fill="#263238"/>
              </g>
              <g id="Grupo_111977" data-name="Grupo 111977" transform="translate(52.097 27.901)">
                <path id="Trazado_171971" data-name="Trazado 171971" d="M323.425,239.723c-.039-.021.313-.652.712-1.738a15.109,15.109,0,0,0,.566-1.948,14.849,14.849,0,0,0,.237-4.939,15.14,15.14,0,0,0-.376-1.993c-.294-1.119-.584-1.781-.542-1.8a2.1,2.1,0,0,1,.23.453,10.007,10.007,0,0,1,.473,1.3,13.252,13.252,0,0,1,.432,2.011,13.882,13.882,0,0,1-.241,5.013,13.277,13.277,0,0,1-.622,1.96,10.12,10.12,0,0,1-.6,1.25A2.06,2.06,0,0,1,323.425,239.723Z" transform="translate(-323.422 -227.306)" fill="#263238"/>
              </g>
              <g id="Grupo_111978" data-name="Grupo 111978" transform="translate(55.657 29.359)">
                <path id="Trazado_171972" data-name="Trazado 171972" d="M331.366,240.556c-.038-.02.244-.536.546-1.425a11.172,11.172,0,0,0,.408-1.593,10.978,10.978,0,0,0-.029-4,11.167,11.167,0,0,0-.431-1.588c-.315-.885-.6-1.4-.566-1.417a1.406,1.406,0,0,1,.232.343,7.221,7.221,0,0,1,.49,1.015,9.631,9.631,0,0,1,.488,1.6,10.211,10.211,0,0,1,.029,4.087,9.621,9.621,0,0,1-.465,1.61,7.16,7.16,0,0,1-.476,1.022A1.386,1.386,0,0,1,331.366,240.556Z" transform="translate(-331.29 -230.528)" fill="#263238"/>
              </g>
            </g>
            <g id="Grupo_111982" data-name="Grupo 111982" transform="translate(5.24 66.969)">
              <g id="Grupo_111980" data-name="Grupo 111980" transform="translate(0 0)">
                <path id="Trazado_171973" data-name="Trazado 171973" d="M266.792,293.662H219.748a2.141,2.141,0,0,1-2.138-2.138v-9.355a2.14,2.14,0,0,1,2.138-2.137h47.044a2.14,2.14,0,0,1,2.138,2.137v9.355A2.141,2.141,0,0,1,266.792,293.662Zm-47.044-13.178a1.687,1.687,0,0,0-1.685,1.685v9.355a1.687,1.687,0,0,0,1.685,1.686h47.044a1.687,1.687,0,0,0,1.685-1.686v-9.355a1.687,1.687,0,0,0-1.685-1.685Z" transform="translate(-217.61 -280.032)" fill="#5000a1"/>
              </g>
              <g id="Grupo_111981" data-name="Grupo 111981" transform="translate(16.815 4.61)">
                <path id="Trazado_171974" data-name="Trazado 171974" d="M257.767,293.007H255.65l-.456,1.015h-.418l1.737-3.8h.4l1.737,3.8h-.424Zm-.147-.325-.912-2.042-.912,2.042Z" transform="translate(-254.776 -290.222)" fill="#5000a1"/>
                <path id="Trazado_171975" data-name="Trazado 171975" d="M264.723,290.222h.4v3.453h2.128v.347h-2.53Z" transform="translate(-260.223 -290.222)" fill="#5000a1"/>
                <path id="Trazado_171976" data-name="Trazado 171976" d="M274.479,293.675v.347h-2.687v-3.8H274.4v.348h-2.2v1.351h1.965v.342h-1.965v1.412Z" transform="translate(-264.093 -290.222)" fill="#5000a1"/>
                <path id="Trazado_171977" data-name="Trazado 171977" d="M282.415,294.022l-.869-1.222a2.624,2.624,0,0,1-.3.016h-1.021v1.205h-.4v-3.8h1.422a1.716,1.716,0,0,1,1.141.348,1.182,1.182,0,0,1,.413.955,1.235,1.235,0,0,1-.225.752,1.254,1.254,0,0,1-.643.443l.928,1.3Zm-.32-1.8a.98.98,0,0,0,0-1.409,1.322,1.322,0,0,0-.863-.247h-1.01v1.905h1.01A1.312,1.312,0,0,0,282.1,292.225Z" transform="translate(-268.49 -290.222)" fill="#5000a1"/>
                <path id="Trazado_171978" data-name="Trazado 171978" d="M288.391,290.57h-1.336v-.348h3.073v.348h-1.336v3.453h-.4Z" transform="translate(-272.451 -290.222)" fill="#5000a1"/>
              </g>
            </g>
            <rect id="Rect치ngulo_37092" data-name="Rect치ngulo 37092" width="59.817" height="8.217" fill="#e0e0e0"/>
          </g>
          <circle id="Elipse_4179" data-name="Elipse 4179" cx="1.126" cy="1.126" r="1.126" transform="translate(2.56 3.058)" fill="#f5f5f5"/>
          <circle id="Elipse_4180" data-name="Elipse 4180" cx="1.126" cy="1.126" r="1.126" transform="translate(7.178 3.058)" fill="#f5f5f5"/>
          <path id="Trazado_171979" data-name="Trazado 171979" d="M234.35,139.9a1.126,1.126,0,1,1-1.126-1.126A1.126,1.126,0,0,1,234.35,139.9Z" transform="translate(-220.303 -135.715)" fill="#f5f5f5"/>
        </g>
      </g>
    </g>
    <g id="Speech_Bubble" data-name="Speech Bubble" transform="translate(61.855 76.604)">
      <g id="Grupo_111987" data-name="Grupo 111987" transform="translate(0)">
        <g id="Grupo_111986" data-name="Grupo 111986">
          <path id="Trazado_171980" data-name="Trazado 171980" d="M98.658,136.177l-7.094-1.743.052-.008a11.789,11.789,0,0,1-6.123,1.836,12.823,12.823,0,0,1-3.795-.554,11.74,11.74,0,0,1-3.7-1.96,11.884,11.884,0,0,1-4.474-7.906,11.738,11.738,0,0,1,3.048-9.471,12.292,12.292,0,0,1,2.055-1.79c.383-.237.761-.483,1.157-.691l.6-.29.3-.145L81,113.34a11.967,11.967,0,0,1,5.1-.777,11.808,11.808,0,0,1,10.409,7.948,12.237,12.237,0,0,1,.656,3.83,11.761,11.761,0,0,1-1.7,6.145v-.064l3.189,5.755-3.3-5.692-.019-.032.019-.032A11.683,11.683,0,0,0,97,124.343a12.094,12.094,0,0,0-.663-3.769,11.624,11.624,0,0,0-10.245-7.783,11.759,11.759,0,0,0-5,.767l-.306.112-.295.142-.591.285c-.387.2-.757.446-1.134.678a12.12,12.12,0,0,0-2.013,1.755,11.647,11.647,0,0,0,1.381,17.054,11.55,11.55,0,0,0,3.629,1.94,12.672,12.672,0,0,0,3.733.562,11.7,11.7,0,0,0,6.055-1.774l.025-.015.028.007Z" transform="translate(-73.439 -112.537)" fill="#263238"/>
        </g>
        <path id="Trazado_171981" data-name="Trazado 171981" d="M97.507,126.127l.375,5.926a.962.962,0,0,0,.9.9h0A.961.961,0,0,0,99.8,132.1l.658-5.956a.754.754,0,0,0-.76-.837l-1.446.02A.754.754,0,0,0,97.507,126.127Z" transform="translate(-86.617 -119.528)" fill="#59ffcc"/>
        <path id="Trazado_171982" data-name="Trazado 171982" d="M100.392,147.271a1.446,1.446,0,1,1-.917-1.828A1.446,1.446,0,0,1,100.392,147.271Z" transform="translate(-86.654 -130.514)" fill="#59ffcc"/>
      </g>
    </g>
  </g>
</svg>
