<svg xmlns="http://www.w3.org/2000/svg" width="219.744" height="187.999" viewBox="0 0 219.744 187.999">
  <g id="Grupo_112204" data-name="Grupo 112204" transform="translate(-23.577 -52.692)">
    <g id="Background_Complete" data-name="Background Complete" transform="translate(23.577 60.226)">
      <g id="Grupo_112005" data-name="Grupo 112005" transform="translate(0 0)">
        <rect id="Rectángulo_37093" data-name="Rectángulo 37093" width="64.329" height="88.721" transform="translate(9.908 8.35)" fill="#e0e0e0"/>
        <g id="Grupo_111990" data-name="Grupo 111990" transform="translate(12.427 10.34)">
          <rect id="Rectángulo_37094" data-name="Rectángulo 37094" width="58.037" height="83.826" transform="translate(0.226 0.227)" fill="#fafafa"/>
          <path id="Trazado_171983" data-name="Trazado 171983" d="M141.483,176.4H82.992V92.122h58.491Zm-58.037-.453h57.584V92.575H83.445Z" transform="translate(-82.992 -92.122)" fill="#fafafa"/>
        </g>
        <rect id="Rectángulo_37095" data-name="Rectángulo 37095" width="59.38" height="1.326" transform="translate(12.383 34.595)" fill="#e0e0e0"/>
        <rect id="Rectángulo_37096" data-name="Rectángulo 37096" width="60.168" height="1.326" transform="translate(41.009 94.763) rotate(-90)" fill="#e0e0e0"/>
        <rect id="Rectángulo_37097" data-name="Rectángulo 37097" width="84.468" height="1.647" transform="translate(0)" fill="#e0e0e0"/>
        <g id="Grupo_111997" data-name="Grupo 111997" transform="translate(0 0.171)">
          <path id="Trazado_171984" data-name="Trazado 171984" d="M55.577,81.781s.77,88.721.023,88.721H72.282V81.781Z" transform="translate(-55.577 -76.3)" fill="#ebebeb"/>
          <g id="Grupo_111991" data-name="Grupo 111991" transform="translate(4.06)">
            <path id="Trazado_171985" data-name="Trazado 171985" d="M64.651,77.078a29.018,29.018,0,0,1-.118-3.694,29.006,29.006,0,0,1,.118-3.694,29.009,29.009,0,0,1,.118,3.694A29.02,29.02,0,0,1,64.651,77.078Z" transform="translate(-64.533 -69.689)" fill="#e0e0e0"/>
          </g>
          <g id="Grupo_111992" data-name="Grupo 111992" transform="translate(1.809)">
            <path id="Trazado_171986" data-name="Trazado 171986" d="M59.685,77.078a29.018,29.018,0,0,1-.118-3.694,29.006,29.006,0,0,1,.118-3.694,29.009,29.009,0,0,1,.118,3.694A29.02,29.02,0,0,1,59.685,77.078Z" transform="translate(-59.567 -69.689)" fill="#e0e0e0"/>
          </g>
          <g id="Grupo_111993" data-name="Grupo 111993" transform="translate(6.646)">
            <path id="Trazado_171987" data-name="Trazado 171987" d="M70.356,77.078a29.122,29.122,0,0,1-.118-3.694,29.111,29.111,0,0,1,.118-3.694,28.953,28.953,0,0,1,.118,3.694A28.965,28.965,0,0,1,70.356,77.078Z" transform="translate(-70.238 -69.689)" fill="#e0e0e0"/>
          </g>
          <g id="Grupo_111994" data-name="Grupo 111994" transform="translate(9.232)">
            <path id="Trazado_171988" data-name="Trazado 171988" d="M76.061,77.078a28.965,28.965,0,0,1-.118-3.694,28.953,28.953,0,0,1,.118-3.694,29.108,29.108,0,0,1,.118,3.694A29.12,29.12,0,0,1,76.061,77.078Z" transform="translate(-75.943 -69.689)" fill="#e0e0e0"/>
          </g>
          <g id="Grupo_111995" data-name="Grupo 111995" transform="translate(11.818)">
            <path id="Trazado_171989" data-name="Trazado 171989" d="M81.766,77.078a28.965,28.965,0,0,1-.118-3.694,28.953,28.953,0,0,1,.118-3.694,29.006,29.006,0,0,1,.118,3.694A29.018,29.018,0,0,1,81.766,77.078Z" transform="translate(-81.648 -69.689)" fill="#e0e0e0"/>
          </g>
          <g id="Grupo_111996" data-name="Grupo 111996" transform="translate(14.305)">
            <path id="Trazado_171990" data-name="Trazado 171990" d="M87.254,77.078a29.118,29.118,0,0,1-.118-3.694,29.106,29.106,0,0,1,.118-3.694,28.954,28.954,0,0,1,.118,3.694A28.966,28.966,0,0,1,87.254,77.078Z" transform="translate(-87.136 -69.689)" fill="#e0e0e0"/>
          </g>
        </g>
        <g id="Grupo_112004" data-name="Grupo 112004" transform="translate(67.212 0.171)">
          <path id="Trazado_171991" data-name="Trazado 171991" d="M203.855,81.781s.77,88.721.023,88.721H220.56V81.781Z" transform="translate(-203.855 -76.3)" fill="#ebebeb"/>
          <g id="Grupo_111998" data-name="Grupo 111998" transform="translate(4.059)">
            <path id="Trazado_171992" data-name="Trazado 171992" d="M212.928,77.078a28.96,28.96,0,0,1-.118-3.694,28.949,28.949,0,0,1,.118-3.694,29.113,29.113,0,0,1,.118,3.694A29.125,29.125,0,0,1,212.928,77.078Z" transform="translate(-212.81 -69.689)" fill="#e0e0e0"/>
          </g>
          <g id="Grupo_111999" data-name="Grupo 111999" transform="translate(1.808)">
            <path id="Trazado_171993" data-name="Trazado 171993" d="M207.962,77.078a28.964,28.964,0,0,1-.118-3.694,28.952,28.952,0,0,1,.118-3.694,29.106,29.106,0,0,1,.118,3.694A29.118,29.118,0,0,1,207.962,77.078Z" transform="translate(-207.844 -69.689)" fill="#e0e0e0"/>
          </g>
          <g id="Grupo_112000" data-name="Grupo 112000" transform="translate(6.645)">
            <path id="Trazado_171994" data-name="Trazado 171994" d="M218.633,77.078a28.966,28.966,0,0,1-.118-3.694,28.954,28.954,0,0,1,.118-3.694,29.008,29.008,0,0,1,.118,3.694A29.02,29.02,0,0,1,218.633,77.078Z" transform="translate(-218.515 -69.689)" fill="#e0e0e0"/>
          </g>
          <g id="Grupo_112001" data-name="Grupo 112001" transform="translate(9.232)">
            <path id="Trazado_171995" data-name="Trazado 171995" d="M224.339,77.078a29.018,29.018,0,0,1-.118-3.694,29.006,29.006,0,0,1,.118-3.694,29.006,29.006,0,0,1,.118,3.694A29.018,29.018,0,0,1,224.339,77.078Z" transform="translate(-224.221 -69.689)" fill="#e0e0e0"/>
          </g>
          <g id="Grupo_112002" data-name="Grupo 112002" transform="translate(11.818)">
            <path id="Trazado_171996" data-name="Trazado 171996" d="M230.044,77.078a29.12,29.12,0,0,1-.118-3.694,29.108,29.108,0,0,1,.118-3.694,28.951,28.951,0,0,1,.118,3.694A28.962,28.962,0,0,1,230.044,77.078Z" transform="translate(-229.926 -69.689)" fill="#e0e0e0"/>
          </g>
          <g id="Grupo_112003" data-name="Grupo 112003" transform="translate(14.305)">
            <path id="Trazado_171997" data-name="Trazado 171997" d="M235.531,77.078a28.962,28.962,0,0,1-.118-3.694,28.951,28.951,0,0,1,.118-3.694,29.006,29.006,0,0,1,.118,3.694A29.018,29.018,0,0,1,235.531,77.078Z" transform="translate(-235.413 -69.689)" fill="#e0e0e0"/>
          </g>
        </g>
      </g>
      <g id="Grupo_112012" data-name="Grupo 112012" transform="translate(154.108 162.405)">
        <g id="Grupo_112011" data-name="Grupo 112011">
          <g id="Grupo_112006" data-name="Grupo 112006" transform="translate(1.719 3.724)">
            <path id="Trazado_171998" data-name="Trazado 171998" d="M346.4,435.812v13.322H387.37V435.812Z" transform="translate(-346.402 -435.812)" fill="#ebebeb"/>
          </g>
          <g id="Grupo_112007" data-name="Grupo 112007">
            <path id="Trazado_171999" data-name="Trazado 171999" d="M342.61,427.6v3.724h44.119V427.6H342.61Z" transform="translate(-342.61 -427.595)" fill="#f5f5f5"/>
          </g>
          <g id="Grupo_112008" data-name="Grupo 112008" transform="translate(21.2)">
            <path id="Trazado_172000" data-name="Trazado 172000" d="M390.239,444.641h20.627V431.32H412.3V427.6H389.38v3.38Z" transform="translate(-389.38 -427.595)" fill="#e0e0e0"/>
          </g>
          <g id="Grupo_112009" data-name="Grupo 112009" transform="translate(7.449 5.873)">
            <rect id="Rectángulo_37098" data-name="Rectángulo 37098" width="8.308" height="2.005" fill="#e0e0e0"/>
          </g>
          <g id="Grupo_112010" data-name="Grupo 112010" transform="translate(6.379 10.385)">
            <rect id="Rectángulo_37099" data-name="Rectángulo 37099" width="10.668" height="4.235" fill="#fafafa"/>
          </g>
        </g>
      </g>
      <g id="Grupo_112035" data-name="Grupo 112035" transform="translate(164.086 138.032)">
        <g id="Grupo_112018" data-name="Grupo 112018">
          <g id="Grupo_112013" data-name="Grupo 112013" transform="translate(2.092 4.755)">
            <path id="Trazado_172001" data-name="Trazado 172001" d="M369.3,389.325l-.059-5.008,17.548,1.5.547,4.954Z" transform="translate(-369.239 -384.317)" fill="#ebebeb"/>
            <rect id="Rectángulo_37100" data-name="Rectángulo 37100" width="0.904" height="11.017" transform="translate(3.762 3.168) rotate(-85.113)" fill="#e0e0e0"/>
          </g>
          <g id="Grupo_112017" data-name="Grupo 112017">
            <g id="Grupo_112016" data-name="Grupo 112016">
              <path id="Trazado_172002" data-name="Trazado 172002" d="M364.747,378.834l-.007-5.008,17.531,1.69.446,4.475Z" transform="translate(-364.687 -373.826)" fill="#e0e0e0"/>
              <path id="Trazado_172003" data-name="Trazado 172003" d="M364.732,375.329l-.009,3.379,17.084,1.26-.285-3.119Z" transform="translate(-364.678 -374.648)" fill="#fff"/>
              <g id="Grupo_112014" data-name="Grupo 112014" transform="translate(0.19 1.912)">
                <path id="Trazado_172004" data-name="Trazado 172004" d="M380.684,379.634a3.119,3.119,0,0,1-.62-.016l-1.679-.132c-1.417-.122-3.373-.306-5.532-.524s-4.113-.429-5.526-.593l-1.673-.207a3.123,3.123,0,0,1-.611-.108,3.1,3.1,0,0,1,.618.016l1.679.132c1.417.121,3.374.306,5.534.524s4.114.429,5.527.593l1.672.207A3.125,3.125,0,0,1,380.684,379.634Z" transform="translate(-365.043 -378.045)" fill="#e0e0e0"/>
              </g>
              <g id="Grupo_112015" data-name="Grupo 112015" transform="translate(0 2.814)">
                <path id="Trazado_172005" data-name="Trazado 172005" d="M380.419,381.145a3.165,3.165,0,0,1-.624,0l-1.7-.08c-1.431-.078-3.406-.2-5.587-.354s-4.155-.3-5.583-.423l-1.689-.156a3.141,3.141,0,0,1-.617-.089,3.155,3.155,0,0,1,.624,0l1.7.081c1.431.078,3.406.2,5.587.354s4.154.3,5.581.422l1.69.155A3.154,3.154,0,0,1,380.419,381.145Z" transform="translate(-364.623 -380.033)" fill="#e0e0e0"/>
              </g>
            </g>
          </g>
        </g>
        <g id="Grupo_112029" data-name="Grupo 112029" transform="translate(2.288 9.372)">
          <g id="Grupo_112020" data-name="Grupo 112020">
            <g id="Grupo_112019" data-name="Grupo 112019">
              <path id="Trazado_172006" data-name="Trazado 172006" d="M369.736,399.51l-.065-5.008,17.549,1.488.5,4.47Z" transform="translate(-369.672 -394.502)" fill="#e0e0e0"/>
            </g>
          </g>
          <g id="Grupo_112021" data-name="Grupo 112021" transform="translate(1.75 0.17)">
            <path id="Trazado_172007" data-name="Trazado 172007" d="M373.78,399.819a26.042,26.042,0,0,1-.193-4.943,25.946,25.946,0,0,1,.193,4.943Z" transform="translate(-373.532 -394.876)" fill="#f5f5f5"/>
          </g>
          <g id="Grupo_112022" data-name="Grupo 112022" transform="translate(2.582 0.225)">
            <path id="Trazado_172008" data-name="Trazado 172008" d="M375.445,395a25.816,25.816,0,0,1,.107,4.927,25.71,25.71,0,0,1-.107-4.927Z" transform="translate(-375.369 -394.999)" fill="#f5f5f5"/>
          </g>
          <g id="Grupo_112024" data-name="Grupo 112024" transform="translate(4.256 2.418)">
            <path id="Trazado_172009" data-name="Trazado 172009" d="M379.06,399.864c3.058.338,6.656.531,9.766.808" transform="translate(-379.06 -399.851)" fill="#fff"/>
            <g id="Grupo_112023" data-name="Grupo 112023">
              <path id="Trazado_172010" data-name="Trazado 172010" d="M388.826,400.656a9.1,9.1,0,0,1-1.437-.036c-.885-.05-2.107-.126-3.457-.226s-2.571-.213-3.452-.318a7.952,7.952,0,0,1-1.42-.228,9.566,9.566,0,0,1,1.436.061l3.454.249c1.349.1,2.57.2,3.452.295A8.294,8.294,0,0,1,388.826,400.656Z" transform="translate(-379.06 -399.835)" fill="#f5f5f5"/>
            </g>
          </g>
          <g id="Grupo_112025" data-name="Grupo 112025" transform="translate(15.033 1.33)">
            <path id="Trazado_172011" data-name="Trazado 172011" d="M403.106,401.919a21.4,21.4,0,0,1-.219-4.483,21.4,21.4,0,0,1,.219,4.483Z" transform="translate(-402.835 -397.436)" fill="#f5f5f5"/>
          </g>
          <g id="Grupo_112026" data-name="Grupo 112026" transform="translate(15.913 1.38)">
            <path id="Trazado_172012" data-name="Trazado 172012" d="M405.248,402.036a21.587,21.587,0,0,1-.442-4.49,21.587,21.587,0,0,1,.442,4.49Z" transform="translate(-404.777 -397.546)" fill="#f5f5f5"/>
          </g>
          <g id="Grupo_112028" data-name="Grupo 112028" transform="translate(6.86 3.507)">
            <path id="Trazado_172013" data-name="Trazado 172013" d="M384.8,402.338c1.934.132,3.407.229,4.948.264" transform="translate(-384.805 -402.293)" fill="#fff"/>
            <g id="Grupo_112027" data-name="Grupo 112027">
              <path id="Trazado_172014" data-name="Trazado 172014" d="M389.753,402.548a26.019,26.019,0,0,1-4.948-.264,26.026,26.026,0,0,1,4.948.264Z" transform="translate(-384.805 -402.239)" fill="#f5f5f5"/>
            </g>
          </g>
        </g>
        <g id="Grupo_112031" data-name="Grupo 112031" transform="translate(3.201 19.163)">
          <g id="Grupo_112030" data-name="Grupo 112030">
            <path id="Trazado_172015" data-name="Trazado 172015" d="M372.014,421.1l-.33-5,17.6.556.734,4.437Z" transform="translate(-371.684 -416.102)" fill="#e0e0e0"/>
            <path id="Trazado_172016" data-name="Trazado 172016" d="M373.559,421.316l17.13-.245-.477-3.111-16.977-.313Z" transform="translate(-372.533 -416.946)" fill="#fafafa"/>
          </g>
        </g>
        <g id="Grupo_112032" data-name="Grupo 112032" transform="translate(3.848 14.256)">
          <path id="Trazado_172017" data-name="Trazado 172017" d="M373.273,410.282l-.162-5.006,17.575,1.147.585,4.46Z" transform="translate(-373.111 -405.276)" fill="#ebebeb"/>
          <rect id="Rectángulo_37101" data-name="Rectángulo 37101" width="0.904" height="11.017" transform="translate(3.826 3.091) rotate(-86.281)" fill="#e0e0e0"/>
        </g>
        <g id="Grupo_112033" data-name="Grupo 112033" transform="translate(3.953 21.368)">
          <path id="Trazado_172018" data-name="Trazado 172018" d="M390.447,421.055a3.7,3.7,0,0,1-.673.049l-1.833.045c-1.547.027-3.685.049-6.046.058s-4.5,0-6.047-.011l-1.833-.03a3.706,3.706,0,0,1-.673-.043,3.668,3.668,0,0,1,.671-.048l1.832-.045c1.548-.027,3.686-.049,6.049-.058s4.5,0,6.048.011l1.833.03A3.685,3.685,0,0,1,390.447,421.055Z" transform="translate(-373.343 -420.966)" fill="#e0e0e0"/>
        </g>
        <g id="Grupo_112034" data-name="Grupo 112034" transform="translate(4.035 22.142)">
          <path id="Trazado_172019" data-name="Trazado 172019" d="M390.748,422.959a3.731,3.731,0,0,1-.678.037l-1.846.012c-1.558,0-3.711-.017-6.088-.049s-4.531-.076-6.089-.119l-1.845-.063a3.777,3.777,0,0,1-.677-.055,3.721,3.721,0,0,1,.677-.037l1.846-.012c1.558,0,3.712.017,6.091.049s4.531.076,6.089.119l1.845.063A3.723,3.723,0,0,1,390.748,422.959Z" transform="translate(-373.525 -422.673)" fill="#e0e0e0"/>
        </g>
      </g>
      <g id="Grupo_112044" data-name="Grupo 112044" transform="translate(29.815 128.762)">
        <g id="Grupo_112042" data-name="Grupo 112042">
          <g id="Grupo_112036" data-name="Grupo 112036" transform="translate(6.457)">
            <path id="Trazado_172020" data-name="Trazado 172020" d="M78.67,353.4c-2.2.354-3.187,3.061-2.994,5.283s1.106,4.4.862,6.613c-.311,2.816-2.438,5.2-2.686,8.018-.292,3.328,2.061,6.28,2.764,9.546.342,1.589.294,3.27.886,4.784a5.98,5.98,0,0,0,11.549-2.063c.049-2.556-1.528-4.963-1.336-7.511.141-1.884,1.246-3.669,1.009-5.544-.281-2.23-2.348-3.814-3.077-5.94s-.029-4.47-.281-6.7c-.451-4.008-2.674-6.8-6.7-6.481" transform="translate(-73.826 -353.375)" fill="#f5f5f5"/>
          </g>
          <g id="Grupo_112037" data-name="Grupo 112037" transform="translate(0 19.433)">
            <path id="Trazado_172021" data-name="Trazado 172021" d="M59.635,396.247c-.375,3.714,1.268,8.084,3.178,11.291a17.707,17.707,0,0,0,8.315,7.217.916.916,0,0,0,1.5-.919,18.236,18.236,0,0,0-12.995-17.589" transform="translate(-59.581 -396.247)" fill="#ebebeb"/>
          </g>
          <g id="Grupo_112039" data-name="Grupo 112039" transform="translate(4.791 26.13)">
            <g id="Grupo_112038" data-name="Grupo 112038">
              <path id="Trazado_172022" data-name="Trazado 172022" d="M81.593,430.6a1,1,0,0,1-.106-.207l-.265-.608c-.223-.531-.557-1.294-.982-2.232a77.141,77.141,0,0,0-8.1-13.857c-.608-.83-1.109-1.5-1.462-1.95l-.4-.529a.969.969,0,0,1-.128-.194.945.945,0,0,1,.161.167l.431.5c.373.44.893,1.092,1.518,1.912a67.431,67.431,0,0,1,8.115,13.885c.408.947.722,1.721.922,2.262l.228.623A.943.943,0,0,1,81.593,430.6Z" transform="translate(-70.151 -411.021)" fill="#e0e0e0"/>
            </g>
          </g>
          <g id="Grupo_112041" data-name="Grupo 112041" transform="translate(13.836 10.3)">
            <g id="Grupo_112040" data-name="Grupo 112040">
              <path id="Trazado_172023" data-name="Trazado 172023" d="M90.111,376.1a2.167,2.167,0,0,1,.04.356q.028.378.074,1.023c.058.908.141,2.189.242,3.763.2,3.178.482,7.568.823,12.414s.678,9.234.924,12.409c.121,1.573.218,2.853.288,3.76q.044.644.069,1.023a2.245,2.245,0,0,1,.01.358,2.246,2.246,0,0,1-.053-.354q-.04-.377-.109-1.019l-.354-3.755c-.285-3.172-.644-7.558-.985-12.406s-.6-9.24-.762-12.421c-.073-1.576-.133-2.858-.175-3.768q-.022-.646-.035-1.025A2.3,2.3,0,0,1,90.111,376.1Z" transform="translate(-90.105 -376.099)" fill="#e0e0e0"/>
            </g>
          </g>
        </g>
        <g id="Grupo_112043" data-name="Grupo 112043" transform="translate(10.426 40.41)">
          <path id="Trazado_172024" data-name="Trazado 172024" d="M82.582,442.525h9.3v6.829a4.465,4.465,0,0,1-4.465,4.465h0a4.465,4.465,0,0,1-4.459-4.227Z" transform="translate(-82.582 -442.525)" fill="#e0e0e0"/>
        </g>
      </g>
      <g id="Grupo_112053" data-name="Grupo 112053" transform="translate(164.445 7.377)">
        <g id="Grupo_112052" data-name="Grupo 112052" transform="translate(10.552)">
          <g id="Grupo_112051" data-name="Grupo 112051">
            <g id="Grupo_112046" data-name="Grupo 112046">
              <g id="Grupo_112045" data-name="Grupo 112045">
                <path id="Trazado_172025" data-name="Trazado 172025" d="M377.911,85.587l-2.456,22.795h31.472l2.61-22.795Z" transform="translate(-375.455 -85.587)" fill="#ebebeb"/>
              </g>
            </g>
            <g id="Grupo_112048" data-name="Grupo 112048" transform="translate(1.361 1.637)">
              <g id="Grupo_112047" data-name="Grupo 112047">
                <path id="Trazado_172026" data-name="Trazado 172026" d="M380.846,89.2l-2.39,19.946h28.4l2.3-19.946Z" transform="translate(-378.456 -89.199)" fill="#fafafa"/>
              </g>
            </g>
            <g id="Grupo_112050" data-name="Grupo 112050" transform="translate(7.059 4.992)">
              <g id="Grupo_112049" data-name="Grupo 112049">
                <path id="Trazado_172027" data-name="Trazado 172027" d="M392.5,96.6l-1.471,13.236h17.924l.92-13.236Z" transform="translate(-391.029 -96.601)" fill="#e0e0e0"/>
              </g>
            </g>
          </g>
          <path id="Trazado_172028" data-name="Trazado 172028" d="M446.37,106.215l6.5,13.069-7.987-.091,1.584-13.831" transform="translate(-413.413 -96.398)" fill="#f5f5f5"/>
        </g>
        <rect id="Rectángulo_37102" data-name="Rectángulo 37102" width="2.831" height="7.088" transform="translate(47.285 25.51)" fill="#e0e0e0"/>
        <rect id="Rectángulo_37103" data-name="Rectángulo 37103" width="2.831" height="7.088" transform="translate(5.823 25.51)" fill="#e0e0e0"/>
        <rect id="Rectángulo_37104" data-name="Rectángulo 37104" width="55.299" height="2.993" transform="translate(0 22.932)" fill="#e0e0e0"/>
      </g>
    </g>
    <g id="Plant" transform="translate(174.59 120.242)">
      <g id="Grupo_112071" data-name="Grupo 112071">
        <g id="Grupo_112055" data-name="Grupo 112055">
          <g id="Grupo_112054" data-name="Grupo 112054">
            <path id="Trazado_172029" data-name="Trazado 172029" d="M327.45,255.653c-7.819-5.463-9.592-15.6-9.283-24.716.052-1.521-.116-3.125.608-4.46s2.413-2.247,3.775-1.606c1.13.532,1.622,1.846,2.254,2.933a8.9,8.9,0,0,0,3.568,3.408,3.392,3.392,0,0,0,3.124.283c1.312-.724,1.467-2.537,1.457-4.051q-.027-4.23-.053-8.46a14.1,14.1,0,0,1,.456-4.494,4.691,4.691,0,0,1,2.95-3.173,2.846,2.846,0,0,1,3.523,1.907,14.01,14.01,0,0,1,.043,1.884,1.591,1.591,0,0,0,.931,1.5,1.83,1.83,0,0,0,1.662-.694,20.12,20.12,0,0,0,3.612-5.453,27.9,27.9,0,0,1,3.369-5.628,8.182,8.182,0,0,1,5.544-3.11,4.9,4.9,0,0,1,5.023,3.342c.549,2.133-.7,4.3-2.05,6.024a33.76,33.76,0,0,1-7.032,6.7,2.782,2.782,0,0,0-1.176,1.265c-.329,1.009.627,2.011,1.623,2.342a17.483,17.483,0,0,0,3.532.4,3.4,3.4,0,0,1,2.9,1.775c.62,1.546-.674,3.168-1.946,4.229a28.932,28.932,0,0,1-8.563,4.943,9.764,9.764,0,0,0-3.182,1.547,2.8,2.8,0,0,0-.9,3.208,2.851,2.851,0,0,0,3.1,1.191,20.176,20.176,0,0,0,3.32-1.268c2.08-.785,4.765-.642,6.1,1.155a4.788,4.788,0,0,1,.509,4.234,11.033,11.033,0,0,1-2.294,3.74,29.1,29.1,0,0,1-12.423,8.731c-4.823,1.673-9.293,2.125-14.087.372" transform="translate(-318.133 -201.714)" fill="#5000a1"/>
          </g>
        </g>
        <g id="Grupo_112058" data-name="Grupo 112058" transform="translate(8.974 1.274)">
          <g id="Grupo_112057" data-name="Grupo 112057">
            <g id="Grupo_112056" data-name="Grupo 112056">
              <path id="Trazado_172030" data-name="Trazado 172030" d="M368.652,204.526a1.07,1.07,0,0,1-.146.144l-.45.4c-.4.35-.98.867-1.715,1.553a56.75,56.75,0,0,0-5.779,6.238c-1.126,1.4-2.3,2.99-3.521,4.717s-2.517,3.587-3.8,5.59a68.548,68.548,0,0,0-3.733,6.467c-.583,1.156-1.1,2.367-1.634,3.6l-1.606,3.753a138.93,138.93,0,0,0-5.392,14.56,67.554,67.554,0,0,0-2.522,12.416,49.467,49.467,0,0,0-.142,8.546c.079,1.007.156,1.789.227,2.317.029.253.053.452.07.6a1.174,1.174,0,0,1,.015.207,1.07,1.07,0,0,1-.043-.2c-.024-.149-.056-.347-.1-.6-.089-.526-.184-1.307-.28-2.315a47.316,47.316,0,0,1,.054-8.575,66.414,66.414,0,0,1,2.472-12.47,135.58,135.58,0,0,1,5.382-14.6q.815-1.9,1.607-3.754c.53-1.231,1.057-2.451,1.645-3.614a67.711,67.711,0,0,1,3.762-6.484c1.3-2,2.6-3.86,3.831-5.585s2.417-3.309,3.556-4.707a53.678,53.678,0,0,1,5.86-6.193c.746-.674,1.342-1.179,1.751-1.515l.467-.379A1.135,1.135,0,0,1,368.652,204.526Z" transform="translate(-337.932 -204.525)" fill="#263238"/>
            </g>
          </g>
        </g>
        <g id="Grupo_112061" data-name="Grupo 112061" transform="translate(18.168 9.602)">
          <g id="Grupo_112060" data-name="Grupo 112060">
            <g id="Grupo_112059" data-name="Grupo 112059">
              <path id="Trazado_172031" data-name="Trazado 172031" d="M360.428,239.545a3.048,3.048,0,0,1-.148-.645c-.08-.418-.174-1.027-.281-1.781-.214-1.506-.438-3.6-.677-5.9s-.492-4.389-.728-5.888c-.116-.75-.216-1.356-.291-1.774a3.006,3.006,0,0,1-.084-.657,3.03,3.03,0,0,1,.19.634c.107.412.238,1.014.378,1.762.287,1.5.573,3.582.812,5.891.23,2.276.437,4.335.6,5.909.076.71.141,1.309.193,1.789A3.054,3.054,0,0,1,360.428,239.545Z" transform="translate(-358.213 -222.898)" fill="#263238"/>
            </g>
          </g>
        </g>
        <g id="Grupo_112064" data-name="Grupo 112064" transform="translate(20.382 22.594)">
          <g id="Grupo_112063" data-name="Grupo 112063">
            <g id="Grupo_112062" data-name="Grupo 112062">
              <path id="Trazado_172032" data-name="Trazado 172032" d="M382.553,251.578a4.148,4.148,0,0,1-.776.093c-.5.044-1.222.1-2.112.208-1.782.192-4.234.544-6.922,1.051s-5.1,1.078-6.835,1.538c-.869.224-1.567.424-2.05.559a4.2,4.2,0,0,1-.759.186,4.173,4.173,0,0,1,.727-.291c.474-.168,1.166-.4,2.03-.647,1.725-.51,4.139-1.11,6.836-1.623a68.647,68.647,0,0,1,6.954-.972c.9-.078,1.622-.109,2.125-.119A4.171,4.171,0,0,1,382.553,251.578Z" transform="translate(-363.099 -251.558)" fill="#263238"/>
            </g>
          </g>
        </g>
        <g id="Grupo_112067" data-name="Grupo 112067" transform="translate(2.112 23.021)">
          <g id="Grupo_112066" data-name="Grupo 112066">
            <g id="Grupo_112065" data-name="Grupo 112065">
              <path id="Trazado_172033" data-name="Trazado 172033" d="M332.589,277.347a.986.986,0,0,1-.134-.237l-.332-.7c-.286-.612-.677-1.509-1.146-2.624-.939-2.229-2.138-5.348-3.415-8.808s-2.447-6.588-3.338-8.833l-1.063-2.656-.285-.725a.979.979,0,0,1-.082-.26,1.021,1.021,0,0,1,.133.238l.333.7c.286.612.677,1.509,1.145,2.624.939,2.228,2.138,5.348,3.416,8.809s2.447,6.586,3.337,8.831l1.063,2.655.285.725A1.037,1.037,0,0,1,332.589,277.347Z" transform="translate(-322.792 -252.501)" fill="#263238"/>
            </g>
          </g>
        </g>
        <g id="Grupo_112070" data-name="Grupo 112070" transform="translate(11.908 39.533)">
          <g id="Grupo_112069" data-name="Grupo 112069">
            <g id="Grupo_112068" data-name="Grupo 112068">
              <path id="Trazado_172034" data-name="Trazado 172034" d="M370.255,288.931a1.073,1.073,0,0,1-.257.106l-.751.252-2.768.9c-2.337.758-5.554,1.842-9.106,3.045s-6.783,2.259-9.136,2.969c-1.177.355-2.132.633-2.8.811l-.766.2a1,1,0,0,1-.272.051,1.069,1.069,0,0,1,.257-.106l.751-.251,2.768-.9c2.338-.758,5.554-1.842,9.107-3.045s6.781-2.258,9.135-2.968c1.177-.355,2.132-.633,2.8-.811l.766-.2A1,1,0,0,1,370.255,288.931Z" transform="translate(-344.404 -288.928)" fill="#263238"/>
            </g>
          </g>
        </g>
      </g>
      <g id="Grupo_112075" data-name="Grupo 112075" transform="translate(8.463 43.362)">
        <path id="Trazado_172035" data-name="Trazado 172035" d="M351.618,306.075a4.493,4.493,0,0,0,3.9-2.27,5.965,5.965,0,0,0,.474-4.585,2.513,2.513,0,0,0-1.233-1.721,1.921,1.921,0,0,0-1.914.357,3.9,3.9,0,0,0-1.106,1.694c-.826,2.19-1.223,4.461-.119,6.524" transform="translate(-344.532 -297.376)" fill="#455a64"/>
        <path id="Trazado_172036" data-name="Trazado 172036" d="M350.323,325.849a10.508,10.508,0,0,1,8.694,4.072,2.215,2.215,0,0,1,.517,2.335,2.176,2.176,0,0,1-2.3.656,8.978,8.978,0,0,1-7.122-6.965" transform="translate(-344.081 -312.937)" fill="#455a64"/>
        <path id="Trazado_172037" data-name="Trazado 172037" d="M377.822,310.343a5.266,5.266,0,0,0-3.571-2.062,9.3,9.3,0,0,0-4.175.475,16.406,16.406,0,0,0-6.782,4.958c2.411,1.846,5.929,1.671,7.709,1.47,2.812-.317,7.7-2.6,6.819-4.842" transform="translate(-351.286 -303.298)" fill="#455a64"/>
        <g id="Grupo_112072" data-name="Grupo 112072" transform="translate(0.074 3.793)">
          <path id="Trazado_172038" data-name="Trazado 172038" d="M336.967,315.1a10.9,10.9,0,0,0,1.314-.4,19.277,19.277,0,0,0,4.43-2.652,9.665,9.665,0,0,0,3-4.193,6.323,6.323,0,0,0,.327-1.54,1.765,1.765,0,0,0-.008-.577,13.43,13.43,0,0,1-.522,2.043,10.142,10.142,0,0,1-2.989,4.031,22.354,22.354,0,0,1-4.326,2.691" transform="translate(-336.967 -305.745)" fill="#263238"/>
        </g>
        <g id="Grupo_112073" data-name="Grupo 112073" transform="translate(0 8.448)">
          <path id="Trazado_172039" data-name="Trazado 172039" d="M336.833,320.725l2.518-.556c2.125-.475,5.061-1.123,8.314-1.8s6.2-1.242,8.343-1.65l2.532-.489a5.633,5.633,0,0,0,.923-.216,5.633,5.633,0,0,0-.943.1c-.6.082-1.475.216-2.55.393-2.15.353-5.112.89-8.367,1.563s-6.189,1.357-8.3,1.885c-1.057.264-1.91.487-2.5.651" transform="translate(-336.804 -316.012)" fill="#263238"/>
        </g>
        <g id="Grupo_112074" data-name="Grupo 112074" transform="translate(0 12.448)">
          <path id="Trazado_172040" data-name="Trazado 172040" d="M349.135,329.542a1.9,1.9,0,0,0-.3-.461,4.4,4.4,0,0,0-.41-.5,7.366,7.366,0,0,0-.6-.615,11.081,11.081,0,0,0-1.767-1.361,11.82,11.82,0,0,0-5.151-1.724,11.044,11.044,0,0,0-2.231.022,7.38,7.38,0,0,0-.846.132,4.461,4.461,0,0,0-.627.151c-.34.1-.407.225-.4.245a17.567,17.567,0,0,1,1.894-.313,12.332,12.332,0,0,1,2.183.043,12.491,12.491,0,0,1,5.033,1.685,12.366,12.366,0,0,1,1.769,1.28C348.621,328.951,349.089,329.58,349.135,329.542Z" transform="translate(-336.803 -324.839)" fill="#263238"/>
        </g>
      </g>
    </g>
    <g id="Device" transform="translate(113.132 52.693)">
      <g id="Grupo_112107" data-name="Grupo 112107">
        <g id="Grupo_112104" data-name="Grupo 112104">
          <g id="Grupo_112079" data-name="Grupo 112079">
            <g id="Grupo_112078" data-name="Grupo 112078">
              <g id="Grupo_112076" data-name="Grupo 112076">
                <path id="Trazado_172041" data-name="Trazado 172041" d="M244.064,201.684l-50.552-.234a11.011,11.011,0,0,1-10.961-11.058l.536-126.735a11.012,11.012,0,0,1,11.062-10.965l50.552.233a11.012,11.012,0,0,1,10.96,11.058l-.536,126.735A11.012,11.012,0,0,1,244.064,201.684Z" transform="translate(-182.551 -52.693)" fill="#263238"/>
              </g>
              <g id="Grupo_112077" data-name="Grupo 112077" transform="translate(3.357 4.374)">
                <path id="Trazado_172042" data-name="Trazado 172042" d="M248.678,62.576l-9.8-.045a2.434,2.434,0,0,0-2.39,2.477l-.008,1.778a2.434,2.434,0,0,1-2.39,2.477l-19.1-.088a2.437,2.437,0,0,1-2.369-2.5l.008-1.778a2.437,2.437,0,0,0-2.37-2.5l-3.447-.016-8.578-.039a7.712,7.712,0,0,0-7.748,7.68l-.523,123.7a7.712,7.712,0,0,0,7.676,7.745l50.451.233a7.712,7.712,0,0,0,7.748-7.679l.523-123.7A7.712,7.712,0,0,0,248.678,62.576Z" transform="translate(-189.957 -62.343)" fill="#fafafa"/>
              </g>
            </g>
          </g>
          <g id="Grupo_112080" data-name="Grupo 112080" transform="translate(30.844 19.809)">
            <rect id="Rectángulo_37105" data-name="Rectángulo 37105" width="13.016" height="2.388" transform="translate(0.011 0) rotate(0.264)" fill="#455a64"/>
          </g>
          <g id="Grupo_112084" data-name="Grupo 112084" transform="translate(7.038 27.476)">
            <g id="Grupo_112081" data-name="Grupo 112081" transform="translate(4.671 3.469)">
              <path id="Trazado_172043" data-name="Trazado 172043" d="M217.184,139.627a1.185,1.185,0,0,1,.306.044c0-.016.1-.02.285-.042Z" transform="translate(-213.194 -131.167)" fill="#455a64"/>
              <path id="Trazado_172044" data-name="Trazado 172044" d="M216.215,123.188a3.827,3.827,0,0,0-.864-.857,4.045,4.045,0,0,0-4.8,0,4.077,4.077,0,0,0-1.42,1.883,4.084,4.084,0,0,0,.564,3.861c.049.066.1.124.154.184a2.923,2.923,0,0,1,2.455-2.038,1.959,1.959,0,0,1-1.173-1.833,1.844,1.844,0,1,1,3.681.017,1.962,1.962,0,0,1-1.169,1.815,2.872,2.872,0,0,1,2.411,2.032c.05-.059.1-.115.148-.179a4.08,4.08,0,0,0,.564-3.861A3.821,3.821,0,0,0,216.215,123.188Z" transform="translate(-208.658 -121.281)" fill="#fafafa"/>
              <path id="Trazado_172045" data-name="Trazado 172045" d="M216.724,123.814a4.3,4.3,0,0,0-1.495-2.008,4.282,4.282,0,0,0-5.1,0,4.3,4.3,0,0,0-1.5,2.008,4.292,4.292,0,0,0-.174,2.26,4.223,4.223,0,0,0,.818,1.8,4.169,4.169,0,0,0,2.367,1.516,3.333,3.333,0,0,0,.766.094,1.042,1.042,0,0,0,.269-.013,1.185,1.185,0,0,0-.306-.044l.591,0c-.185.022-.286.025-.285.042a1.037,1.037,0,0,0,.268.013,3.33,3.33,0,0,0,.766-.094,4.168,4.168,0,0,0,2.367-1.516,4.229,4.229,0,0,0,.818-1.8A4.3,4.3,0,0,0,216.724,123.814Zm-.041,2.22a4.075,4.075,0,0,1-.752,1.724c-.048.064-.1.12-.148.179a2.872,2.872,0,0,0-2.411-2.032,1.962,1.962,0,0,0,1.169-1.815,1.844,1.844,0,1,0-3.681-.017,1.959,1.959,0,0,0,1.173,1.833,2.923,2.923,0,0,0-2.455,2.038c-.051-.061-.1-.118-.154-.184a4.084,4.084,0,0,1-.564-3.861,4.077,4.077,0,0,1,1.42-1.883,4.045,4.045,0,0,1,4.8,0,4.078,4.078,0,0,1,1.42,1.883A4.1,4.1,0,0,1,216.683,126.033Z" transform="translate(-208.382 -120.963)" fill="#455a64"/>
            </g>
            <g id="Grupo_112083" data-name="Grupo 112083">
              <g id="Grupo_112082" data-name="Grupo 112082">
                <path id="Trazado_172046" data-name="Trazado 172046" d="M256.017,129.058c0-.011.131,0,.376-.05a1.984,1.984,0,0,0,.965-.508,2.012,2.012,0,0,0,.61-1.621c0-.719-.008-1.547-.012-2.479-.006-1.868-.014-4.148-.022-6.8q0-.993-.005-2.055a1.926,1.926,0,0,0-.947-1.761,4.532,4.532,0,0,0-2.224-.259l-2.441,0-52.113.039a1.869,1.869,0,0,0-1.519.785,1.818,1.818,0,0,0-.322.814c-.036.282-.014.615-.021.924q0,1.885,0,3.744,0,3.714,0,7.313a1.847,1.847,0,0,0,.769,1.424,1.792,1.792,0,0,0,.758.323,5.74,5.74,0,0,0,.861.031l3.5,0,6.772,0,23.429.028,15.8.042,4.294.024,1.117.013c.252,0,.38.014.38.014s-.129.009-.38.013l-1.117.013-4.294.025-15.8.042L211,129.18l-6.772,0-3.5,0a5.777,5.777,0,0,1-.906-.034,2.05,2.05,0,0,1-.864-.366,2.107,2.107,0,0,1-.876-1.621q0-3.6-.007-7.325,0-1.858,0-3.744a9.355,9.355,0,0,1,.023-.961,2.084,2.084,0,0,1,.369-.929,2.134,2.134,0,0,1,1.734-.9l52.113.039,2.441,0,1.174,0a2.084,2.084,0,0,1,2.155,2.2q0,1.061,0,2.055c-.009,2.647-.016,4.928-.022,6.8,0,.931-.009,1.759-.012,2.479a2.065,2.065,0,0,1-.652,1.659,1.963,1.963,0,0,1-1,.5A1.422,1.422,0,0,1,256.017,129.058Z" transform="translate(-198.077 -113.309)" fill="#455a64"/>
              </g>
              <rect id="Rectángulo_37106" data-name="Rectángulo 37106" width="14.721" height="1.104" transform="translate(17.043 4.192)" fill="#455a64"/>
              <rect id="Rectángulo_37107" data-name="Rectángulo 37107" width="25.792" height="1.104" transform="translate(17.043 10.431)" fill="#455a64"/>
              <rect id="Rectángulo_37108" data-name="Rectángulo 37108" width="37.377" height="1.104" transform="translate(17.043 7.236)" fill="#455a64"/>
            </g>
          </g>
          <g id="Grupo_112088" data-name="Grupo 112088" transform="translate(7.038 66.534)">
            <g id="Grupo_112085" data-name="Grupo 112085" transform="translate(4.671 3.469)">
              <path id="Trazado_172047" data-name="Trazado 172047" d="M217.184,225.793a1.184,1.184,0,0,1,.306.044c0-.016.1-.02.285-.042Z" transform="translate(-213.194 -217.333)" fill="#455a64"/>
              <path id="Trazado_172048" data-name="Trazado 172048" d="M216.215,209.354a3.826,3.826,0,0,0-.864-.857,4.045,4.045,0,0,0-4.8,0,4.077,4.077,0,0,0-1.42,1.883,4.084,4.084,0,0,0,.564,3.861c.049.066.1.124.154.184a2.923,2.923,0,0,1,2.455-2.038,1.959,1.959,0,0,1-1.173-1.833,1.844,1.844,0,1,1,3.681.017,1.962,1.962,0,0,1-1.169,1.815,2.872,2.872,0,0,1,2.411,2.032c.05-.059.1-.115.148-.179a4.08,4.08,0,0,0,.564-3.861A3.82,3.82,0,0,0,216.215,209.354Z" transform="translate(-208.658 -207.447)" fill="#fafafa"/>
              <path id="Trazado_172049" data-name="Trazado 172049" d="M216.724,209.98a4.3,4.3,0,0,0-1.495-2.008,4.282,4.282,0,0,0-5.1,0,4.3,4.3,0,0,0-1.5,2.008,4.292,4.292,0,0,0-.174,2.26,4.223,4.223,0,0,0,.818,1.8,4.169,4.169,0,0,0,2.367,1.516,3.3,3.3,0,0,0,.766.094,1.034,1.034,0,0,0,.269-.013,1.186,1.186,0,0,0-.306-.044l.591,0c-.185.022-.286.025-.285.042a1.029,1.029,0,0,0,.268.013,3.3,3.3,0,0,0,.766-.094,4.168,4.168,0,0,0,2.367-1.516,4.229,4.229,0,0,0,.818-1.8A4.3,4.3,0,0,0,216.724,209.98Zm-.041,2.22a4.075,4.075,0,0,1-.752,1.724c-.048.064-.1.12-.148.179a2.872,2.872,0,0,0-2.411-2.032,1.962,1.962,0,0,0,1.169-1.815,1.844,1.844,0,1,0-3.681-.017,1.959,1.959,0,0,0,1.173,1.833,2.923,2.923,0,0,0-2.455,2.038c-.051-.061-.1-.118-.154-.184a4.084,4.084,0,0,1-.564-3.861,4.077,4.077,0,0,1,1.42-1.883,4.045,4.045,0,0,1,4.8,0,4.078,4.078,0,0,1,1.42,1.883A4.1,4.1,0,0,1,216.683,212.2Z" transform="translate(-208.382 -207.129)" fill="#455a64"/>
            </g>
            <g id="Grupo_112087" data-name="Grupo 112087">
              <g id="Grupo_112086" data-name="Grupo 112086">
                <path id="Trazado_172050" data-name="Trazado 172050" d="M256.017,215.224c0-.011.131,0,.376-.05a1.984,1.984,0,0,0,.965-.508,2.013,2.013,0,0,0,.61-1.621c0-.719-.008-1.547-.012-2.479-.006-1.868-.014-4.148-.022-6.8q0-.993-.005-2.055a1.926,1.926,0,0,0-.947-1.761,4.532,4.532,0,0,0-2.224-.259l-2.441,0-52.113.039a1.869,1.869,0,0,0-1.519.785,1.818,1.818,0,0,0-.322.814c-.036.282-.014.615-.021.924q0,1.885,0,3.744,0,3.714,0,7.313a1.847,1.847,0,0,0,.769,1.424,1.792,1.792,0,0,0,.758.323,5.736,5.736,0,0,0,.861.031l3.5,0,6.772,0,23.429.028,15.8.042,4.294.025,1.117.013c.252,0,.38.014.38.014s-.129.009-.38.013l-1.117.013-4.294.025-15.8.042L211,215.346l-6.772,0-3.5,0a5.779,5.779,0,0,1-.906-.034,2.05,2.05,0,0,1-.864-.366,2.107,2.107,0,0,1-.876-1.62q0-3.6-.007-7.325,0-1.858,0-3.744a9.355,9.355,0,0,1,.023-.961,2.084,2.084,0,0,1,.369-.929,2.134,2.134,0,0,1,1.734-.9l52.113.039,2.441,0,1.174,0a2.084,2.084,0,0,1,2.155,2.2q0,1.061,0,2.055c-.009,2.647-.016,4.928-.022,6.8,0,.932-.009,1.759-.012,2.479a2.066,2.066,0,0,1-.652,1.659,1.963,1.963,0,0,1-1,.5A1.423,1.423,0,0,1,256.017,215.224Z" transform="translate(-198.077 -199.475)" fill="#455a64"/>
              </g>
              <rect id="Rectángulo_37109" data-name="Rectángulo 37109" width="14.721" height="1.104" transform="translate(17.043 4.192)" fill="#455a64"/>
              <rect id="Rectángulo_37110" data-name="Rectángulo 37110" width="25.792" height="1.104" transform="translate(17.043 10.431)" fill="#455a64"/>
              <rect id="Rectángulo_37111" data-name="Rectángulo 37111" width="37.377" height="1.104" transform="translate(17.043 7.236)" fill="#455a64"/>
            </g>
          </g>
          <g id="Grupo_112092" data-name="Grupo 112092" transform="translate(7.282 46.642)">
            <g id="Grupo_112091" data-name="Grupo 112091" transform="translate(0 0)">
              <rect id="Rectángulo_37112" data-name="Rectángulo 37112" width="15.617" height="59.797" rx="3.932" transform="translate(0 15.617) rotate(-89.836)" fill="#5000a1"/>
              <rect id="Rectángulo_37113" data-name="Rectángulo 37113" width="14.721" height="1.104" transform="translate(16.943 4.108) rotate(0.164)" fill="#fafafa"/>
              <rect id="Rectángulo_37114" data-name="Rectángulo 37114" width="25.792" height="1.104" transform="translate(16.925 10.347) rotate(0.164)" fill="#fafafa"/>
              <rect id="Rectángulo_37115" data-name="Rectángulo 37115" width="37.377" height="1.104" transform="translate(16.934 7.152) rotate(0.164)" fill="#fafafa"/>
              <g id="Grupo_112090" data-name="Grupo 112090" transform="translate(4.572 3.377)">
                <path id="Trazado_172051" data-name="Trazado 172051" d="M215.148,169.327a1.963,1.963,0,0,0,1.131-1.84,1.844,1.844,0,1,0-3.681.062,1.959,1.959,0,0,0,1.212,1.807,2.946,2.946,0,0,0-2.446,2.194,4.173,4.173,0,0,0,2.583,1.322l1.134-.02a4.171,4.171,0,0,0,2.563-1.442A2.9,2.9,0,0,0,215.148,169.327Z" transform="translate(-210.157 -164.415)" fill="#fafafa"/>
                <g id="Grupo_112089" data-name="Grupo 112089">
                  <path id="Trazado_172052" data-name="Trazado 172052" d="M213.076,171.53c0-.029.373-.016,1.007-.2a4.174,4.174,0,0,0,2.217-1.577,4.093,4.093,0,0,0,.485-3.882,4.094,4.094,0,0,0-1.464-1.858,4.057,4.057,0,0,0-4.811.1,4.087,4.087,0,0,0-1.383,1.919,4.092,4.092,0,0,0,.652,3.859,4.174,4.174,0,0,0,2.282,1.48c.641.153,1.016.124,1.014.154a3.173,3.173,0,0,1-1.035-.064A4.169,4.169,0,0,1,209.649,170a4.218,4.218,0,0,1-.853-1.775,4.285,4.285,0,0,1,.126-2.257,4.287,4.287,0,0,1,1.448-2.033,4.27,4.27,0,0,1,5.085-.109,4.291,4.291,0,0,1,1.533,1.969,4.28,4.28,0,0,1,.223,2.249,4.215,4.215,0,0,1-.776,1.81,4.169,4.169,0,0,1-2.328,1.567A3.166,3.166,0,0,1,213.076,171.53Z" transform="translate(-208.702 -163.041)" fill="#fafafa"/>
                </g>
              </g>
            </g>
          </g>
          <g id="Grupo_112093" data-name="Grupo 112093" transform="translate(31.444 130.992)">
            <path id="Trazado_172053" data-name="Trazado 172053" d="M254,342.574a1.053,1.053,0,1,1-1.037-.9A.976.976,0,0,1,254,342.574Z" transform="translate(-251.92 -341.675)" fill="#455a64"/>
          </g>
          <g id="Grupo_112094" data-name="Grupo 112094" transform="translate(34.67 131.006)">
            <path id="Trazado_172054" data-name="Trazado 172054" d="M261.118,342.606a1.053,1.053,0,1,1-1.037-.9A.976.976,0,0,1,261.118,342.606Z" transform="translate(-259.036 -341.707)" fill="#455a64"/>
          </g>
          <g id="Grupo_112095" data-name="Grupo 112095" transform="translate(37.895 131.021)">
            <path id="Trazado_172055" data-name="Trazado 172055" d="M268.233,342.639a1.053,1.053,0,1,1-1.037-.9A.975.975,0,0,1,268.233,342.639Z" transform="translate(-266.151 -341.74)" fill="#455a64"/>
          </g>
          <g id="Grupo_112099" data-name="Grupo 112099" transform="translate(7.038 86.791)">
            <g id="Grupo_112096" data-name="Grupo 112096" transform="translate(4.671 3.469)">
              <path id="Trazado_172056" data-name="Trazado 172056" d="M217.184,270.482a1.2,1.2,0,0,1,.306.044c0-.016.1-.019.285-.041Z" transform="translate(-213.194 -262.021)" fill="#455a64"/>
              <path id="Trazado_172057" data-name="Trazado 172057" d="M216.215,254.043a3.825,3.825,0,0,0-.864-.856,4.046,4.046,0,0,0-4.8,0,4.084,4.084,0,0,0-1.42,1.883,4.084,4.084,0,0,0,.564,3.861c.049.066.1.124.154.185a2.922,2.922,0,0,1,2.455-2.038,1.96,1.96,0,0,1-1.173-1.833,1.844,1.844,0,1,1,3.681.017,1.963,1.963,0,0,1-1.169,1.816,2.872,2.872,0,0,1,2.411,2.032c.05-.059.1-.115.148-.179a4.081,4.081,0,0,0,.564-3.861A3.82,3.82,0,0,0,216.215,254.043Z" transform="translate(-208.658 -252.135)" fill="#fafafa"/>
              <path id="Trazado_172058" data-name="Trazado 172058" d="M216.724,254.668a4.3,4.3,0,0,0-1.495-2.008,4.281,4.281,0,0,0-5.1,0,4.3,4.3,0,0,0-1.5,2.008,4.294,4.294,0,0,0-.174,2.261,4.228,4.228,0,0,0,.818,1.8,4.165,4.165,0,0,0,2.367,1.515,3.331,3.331,0,0,0,.766.094,1.018,1.018,0,0,0,.269-.013,1.2,1.2,0,0,0-.306-.044l.591,0c-.185.022-.286.025-.285.041a1.013,1.013,0,0,0,.268.013,3.329,3.329,0,0,0,.766-.094,4.168,4.168,0,0,0,2.367-1.516,4.226,4.226,0,0,0,.818-1.8A4.3,4.3,0,0,0,216.724,254.668Zm-.041,2.22a4.077,4.077,0,0,1-.752,1.724c-.048.064-.1.119-.148.179a2.872,2.872,0,0,0-2.411-2.032,1.963,1.963,0,0,0,1.169-1.816,1.844,1.844,0,1,0-3.681-.017,1.96,1.96,0,0,0,1.173,1.833,2.922,2.922,0,0,0-2.455,2.038c-.051-.061-.1-.119-.154-.185a4.084,4.084,0,0,1-.564-3.861,4.083,4.083,0,0,1,1.42-1.883,4.046,4.046,0,0,1,4.8,0,4.074,4.074,0,0,1,1.42,1.883A4.1,4.1,0,0,1,216.683,256.888Z" transform="translate(-208.382 -251.817)" fill="#455a64"/>
            </g>
            <g id="Grupo_112098" data-name="Grupo 112098">
              <g id="Grupo_112097" data-name="Grupo 112097">
                <path id="Trazado_172059" data-name="Trazado 172059" d="M256.017,259.913c0-.011.131,0,.376-.05a1.98,1.98,0,0,0,.965-.508,2.011,2.011,0,0,0,.61-1.62c0-.719-.008-1.548-.012-2.479-.006-1.867-.014-4.148-.022-6.8q0-.993-.005-2.055a1.926,1.926,0,0,0-.947-1.761,4.527,4.527,0,0,0-2.224-.259l-2.441,0-52.113.039a1.869,1.869,0,0,0-1.519.786,1.816,1.816,0,0,0-.322.813c-.036.283-.014.615-.021.925q0,1.885,0,3.744,0,3.714,0,7.313a1.848,1.848,0,0,0,.769,1.424,1.8,1.8,0,0,0,.758.323,5.736,5.736,0,0,0,.861.031l3.5,0,6.772,0,23.429.028,15.8.042,4.294.025,1.117.013c.252,0,.38.014.38.014s-.129.009-.38.014l-1.117.013-4.294.024-15.8.042L211,260.034l-6.772,0-3.5,0a5.892,5.892,0,0,1-.906-.034,2.057,2.057,0,0,1-.864-.367,2.107,2.107,0,0,1-.876-1.62q0-3.6-.007-7.325,0-1.859,0-3.744a9.352,9.352,0,0,1,.023-.961,2.088,2.088,0,0,1,.369-.93,2.132,2.132,0,0,1,1.734-.9l52.113.039,2.441,0,1.174,0a2.085,2.085,0,0,1,2.155,2.2q0,1.061,0,2.055c-.009,2.647-.016,4.929-.022,6.8,0,.931-.009,1.76-.012,2.479a2.066,2.066,0,0,1-.652,1.659,1.97,1.97,0,0,1-1,.5A1.4,1.4,0,0,1,256.017,259.913Z" transform="translate(-198.077 -244.164)" fill="#455a64"/>
              </g>
              <rect id="Rectángulo_37116" data-name="Rectángulo 37116" width="14.721" height="1.104" transform="translate(17.043 4.192)" fill="#455a64"/>
              <rect id="Rectángulo_37117" data-name="Rectángulo 37117" width="25.792" height="1.104" transform="translate(17.043 10.431)" fill="#455a64"/>
              <rect id="Rectángulo_37118" data-name="Rectángulo 37118" width="37.377" height="1.104" transform="translate(17.043 7.235)" fill="#455a64"/>
            </g>
          </g>
          <g id="Grupo_112103" data-name="Grupo 112103" transform="translate(7.038 106.644)">
            <g id="Grupo_112100" data-name="Grupo 112100" transform="translate(4.671 3.469)">
              <path id="Trazado_172060" data-name="Trazado 172060" d="M217.184,314.28a1.2,1.2,0,0,1,.306.044c0-.016.1-.019.285-.041Z" transform="translate(-213.194 -305.819)" fill="#455a64"/>
              <path id="Trazado_172061" data-name="Trazado 172061" d="M216.215,297.841a3.825,3.825,0,0,0-.864-.856,4.046,4.046,0,0,0-4.8,0,4.083,4.083,0,0,0-1.42,1.883,4.084,4.084,0,0,0,.564,3.861c.049.066.1.124.154.185a2.922,2.922,0,0,1,2.455-2.038,1.96,1.96,0,0,1-1.173-1.833,1.844,1.844,0,1,1,3.681.017,1.963,1.963,0,0,1-1.169,1.816,2.872,2.872,0,0,1,2.411,2.032c.05-.059.1-.114.148-.178a4.081,4.081,0,0,0,.564-3.861A3.82,3.82,0,0,0,216.215,297.841Z" transform="translate(-208.658 -295.933)" fill="#fafafa"/>
              <path id="Trazado_172062" data-name="Trazado 172062" d="M216.724,298.466a4.3,4.3,0,0,0-1.495-2.008,4.281,4.281,0,0,0-5.1,0,4.3,4.3,0,0,0-1.5,2.008,4.294,4.294,0,0,0-.174,2.26,4.228,4.228,0,0,0,.818,1.8,4.168,4.168,0,0,0,2.367,1.515,3.333,3.333,0,0,0,.766.094,1.013,1.013,0,0,0,.269-.013,1.2,1.2,0,0,0-.306-.044l.591,0c-.185.022-.286.025-.285.041a1.008,1.008,0,0,0,.268.013,3.331,3.331,0,0,0,.766-.094,4.167,4.167,0,0,0,2.367-1.516,4.226,4.226,0,0,0,.818-1.8A4.3,4.3,0,0,0,216.724,298.466Zm-.041,2.22a4.077,4.077,0,0,1-.752,1.724c-.048.064-.1.119-.148.178a2.872,2.872,0,0,0-2.411-2.032,1.963,1.963,0,0,0,1.169-1.816,1.844,1.844,0,1,0-3.681-.017,1.96,1.96,0,0,0,1.173,1.833,2.922,2.922,0,0,0-2.455,2.038c-.051-.061-.1-.119-.154-.185a4.084,4.084,0,0,1-.564-3.861,4.084,4.084,0,0,1,1.42-1.883,4.046,4.046,0,0,1,4.8,0,4.075,4.075,0,0,1,1.42,1.883A4.1,4.1,0,0,1,216.683,300.686Z" transform="translate(-208.382 -295.615)" fill="#455a64"/>
            </g>
            <g id="Grupo_112102" data-name="Grupo 112102">
              <g id="Grupo_112101" data-name="Grupo 112101">
                <path id="Trazado_172063" data-name="Trazado 172063" d="M256.017,303.711c0-.011.131,0,.376-.05a1.98,1.98,0,0,0,.965-.508,2.011,2.011,0,0,0,.61-1.621c0-.719-.008-1.547-.012-2.479-.006-1.868-.014-4.148-.022-6.8q0-.993-.005-2.055a1.926,1.926,0,0,0-.947-1.761,4.527,4.527,0,0,0-2.224-.259l-2.441,0-52.113.039a1.869,1.869,0,0,0-1.519.786,1.816,1.816,0,0,0-.322.813c-.036.283-.014.615-.021.925q0,1.884,0,3.744,0,3.714,0,7.313a1.848,1.848,0,0,0,.769,1.424,1.792,1.792,0,0,0,.758.322,5.682,5.682,0,0,0,.861.032h3.5l6.772,0,23.429.029,15.8.042,4.294.025,1.117.013c.252,0,.38.014.38.014s-.129.009-.38.014l-1.117.013-4.294.024-15.8.042L211,303.832l-6.772,0-3.5,0a5.889,5.889,0,0,1-.906-.034,2.055,2.055,0,0,1-.864-.367,2.107,2.107,0,0,1-.876-1.62q0-3.6-.007-7.325,0-1.859,0-3.744a9.363,9.363,0,0,1,.023-.961,2.088,2.088,0,0,1,.369-.929,2.132,2.132,0,0,1,1.734-.9l52.113.039,2.441,0,1.174,0a2.085,2.085,0,0,1,2.155,2.2q0,1.061,0,2.055c-.009,2.647-.016,4.928-.022,6.8,0,.932-.009,1.76-.012,2.479a2.064,2.064,0,0,1-.652,1.659,1.968,1.968,0,0,1-1,.5A1.406,1.406,0,0,1,256.017,303.711Z" transform="translate(-198.077 -287.962)" fill="#455a64"/>
              </g>
              <rect id="Rectángulo_37119" data-name="Rectángulo 37119" width="14.721" height="1.104" transform="translate(17.043 4.192)" fill="#455a64"/>
              <rect id="Rectángulo_37120" data-name="Rectángulo 37120" width="25.792" height="1.104" transform="translate(17.043 10.431)" fill="#455a64"/>
              <rect id="Rectángulo_37121" data-name="Rectángulo 37121" width="37.377" height="1.104" transform="translate(17.043 7.235)" fill="#455a64"/>
            </g>
          </g>
        </g>
        <g id="Grupo_112106" data-name="Grupo 112106" transform="translate(62.134 44.913)">
          <circle id="Elipse_4181" data-name="Elipse 4181" cx="3.021" cy="3.021" r="3.021" fill="#59ffcc"/>
          <g id="Grupo_112105" data-name="Grupo 112105" transform="translate(1.315 1.923)">
            <path id="Trazado_172064" data-name="Trazado 172064" d="M324.019,158.214a.226.226,0,0,1-.15-.056l-1.268-1.116a.227.227,0,0,1,.3-.34l1.106.973,1.54-1.588a.227.227,0,0,1,.326.315l-1.691,1.743A.226.226,0,0,1,324.019,158.214Z" transform="translate(-322.525 -156.018)" fill="#5000a1"/>
          </g>
        </g>
      </g>
    </g>
    <g id="Character" transform="translate(75.828 100.824)">
      <g id="Grupo_112203" data-name="Grupo 112203" transform="translate(0)">
        <g id="Grupo_112110" data-name="Grupo 112110" transform="translate(18.057 134.213)">
          <path id="Trazado_172065" data-name="Trazado 172065" d="M140.831,454.966l-.741,4.3,6.618.482.024-4.22Z" transform="translate(-140.09 -454.966)" fill="#e8505b"/>
          <g id="Grupo_112108" data-name="Grupo 112108" transform="translate(3.265 0.059)">
            <path id="Trazado_172066" data-name="Trazado 172066" d="M147.749,455.1a19.416,19.416,0,0,1-.434,3.9,19.5,19.5,0,0,1,.434-3.9Z" transform="translate(-147.293 -455.096)" fill="#263238"/>
          </g>
          <g id="Grupo_112109" data-name="Grupo 112109" transform="translate(0.126 3.453)">
            <path id="Trazado_172067" data-name="Trazado 172067" d="M146.862,463.445a5.13,5.13,0,0,1-.959-.072l-2.3-.255c-.9-.1-1.712-.214-2.3-.314a4.21,4.21,0,0,1-.939-.211,5.068,5.068,0,0,1,.958.072l2.3.255c.9.1,1.711.213,2.3.313A4.225,4.225,0,0,1,146.862,463.445Z" transform="translate(-140.367 -462.584)" fill="#263238"/>
          </g>
        </g>
        <g id="Grupo_112164" data-name="Grupo 112164" transform="translate(35.308 132.639)">
          <g id="Grupo_112163" data-name="Grupo 112163">
            <g id="Grupo_112115" data-name="Grupo 112115" transform="translate(0.1)">
              <g id="Grupo_112112" data-name="Grupo 112112">
                <g id="Grupo_112111" data-name="Grupo 112111">
                  <path id="Trazado_172068" data-name="Trazado 172068" d="M185.643,455.41l.012-3.849-7.21-.068-.077,5.631.447.033c1.989.129,10.121.517,11.455.126C191.756,456.848,185.643,455.41,185.643,455.41Z" transform="translate(-178.367 -451.493)" fill="#e8505b"/>
                </g>
              </g>
              <g id="Grupo_112114" data-name="Grupo 112114" transform="translate(0.009 3.508)" opacity="0.38">
                <g id="Grupo_112113" data-name="Grupo 112113">
                  <path id="Trazado_172069" data-name="Trazado 172069" d="M180.992,461.323a2.5,2.5,0,0,0-.905-1.546,2.43,2.43,0,0,0-1.681-.54l-.02,2.015Z" transform="translate(-178.386 -459.231)"/>
                </g>
              </g>
            </g>
            <g id="Grupo_112117" data-name="Grupo 112117" transform="translate(0.1 4.726)" opacity="0.38">
              <g id="Grupo_112116" data-name="Grupo 112116">
                <path id="Trazado_172070" data-name="Trazado 172070" d="M188.629,461.92s2.141.64,1.87.991-8.5.268-12.132-.086l.013-.161,9.6.179S188.209,461.934,188.629,461.92Z" transform="translate(-178.367 -461.92)"/>
              </g>
            </g>
            <g id="Grupo_112120" data-name="Grupo 112120" transform="translate(0 5.461)">
              <g id="Grupo_112119" data-name="Grupo 112119">
                <g id="Grupo_112118" data-name="Grupo 112118">
                  <path id="Trazado_172071" data-name="Trazado 172071" d="M178.147,463.545a.617.617,0,0,0,.124.014l.356.025,1.31.069c1.106.051,2.636.1,4.326.12s3.221,0,4.328-.026l1.311-.041.356-.018a.733.733,0,0,0,.124-.012.651.651,0,0,0-.125-.006H189.9l-1.311.013c-1.107.011-2.637.019-4.326,0s-3.218-.059-4.325-.094l-1.311-.042-.356-.009A.624.624,0,0,0,178.147,463.545Z" transform="translate(-178.147 -463.542)" fill="#263238"/>
                </g>
              </g>
            </g>
            <g id="Grupo_112123" data-name="Grupo 112123" transform="translate(9.7 4.638)">
              <g id="Grupo_112122" data-name="Grupo 112122">
                <g id="Grupo_112121" data-name="Grupo 112121">
                  <path id="Trazado_172072" data-name="Trazado 172072" d="M199.558,462.848a1.9,1.9,0,0,1,.7-1.121,1.166,1.166,0,0,0-.7,1.121Z" transform="translate(-199.546 -461.725)" fill="#263238"/>
                </g>
              </g>
            </g>
            <g id="Grupo_112126" data-name="Grupo 112126" transform="translate(7.592 4.063)">
              <g id="Grupo_112125" data-name="Grupo 112125">
                <g id="Grupo_112124" data-name="Grupo 112124">
                  <path id="Trazado_172073" data-name="Trazado 172073" d="M194.9,461.053c.02.013.123-.11.23-.274s.177-.309.157-.322-.123.11-.23.274S194.878,461.04,194.9,461.053Z" transform="translate(-194.895 -460.456)" fill="#263238"/>
                </g>
              </g>
            </g>
            <g id="Grupo_112129" data-name="Grupo 112129" transform="translate(7.013 3.943)">
              <g id="Grupo_112128" data-name="Grupo 112128">
                <g id="Grupo_112127" data-name="Grupo 112127">
                  <path id="Trazado_172074" data-name="Trazado 172074" d="M193.62,460.594c.016.018.131-.057.256-.167s.214-.214.2-.233-.131.057-.256.167S193.6,460.576,193.62,460.594Z" transform="translate(-193.618 -460.192)" fill="#263238"/>
                </g>
              </g>
            </g>
            <g id="Grupo_112132" data-name="Grupo 112132" transform="translate(6.652 3.625)">
              <g id="Grupo_112131" data-name="Grupo 112131">
                <g id="Grupo_112130" data-name="Grupo 112130">
                  <path id="Trazado_172075" data-name="Trazado 172075" d="M192.823,459.526a.852.852,0,0,0,.375.052.841.841,0,0,0,.378-.036,1.642,1.642,0,0,0-.753-.016Z" transform="translate(-192.823 -459.489)" fill="#263238"/>
                </g>
              </g>
            </g>
            <g id="Grupo_112135" data-name="Grupo 112135" transform="translate(6.53 3.173)">
              <g id="Grupo_112134" data-name="Grupo 112134">
                <g id="Grupo_112133" data-name="Grupo 112133">
                  <path id="Trazado_172076" data-name="Trazado 172076" d="M192.554,458.5a1.059,1.059,0,0,0,.853.073,2.345,2.345,0,0,0-.427-.034A2.373,2.373,0,0,0,192.554,458.5Z" transform="translate(-192.553 -458.493)" fill="#263238"/>
                </g>
              </g>
            </g>
            <g id="Grupo_112138" data-name="Grupo 112138" transform="translate(7.846 3.394)">
              <g id="Grupo_112137" data-name="Grupo 112137">
                <g id="Grupo_112136" data-name="Grupo 112136">
                  <path id="Trazado_172077" data-name="Trazado 172077" d="M195.456,459.62a1.327,1.327,0,0,0,.464,0,2.666,2.666,0,0,0,.494-.1,1.365,1.365,0,0,0,.284-.113.25.25,0,0,0,.116-.143.181.181,0,0,0-.068-.186.849.849,0,0,0-1.053.238.823.823,0,0,0-.155.307.256.256,0,0,0-.013.125,1.314,1.314,0,0,1,.215-.393.84.84,0,0,1,.4-.253.718.718,0,0,1,.552.044c.073.055.044.141-.039.189a1.386,1.386,0,0,1-.262.109,3.19,3.19,0,0,1-.478.119C195.633,459.608,195.456,459.606,195.456,459.62Z" transform="translate(-195.456 -458.982)" fill="#263238"/>
                </g>
              </g>
            </g>
            <g id="Grupo_112141" data-name="Grupo 112141" transform="translate(7.368 3.156)">
              <g id="Grupo_112140" data-name="Grupo 112140">
                <g id="Grupo_112139" data-name="Grupo 112139">
                  <path id="Trazado_172078" data-name="Trazado 172078" d="M195,459.358a.459.459,0,0,0,.057-.321.76.76,0,0,0-.123-.34.465.465,0,0,0-.383-.24.184.184,0,0,0-.145.213.5.5,0,0,0,.077.208,1.4,1.4,0,0,0,.216.282.666.666,0,0,0,.263.19c.008-.011-.092-.084-.218-.232a1.608,1.608,0,0,1-.191-.28c-.063-.1-.1-.275.012-.3s.233.107.3.2a.765.765,0,0,1,.128.3A1.7,1.7,0,0,1,195,459.358Z" transform="translate(-194.403 -458.457)" fill="#263238"/>
                </g>
              </g>
            </g>
            <g id="Grupo_112144" data-name="Grupo 112144" transform="translate(0.167 3.449)">
              <g id="Grupo_112143" data-name="Grupo 112143">
                <g id="Grupo_112142" data-name="Grupo 112142">
                  <path id="Trazado_172079" data-name="Trazado 172079" d="M178.515,459.146c0,.016.207-.018.532.024a2.259,2.259,0,0,1,1.873,1.524c.107.31.116.518.132.516a.41.41,0,0,0,0-.146,1.926,1.926,0,0,0-.075-.39,2.192,2.192,0,0,0-1.926-1.567,1.9,1.9,0,0,0-.4.006A.407.407,0,0,0,178.515,459.146Z" transform="translate(-178.515 -459.101)" fill="#263238"/>
                </g>
              </g>
            </g>
            <g id="Grupo_112147" data-name="Grupo 112147" transform="translate(0.856 0.5)">
              <g id="Grupo_112146" data-name="Grupo 112146">
                <g id="Grupo_112145" data-name="Grupo 112145">
                  <path id="Trazado_172080" data-name="Trazado 172080" d="M180.123,452.6a25.246,25.246,0,0,0-.067,2.963,12.665,12.665,0,0,0,.077-1.48A12.4,12.4,0,0,0,180.123,452.6Z" transform="translate(-180.035 -452.597)" fill="#263238"/>
                </g>
              </g>
            </g>
            <g id="Grupo_112150" data-name="Grupo 112150" transform="translate(3.629 4.898)">
              <g id="Grupo_112149" data-name="Grupo 112149">
                <g id="Grupo_112148" data-name="Grupo 112148">
                  <path id="Trazado_172081" data-name="Trazado 172081" d="M186.154,462.306a5.918,5.918,0,0,0,2.107.041c0-.025-.473,0-1.054-.014S186.157,462.281,186.154,462.306Z" transform="translate(-186.154 -462.298)" fill="#263238"/>
                </g>
              </g>
            </g>
            <g id="Grupo_112153" data-name="Grupo 112153" transform="translate(2.213 4.886)">
              <g id="Grupo_112152" data-name="Grupo 112152">
                <g id="Grupo_112151" data-name="Grupo 112151">
                  <path id="Trazado_172082" data-name="Trazado 172082" d="M183.032,462.276c-.018.018.038.1.084.209s.073.2.1.2.038-.114-.017-.238S183.048,462.259,183.032,462.276Z" transform="translate(-183.029 -462.273)" fill="#263238"/>
                </g>
              </g>
            </g>
            <g id="Grupo_112156" data-name="Grupo 112156" transform="translate(1.687 4.218)">
              <g id="Grupo_112155" data-name="Grupo 112155">
                <g id="Grupo_112154" data-name="Grupo 112154">
                  <path id="Trazado_172083" data-name="Trazado 172083" d="M181.871,460.8c-.018.017.028.092.1.169s.148.125.165.108-.029-.092-.1-.169S181.889,460.784,181.871,460.8Z" transform="translate(-181.868 -460.798)" fill="#263238"/>
                </g>
              </g>
            </g>
            <g id="Grupo_112159" data-name="Grupo 112159" transform="translate(0.931 3.871)">
              <g id="Grupo_112158" data-name="Grupo 112158">
                <g id="Grupo_112157" data-name="Grupo 112157">
                  <path id="Trazado_172084" data-name="Trazado 172084" d="M180.2,460.072c0,.024.1.025.206.063s.181.1.2.079-.04-.116-.171-.162S180.194,460.05,180.2,460.072Z" transform="translate(-180.2 -460.032)" fill="#263238"/>
                </g>
              </g>
            </g>
            <g id="Grupo_112162" data-name="Grupo 112162" transform="translate(0.389 3.746)">
              <g id="Grupo_112161" data-name="Grupo 112161">
                <g id="Grupo_112160" data-name="Grupo 112160">
                  <path id="Trazado_172085" data-name="Trazado 172085" d="M179.007,459.774c-.009.022.032.06.092.084s.115.024.124,0-.032-.06-.092-.083S179.015,459.751,179.007,459.774Z" transform="translate(-179.005 -459.758)" fill="#263238"/>
                </g>
              </g>
            </g>
          </g>
        </g>
        <g id="Grupo_112171" data-name="Grupo 112171" transform="translate(19.755)">
          <g id="Grupo_112165" data-name="Grupo 112165" transform="translate(4.449 1.848)">
            <path id="Trazado_172086" data-name="Trazado 172086" d="M161.2,180.681c.055-1.13.174-2.406.174-2.406a3.383,3.383,0,0,0,2.962-3.193c.17-2.885,0-9.538,0-9.538l-5.087-2.591-5.6,4.416.848,14.425,5.149.328A1.485,1.485,0,0,0,161.2,180.681Z" transform="translate(-153.653 -162.953)" fill="#ffbe9d"/>
          </g>
          <g id="Grupo_112167" data-name="Grupo 112167" transform="translate(11.338 10.053)">
            <g id="Grupo_112166" data-name="Grupo 112166">
              <path id="Trazado_172087" data-name="Trazado 172087" d="M170.011,182.7c.008,0,.009.054-.044.124a.4.4,0,0,1-.321.142c-.324-.016-.636-.374-.751-.811a1.383,1.383,0,0,1-.014-.641.549.549,0,0,1,.3-.435.273.273,0,0,1,.215,0,.243.243,0,0,1,.114.116c.038.086.009.138,0,.134s-.009-.048-.051-.1a.186.186,0,0,0-.24-.05.454.454,0,0,0-.208.361,1.34,1.34,0,0,0,.024.572c.1.392.373.712.615.742a.364.364,0,0,0,.272-.075C169.981,182.732,170,182.691,170.011,182.7Z" transform="translate(-168.849 -181.055)" fill="#eb996e"/>
            </g>
          </g>
          <g id="Grupo_112168" data-name="Grupo 112168" transform="translate(0.859)">
            <path id="Trazado_172088" data-name="Trazado 172088" d="M157.352,172.355c.039-.106.062-.217.092-.326l.067-.239h0a3.741,3.741,0,0,0,.08-.721,1.385,1.385,0,0,1-1.464-.316,1.53,1.53,0,0,1-.346-1.515,2.192,2.192,0,0,1,1.305-1.23c.561-.236,1.165-.353,1.716-.615a5.73,5.73,0,0,0,2.53-2.919,3.993,3.993,0,0,0,.412-2.715c-.389-1.328-1.8-1.988-3.087-2.353a9.748,9.748,0,0,0-5.99-.1c-1.912.7-4.211,1.943-4.211,4.055-1.129-.092-1.774.9-2.222,2.121a16.6,16.6,0,0,0-.5,2.322" transform="translate(-145.732 -158.876)" fill="#263238"/>
          </g>
          <path id="Trazado_172089" data-name="Trazado 172089" d="M149.981,185.13a9.919,9.919,0,0,1-4.265-8.806c.288-6.057,11.62,4.548,11.62,4.548s-2.169,7.136-7.123,4.258" transform="translate(-144.857 -167.394)" fill="#263238"/>
          <g id="Grupo_112169" data-name="Grupo 112169" transform="translate(1.761 7.805)">
            <path id="Trazado_172090" data-name="Trazado 172090" d="M149.4,179.986c-.03-.028.2-.241.381-.68a2.189,2.189,0,0,0-1.3-2.98c-.448-.164-.758-.141-.758-.182a1.247,1.247,0,0,1,.809.023,2.231,2.231,0,0,1,1.4,3.21C149.7,179.832,149.415,180.006,149.4,179.986Z" transform="translate(-147.723 -176.095)" fill="#e8505b"/>
          </g>
          <g id="Grupo_112170" data-name="Grupo 112170" transform="translate(0 3.596)">
            <path id="Trazado_172091" data-name="Trazado 172091" d="M144.946,171.2c0,.012-.115.019-.3-.063a1.327,1.327,0,0,1-.6-.574,2.011,2.011,0,0,1-.2-1.213,3.761,3.761,0,0,1,.467-1.42,2.3,2.3,0,0,1,1.126-1,1.612,1.612,0,0,1,1.232,0,1.359,1.359,0,0,1,.634.534c.1.172.111.283.1.286a1.633,1.633,0,0,0-.793-.666,1.487,1.487,0,0,0-1.09.051,2.153,2.153,0,0,0-1,.916,2.85,2.85,0,0,0-.325,2.436A1.544,1.544,0,0,0,144.946,171.2Z" transform="translate(-143.837 -166.809)" fill="#263238"/>
          </g>
        </g>
        <g id="Grupo_112172" data-name="Grupo 112172" transform="translate(0 3.21)">
          <path id="Trazado_172092" data-name="Trazado 172092" d="M172.586,172.78c-.2-.209-.7-.11-.7-.11a2.689,2.689,0,0,0,0-.878c-.091-.286-.729-.231-.729-.231a2.983,2.983,0,0,1,.016-.72.255.255,0,0,0-.148-.254,2.354,2.354,0,0,0-.954-.174c-.391-.279,1.19-2.49,1.776-3.2s.482-1.259-.041-1.258c-.356,0-2.2,2.126-2.765,2.839s-2.073,2.7-2.124,1.114a4.071,4.071,0,0,0-1.086-2.986c-.4-.2-.827.275-.607.714a5.8,5.8,0,0,1,.354,1.558,3.784,3.784,0,0,1-.058,1.28,14.754,14.754,0,0,1-.681,2.286l-.039-.022s-11.047,10.592-11.843,11.348c-.717.68-15.071-.8-17.947-1.11a19.882,19.882,0,0,0-2.959-.2c-1.247.055-1.469.232-2.718.248a55.466,55.466,0,0,0-8.865.74c-2.867.485-4.444,2.729-5.332,5.5-2.9,9.058-10.756,30.384-11.927,42.432a50.277,50.277,0,0,0-2.37,4.9c-.813,2.214-.616,2.29-.342,2.341.736.136,1.578-3.84,1.892-2.881s-1.6,4.744-.82,4.855c1.01.144,1.815-4.035,1.91-4.384s.6-.224.5.086c-.146.446-1.571,5.168-.58,5.319.549.084.608-.917.608-.917s1.007-4.516,1.472-4.429-.029,2.76-.262,3.648.094,1.345.568,1.124c.323-.151,1.1-2.856,1.31-3.741s.742-3.32,1.457-1.906a4.071,4.071,0,0,0,2.243,2.25.5.5,0,0,0,.248-.9,5.774,5.774,0,0,1-.978-1.263,3.749,3.749,0,0,1-.487-1.185,13.112,13.112,0,0,1-.353-2.562l-.083-.52c1.133-5.614,4.976-24.744,9.669-35.267l1.356,6.635.839,2.944-5.15,12.723,21.973-.29-3.275-12.622,3.979-13.162h0c4.307.1,15.369.257,17.229-.574,2.317-1.035,14.312-16.156,14.312-16.156h0a28.561,28.561,0,0,0,2.242-1.945S173.026,173.232,172.586,172.78Z" transform="translate(-100.254 -165.957)" fill="#ffbe9d"/>
        </g>
        <g id="Grupo_112180" data-name="Grupo 112180" transform="translate(7.787 19.348)">
          <g id="Grupo_112173" data-name="Grupo 112173">
            <path id="Trazado_172093" data-name="Trazado 172093" d="M124.288,228.657c.636-2.176,3.912-12.935,3.912-12.935s1.607,8.772,1.185,9.828A18.635,18.635,0,0,1,128,228.16c-3.715,5.658-3.227,8.486-3.227,8.486l22.442-.684c.054-3.139-1.8-10.436-2.192-11.6s.9-4.978.9-4.978,2.536-2.576,2.438-3.9a21.38,21.38,0,0,0-.442-3.533l16.621.318-1.86-9.037-16.027-1.171-5.333-.5c-2.68,2.263-6.7,0-6.7,0-5.114.5-5.863,1.319-7.962,3.415-2.49,2.488-9.226,21.494-9.226,21.494Z" transform="translate(-117.433 -201.561)" fill="#5000a1"/>
          </g>
          <g id="Grupo_112175" data-name="Grupo 112175" transform="translate(12.123 24.09)">
            <g id="Grupo_112174" data-name="Grupo 112174">
              <path id="Trazado_172094" data-name="Trazado 172094" d="M152.181,255.524a4.847,4.847,0,0,1-1.183.06c-.731,0-1.74-.05-2.849-.161s-2.108-.269-2.825-.41a4.81,4.81,0,0,1-1.147-.294,5.925,5.925,0,0,1,1.177.111c.722.093,1.718.22,2.822.331s2.1.185,2.83.237A5.8,5.8,0,0,1,152.181,255.524Z" transform="translate(-144.177 -254.706)" fill="#263238"/>
            </g>
          </g>
          <g id="Grupo_112177" data-name="Grupo 112177" transform="translate(12.962 22.991)">
            <g id="Grupo_112176" data-name="Grupo 112176">
              <path id="Trazado_172095" data-name="Trazado 172095" d="M154.729,252.289a5.263,5.263,0,0,1-1.225.417,22.229,22.229,0,0,1-6.187.735,5.255,5.255,0,0,1-1.289-.119,7.9,7.9,0,0,1,1.288-.068c.793-.024,1.887-.083,3.089-.225s2.279-.343,3.056-.5A7.865,7.865,0,0,1,154.729,252.289Z" transform="translate(-146.028 -252.282)" fill="#263238"/>
            </g>
          </g>
          <g id="Grupo_112179" data-name="Grupo 112179" transform="translate(27.333 14.485)">
            <g id="Grupo_112178" data-name="Grupo 112178">
              <path id="Trazado_172096" data-name="Trazado 172096" d="M179.611,233.516a4.869,4.869,0,0,1-.154,1.145c-.13.7-.335,1.662-.594,2.717s-.522,2-.73,2.684a4.831,4.831,0,0,1-.394,1.086,5.224,5.224,0,0,1,.214-1.134l.654-2.7c.248-1,.473-1.905.669-2.694A5.22,5.22,0,0,1,179.611,233.516Z" transform="translate(-177.732 -233.516)" fill="#263238"/>
            </g>
          </g>
        </g>
        <g id="Grupo_112198" data-name="Grupo 112198" transform="translate(13.89 53.9)">
          <g id="Grupo_112181" data-name="Grupo 112181">
            <path id="Trazado_172097" data-name="Trazado 172097" d="M131.985,278.47l22.442-.684,9.76,38.13-1.8,43.738H150.511l1.472-42.807L143.3,290.3l1.318,69.8-11.992.177-1.243-65.537c-.053-1.856-.664-6.044-.436-7.885Z" transform="translate(-130.897 -277.786)" fill="#455a64"/>
          </g>
          <g id="Grupo_112183" data-name="Grupo 112183" transform="translate(8.048 11.57)">
            <g id="Grupo_112182" data-name="Grupo 112182">
              <path id="Trazado_172098" data-name="Trazado 172098" d="M156,304.8a4.267,4.267,0,0,1-1.1-.065c-.675-.079-1.6-.222-2.621-.426s-1.929-.433-2.583-.621a4.264,4.264,0,0,1-1.04-.365c.02-.073,1.65.322,3.675.728S156.007,304.723,156,304.8Z" transform="translate(-148.653 -303.312)" fill="#263238"/>
            </g>
          </g>
          <g id="Grupo_112185" data-name="Grupo 112185" transform="translate(19.697 79.339)">
            <g id="Grupo_112184" data-name="Grupo 112184">
              <path id="Trazado_172099" data-name="Trazado 172099" d="M186.038,452.947c0,.073-2.689.132-6.006.132a49.85,49.85,0,0,1-5.681-.175c0-.073,2.363-.089,5.681-.089S186.038,452.875,186.038,452.947Z" transform="translate(-174.352 -452.816)" fill="#263238"/>
            </g>
          </g>
          <g id="Grupo_112187" data-name="Grupo 112187" transform="translate(1.9 79.47)">
            <g id="Grupo_112186" data-name="Grupo 112186">
              <path id="Trazado_172100" data-name="Trazado 172100" d="M146.741,453.238c0,.073-2.609.132-5.826.132s-5.827-.059-5.827-.132,2.609-.132,5.827-.132S146.741,453.165,146.741,453.238Z" transform="translate(-135.088 -453.106)" fill="#263238"/>
            </g>
          </g>
          <g id="Grupo_112189" data-name="Grupo 112189" transform="translate(10.929 12.188)">
            <g id="Grupo_112188" data-name="Grupo 112188">
              <path id="Trazado_172101" data-name="Trazado 172101" d="M156.169,372.088c-.073,0-.388-15.09-.7-33.7s-.514-33.71-.441-33.711.388,15.087.7,33.707S156.242,372.086,156.169,372.088Z" transform="translate(-155.009 -304.673)" fill="#263238"/>
            </g>
          </g>
          <g id="Grupo_112191" data-name="Grupo 112191" transform="translate(21.708 0.684)">
            <g id="Grupo_112190" data-name="Grupo 112190">
              <path id="Trazado_172102" data-name="Trazado 172102" d="M186.868,358.082a1.194,1.194,0,0,1-.005-.207c0-.149.006-.35.011-.607.015-.547.038-1.33.067-2.33.071-2.038.172-4.961.3-8.569.277-7.246.659-17.234,1.081-28.266,0-.1.008-.2.012-.3l0,.038c-2.66-10.65-5.064-20.276-6.807-27.257-.855-3.476-1.548-6.293-2.031-8.256l-.539-2.247c-.057-.248-.1-.441-.134-.586a1.218,1.218,0,0,1-.037-.2,1.168,1.168,0,0,1,.063.2l.159.579c.138.525.335,1.276.587,2.235.5,1.957,1.223,4.767,2.112,8.236l6.882,27.237,0,.019v.019c0,.093-.008.2-.012.3-.452,11.031-.861,21.017-1.159,28.263-.16,3.606-.29,6.529-.381,8.566-.051,1-.09,1.782-.117,2.328-.015.256-.028.456-.037.605A1.18,1.18,0,0,1,186.868,358.082Z" transform="translate(-178.787 -279.296)" fill="#263238"/>
            </g>
          </g>
          <g id="Grupo_112193" data-name="Grupo 112193" transform="translate(20.524 38.285)">
            <g id="Grupo_112192" data-name="Grupo 112192">
              <path id="Trazado_172103" data-name="Trazado 172103" d="M181.568,362.265a13.821,13.821,0,0,1-2.624.584c-1.091.188-2.033.316-2.445.34v-.1c.136.037.21.067.207.085s-.082.024-.223.018l-.307-.013.306-.089c.4-.116,1.327-.309,2.418-.5A13.773,13.773,0,0,1,181.568,362.265Z" transform="translate(-176.175 -362.246)" fill="#263238"/>
            </g>
          </g>
          <g id="Grupo_112195" data-name="Grupo 112195" transform="translate(20.977 39.323)">
            <g id="Grupo_112194" data-name="Grupo 112194">
              <path id="Trazado_172104" data-name="Trazado 172104" d="M181.888,364.972a36.626,36.626,0,0,1-4.714-.367,15.01,15.01,0,0,1,4.714.367Z" transform="translate(-177.174 -364.538)" fill="#263238"/>
            </g>
          </g>
          <g id="Grupo_112196" data-name="Grupo 112196" transform="translate(0.988)">
            <path id="Trazado_172105" data-name="Trazado 172105" d="M133.076,279.276a3.084,3.084,0,0,0,2.216,1.179,10.032,10.032,0,0,0,2.722-.052,141.128,141.128,0,0,0,17.6-2.617c-7.344.412-15.1.272-22.442.684,0,0-.063.5-.077.626" transform="translate(-133.076 -277.786)" fill="#263238"/>
          </g>
          <g id="Grupo_112197" data-name="Grupo 112197" transform="translate(8.557 11.841)">
            <path id="Trazado_172106" data-name="Trazado 172106" d="M149.775,303.908l4.137,16.06-.29-15.384Z" transform="translate(-149.775 -303.908)" fill="#263238"/>
          </g>
        </g>
        <g id="Grupo_112201" data-name="Grupo 112201" transform="translate(12 7.891)">
          <g id="Grupo_112199" data-name="Grupo 112199" transform="translate(0.144 0.217)">
            <path id="Trazado_172107" data-name="Trazado 172107" d="M136.514,176.828c-1.6-.423-3.26,1.276-3.318,2.925-.017.471.052,1.014-.282,1.347-.355.354-.937.249-1.437.288a2.283,2.283,0,0,0-2.028,1.991c-.071.736.221,1.523-.086,2.2-.292.64-1.019.941-1.514,1.441a3.232,3.232,0,0,0-.794,2.508,9.416,9.416,0,0,0,.7,2.61,2.923,2.923,0,0,0,1.451,1.914h6.7l.5-2.532.819,2.532h1.091l-.586-16.425S137.737,177.152,136.514,176.828Z" transform="translate(-127.044 -176.762)" fill="#263238"/>
          </g>
          <g id="Grupo_112200" data-name="Grupo 112200">
            <path id="Trazado_172108" data-name="Trazado 172108" d="M127.173,184.411a.449.449,0,0,0-.179.037.352.352,0,0,0-.16.436.767.767,0,0,0,.606.492.8.8,0,0,0,.883-1.061,2.745,2.745,0,0,0-.367-.606,2.16,2.16,0,0,1-.415-1.6,2.047,2.047,0,0,1,1.018-1.519,2.161,2.161,0,0,1,1.954-.113,3.574,3.574,0,0,0,1.745.583.8.8,0,0,0,.659-.4,1.671,1.671,0,0,0,.091-.807,3.668,3.668,0,0,1,1.058-2.833,2.706,2.706,0,0,1,1.91-.735,2.129,2.129,0,0,1,.556.094.564.564,0,0,1,.179.08,4.269,4.269,0,0,0-.736-.083,2.682,2.682,0,0,0-1.794.765,3.531,3.531,0,0,0-.956,2.7,1.846,1.846,0,0,1-.107.917,1.026,1.026,0,0,1-.835.524,1.887,1.887,0,0,1-.981-.174c-.305-.131-.586-.3-.88-.42a1.935,1.935,0,0,0-1.749.1,1.831,1.831,0,0,0-.917,1.349,1.96,1.96,0,0,0,.361,1.461,2.852,2.852,0,0,1,.378.657.948.948,0,0,1-.035.725.961.961,0,0,1-.463.468.927.927,0,0,1-.582.057.863.863,0,0,1-.669-.6.41.41,0,0,1,.23-.5C127.107,184.358,127.178,184.409,127.173,184.411Z" transform="translate(-126.727 -176.284)" fill="#263238"/>
          </g>
        </g>
        <g id="Grupo_112202" data-name="Grupo 112202" transform="translate(33.658 20.239)">
          <path id="Trazado_172109" data-name="Trazado 172109" d="M179.268,212.868a1.714,1.714,0,0,1-.517-.011,4.408,4.408,0,0,1-1.356-.4,5.11,5.11,0,0,1-1.677-1.261,4.649,4.649,0,0,1-.887-4.86,5.107,5.107,0,0,1,1.124-1.772,4.422,4.422,0,0,1,1.128-.849,1.694,1.694,0,0,1,.48-.192,6.729,6.729,0,0,0-1.487,1.156,5.166,5.166,0,0,0-1.042,1.732,4.54,4.54,0,0,0,.847,4.642,5.17,5.17,0,0,0,1.586,1.253A6.745,6.745,0,0,0,179.268,212.868Z" transform="translate(-174.508 -203.525)" fill="#263238"/>
        </g>
      </g>
    </g>
  </g>
</svg>
