<svg xmlns="http://www.w3.org/2000/svg" width="234.392" height="197.667" viewBox="0 0 234.392 197.667">
  <g id="Grupo_115040" data-name="Grupo 115040" transform="translate(-27.332 -36.362)">
    <g id="Background_Complete" data-name="Background Complete" transform="translate(53.332 40.183)">
      <g id="Grupo_114869" data-name="Grupo 114869" transform="translate(-26 77.978)">
        <path id="Trazado_172704" data-name="Trazado 172704" d="M53.332,215.656v22.672a7.427,7.427,0,0,0,7.427,7.428h81.3a7.428,7.428,0,0,0,7.428-7.428V219.171L159.6,208.538l-98.82-.309A7.427,7.427,0,0,0,53.332,215.656Z" transform="translate(-53.332 -208.229)" fill="#f5f5f5"/>
        <g id="Grupo_114866" data-name="Grupo 114866" transform="translate(10.396 11.128)">
          <path id="Trazado_172705" data-name="Trazado 172705" d="M148.946,234.217l-73.77-.341.008-2.268,73.77.341Z" transform="translate(-75.176 -231.609)" fill="#e0e0e0"/>
        </g>
        <g id="Grupo_114867" data-name="Grupo 114867" transform="translate(10.396 18.587)">
          <path id="Trazado_172706" data-name="Trazado 172706" d="M148.946,249.89l-73.77-.341.008-2.267,73.77.341Z" transform="translate(-75.176 -247.282)" fill="#e0e0e0"/>
        </g>
        <g id="Grupo_114868" data-name="Grupo 114868" transform="translate(54.977 26.055)">
          <rect id="Rectángulo_37211" data-name="Rectángulo 37211" width="2.267" height="29.189" transform="translate(0 2.267) rotate(-89.718)" fill="#e0e0e0"/>
        </g>
      </g>
      <g id="Grupo_114873" data-name="Grupo 114873" transform="translate(102.122 156.318)">
        <path id="Trazado_172707" data-name="Trazado 172707" d="M211.6,380.256v22.672a7.427,7.427,0,0,0,7.427,7.428h81.3a7.428,7.428,0,0,0,7.428-7.428V383.77l10.12-10.634-98.82-.309A7.427,7.427,0,0,0,211.6,380.256Z" transform="translate(-211.602 -372.828)" fill="#f5f5f5"/>
        <g id="Grupo_114870" data-name="Grupo 114870" transform="translate(10.75 10.539)">
          <path id="Trazado_172708" data-name="Trazado 172708" d="M307.958,397.579l-73.77-.341.008-2.268,73.77.341Z" transform="translate(-234.188 -394.971)" fill="#e0e0e0"/>
        </g>
        <g id="Grupo_114871" data-name="Grupo 114871" transform="translate(10.75 17.998)">
          <path id="Trazado_172709" data-name="Trazado 172709" d="M307.958,413.252l-73.77-.341.008-2.267,73.77.341Z" transform="translate(-234.188 -410.644)" fill="#e0e0e0"/>
        </g>
        <g id="Grupo_114872" data-name="Grupo 114872" transform="translate(55.33 25.466)">
          <rect id="Rectángulo_37212" data-name="Rectángulo 37212" width="2.267" height="29.189" transform="translate(0 2.267) rotate(-89.718)" fill="#e0e0e0"/>
        </g>
      </g>
      <path id="Trazado_172710" data-name="Trazado 172710" d="M144.63,44.39h47.949a4.3,4.3,0,0,1,4.3,4.3V72.14a4.3,4.3,0,0,1-4.3,4.3H151.891a4.3,4.3,0,0,1-4.3-4.3V47.353Z" transform="translate(-101.177 -44.39)" fill="#f5f5f5"/>
      <g id="Grupo_114877" data-name="Grupo 114877" transform="translate(-17.349 17.874)">
        <path id="Trazado_172711" data-name="Trazado 172711" d="M125.424,86.87v15.037a4.926,4.926,0,0,1-4.926,4.926H66.579a4.926,4.926,0,0,1-4.926-4.926V89.2L54.94,82.149l65.542-.2A4.926,4.926,0,0,1,125.424,86.87Z" transform="translate(-54.94 -81.944)" fill="#e0e0e0"/>
        <g id="Grupo_114874" data-name="Grupo 114874" transform="translate(14.656 7.38)">
          <path id="Trazado_172712" data-name="Trazado 172712" d="M85.738,99.18l48.928-.226-.005-1.5-48.928.226Z" transform="translate(-85.733 -97.451)" fill="#f5f5f5"/>
        </g>
        <g id="Grupo_114875" data-name="Grupo 114875" transform="translate(14.656 12.328)">
          <path id="Trazado_172713" data-name="Trazado 172713" d="M85.738,109.575l48.928-.226-.005-1.5-48.928.226Z" transform="translate(-85.733 -107.846)" fill="#f5f5f5"/>
        </g>
        <g id="Grupo_114876" data-name="Grupo 114876" transform="translate(14.654 17.281)">
          <rect id="Rectángulo_37213" data-name="Rectángulo 37213" width="19.36" height="1.504" transform="translate(0 0.095) rotate(-0.282)" fill="#f5f5f5"/>
        </g>
      </g>
      <g id="Grupo_114881" data-name="Grupo 114881" transform="translate(137.908 87.604)">
        <path id="Trazado_172714" data-name="Trazado 172714" d="M340.035,233.38v15.037a4.926,4.926,0,0,1-4.926,4.926H281.19a4.926,4.926,0,0,1-4.927-4.926V235.712l-6.713-7.053,65.542-.205A4.926,4.926,0,0,1,340.035,233.38Z" transform="translate(-269.551 -228.454)" fill="#e0e0e0"/>
        <g id="Grupo_114878" data-name="Grupo 114878" transform="translate(14.656 7.381)">
          <path id="Trazado_172715" data-name="Trazado 172715" d="M300.349,245.691l48.928-.226-.005-1.5-48.928.226Z" transform="translate(-300.344 -243.961)" fill="#f5f5f5"/>
        </g>
        <g id="Grupo_114879" data-name="Grupo 114879" transform="translate(14.656 12.328)">
          <path id="Trazado_172716" data-name="Trazado 172716" d="M300.349,256.086l48.928-.226-.005-1.5-48.928.226Z" transform="translate(-300.344 -254.356)" fill="#f5f5f5"/>
        </g>
        <g id="Grupo_114880" data-name="Grupo 114880" transform="translate(14.654 17.281)">
          <rect id="Rectángulo_37214" data-name="Rectángulo 37214" width="19.36" height="1.504" transform="translate(0 0.095) rotate(-0.282)" fill="#f5f5f5"/>
        </g>
      </g>
    </g>
    <g id="Plants" transform="translate(83.094 83.99)">
      <g id="Grupo_114899" data-name="Grupo 114899" transform="translate(90.205 65.816)">
        <g id="Grupo_114883" data-name="Grupo 114883">
          <g id="Grupo_114882" data-name="Grupo 114882">
            <path id="Trazado_172717" data-name="Trazado 172717" d="M312.63,332.275c-8.059-7.847-8.191-19.985-6.094-30.534.349-1.761.461-3.659,1.557-5.075s3.236-2.155,4.7-1.149c1.214.834,1.536,2.458,2.065,3.843a10.5,10.5,0,0,0,3.5,4.646,4,4,0,0,0,3.581.924c1.665-.593,2.191-2.673,2.468-4.436l1.551-9.856a16.636,16.636,0,0,1,1.388-5.143,5.533,5.533,0,0,1,4.037-3.131,3.357,3.357,0,0,1,3.738,2.891,16.588,16.588,0,0,1-.309,2.2,1.876,1.876,0,0,0,.8,1.921,2.157,2.157,0,0,0,2.066-.492,23.72,23.72,0,0,0,5.243-5.658,32.923,32.923,0,0,1,4.993-5.907,9.65,9.65,0,0,1,7.045-2.563,5.778,5.778,0,0,1,5.21,4.847c.233,2.588-1.628,4.869-3.533,6.621a39.828,39.828,0,0,1-9.462,6.461,3.277,3.277,0,0,0-1.61,1.248c-.575,1.111.346,2.46,1.443,3.036a20.648,20.648,0,0,0,4.034,1.135,4.014,4.014,0,0,1,3.042,2.619c.426,1.918-1.388,3.558-3.071,4.551A34.128,34.128,0,0,1,340.1,309.4a11.5,11.5,0,0,0-4,1.194,3.3,3.3,0,0,0-1.655,3.562,3.363,3.363,0,0,0,3.381,1.978,23.8,23.8,0,0,0,4.106-.843c2.57-.517,5.668.161,6.876,2.506a5.647,5.647,0,0,1-.214,5.025,13.021,13.021,0,0,1-3.383,3.915,34.313,34.313,0,0,1-16.122,7.794c-5.932,1.028-11.22.7-16.465-2.251" transform="translate(-305.393 -274.717)" fill="#0db3cb"/>
          </g>
        </g>
        <g id="Grupo_114886" data-name="Grupo 114886" transform="translate(5.81 2.054)">
          <g id="Grupo_114885" data-name="Grupo 114885">
            <g id="Grupo_114884" data-name="Grupo 114884">
              <path id="Trazado_172718" data-name="Trazado 172718" d="M317.6,342.377a78.35,78.35,0,0,1,5.253-14.042,159.885,159.885,0,0,1,9.045-15.964l2.586-4.063c.852-1.331,1.7-2.652,2.6-3.892a79.866,79.866,0,0,1,5.614-6.829c1.891-2.086,3.761-4,5.523-5.77s3.444-3.39,5.036-4.8a63.31,63.31,0,0,1,8-6.092c1-.643,1.787-1.116,2.327-1.429l.616-.353a1.389,1.389,0,0,1,.216-.11,1.259,1.259,0,0,1-.2.139l-.6.381c-.528.332-1.306.822-2.292,1.481a66.953,66.953,0,0,0-7.914,6.159c-1.578,1.417-3.242,3.043-5,4.819s-3.613,3.7-5.493,5.781a80.784,80.784,0,0,0-5.577,6.815c-.9,1.235-1.735,2.545-2.588,3.88l-2.583,4.061a163.9,163.9,0,0,0-9.051,15.919,79.73,79.73,0,0,0-5.3,13.969" transform="translate(-317.601 -279.032)" fill="#263238"/>
            </g>
          </g>
        </g>
        <g id="Grupo_114889" data-name="Grupo 114889" transform="translate(25.336 7.645)">
          <g id="Grupo_114888" data-name="Grupo 114888">
            <g id="Grupo_114887" data-name="Grupo 114887">
              <path id="Trazado_172719" data-name="Trazado 172719" d="M358.682,310.576a3.616,3.616,0,0,1-.049-.779c-.013-.5-.007-1.228.012-2.126.038-1.794.176-4.27.337-7s.263-5.2.274-6.991c.008-.895.007-1.62,0-2.12a3.6,3.6,0,0,1,.027-.781,3.517,3.517,0,0,1,.1.774c.046.5.083,1.226.1,2.124.049,1.8-.016,4.278-.178,7.011-.167,2.693-.317,5.129-.432,6.99-.047.841-.086,1.55-.117,2.119A3.536,3.536,0,0,1,358.682,310.576Z" transform="translate(-358.627 -290.781)" fill="#263238"/>
            </g>
          </g>
        </g>
        <g id="Grupo_114892" data-name="Grupo 114892" transform="translate(25.392 26.261)">
          <g id="Grupo_114891" data-name="Grupo 114891">
            <g id="Grupo_114890" data-name="Grupo 114890">
              <path id="Trazado_172720" data-name="Trazado 172720" d="M382.078,330.549a5.023,5.023,0,0,1-.921-.04c-.589-.043-1.442-.111-2.5-.16-2.11-.116-5.031-.173-8.256-.1s-6.143.282-8.247.487c-1.054.1-1.9.2-2.493.261a4.907,4.907,0,0,1-.919.072,4.931,4.931,0,0,1,.9-.2c.584-.1,1.433-.24,2.486-.367,2.1-.266,5.029-.5,8.265-.586a80.883,80.883,0,0,1,8.279.194c1.057.08,1.909.183,2.5.267A4.844,4.844,0,0,1,382.078,330.549Z" transform="translate(-358.744 -329.893)" fill="#263238"/>
            </g>
          </g>
        </g>
        <g id="Grupo_114895" data-name="Grupo 114895" transform="translate(4.742 20.202)">
          <g id="Grupo_114894" data-name="Grupo 114894">
            <g id="Grupo_114893" data-name="Grupo 114893">
              <path id="Trazado_172721" data-name="Trazado 172721" d="M322.025,347.947a1.2,1.2,0,0,1-.11-.3c-.069-.238-.152-.53-.253-.882-.216-.767-.5-1.886-.833-3.273-.668-2.772-1.47-6.631-2.3-10.9s-1.593-8.133-2.2-10.915l-.731-3.294-.194-.9a1.179,1.179,0,0,1-.046-.319,1.214,1.214,0,0,1,.11.3l.253.881c.216.768.5,1.886.833,3.273.668,2.772,1.469,6.631,2.3,10.9s1.592,8.132,2.2,10.914l.731,3.294.194.9A1.153,1.153,0,0,1,322.025,347.947Z" transform="translate(-315.357 -317.164)" fill="#263238"/>
            </g>
          </g>
        </g>
        <g id="Grupo_114898" data-name="Grupo 114898" transform="translate(11.41 46.208)">
          <g id="Grupo_114897" data-name="Grupo 114897">
            <g id="Grupo_114896" data-name="Grupo 114896">
              <path id="Trazado_172722" data-name="Trazado 172722" d="M361.042,371.81a1.231,1.231,0,0,1-.319.074l-.922.15-3.393.516c-2.865.437-6.815,1.086-11.178,1.809s-8.324,1.336-11.2,1.714c-1.437.189-2.6.331-3.408.412l-.93.089a1.211,1.211,0,0,1-.327.008,1.241,1.241,0,0,1,.319-.075l.922-.149,3.392-.517c2.865-.436,6.815-1.086,11.179-1.809s8.323-1.336,11.2-1.713c1.437-.189,2.6-.331,3.409-.412l.93-.088A1.2,1.2,0,0,1,361.042,371.81Z" transform="translate(-329.367 -371.803)" fill="#263238"/>
            </g>
          </g>
        </g>
      </g>
      <g id="Grupo_114903" data-name="Grupo 114903">
        <path id="Trazado_172723" data-name="Trazado 172723" d="M150.29,159.541a5.3,5.3,0,0,1-1.821-5,7.036,7.036,0,0,1,3.028-4.514,2.964,2.964,0,0,1,2.416-.63,2.266,2.266,0,0,1,1.466,1.767,4.6,4.6,0,0,1-.276,2.37c-.9,2.609-2.255,4.967-4.813,6" transform="translate(-132.912 -143.189)" fill="#455a64"/>
        <path id="Trazado_172724" data-name="Trazado 172724" d="M132.769,176.664a12.393,12.393,0,0,0-10.953-2.867c-.973.226-2.069.74-2.23,1.727s.722,1.826,1.588,2.328a10.587,10.587,0,0,0,11.71-.942" transform="translate(-117.805 -155.856)" fill="#455a64"/>
        <path id="Trazado_172725" data-name="Trazado 172725" d="M116.857,136.613a6.21,6.21,0,0,1,4.792.825,10.963,10.963,0,0,1,3.427,3.58c1.725,2.725,2.332,6.387,2.409,9.61-3.578-.145-6.636-2.957-8.1-4.481-2.31-2.409-5.022-8.166-2.53-9.534" transform="translate(-115.864 -136.432)" fill="#455a64"/>
        <g id="Grupo_114900" data-name="Grupo 114900" transform="translate(17.259 10.361)">
          <path id="Trazado_172726" data-name="Trazado 172726" d="M155.245,173.516a12.783,12.783,0,0,1-.893-1.349,22.719,22.719,0,0,1-2.016-5.746,11.4,11.4,0,0,1,.447-6.061,7.471,7.471,0,0,1,.865-1.642,2.093,2.093,0,0,1,.442-.516,15.857,15.857,0,0,0-1.067,2.246,11.955,11.955,0,0,0-.332,5.909,26.348,26.348,0,0,0,1.892,5.7" transform="translate(-152.128 -158.202)" fill="#263238"/>
        </g>
        <g id="Grupo_114901" data-name="Grupo 114901" transform="translate(3.444 4.382)">
          <path id="Trazado_172727" data-name="Trazado 172727" d="M140.067,166.976l-1.863-2.4c-1.568-2.033-3.741-4.836-6.182-7.9s-4.688-5.806-6.319-7.788l-1.927-2.353a6.574,6.574,0,0,1-.673-.891,6.653,6.653,0,0,1,.78.8c.485.53,1.174,1.309,2.015,2.28,1.683,1.941,3.963,4.662,6.407,7.728s4.587,5.9,6.1,7.972c.759,1.037,1.364,1.882,1.772,2.473" transform="translate(-123.101 -145.64)" fill="#263238"/>
        </g>
        <g id="Grupo_114902" data-name="Grupo 114902" transform="translate(6.246 19.589)">
          <path id="Trazado_172728" data-name="Trazado 172728" d="M128.987,178.059a2.244,2.244,0,0,1,.621-.189,5.163,5.163,0,0,1,.748-.143,8.717,8.717,0,0,1,1-.108,13.039,13.039,0,0,1,2.629.1,13.938,13.938,0,0,1,5.97,2.322,13.036,13.036,0,0,1,2.006,1.7,8.784,8.784,0,0,1,.667.758,5.191,5.191,0,0,1,.455.61c.232.348.2.511.179.524a21.022,21.022,0,0,0-1.481-1.712,14.575,14.575,0,0,0-2.011-1.608,14.718,14.718,0,0,0-5.833-2.269,14.542,14.542,0,0,0-2.569-.174C129.9,177.911,129,178.128,128.987,178.059Z" transform="translate(-128.987 -177.59)" fill="#263238"/>
        </g>
      </g>
    </g>
    <g id="Device" transform="translate(102.291 36.363)">
      <g id="Grupo_114912" data-name="Grupo 114912" transform="translate(0 27.108)">
        <g id="Grupo_114911" data-name="Grupo 114911">
          <g id="Grupo_114907" data-name="Grupo 114907">
            <g id="Grupo_114906" data-name="Grupo 114906">
              <g id="Grupo_114904" data-name="Grupo 114904">
                <path id="Trazado_172729" data-name="Trazado 172729" d="M223.091,255.338l-54.972-.254a11.974,11.974,0,0,1-11.92-12.025l.583-137.815a11.975,11.975,0,0,1,12.03-11.924l54.972.254A11.975,11.975,0,0,1,235.7,105.6l-.583,137.816A11.975,11.975,0,0,1,223.091,255.338Z" transform="translate(-156.2 -93.32)" fill="#263238"/>
              </g>
              <g id="Grupo_114905" data-name="Grupo 114905" transform="translate(3.651 4.757)">
                <path id="Trazado_172730" data-name="Trazado 172730" d="M227.725,103.568l-10.658-.049a2.648,2.648,0,0,0-2.6,2.694l-.009,1.933a2.647,2.647,0,0,1-2.6,2.693l-20.775-.1a2.651,2.651,0,0,1-2.577-2.718l.009-1.933a2.651,2.651,0,0,0-2.577-2.718l-3.748-.017-9.329-.043a8.387,8.387,0,0,0-8.425,8.351l-.568,134.518a8.386,8.386,0,0,0,8.348,8.422l54.862.253a8.387,8.387,0,0,0,8.425-8.351l.569-134.519A8.387,8.387,0,0,0,227.725,103.568Z" transform="translate(-163.87 -103.314)" fill="#fafafa"/>
              </g>
            </g>
          </g>
          <g id="Grupo_114908" data-name="Grupo 114908" transform="translate(34.193 142.445)">
            <path id="Trazado_172731" data-name="Trazado 172731" d="M230.307,393.586a1.145,1.145,0,1,1-1.128-.978A1.061,1.061,0,0,1,230.307,393.586Z" transform="translate(-228.043 -392.608)" fill="#455a64"/>
          </g>
          <g id="Grupo_114909" data-name="Grupo 114909" transform="translate(37.701 142.461)">
            <path id="Trazado_172732" data-name="Trazado 172732" d="M237.677,393.62a1.145,1.145,0,1,1-1.128-.978A1.061,1.061,0,0,1,237.677,393.62Z" transform="translate(-235.413 -392.642)" fill="#455a64"/>
          </g>
          <g id="Grupo_114910" data-name="Grupo 114910" transform="translate(41.208 142.477)">
            <path id="Trazado_172733" data-name="Trazado 172733" d="M245.046,393.654a1.145,1.145,0,1,1-1.128-.978A1.061,1.061,0,0,1,245.046,393.654Z" transform="translate(-242.782 -392.676)" fill="#455a64"/>
          </g>
        </g>
      </g>
      <path id="Trazado_172734" data-name="Trazado 172734" d="M199.517,240.1c.894.128,54.822,10.7,54.822,10.7V240.1Z" transform="translate(-178.9 -143.132)" fill="#ebebeb"/>
      <path id="Trazado_172735" data-name="Trazado 172735" d="M163.869,374.032s58.663-8.3,58.152-8.044-58.152,0-58.152,0Z" transform="translate(-160.219 -209.101)" fill="#ebebeb"/>
      <g id="Grupo_114913" data-name="Grupo 114913" transform="translate(71.653 7.873)">
        <path id="Trazado_172736" data-name="Trazado 172736" d="M306.872,52.905c.068,0,.124,2.966.124,6.624s-.056,6.624-.124,6.624-.124-2.965-.124-6.624S306.8,52.905,306.872,52.905Z" transform="translate(-306.748 -52.905)" fill="#263238"/>
      </g>
      <g id="Grupo_114914" data-name="Grupo 114914" transform="translate(83.131 23.115)">
        <path id="Trazado_172737" data-name="Trazado 172737" d="M342.985,84.932c.028.063-2.663,1.311-6.01,2.788s-6.083,2.624-6.11,2.561,2.662-1.311,6.01-2.788S342.957,84.87,342.985,84.932Z" transform="translate(-330.865 -84.93)" fill="#263238"/>
      </g>
      <g id="Grupo_114915" data-name="Grupo 114915" transform="translate(79.432)">
        <path id="Trazado_172738" data-name="Trazado 172738" d="M338.319,36.363a1.27,1.27,0,0,1-.128.254l-.407.7c-.356.609-.888,1.478-1.553,2.548C334.9,42,332.981,44.91,330.809,48.08s-4.112,6.057-5.481,8.17l-1.618,2.5-.446.677a1.209,1.209,0,0,1-.17.227,1.205,1.205,0,0,1,.127-.253l.407-.7c.356-.608.888-1.478,1.553-2.548,1.333-2.138,3.251-5.044,5.424-8.215s4.111-6.055,5.48-8.168l1.618-2.5.446-.677A1.213,1.213,0,0,1,338.319,36.363Z" transform="translate(-323.092 -36.363)" fill="#263238"/>
      </g>
    </g>
    <g id="Speech_Bubbles" data-name="Speech Bubbles" transform="translate(70.261 92.395)">
      <g id="Grupo_114921" data-name="Grupo 114921" transform="translate(48.1)">
        <path id="Trazado_172739" data-name="Trazado 172739" d="M301.46,154.092h-107.3a4.2,4.2,0,0,0-4.2,4.2v33.283a4.2,4.2,0,0,0,4.2,4.2h7.993c.644,3.475,1.4,7.861,1.4,7.861l7.235-7.861H301.46a4.2,4.2,0,0,0,4.2-4.2V158.288A4.2,4.2,0,0,0,301.46,154.092Z" transform="translate(-189.965 -154.092)" fill="#5000a1"/>
        <g id="Grupo_114920" data-name="Grupo 114920" transform="translate(10.182 12.814)">
          <g id="Grupo_114916" data-name="Grupo 114916" transform="translate(0 5.116)">
            <path id="Trazado_172740" data-name="Trazado 172740" d="M268.4,191.889c0,.069-12.771.124-28.52.124s-28.523-.055-28.523-.124,12.768-.124,28.523-.124S268.4,191.82,268.4,191.889Z" transform="translate(-211.358 -191.765)" fill="#f5f5f5"/>
          </g>
          <g id="Grupo_114917" data-name="Grupo 114917">
            <path id="Trazado_172741" data-name="Trazado 172741" d="M268.4,181.139c0,.068-12.771.124-28.52.124s-28.523-.056-28.523-.124,12.768-.124,28.523-.124S268.4,181.071,268.4,181.139Z" transform="translate(-211.358 -181.015)" fill="#f5f5f5"/>
          </g>
          <g id="Grupo_114918" data-name="Grupo 114918" transform="translate(0 10.176)">
            <path id="Trazado_172742" data-name="Trazado 172742" d="M268.4,202.52c0,.069-12.771.124-28.52.124s-28.523-.056-28.523-.124,12.768-.124,28.523-.124S268.4,202.451,268.4,202.52Z" transform="translate(-211.358 -202.396)" fill="#f5f5f5"/>
          </g>
          <g id="Grupo_114919" data-name="Grupo 114919" transform="translate(0 15.417)">
            <path id="Trazado_172743" data-name="Trazado 172743" d="M248.722,213.532c0,.069-8.365.124-18.681.124s-18.683-.056-18.683-.124,8.363-.124,18.683-.124S248.722,213.464,248.722,213.532Z" transform="translate(-211.358 -213.408)" fill="#f5f5f5"/>
          </g>
        </g>
      </g>
      <g id="Grupo_114927" data-name="Grupo 114927" transform="translate(0 59.838)">
        <path id="Trazado_172744" data-name="Trazado 172744" d="M200.017,279.816H91.838a2.936,2.936,0,0,0-2.936,2.936v35.213a2.936,2.936,0,0,0,2.936,2.936h78.568l7.152,7.771s.751-4.368,1.382-7.771h21.077a2.936,2.936,0,0,0,2.936-2.936V282.752A2.936,2.936,0,0,0,200.017,279.816Z" transform="translate(-88.902 -279.816)" fill="#00ceeb"/>
        <g id="Grupo_114926" data-name="Grupo 114926" transform="translate(49.828 12.918)">
          <g id="Grupo_114922" data-name="Grupo 114922" transform="translate(0 5.116)">
            <path id="Trazado_172745" data-name="Trazado 172745" d="M250.639,317.832c0,.069-12.771.124-28.521.124s-28.523-.055-28.523-.124,12.768-.124,28.523-.124S250.639,317.763,250.639,317.832Z" transform="translate(-193.595 -317.708)" fill="#f5f5f5"/>
          </g>
          <g id="Grupo_114923" data-name="Grupo 114923">
            <path id="Trazado_172746" data-name="Trazado 172746" d="M250.639,307.082c0,.068-12.771.124-28.521.124s-28.523-.056-28.523-.124,12.768-.124,28.523-.124S250.639,307.014,250.639,307.082Z" transform="translate(-193.595 -306.958)" fill="#f5f5f5"/>
          </g>
          <g id="Grupo_114924" data-name="Grupo 114924" transform="translate(0 10.176)">
            <path id="Trazado_172747" data-name="Trazado 172747" d="M250.639,328.463c0,.069-12.771.124-28.521.124s-28.523-.055-28.523-.124,12.768-.124,28.523-.124S250.639,328.394,250.639,328.463Z" transform="translate(-193.595 -328.339)" fill="#f5f5f5"/>
          </g>
          <g id="Grupo_114925" data-name="Grupo 114925" transform="translate(0 15.417)">
            <path id="Trazado_172748" data-name="Trazado 172748" d="M230.959,339.475c0,.069-8.365.124-18.681.124s-18.683-.056-18.683-.124,8.363-.124,18.683-.124S230.959,339.407,230.959,339.475Z" transform="translate(-193.595 -339.351)" fill="#f5f5f5"/>
          </g>
        </g>
      </g>
    </g>
    <g id="Character_2" data-name="Character 2" transform="translate(187.474 63.471)">
      <g id="Grupo_114983" data-name="Grupo 114983" transform="translate(0)">
        <g id="Grupo_114971" data-name="Grupo 114971">
          <path id="Trazado_172749" data-name="Trazado 172749" d="M364.943,108.127a4.3,4.3,0,0,0-1.439-2.775,2.846,2.846,0,0,1-.794-3.032c.291-1.081.977-1,1.247-1.635a4.805,4.805,0,0,0,.158-1.516,3.16,3.16,0,0,1,3.768-2.684,4.377,4.377,0,0,1,8.073-.841,3.367,3.367,0,0,1,4.909,2.732,2.451,2.451,0,0,1,3.186.481,3.02,3.02,0,0,1,.229,3.328,3.96,3.96,0,0,1-2.86,1.884,5.814,5.814,0,0,1-3.434-.624,11.118,11.118,0,0,1-2.817-2.128" transform="translate(-349.533 -93.32)" fill="#263238"/>
          <ellipse id="Elipse_4191" data-name="Elipse 4191" cx="20.604" cy="20.121" rx="20.604" ry="20.121" transform="translate(2.588 29.258)" fill="#e0e0e0"/>
          <g id="Grupo_114966" data-name="Grupo 114966" transform="translate(0 4.911)">
            <g id="Grupo_114960" data-name="Grupo 114960" transform="translate(3.159)">
              <path id="Trazado_172750" data-name="Trazado 172750" d="M415.859,190.665l-2.281-5.848-8.173,5.135,7.283,11.23A19.27,19.27,0,0,0,415.859,190.665Z" transform="translate(-375.138 -146.18)" fill="#eb996e"/>
              <g id="Grupo_114951" data-name="Grupo 114951" transform="translate(10.065)">
                <g id="Grupo_114950" data-name="Grupo 114950">
                  <g id="Grupo_114949" data-name="Grupo 114949" transform="translate(0 0.819)">
                    <g id="Grupo_114946" data-name="Grupo 114946">
                      <g id="Grupo_114941" data-name="Grupo 114941" transform="translate(2.593)">
                        <g id="Grupo_114940" data-name="Grupo 114940">
                          <g id="Grupo_114928" data-name="Grupo 114928">
                            <path id="Trazado_172751" data-name="Trazado 172751" d="M373.906,136.363h0a5.483,5.483,0,0,0,5.506-5.184c.121-2.422.222-4.754.222-4.754s4.5-.326,4.911-4.721.472-14.561.472-14.561h0a15.6,15.6,0,0,0-15.662.68l-.428.275-.519,22.747A5.483,5.483,0,0,0,373.906,136.363Z" transform="translate(-368.407 -105.359)" fill="#ffbe9d"/>
                          </g>
                          <g id="Grupo_114932" data-name="Grupo 114932" transform="translate(7.063 8.079)">
                            <g id="Grupo_114929" data-name="Grupo 114929" transform="translate(0.165 0.435)">
                              <path id="Trazado_172752" data-name="Trazado 172752" d="M384.445,123.279a.64.64,0,0,1,.41.811.648.648,0,0,1-.817.406.64.64,0,0,1-.411-.811A.648.648,0,0,1,384.445,123.279Z" transform="translate(-383.595 -123.246)" fill="#263238"/>
                            </g>
                            <g id="Grupo_114931" data-name="Grupo 114931">
                              <g id="Grupo_114930" data-name="Grupo 114930">
                                <path id="Trazado_172753" data-name="Trazado 172753" d="M385.495,123.029c-.074.072-.491-.287-1.1-.326s-1.076.247-1.138.166c-.031-.037.047-.17.249-.3a1.523,1.523,0,0,1,1.789.128C385.474,122.854,385.531,123,385.495,123.029Z" transform="translate(-383.247 -122.333)" fill="#263238"/>
                              </g>
                            </g>
                          </g>
                          <g id="Grupo_114936" data-name="Grupo 114936" transform="translate(13.855 8.093)">
                            <g id="Grupo_114933" data-name="Grupo 114933" transform="translate(0.083 0.421)">
                              <path id="Trazado_172754" data-name="Trazado 172754" d="M398.544,123.279a.64.64,0,0,1,.41.811.648.648,0,0,1-.818.406.64.64,0,0,1-.41-.811A.648.648,0,0,1,398.544,123.279Z" transform="translate(-397.694 -123.246)" fill="#263238"/>
                            </g>
                            <g id="Grupo_114935" data-name="Grupo 114935">
                              <g id="Grupo_114934" data-name="Grupo 114934">
                                <path id="Trazado_172755" data-name="Trazado 172755" d="M399.767,123.058c-.074.072-.491-.287-1.1-.326s-1.076.248-1.139.166c-.031-.037.046-.17.249-.305a1.524,1.524,0,0,1,1.789.128C399.745,122.883,399.8,123.026,399.767,123.058Z" transform="translate(-397.519 -122.362)" fill="#263238"/>
                              </g>
                            </g>
                          </g>
                          <g id="Grupo_114938" data-name="Grupo 114938" transform="translate(11.485 8.244)">
                            <g id="Grupo_114937" data-name="Grupo 114937">
                              <path id="Trazado_172756" data-name="Trazado 172756" d="M392.539,127.977a2.985,2.985,0,0,1,1.006-.128c.161,0,.29-.03.308-.114a.855.855,0,0,0-.078-.463l-.383-1.27a16.82,16.82,0,0,1-.782-3.322,16.809,16.809,0,0,1,1.118,3.226l.356,1.278a1.007,1.007,0,0,1,.034.666.419.419,0,0,1-.3.231,1.027,1.027,0,0,1-.276.013A3,3,0,0,1,392.539,127.977Z" transform="translate(-392.539 -122.679)" fill="#263238"/>
                            </g>
                          </g>
                          <g id="Grupo_114939" data-name="Grupo 114939" transform="translate(5.585 18.907)">
                            <path id="Trazado_172757" data-name="Trazado 172757" d="M385.8,147.18a10.421,10.421,0,0,1-5.654-2.1s1.109,3.277,5.571,3.238Z" transform="translate(-380.141 -145.083)" fill="#eb996e"/>
                          </g>
                        </g>
                      </g>
                      <g id="Grupo_114945" data-name="Grupo 114945" transform="translate(0 8.514)">
                        <g id="Grupo_114942" data-name="Grupo 114942">
                          <path id="Trazado_172758" data-name="Trazado 172758" d="M365.964,123.929a.667.667,0,0,0-.628-.679c-.829-.039-2.192.261-2.364,2.527-.245,3.237,2.916,2.49,2.928,2.4C365.911,128.1,365.948,125.188,365.964,123.929Z" transform="translate(-362.959 -123.246)" fill="#ffbe9d"/>
                        </g>
                        <g id="Grupo_114944" data-name="Grupo 114944" transform="translate(0.875 1.031)">
                          <g id="Grupo_114943" data-name="Grupo 114943">
                            <path id="Trazado_172759" data-name="Trazado 172759" d="M366.168,128.022c-.013-.011-.06.035-.159.071a.575.575,0,0,1-.426-.023,1.394,1.394,0,0,1-.556-1.3,1.853,1.853,0,0,1,.22-.8.657.657,0,0,1,.461-.4.292.292,0,0,1,.324.179c.037.094.011.157.028.164s.074-.049.058-.185a.358.358,0,0,0-.113-.212.433.433,0,0,0-.308-.106.8.8,0,0,0-.632.458,1.906,1.906,0,0,0-.266.887,1.465,1.465,0,0,0,.724,1.46.616.616,0,0,0,.527-.047C366.156,128.1,366.179,128.029,366.168,128.022Z" transform="translate(-364.796 -125.414)" fill="#eb996e"/>
                          </g>
                        </g>
                      </g>
                    </g>
                    <g id="Grupo_114947" data-name="Grupo 114947" transform="translate(8.976 6.169)">
                      <path id="Trazado_172760" data-name="Trazado 172760" d="M381.849,119.2c.161.208.724.11,1.455.079.73-.059,1.3-.031,1.434-.257.151-.235-.555-.774-1.5-.7C382.3,118.366,381.669,118.987,381.849,119.2Z" transform="translate(-381.818 -118.32)" fill="#263238"/>
                    </g>
                    <g id="Grupo_114948" data-name="Grupo 114948" transform="translate(16.124 6.14)">
                      <path id="Trazado_172761" data-name="Trazado 172761" d="M396.847,118.955c.088.283.624.367,1.219.364s1.129-.111,1.21-.4-.456-.674-1.223-.663S396.757,118.681,396.847,118.955Z" transform="translate(-396.837 -118.26)" fill="#263238"/>
                    </g>
                  </g>
                  <path id="Trazado_172762" data-name="Trazado 172762" d="M385.606,107.633a7.307,7.307,0,0,1-6.138-.441c-2.277-1.137-4.933-1.692-5.518-1.235s-.709,2.805-2.965,3.49c0,0,.155,4.478-1.631,4.319s-.67-7.1-.67-7.1l4.368-2.133,4.767-.9,4.491.633,3.475.951Z" transform="translate(-365.779 -103.637)" fill="#263238"/>
                </g>
              </g>
              <g id="Grupo_114959" data-name="Grupo 114959" transform="translate(0 22.301)">
                <g id="Grupo_114955" data-name="Grupo 114955" transform="translate(0 3.315)">
                  <path id="Trazado_172763" data-name="Trazado 172763" d="M341.812,161.75c4.667-4.8,12.883-4.276,12.883-4.276l6.809,4.875,3.861-4.5a25.039,25.039,0,0,1,7.861,2.433l.262.081,0,.054c2.987,1.622,7.217,5.512,11.246,9.288l-4.822,4.474-5.337,4.738a.143.143,0,0,1,.009.095c-.056.287.742,6.8,1.559,11.756a20.1,20.1,0,0,1-17.934,5.418,53.4,53.4,0,0,1-5.262-1.445,7.321,7.321,0,0,1-5.421-6.451h0c-.364-4.151-.641-9.29-.641-9.29" transform="translate(-341.812 -157.458)" fill="#455a64"/>
                  <g id="Grupo_114952" data-name="Grupo 114952" transform="translate(27.821 1.233)">
                    <path id="Trazado_172764" data-name="Trazado 172764" d="M400.27,160.048a5.2,5.2,0,0,1,.293.766c.175.5.412,1.223.693,2.124.562,1.8,1.278,4.308,1.955,7.106s1.183,5.358,1.5,7.217c.161.93.281,1.683.353,2.206a5.263,5.263,0,0,1,.089.815,5.089,5.089,0,0,1-.184-.8c-.109-.558-.255-1.3-.43-2.19-.366-1.849-.9-4.4-1.573-7.191s-1.364-5.3-1.882-7.115l-.617-2.145A5.191,5.191,0,0,1,400.27,160.048Z" transform="translate(-400.267 -160.048)" fill="#263238"/>
                  </g>
                  <g id="Grupo_114953" data-name="Grupo 114953" transform="translate(32.207 10.854)">
                    <path id="Trazado_172765" data-name="Trazado 172765" d="M409.483,187.8c-.043-.053,1.993-1.784,4.547-3.865s4.66-3.726,4.7-3.672-1.992,1.783-4.547,3.865S409.527,187.854,409.483,187.8Z" transform="translate(-409.483 -180.262)" fill="#263238"/>
                  </g>
                  <path id="Trazado_172766" data-name="Trazado 172766" d="M350.157,180.32l-4.178,13.743,1.554.808,1.533-3.887S350.641,182.82,350.157,180.32Z" transform="translate(-343.996 -169.439)" opacity="0.2"/>
                  <g id="Grupo_114954" data-name="Grupo 114954" transform="translate(21.43 0.324)" opacity="0.2">
                    <path id="Trazado_172767" data-name="Trazado 172767" d="M392.779,159.056c2.252,1.187-3.392,4.044-5.941,3.967l1.851-4.884A25.7,25.7,0,0,1,392.779,159.056Z" transform="translate(-386.838 -158.139)"/>
                  </g>
                </g>
                <path id="Trazado_172768" data-name="Trazado 172768" d="M367.468,154.132v-3.639s7.108,1.829,7.366,6.082c0,0,.9-4.7,4.566-4.926l.517,6.613-4.261,3.708h-4.32l-3.422-2.951-.447-4.592" transform="translate(-355.257 -150.493)" fill="#455a64"/>
                <g id="Grupo_114956" data-name="Grupo 114956" transform="translate(19.532 6.725)">
                  <path id="Trazado_172769" data-name="Trazado 172769" d="M384.495,184.379a4.666,4.666,0,0,1-.012-.782c.01-.5.02-1.231.022-2.129.006-1.8-.05-4.28-.276-7.012s-.583-5.191-.885-6.963l-.373-2.1a4.716,4.716,0,0,1-.117-.774,4.747,4.747,0,0,1,.211.754c.122.488.278,1.2.451,2.085a65.295,65.295,0,0,1,1.164,14.008c-.025.9-.061,1.628-.1,2.131A4.832,4.832,0,0,1,384.495,184.379Z" transform="translate(-382.85 -164.623)" fill="#263238"/>
                </g>
                <g id="Grupo_114957" data-name="Grupo 114957" transform="translate(11.95 2.952)">
                  <path id="Trazado_172770" data-name="Trazado 172770" d="M374.22,158.6a.859.859,0,0,0-.422.039c-.272.088-.515.426-.714.909a20.587,20.587,0,0,0-1.352,3.932l-.038.162-.144-.086c-.425-.257-.861-.534-1.3-.831a26.017,26.017,0,0,1-2.3-1.751,2.911,2.911,0,0,1-.785-1.028,3.239,3.239,0,0,1-.239-1.1,6.362,6.362,0,0,1,.158-1.592,2.357,2.357,0,0,1,.156-.563,3.026,3.026,0,0,1-.061.579,7.516,7.516,0,0,0-.078,1.564,3.148,3.148,0,0,0,.253,1.025,2.734,2.734,0,0,0,.748.94c.672.562,1.453,1.146,2.293,1.718.435.295.866.572,1.286.829l-.181.076a17.984,17.984,0,0,1,1.446-3.945,2.989,2.989,0,0,1,.374-.613.951.951,0,0,1,.454-.307C374.072,158.476,374.231,158.6,374.22,158.6Z" transform="translate(-366.919 -156.695)" fill="#263238"/>
                </g>
                <g id="Grupo_114958" data-name="Grupo 114958" transform="translate(20.121 1.156)">
                  <path id="Trazado_172771" data-name="Trazado 172771" d="M388.111,152.921a2.609,2.609,0,0,1,.067.568l.114,1.549c.053.653.132,1.428.266,2.282a3.816,3.816,0,0,1,.086,1.4,2.4,2.4,0,0,1-.935,1.194,10.524,10.524,0,0,0-1.564,1.188l-.189.212-.019-.283a8.513,8.513,0,0,0-1.05-3.544c-.452-.811-.824-1.227-.795-1.251a1.344,1.344,0,0,1,.28.281,7,7,0,0,1,.644.895,8.119,8.119,0,0,1,1.157,3.6l-.208-.071a9.989,9.989,0,0,1,1.593-1.227,2.2,2.2,0,0,0,.849-1.057,3.762,3.762,0,0,0-.076-1.3c-.122-.863-.184-1.646-.215-2.3s-.037-1.189-.035-1.557A2.487,2.487,0,0,1,388.111,152.921Z" transform="translate(-384.089 -152.921)" fill="#263238"/>
                </g>
              </g>
            </g>
            <g id="Grupo_114965" data-name="Grupo 114965" transform="translate(0 24.37)">
              <g id="Grupo_114962" data-name="Grupo 114962" transform="translate(2.546)">
                <path id="Trazado_172772" data-name="Trazado 172772" d="M428.767,154.84c-.289.34-10.753,14.332-10.753,14.332l1.473.835,10.738-13.814Z" transform="translate(-381.133 -154.84)" fill="#263238"/>
                <path id="Trazado_172773" data-name="Trazado 172773" d="M346.121,173.168s11.008,15.846,11.672,16.157c1.306.613,16.367-12.4,17.8-13.646.2-.264.606-.822,1.409-1.932,0,0,1.188-5.437,2.456-5.019s-.694,2.763.131,4.828,4.608-2.861,4.759-3.3l.975-1.275a16.739,16.739,0,0,1,.954,4.111c-.222,3.879-3.892,8.492-3.892,8.492S365.9,202,354.616,202.632c-3.252.182-9.03-9.044-12.893-15.963a9.467,9.467,0,0,1,2.7-12.26Z" transform="translate(-340.524 -162.106)" fill="#ffbe9d"/>
                <g id="Grupo_114961" data-name="Grupo 114961" transform="translate(43.9 8.805)">
                  <path id="Trazado_172774" data-name="Trazado 172774" d="M432.764,176.207c-.037-.023.316-.646.705-1.435s.673-1.447.713-1.432a8.946,8.946,0,0,1-1.419,2.868Z" transform="translate(-432.762 -173.339)" fill="#eb996e"/>
                </g>
              </g>
              <g id="Grupo_114964" data-name="Grupo 114964" transform="translate(0 3.329)">
                <path id="Trazado_172775" data-name="Trazado 172775" d="M341.454,161.835s-11.815,4.2-3.031,24.07l13.64-8.232-1.94-4.646Z" transform="translate(-335.175 -161.835)" fill="#455a64"/>
                <g id="Grupo_114963" data-name="Grupo 114963" transform="translate(3.248 0.326)">
                  <path id="Trazado_172776" data-name="Trazado 172776" d="M344.125,162.538a4.1,4.1,0,0,1,1.423.119,5.791,5.791,0,0,1,1.55.654,8.377,8.377,0,0,1,1.722,1.413,20.636,20.636,0,0,1,3.209,4.8c1,1.932,1.932,4.132,2.889,6.444l.836,2.021.042.1-.1.053c-3.947,2.151-7.383,4.166-9.812,5.674-1.216.752-2.183,1.371-2.848,1.8l-.765.491a1.654,1.654,0,0,1-.275.159,1.622,1.622,0,0,1,.248-.2c.168-.122.415-.3.741-.528.649-.453,1.6-1.094,2.81-1.866,2.409-1.547,5.835-3.59,9.782-5.75l-.054.155c-.268-.646-.551-1.329-.838-2.021-.956-2.311-1.88-4.508-2.863-6.435a21.006,21.006,0,0,0-3.134-4.779,8.436,8.436,0,0,0-1.667-1.415,5.9,5.9,0,0,0-1.5-.679A8.528,8.528,0,0,0,344.125,162.538Z" transform="translate(-342 -162.52)" fill="#263238"/>
                </g>
              </g>
            </g>
          </g>
          <g id="Grupo_114967" data-name="Grupo 114967" transform="translate(21.243 3.494)">
            <path id="Trazado_172777" data-name="Trazado 172777" d="M389.357,100.661a.708.708,0,0,1,.059.208,2.7,2.7,0,0,1,.034.617,3.155,3.155,0,0,1-4.081,2.864,2.809,2.809,0,0,1-1.628-1.18,1.662,1.662,0,0,1-.244-1.075,1.391,1.391,0,0,1,.584-.982,1.207,1.207,0,0,1,1.143-.073,1.452,1.452,0,0,1,.781.785,2.084,2.084,0,0,1-.312,1.979,2.482,2.482,0,0,1-3.121.678,5.331,5.331,0,0,0-1.176-.451,1.478,1.478,0,0,0-.91.1,4.933,4.933,0,0,0-.677.446c-.006-.006.041-.061.139-.164a1.18,1.18,0,0,1,.194-.175,1.459,1.459,0,0,1,.3-.195,1.549,1.549,0,0,1,.974-.145,5.22,5.22,0,0,1,1.222.427,3.458,3.458,0,0,0,.687.227,2.171,2.171,0,0,0,.767-.014,2.249,2.249,0,0,0,1.414-.866,1.861,1.861,0,0,0,.272-1.75,1.122,1.122,0,0,0-1.563-.6,1.149,1.149,0,0,0-.476.808,1.423,1.423,0,0,0,.208.917,2.593,2.593,0,0,0,1.484,1.086,3.045,3.045,0,0,0,2.991-.707,3.234,3.234,0,0,0,.929-1.945A6.5,6.5,0,0,0,389.357,100.661Z" transform="translate(-379.809 -100.661)" fill="#455a64"/>
          </g>
          <g id="Grupo_114968" data-name="Grupo 114968" transform="translate(25.885 20.269)">
            <path id="Trazado_172778" data-name="Trazado 172778" d="M391.9,137.079c.005.03-.146.093-.408.1a2.118,2.118,0,0,1-1.758-.886c-.147-.217-.186-.376-.159-.389a3.261,3.261,0,0,0,2.325,1.171Z" transform="translate(-389.562 -135.906)" fill="#263238"/>
          </g>
          <g id="Grupo_114969" data-name="Grupo 114969" transform="translate(14.182 18.53)">
            <path id="Trazado_172779" data-name="Trazado 172779" d="M366.528,133.061c.022-.02.156.209-.017.537a.794.794,0,0,1-.485.385.824.824,0,0,1-.739-.194.886.886,0,0,1-.313-.691.951.951,0,0,1,.217-.57c.228-.269.461-.294.465-.267s-.168.12-.322.369a.739.739,0,0,0,.116.971.627.627,0,0,0,.524.158.667.667,0,0,0,.389-.256C366.536,133.273,366.489,133.066,366.528,133.061Z" transform="translate(-364.973 -132.253)" fill="#263238"/>
          </g>
          <g id="Grupo_114970" data-name="Grupo 114970" transform="translate(28.26 5.097)">
            <path id="Trazado_172780" data-name="Trazado 172780" d="M397.867,104.03a1.568,1.568,0,0,1,.229.874,2.906,2.906,0,0,1-2.646,3.051,1.57,1.57,0,0,1-.9-.1c.006-.042.346.02.874-.071a2.938,2.938,0,0,0,2.494-2.876C397.936,104.369,397.826,104.041,397.867,104.03Z" transform="translate(-394.553 -104.029)" fill="#455a64"/>
          </g>
        </g>
        <g id="Grupo_114972" data-name="Grupo 114972" transform="translate(1.351 44.918)">
          <path id="Trazado_172781" data-name="Trazado 172781" d="M352.143,187.7c.03.061-3.108,1.675-7.009,3.6s-7.089,3.443-7.12,3.382,3.107-1.674,7.01-3.6S352.113,187.636,352.143,187.7Z" transform="translate(-338.015 -187.695)" fill="#e0e0e0"/>
        </g>
        <g id="Grupo_114973" data-name="Grupo 114973" transform="translate(0.024 39.519)">
          <path id="Trazado_172782" data-name="Trazado 172782" d="M347.821,176.355c.032.06-2.761,1.623-6.239,3.489s-6.324,3.332-6.357,3.271,2.761-1.622,6.24-3.49S347.788,176.3,347.821,176.355Z" transform="translate(-335.224 -176.353)" fill="#e0e0e0"/>
        </g>
        <g id="Grupo_114974" data-name="Grupo 114974" transform="translate(0.212 35.154)">
          <path id="Trazado_172783" data-name="Trazado 172783" d="M345.265,167.183a11.343,11.343,0,0,1-1.4.827l-3.417,1.906-3.4,1.938a11.21,11.21,0,0,1-1.431.768,9.9,9.9,0,0,1,1.34-.918c.848-.536,2.035-1.252,3.368-2s2.56-1.4,3.457-1.845A9.882,9.882,0,0,1,345.265,167.183Z" transform="translate(-335.62 -167.181)" fill="#e0e0e0"/>
        </g>
        <g id="Grupo_114975" data-name="Grupo 114975" transform="translate(15.373 30.162)">
          <path id="Trazado_172784" data-name="Trazado 172784" d="M372.411,160.654a2.232,2.232,0,0,1-.919-.247,7.045,7.045,0,0,1-1.925-1.253,13.2,13.2,0,0,1-1.552-1.681,3.45,3.45,0,0,1-.537-.78,3.767,3.767,0,0,1,.671.666,22.435,22.435,0,0,0,1.583,1.609,8.819,8.819,0,0,0,1.834,1.279C372.077,160.51,372.422,160.617,372.411,160.654Z" transform="translate(-367.475 -156.692)" fill="#e0e0e0"/>
        </g>
        <g id="Grupo_114976" data-name="Grupo 114976" transform="translate(24.688 31.545)">
          <path id="Trazado_172785" data-name="Trazado 172785" d="M389.61,159.6a3.313,3.313,0,0,1-2.563,2.157,16.6,16.6,0,0,0,1.415-.92A16.849,16.849,0,0,0,389.61,159.6Z" transform="translate(-387.047 -159.598)" fill="#e0e0e0"/>
        </g>
        <g id="Grupo_114977" data-name="Grupo 114977" transform="translate(13.203 38.702)">
          <path id="Trazado_172786" data-name="Trazado 172786" d="M389.34,174.643a1.144,1.144,0,0,1-.266.049l-.765.094c-.666.074-1.631.167-2.824.259-2.387.19-5.69.376-9.341.51s-6.96.177-9.355.158c-1.2-.008-2.166-.031-2.835-.058l-.77-.04a1.084,1.084,0,0,1-.268-.03,1.111,1.111,0,0,1,.269-.019l.771-.007,2.833-.022c2.393-.025,5.7-.1,9.347-.23s6.95-.291,9.338-.437l2.828-.18.769-.048A1.1,1.1,0,0,1,389.34,174.643Z" transform="translate(-362.916 -174.636)" fill="#e0e0e0"/>
        </g>
        <g id="Grupo_114978" data-name="Grupo 114978" transform="translate(15.786 44.344)">
          <path id="Trazado_172787" data-name="Trazado 172787" d="M388.426,186.5a4.842,4.842,0,0,1-.782.123c-.5.063-1.238.142-2.145.224-1.813.167-4.323.339-7.1.453s-5.293.141-7.113.121c-.91-.008-1.647-.028-2.156-.05a4.8,4.8,0,0,1-.789-.059,4.8,4.8,0,0,1,.791-.037l2.154-.029c1.819-.025,4.33-.083,7.1-.194s5.28-.257,7.095-.379l2.149-.145A4.943,4.943,0,0,1,388.426,186.5Z" transform="translate(-368.343 -186.491)" fill="#e0e0e0"/>
        </g>
        <g id="Grupo_114979" data-name="Grupo 114979" transform="translate(16.496 51.298)">
          <path id="Trazado_172788" data-name="Trazado 172788" d="M380.677,201.117a9.528,9.528,0,0,1-1.578.222c-.978.1-2.333.209-3.831.284s-2.858.1-3.841.1a9.48,9.48,0,0,1-1.592-.065,10.852,10.852,0,0,1,1.588-.11l3.832-.17,3.829-.211A10.817,10.817,0,0,1,380.677,201.117Z" transform="translate(-369.835 -201.101)" fill="#e0e0e0"/>
        </g>
        <g id="Grupo_114980" data-name="Grupo 114980" transform="translate(9.912 34.682)">
          <path id="Trazado_172789" data-name="Trazado 172789" d="M362.519,166.3c0,.071-1.462.087-3.258.162s-3.254.176-3.261.106a24.32,24.32,0,0,1,6.52-.268Z" transform="translate(-356 -166.189)" fill="#e0e0e0"/>
        </g>
        <g id="Grupo_114981" data-name="Grupo 114981" transform="translate(28.052 34.397)">
          <path id="Trazado_172790" data-name="Trazado 172790" d="M402.572,165.732a72.2,72.2,0,0,1-8.458-.032,72.19,72.19,0,0,1,8.458.032Z" transform="translate(-394.114 -165.591)" fill="#e0e0e0"/>
        </g>
        <g id="Grupo_114982" data-name="Grupo 114982" transform="translate(24.992 63.496)">
          <path id="Trazado_172791" data-name="Trazado 172791" d="M399.933,226.734a1.934,1.934,0,0,1-.434.249c-.285.148-.708.342-1.238.564a27.059,27.059,0,0,1-8.718,2.009c-.574.032-1.039.043-1.36.035a1.95,1.95,0,0,1-.5-.034c0-.04.708-.067,1.845-.176a33.383,33.383,0,0,0,8.667-2C399.268,226.983,399.917,226.7,399.933,226.734Z" transform="translate(-387.685 -226.731)" fill="#e0e0e0"/>
        </g>
      </g>
    </g>
    <g id="Character_1" data-name="Character 1" transform="translate(67.097 122.967)">
      <g id="Grupo_115039" data-name="Grupo 115039">
        <ellipse id="Elipse_4192" data-name="Elipse 4192" cx="20.604" cy="19.655" rx="20.604" ry="19.655" transform="translate(8.448 29.474)" fill="#e0e0e0"/>
        <g id="Grupo_115016" data-name="Grupo 115016" transform="translate(15.479)">
          <path id="Trazado_172792" data-name="Trazado 172792" d="M124.151,221.982c-3.269.17-4.552,3.578-4.943,4.338a6.591,6.591,0,0,0-.524,2.493,5.423,5.423,0,0,1-.627,2.462c-.72,1.148-2.231,1.741-2.643,3.032-.466,1.46.73,3.021.411,4.52-.171.8-.758,1.467-.966,2.263a3.331,3.331,0,0,0,.441,2.471,6.475,6.475,0,0,0,5.431,2.846,19.117,19.117,0,0,0,6.257-1.193" transform="translate(-114.776 -220.242)" fill="#263238"/>
          <path id="Trazado_172793" data-name="Trazado 172793" d="M161.447,230.88a2.036,2.036,0,0,0,.484,2.106,13.117,13.117,0,0,0,1.769,1.442,2.889,2.889,0,0,1,1.208,1.868c.063.7-.286,1.389-.192,2.082.244,1.782,3.086,2.316,3.237,4.108.1,1.193-1.124,2.289-.784,3.438a5.451,5.451,0,0,0,.708,1.174,3.494,3.494,0,0,1-.909,4.224,6.944,6.944,0,0,1-4.354,1.474c-1.313.059-2.8-.156-3.578-1.218-.708-.972-.563-2.3-.421-3.493a122.251,122.251,0,0,0,.435-16.829" transform="translate(-137.689 -224.905)" fill="#263238"/>
          <g id="Grupo_115007" data-name="Grupo 115007" transform="translate(5.466 1.34)">
            <g id="Grupo_115006" data-name="Grupo 115006">
              <g id="Grupo_115005" data-name="Grupo 115005">
                <g id="Grupo_114999" data-name="Grupo 114999" transform="translate(0.054 2.862)">
                  <g id="Grupo_114984" data-name="Grupo 114984">
                    <path id="Trazado_172794" data-name="Trazado 172794" d="M131.088,254.739c.025-2.93,0-6.016,0-6.016s-3.768-.67-4.493-5.6c-.691-4.705.482-14.826.482-14.826h0c5.458-2.153,11.6-1.32,15.427,3.073h0l-.594,23.8a5.1,5.1,0,0,1-5.456,4.807h0A5.393,5.393,0,0,1,131.088,254.739Z" transform="translate(-126.375 -227.155)" fill="#ffbe9d"/>
                  </g>
                  <g id="Grupo_114988" data-name="Grupo 114988" transform="translate(0.699 7.771)">
                    <g id="Grupo_114985" data-name="Grupo 114985" transform="translate(1.025 0.574)">
                      <path id="Trazado_172795" data-name="Trazado 172795" d="M130,245.254a.632.632,0,0,0,.6.644.6.6,0,0,0,.657-.562.632.632,0,0,0-.6-.645A.6.6,0,0,0,130,245.254Z" transform="translate(-129.999 -244.69)" fill="#263238"/>
                    </g>
                    <g id="Grupo_114987" data-name="Grupo 114987">
                      <g id="Grupo_114986" data-name="Grupo 114986">
                        <path id="Trazado_172796" data-name="Trazado 172796" d="M127.854,244.133c.078.083.56-.265,1.24-.256,1.279.185,1.256.381,1.248.273.037-.037-.041-.186-.257-.347a1.733,1.733,0,0,0-1-.32,1.661,1.661,0,0,0-.988.306C127.889,243.947,127.816,244.1,127.854,244.133Z" transform="translate(-127.845 -243.483)" fill="#263238"/>
                      </g>
                    </g>
                  </g>
                  <g id="Grupo_114992" data-name="Grupo 114992" transform="translate(7.788 8.006)">
                    <g id="Grupo_114989" data-name="Grupo 114989" transform="translate(0.892 0.54)">
                      <path id="Trazado_172797" data-name="Trazado 172797" d="M144.614,245.675a.633.633,0,0,0,.6.644.6.6,0,0,0,.657-.562.632.632,0,0,0-.6-.645A.6.6,0,0,0,144.614,245.675Z" transform="translate(-144.614 -245.111)" fill="#263238"/>
                    </g>
                    <g id="Grupo_114991" data-name="Grupo 114991">
                      <g id="Grupo_114990" data-name="Grupo 114990">
                        <path id="Trazado_172798" data-name="Trazado 172798" d="M142.749,244.626c.078.083.561-.265,1.24-.256s1.174.355,1.248.273c.037-.037-.04-.186-.257-.346a1.735,1.735,0,0,0-1-.321,1.666,1.666,0,0,0-.988.306C142.784,244.441,142.711,244.589,142.749,244.626Z" transform="translate(-142.739 -243.976)" fill="#263238"/>
                      </g>
                    </g>
                  </g>
                  <g id="Grupo_114994" data-name="Grupo 114994" transform="translate(3.547 7.872)">
                    <g id="Grupo_114993" data-name="Grupo 114993">
                      <path id="Trazado_172799" data-name="Trazado 172799" d="M135.554,249.354a4.513,4.513,0,0,0-1.1-.212c-.173-.02-.337-.056-.365-.175a.882.882,0,0,1,.122-.513l.528-1.315a22.727,22.727,0,0,0,1.193-3.443,22.748,22.748,0,0,0-1.467,3.339l-.507,1.324a1,1,0,0,0-.1.68.436.436,0,0,0,.282.257,1.205,1.205,0,0,0,.294.044A4.435,4.435,0,0,0,135.554,249.354Z" transform="translate(-133.828 -243.694)" fill="#263238"/>
                    </g>
                  </g>
                  <g id="Grupo_114995" data-name="Grupo 114995" transform="translate(4.711 19.886)">
                    <path id="Trazado_172800" data-name="Trazado 172800" d="M136.273,270.619a12.526,12.526,0,0,0,6.616-1.683s-1.639,3.364-6.563,2.847Z" transform="translate(-136.273 -268.936)" fill="#eb996e"/>
                  </g>
                  <g id="Grupo_114996" data-name="Grupo 114996" transform="translate(5.472 14.722)">
                    <path id="Trazado_172801" data-name="Trazado 172801" d="M137.942,258.537a1.225,1.225,0,0,1,1.1-.442,1.117,1.117,0,0,1,.767.423.708.708,0,0,1,.045.811.822.822,0,0,1-.894.215,2.574,2.574,0,0,1-.862-.529.746.746,0,0,1-.192-.2.228.228,0,0,1,0-.253" transform="translate(-137.873 -258.086)" fill="#eb996e"/>
                  </g>
                  <g id="Grupo_114998" data-name="Grupo 114998" transform="translate(5.081 14.025)">
                    <g id="Grupo_114997" data-name="Grupo 114997">
                      <path id="Trazado_172802" data-name="Trazado 172802" d="M139.237,256.622c-.111-.008-.12.73-.758,1.246s-1.422.426-1.429.529c-.011.046.174.145.505.158a1.835,1.835,0,0,0,1.192-.4,1.6,1.6,0,0,0,.588-1.046C139.368,256.8,139.288,256.618,139.237,256.622Z" transform="translate(-137.05 -256.622)" fill="#263238"/>
                    </g>
                  </g>
                </g>
                <g id="Grupo_115000" data-name="Grupo 115000">
                  <path id="Trazado_172803" data-name="Trazado 172803" d="M140.3,224.7c-1.8,2.57-6.573,5.213-9.989,5.826.4-.525,2.5-1.819,2.9-2.344-1.549,1.157-3.765,2.7-5.819,2.808a1.247,1.247,0,0,1-.706-.11.953.953,0,0,1-.359-.774,20.528,20.528,0,0,1,.142-4.463,4.939,4.939,0,0,1,1.777-3.185,8.526,8.526,0,0,1,4.975-1.31,11.256,11.256,0,0,1,4.383.59,4.112,4.112,0,0,1,2.724,2.875" transform="translate(-126.261 -221.142)" fill="#263238"/>
                </g>
                <g id="Grupo_115001" data-name="Grupo 115001" transform="translate(9.854 0.57)">
                  <path id="Trazado_172804" data-name="Trazado 172804" d="M156.32,236.842a27.88,27.88,0,0,0,.492-3.292c.145-2.542-.589-11.922-9.351-11.167l-.354,2.669s-1.355,9.135,4.314,9.2a10.191,10.191,0,0,0,2.88,5.37s1.486-.045,2.019-2.782" transform="translate(-146.965 -222.339)" fill="#263238"/>
                </g>
                <g id="Grupo_115002" data-name="Grupo 115002" transform="translate(14.067 12.429)">
                  <path id="Trazado_172805" data-name="Trazado 172805" d="M156.059,247.312a2.938,2.938,0,0,1,1.584.12,2.05,2.05,0,0,1,1.148,1.066,2.144,2.144,0,0,1,0,1.574,3.628,3.628,0,0,1-.912,1.314,2.46,2.46,0,0,1-.963.623,1.174,1.174,0,0,1-1.1-.183" transform="translate(-155.816 -247.257)" fill="#ffbe9d"/>
                </g>
                <g id="Grupo_115004" data-name="Grupo 115004" transform="translate(14.554 13.166)">
                  <g id="Grupo_115003" data-name="Grupo 115003">
                    <path id="Trazado_172806" data-name="Trazado 172806" d="M156.85,251.319c-.06.019.165.34.648.216a1.038,1.038,0,0,0,.6-.513,2.336,2.336,0,0,0,.272-.871,1.374,1.374,0,0,0-.212-.93.916.916,0,0,0-.687-.417c-.5-.017-.653.325-.6.336.039.04.233-.134.557-.052a.887.887,0,0,1,.537,1.023c-.065.541-.279,1.035-.569,1.155C157.1,251.416,156.884,251.276,156.85,251.319Z" transform="translate(-156.841 -248.805)" fill="#eb996e"/>
                  </g>
                </g>
              </g>
            </g>
          </g>
          <path id="Trazado_172807" data-name="Trazado 172807" d="M157.507,222.34a2.987,2.987,0,0,0,4.044-1.063,1.913,1.913,0,0,0,.277-1.429,1.966,1.966,0,0,0-1.472-1.276,3.007,3.007,0,0,0-2.763.663,2.639,2.639,0,0,0-.713,2.712,2.353,2.353,0,0,0,2.273,1.568" transform="translate(-136.775 -218.405)" fill="#263238"/>
          <path id="Trazado_172808" data-name="Trazado 172808" d="M156.839,256.445a6.939,6.939,0,0,0-1.362,1.175,2.346,2.346,0,0,0-.588,1.657,4.312,4.312,0,0,1,.11,1,3.336,3.336,0,0,1-.691,1.187,2.822,2.822,0,0,0,.445,3.307,4.579,4.579,0,0,0,3.238,1.316,2.771,2.771,0,0,0,3.146-3.121" transform="translate(-135.307 -238.303)" fill="#263238"/>
          <g id="Grupo_115008" data-name="Grupo 115008" transform="translate(16.875 5.9)">
            <path id="Trazado_172809" data-name="Trazado 172809" d="M155.483,230.724a3.236,3.236,0,0,1-.516.9,10.406,10.406,0,0,1-3.768,3.238,3.245,3.245,0,0,1-.966.376,15.254,15.254,0,0,0,5.25-4.512Z" transform="translate(-150.233 -230.723)" fill="#455a64"/>
          </g>
          <g id="Grupo_115009" data-name="Grupo 115009" transform="translate(18.902 5.853)">
            <path id="Trazado_172810" data-name="Trazado 172810" d="M158.624,230.624a3.9,3.9,0,0,1-.161,1.2,9.7,9.7,0,0,1-2.985,4.96,3.9,3.9,0,0,1-.986.705,12.231,12.231,0,0,0,4.132-6.866Z" transform="translate(-154.491 -230.624)" fill="#455a64"/>
          </g>
          <g id="Grupo_115010" data-name="Grupo 115010" transform="translate(3.971 9.82)">
            <path id="Trazado_172811" data-name="Trazado 172811" d="M123.159,238.958c.073-.005.167.82.451,1.793s.638,1.723.574,1.758a5.637,5.637,0,0,1-1.025-3.551Z" transform="translate(-123.121 -238.958)" fill="#455a64"/>
          </g>
          <g id="Grupo_115011" data-name="Grupo 115011" transform="translate(23.043 10.849)">
            <path id="Trazado_172812" data-name="Trazado 172812" d="M165.149,256.93a1.377,1.377,0,0,0,.725.233,1.482,1.482,0,0,0,.839-.264,1.692,1.692,0,0,0,.635-.962,3.1,3.1,0,0,0,.009-1.434c-.1-.516-.3-1.05-.48-1.633a4.308,4.308,0,0,1-.211-1.918,10.763,10.763,0,0,1,.782-1.889,2.474,2.474,0,0,0-1.445-3.07c-.272-.116-.554-.215-.816-.357a1.664,1.664,0,0,1-.652-.584,2.741,2.741,0,0,1-.295-1.5,5.115,5.115,0,0,0-.049-1.21,1.978,1.978,0,0,0-.357-.82,1.178,1.178,0,0,0-.642-.4.434.434,0,0,1,.208.016.993.993,0,0,1,.508.318,2.012,2.012,0,0,1,.419.851,4.994,4.994,0,0,1,.089,1.241,2.606,2.606,0,0,0,.293,1.387,2.647,2.647,0,0,0,1.383.841,2.7,2.7,0,0,1,1.591,3.363,11.411,11.411,0,0,0-.777,1.849,4.124,4.124,0,0,0,.191,1.812c.167.574.364,1.119.462,1.659a3.233,3.233,0,0,1-.042,1.522,1.816,1.816,0,0,1-.727,1.029,1.548,1.548,0,0,1-.919.246,1.12,1.12,0,0,1-.57-.187A.52.52,0,0,1,165.149,256.93Z" transform="translate(-163.191 -241.12)" fill="#455a64"/>
          </g>
          <g id="Grupo_115012" data-name="Grupo 115012" transform="translate(21.562 18.177)">
            <path id="Trazado_172813" data-name="Trazado 172813" d="M160.083,264.664c.022-.014.062.153.293.257a.781.781,0,0,0,.923-.25,1.457,1.457,0,0,0-.077-1.49,6.241,6.241,0,0,1-.948-1.851,1.339,1.339,0,0,1,.265-1.1c.233-.287.506-.479.685-.714a2.074,2.074,0,0,0,.331-1.52,5.9,5.9,0,0,0-.273-1.08,1.418,1.418,0,0,1-.11-.4,1.321,1.321,0,0,1,.2.367,4.635,4.635,0,0,1,.356,1.089,2.2,2.2,0,0,1-.323,1.683c-.2.273-.479.474-.675.726a1.1,1.1,0,0,0-.212.908,6.627,6.627,0,0,0,.907,1.786,1.617,1.617,0,0,1,.016,1.7.853.853,0,0,1-.6.33.835.835,0,0,1-.505-.1C160.078,264.852,160.074,264.656,160.083,264.664Z" transform="translate(-160.081 -256.517)" fill="#455a64"/>
          </g>
          <g id="Grupo_115013" data-name="Grupo 115013" transform="translate(1.49 13.038)">
            <path id="Trazado_172814" data-name="Trazado 172814" d="M119.325,257.762a2.118,2.118,0,0,1-.387-.386,4.7,4.7,0,0,1-.831-1.251,2.5,2.5,0,0,1-.2-1.039,1.81,1.81,0,0,1,.419-1.153c.3-.343.723-.519.981-.84a1.4,1.4,0,0,0,.2-1.225,5.221,5.221,0,0,0-.522-1.258,4.318,4.318,0,0,1-.463-1.249,1.633,1.633,0,0,1,.245-1.2,4.192,4.192,0,0,1,.725-.756,2.173,2.173,0,0,0,.813-1.159,1.43,1.43,0,0,0-.02-.524c.006,0,.038.037.072.126a.849.849,0,0,1,.044.414,2.164,2.164,0,0,1-.789,1.274,4.222,4.222,0,0,0-.672.739,1.429,1.429,0,0,0-.192,1.052,4.231,4.231,0,0,0,.454,1.175,5.3,5.3,0,0,1,.548,1.314,1.636,1.636,0,0,1-.25,1.433c-.324.38-.749.545-1,.837a1.617,1.617,0,0,0-.386,1.01,2.379,2.379,0,0,0,.158.966,5.318,5.318,0,0,0,.742,1.255A2.543,2.543,0,0,1,119.325,257.762Z" transform="translate(-117.907 -245.72)" fill="#455a64"/>
          </g>
          <g id="Grupo_115014" data-name="Grupo 115014" transform="translate(20.067 2.499)">
            <path id="Trazado_172815" data-name="Trazado 172815" d="M159.629,225.635a4.811,4.811,0,0,0-2.689-2.034,2.846,2.846,0,0,1,2.689,2.034Z" transform="translate(-156.94 -223.576)" fill="#e8505b"/>
          </g>
          <g id="Grupo_115015" data-name="Grupo 115015" transform="translate(22.441)">
            <path id="Trazado_172816" data-name="Trazado 172816" d="M162.929,218.327c.025-.016.185.17.313.54a2.578,2.578,0,0,1-.77,2.785c-.3.251-.532.329-.545.3s.175-.163.425-.43a2.831,2.831,0,0,0,.721-2.611A3.6,3.6,0,0,1,162.929,218.327Z" transform="translate(-161.926 -218.326)" fill="#455a64"/>
          </g>
        </g>
        <path id="Trazado_172817" data-name="Trazado 172817" d="M113.254,338.423s11.825,11.228,18.854,9.2,9.11-7.307,9.11-7.307l.17-1.889-.7-.461-27.062-2.191Z" transform="translate(-98.5 -279.874)" opacity="0.3"/>
        <g id="Grupo_115038" data-name="Grupo 115038" transform="translate(0 27.916)">
          <g id="Grupo_115019" data-name="Grupo 115019" transform="translate(7.357 1.114)">
            <path id="Trazado_172818" data-name="Trazado 172818" d="M98.555,312.8l2.281-5.847,8.173,5.135-7.283,11.231A19.271,19.271,0,0,1,98.555,312.8Z" transform="translate(-98.154 -293.804)" fill="#eb996e"/>
            <g id="Grupo_115018" data-name="Grupo 115018">
              <g id="Grupo_115017" data-name="Grupo 115017">
                <path id="Trazado_172819" data-name="Trazado 172819" d="M107.337,282.164a29.181,29.181,0,0,1,8.728-2.559h0c1.429,2.861,5.935,3.225,8.662,1.272l2.3-1.555a8.346,8.346,0,0,1,.964.039,12.285,12.285,0,0,1,10.881,9.783,24.532,24.532,0,0,1,.575,6.184c-.3,5.2-5.684,5.669-5.684,5.669s-.277,5.14-.641,9.29h0A7.75,7.75,0,0,1,128.413,317a19.125,19.125,0,0,1-6,1.851,20.16,20.16,0,0,1-17.887-6.194c.817-4.952,1.6-11.365,1.542-11.652a.143.143,0,0,1,.009-.095l-5.337-4.738-3.025-2.54s6.638-9.852,9.625-11.474" transform="translate(-97.712 -279.32)" fill="#5000a1"/>
              </g>
            </g>
          </g>
          <g id="Grupo_115020" data-name="Grupo 115020" transform="translate(15.255 6.62)">
            <path id="Trazado_172820" data-name="Trazado 172820" d="M122.647,291.431a2.835,2.835,0,0,0-1.319-.365,2.171,2.171,0,0,0-1.361.472,5.822,5.822,0,0,0-.606.651,1.577,1.577,0,0,1-.863.573,1.406,1.406,0,0,1-1.006-.269c-.274-.175-.508-.367-.749-.505a1.633,1.633,0,0,0-1.4-.122,1.844,1.844,0,0,0-.811.56c-.15.185-.2.311-.225.3a.728.728,0,0,1,.147-.359,1.842,1.842,0,0,1,2.4-.58c.266.146.506.337.766.5a1.181,1.181,0,0,0,.832.231,1.368,1.368,0,0,0,.728-.492,5.455,5.455,0,0,1,.643-.666,2.281,2.281,0,0,1,1.506-.469,2.17,2.17,0,0,1,1.019.291C122.564,291.314,122.654,291.422,122.647,291.431Z" transform="translate(-114.307 -290.888)" fill="#fafafa"/>
          </g>
          <g id="Grupo_115021" data-name="Grupo 115021" transform="translate(20.703 12.167)">
            <path id="Trazado_172821" data-name="Trazado 172821" d="M134.067,304.643a2.836,2.836,0,0,0-1.134-.767,2.169,2.169,0,0,0-1.44.012,5.752,5.752,0,0,0-.782.423,1.577,1.577,0,0,1-1,.267,1.4,1.4,0,0,1-.866-.576c-.2-.254-.365-.511-.549-.719a1.634,1.634,0,0,0-1.284-.561,1.845,1.845,0,0,0-.948.271c-.2.128-.293.23-.31.215s.058-.132.254-.294a1.841,1.841,0,0,1,2.457.217c.205.223.372.482.566.717a1.184,1.184,0,0,0,.715.485,1.366,1.366,0,0,0,.846-.234,5.467,5.467,0,0,1,.822-.426,2.282,2.282,0,0,1,1.577.037,2.176,2.176,0,0,1,.873.6A.808.808,0,0,1,134.067,304.643Z" transform="translate(-125.752 -302.542)" fill="#fafafa"/>
          </g>
          <g id="Grupo_115022" data-name="Grupo 115022" transform="translate(33.183 3.58)">
            <path id="Trazado_172822" data-name="Trazado 172822" d="M159.854,284.785a2.828,2.828,0,0,0-1.367-.078,2.171,2.171,0,0,0-1.23.75,5.694,5.694,0,0,0-.455.764,1.574,1.574,0,0,1-.723.743,1.4,1.4,0,0,1-1.039-.05c-.305-.113-.575-.252-.84-.336a1.633,1.633,0,0,0-1.39.177,1.846,1.846,0,0,0-.674.719c-.107.213-.134.348-.156.343a.725.725,0,0,1,.068-.382,1.841,1.841,0,0,1,2.221-1.074c.29.086.566.223.854.325a1.181,1.181,0,0,0,.863.049,1.369,1.369,0,0,0,.607-.634,5.421,5.421,0,0,1,.487-.788,2.282,2.282,0,0,1,1.373-.777,2.173,2.173,0,0,1,1.058.069A.8.8,0,0,1,159.854,284.785Z" transform="translate(-151.974 -284.501)" fill="#fafafa"/>
          </g>
          <g id="Grupo_115023" data-name="Grupo 115023" transform="translate(29.145 9.79)">
            <path id="Trazado_172823" data-name="Trazado 172823" d="M149.85,299.431a2.439,2.439,0,0,0-.855-.613,1.66,1.66,0,0,0-1.1-.034,4.461,4.461,0,0,0-.613.3,1.241,1.241,0,0,1-.8.174,1.108,1.108,0,0,1-.664-.485c-.149-.2-.264-.408-.4-.573a1.242,1.242,0,0,0-.95-.474,1.732,1.732,0,0,0-.986.311c-.01-.008.044-.106.2-.227a1.371,1.371,0,0,1,.787-.259,1.4,1.4,0,0,1,1.126.5c.152.18.273.386.414.573a.888.888,0,0,0,.517.387c.437.077.839-.317,1.3-.447a1.773,1.773,0,0,1,1.23.089C149.723,298.961,149.875,299.437,149.85,299.431Z" transform="translate(-143.491 -297.549)" fill="#fafafa"/>
          </g>
          <g id="Grupo_115024" data-name="Grupo 115024" transform="translate(16.887 16.368)">
            <path id="Trazado_172824" data-name="Trazado 172824" d="M124.095,313.252a2.414,2.414,0,0,0-.854-.613,1.663,1.663,0,0,0-1.1-.034,4.464,4.464,0,0,0-.613.3,1.238,1.238,0,0,1-.8.174,1.109,1.109,0,0,1-.665-.485c-.149-.2-.263-.408-.4-.573a1.245,1.245,0,0,0-.95-.474,1.729,1.729,0,0,0-.986.311c-.01-.008.044-.106.2-.227a1.37,1.37,0,0,1,.787-.259,1.4,1.4,0,0,1,1.126.5c.153.181.273.386.414.573a.885.885,0,0,0,.518.387c.437.077.839-.317,1.3-.447a1.776,1.776,0,0,1,1.23.09C123.968,312.782,124.12,313.257,124.095,313.252Z" transform="translate(-117.736 -311.369)" fill="#fafafa"/>
          </g>
          <g id="Grupo_115025" data-name="Grupo 115025" transform="translate(28.235 17.913)">
            <path id="Trazado_172825" data-name="Trazado 172825" d="M148.049,315.1a2.435,2.435,0,0,0-1.007-.3,1.658,1.658,0,0,0-1.047.322,4.4,4.4,0,0,0-.483.481,1.242,1.242,0,0,1-.7.423,1.108,1.108,0,0,1-.786-.245c-.208-.145-.382-.3-.56-.414a1.243,1.243,0,0,0-1.052-.141,1.734,1.734,0,0,0-.832.613c-.012,0,.007-.114.116-.279a1.371,1.371,0,0,1,.661-.5,1.4,1.4,0,0,1,1.228.113c.2.122.384.277.577.408a.887.887,0,0,0,.615.2c.439-.069.692-.572,1.082-.843a1.773,1.773,0,0,1,1.192-.313A1.286,1.286,0,0,1,148.049,315.1Z" transform="translate(-141.577 -314.615)" fill="#fafafa"/>
          </g>
          <g id="Grupo_115026" data-name="Grupo 115026" transform="translate(24.449 23.14)">
            <path id="Trazado_172826" data-name="Trazado 172826" d="M140.1,326.084a2.422,2.422,0,0,0-1.007-.3,1.664,1.664,0,0,0-1.047.322,4.413,4.413,0,0,0-.483.481,1.242,1.242,0,0,1-.7.423,1.11,1.11,0,0,1-.786-.244c-.208-.146-.382-.3-.56-.414a1.243,1.243,0,0,0-1.052-.141,1.73,1.73,0,0,0-.832.613c-.012,0,.007-.114.116-.279a1.368,1.368,0,0,1,.661-.5,1.4,1.4,0,0,1,1.228.113c.2.121.384.277.577.407a.885.885,0,0,0,.615.2c.439-.069.692-.572,1.082-.842a1.77,1.77,0,0,1,1.192-.313A1.283,1.283,0,0,1,140.1,326.084Z" transform="translate(-133.624 -325.598)" fill="#fafafa"/>
          </g>
          <g id="Grupo_115027" data-name="Grupo 115027" transform="translate(16.548 34.794)">
            <path id="Trazado_172827" data-name="Trazado 172827" d="M123.4,351.89a2.418,2.418,0,0,0-.863-.6,1.662,1.662,0,0,0-1.1-.019,4.51,4.51,0,0,0-.609.307,1.237,1.237,0,0,1-.8.185,1.106,1.106,0,0,1-.672-.476c-.152-.2-.269-.4-.4-.567a1.244,1.244,0,0,0-.957-.46,1.735,1.735,0,0,0-.981.325c-.01-.008.042-.106.2-.229a1.369,1.369,0,0,1,.783-.27,1.4,1.4,0,0,1,1.133.488c.155.179.278.383.422.566a.883.883,0,0,0,.523.38c.439.07.835-.329,1.29-.465a1.773,1.773,0,0,1,1.231.072C123.269,351.422,123.428,351.9,123.4,351.89Z" transform="translate(-117.024 -350.083)" fill="#fafafa"/>
          </g>
          <g id="Grupo_115028" data-name="Grupo 115028" transform="translate(25.8 38.858)">
            <path id="Trazado_172828" data-name="Trazado 172828" d="M142.942,359.125a2.427,2.427,0,0,0-1-.317,1.663,1.663,0,0,0-1.051.307,4.505,4.505,0,0,0-.49.475,1.241,1.241,0,0,1-.706.414,1.11,1.11,0,0,1-.782-.255c-.206-.149-.377-.307-.554-.422a1.246,1.246,0,0,0-1.05-.156,1.73,1.73,0,0,0-.841.6c-.012,0,.009-.114.12-.278a1.371,1.371,0,0,1,.668-.491,1.4,1.4,0,0,1,1.226.13c.2.124.38.283.571.416a.885.885,0,0,0,.612.208c.44-.063.7-.562,1.093-.828a1.771,1.771,0,0,1,1.2-.3A1.283,1.283,0,0,1,142.942,359.125Z" transform="translate(-136.462 -358.623)" fill="#fafafa"/>
          </g>
          <g id="Grupo_115033" data-name="Grupo 115033">
            <g id="Grupo_115031" data-name="Grupo 115031">
              <g id="Grupo_115030" data-name="Grupo 115030">
                <path id="Trazado_172829" data-name="Trazado 172829" d="M83.712,276.979c.289.34,10.753,14.333,10.753,14.333l-1.473.835L82.254,278.332Z" transform="translate(-82.254 -276.979)" fill="#263238"/>
                <path id="Trazado_172830" data-name="Trazado 172830" d="M128.226,294.228s-9.815,16.926-10.478,17.237c-1.306.613-16.367-12.4-17.8-13.646-.2-.265-.606-.822-1.409-1.932,0,0-1.188-5.437-2.456-5.02s.694,2.763-.131,4.829-4.608-2.862-4.759-3.3l-.975-1.274a16.738,16.738,0,0,0-.954,4.11c.222,3.879,3.892,8.493,3.892,8.493s14.913,18.687,26.2,19.321c3.252.182,9.463-9.179,13.326-16.1,2.333-4.178,1.25-8.422-2.616-11.241Z" transform="translate(-85.924 -284.245)" fill="#ffbe9d"/>
                <g id="Grupo_115029" data-name="Grupo 115029" transform="translate(3.767 8.805)">
                  <path id="Trazado_172831" data-name="Trazado 172831" d="M91.591,298.347a8.934,8.934,0,0,1-1.419-2.867,15.979,15.979,0,0,1,.713,1.432C91.275,297.7,91.628,298.324,91.591,298.347Z" transform="translate(-90.169 -295.479)" fill="#eb996e"/>
                </g>
              </g>
            </g>
            <path id="Trazado_172832" data-name="Trazado 172832" d="M159.688,288.061c-.388.233-9.515,17.176-9.515,17.176l11.748,9.2a136.065,136.065,0,0,0,4.668-13.649,19.612,19.612,0,0,0-.405-7.813c-.878-2.434-2.2-1.828-4.183-3.253Z" transform="translate(-117.847 -282.787)" fill="#5000a1"/>
            <g id="Grupo_115032" data-name="Grupo 115032" transform="translate(32.17 4.785)" opacity="0.7">
              <path id="Trazado_172833" data-name="Trazado 172833" d="M163.375,287.522c-.007.01-.115-.065-.335-.175a1.972,1.972,0,0,0-1.033-.217,2.817,2.817,0,0,0-1.533.64,7.609,7.609,0,0,0-1.529,1.647c-.5.676-.906,1.5-1.407,2.362l-1.57,2.756-3.611,6.307-2.252,3.915-.03-.154,7.949,6.281,2.306,1.851.611.5a1.3,1.3,0,0,1,.2.186,1.355,1.355,0,0,1-.229-.152l-.636-.473-2.35-1.8-8-6.213-.082-.064.052-.091,2.245-3.918,3.627-6.3,1.589-2.744a27.181,27.181,0,0,1,1.446-2.366,7.616,7.616,0,0,1,1.589-1.656,2.882,2.882,0,0,1,1.612-.625,1.944,1.944,0,0,1,1.06.269,1.724,1.724,0,0,1,.238.157C163.353,287.5,163.378,287.519,163.375,287.522Z" transform="translate(-149.845 -287.032)"/>
            </g>
          </g>
          <g id="Grupo_115034" data-name="Grupo 115034" transform="translate(35.832 19.279)">
            <path id="Trazado_172834" data-name="Trazado 172834" d="M163.9,319.369a2.433,2.433,0,0,0-.855-.613,1.664,1.664,0,0,0-1.1-.034,4.578,4.578,0,0,0-.613.3,1.241,1.241,0,0,1-.8.174,1.109,1.109,0,0,1-.664-.486c-.149-.2-.264-.408-.4-.573a1.246,1.246,0,0,0-.95-.474,1.734,1.734,0,0,0-.986.311c-.01-.008.044-.106.2-.227a1.371,1.371,0,0,1,.787-.259,1.4,1.4,0,0,1,1.125.5c.153.181.273.386.414.573a.886.886,0,0,0,.517.387c.437.077.839-.316,1.3-.447a1.773,1.773,0,0,1,1.23.089C163.773,318.9,163.925,319.374,163.9,319.369Z" transform="translate(-157.541 -317.486)" fill="#fafafa"/>
          </g>
          <g id="Grupo_115035" data-name="Grupo 115035" transform="translate(41.815 15.664)">
            <path id="Trazado_172835" data-name="Trazado 172835" d="M175.857,313.2a2.429,2.429,0,0,0-.658-.82,1.661,1.661,0,0,0-1.046-.328,4.49,4.49,0,0,0-.671.123,1.241,1.241,0,0,1-.816-.049,1.108,1.108,0,0,1-.509-.647c-.089-.237-.144-.464-.227-.658a1.245,1.245,0,0,0-.787-.713,1.731,1.731,0,0,0-1.033.034c-.007-.01.071-.09.254-.165a1.371,1.371,0,0,1,.828-.037,1.4,1.4,0,0,1,.948.789c.1.215.158.446.244.663a.887.887,0,0,0,.394.513c.4.192.893-.079,1.368-.081a1.773,1.773,0,0,1,1.16.418A1.284,1.284,0,0,1,175.857,313.2Z" transform="translate(-170.11 -309.89)" fill="#fafafa"/>
          </g>
          <g id="Grupo_115036" data-name="Grupo 115036" transform="translate(42.091 8.66)">
            <path id="Trazado_172836" data-name="Trazado 172836" d="M176.437,298.481a2.421,2.421,0,0,0-.658-.821,1.662,1.662,0,0,0-1.045-.328,4.4,4.4,0,0,0-.671.122,1.239,1.239,0,0,1-.817-.048,1.108,1.108,0,0,1-.509-.647c-.089-.237-.144-.464-.227-.659a1.243,1.243,0,0,0-.787-.712,1.727,1.727,0,0,0-1.033.033c-.007-.01.07-.09.254-.165a1.373,1.373,0,0,1,.828-.037,1.4,1.4,0,0,1,.948.79c.1.215.159.445.244.662a.885.885,0,0,0,.394.513c.4.192.894-.079,1.369-.081a1.773,1.773,0,0,1,1.16.418A1.281,1.281,0,0,1,176.437,298.481Z" transform="translate(-170.69 -295.174)" fill="#fafafa"/>
          </g>
          <g id="Grupo_115037" data-name="Grupo 115037" transform="translate(39.491 24.761)">
            <path id="Trazado_172837" data-name="Trazado 172837" d="M170.976,332.311a2.428,2.428,0,0,0-.658-.821,1.662,1.662,0,0,0-1.046-.328,4.484,4.484,0,0,0-.671.122,1.238,1.238,0,0,1-.816-.048,1.109,1.109,0,0,1-.509-.647c-.089-.237-.144-.464-.227-.659a1.244,1.244,0,0,0-.787-.713,1.731,1.731,0,0,0-1.033.033c-.008-.01.07-.089.254-.164a1.367,1.367,0,0,1,.828-.038,1.4,1.4,0,0,1,.948.79c.1.215.158.446.244.663a.887.887,0,0,0,.394.513c.4.192.893-.079,1.368-.081a1.776,1.776,0,0,1,1.16.418A1.284,1.284,0,0,1,170.976,332.311Z" transform="translate(-165.229 -329.004)" fill="#fafafa"/>
          </g>
        </g>
      </g>
    </g>
  </g>
</svg>
