<svg xmlns="http://www.w3.org/2000/svg" width="211.903" height="189.232" viewBox="0 0 211.903 189.232">
  <g id="Grupo_115260" data-name="Grupo 115260" transform="translate(-34.695 -44.604)">
    <g id="Background_Complete" data-name="Background Complete" transform="translate(52.648 44.605)">
      <g id="Grupo_115049" data-name="Grupo 115049" transform="translate(163.88 82.184)">
        <g id="Grupo_115041" data-name="Grupo 115041" transform="translate(0 0)">
          <rect id="Rectángulo_37216" data-name="Rectángulo 37216" width="17.215" height="25.541" transform="matrix(0.366, -0.931, 0.931, 0.366, 0, 16.021)" fill="#ebebeb"/>
        </g>
        <g id="Grupo_115044" data-name="Grupo 115044" transform="translate(6.3 0.222)">
          <g id="Grupo_115043" data-name="Grupo 115043">
            <g id="Grupo_115042" data-name="Grupo 115042">
              <path id="Trazado_172838" data-name="Trazado 172838" d="M413.405,251.014a1.766,1.766,0,0,1-.305.126l-.89.32-3.289,1.136-10.905,3.674-.09.03-.048-.083-.114-.2-5.79-10.124-1.731-3.081-.461-.843a1.811,1.811,0,0,1-.147-.3,1.886,1.886,0,0,1,.188.279l.5.822,1.8,3.044,5.849,10.09.114.2-.137-.052,10.927-3.609,3.312-1.066.9-.279A1.774,1.774,0,0,1,413.405,251.014Z" transform="translate(-389.636 -241.668)" fill="#e0e0e0"/>
            </g>
          </g>
        </g>
        <g id="Grupo_115046" data-name="Grupo 115046" transform="translate(0 9.776)">
          <g id="Grupo_115045" data-name="Grupo 115045">
            <path id="Trazado_172839" data-name="Trazado 172839" d="M375.594,269.431c-.03-.057,2.621-1.55,5.92-3.335s6-3.187,6.031-3.131-2.62,1.549-5.921,3.335S375.624,269.487,375.594,269.431Z" transform="translate(-375.593 -262.963)" fill="#e0e0e0"/>
          </g>
        </g>
        <g id="Grupo_115048" data-name="Grupo 115048" transform="translate(19.929 12.684)">
          <g id="Grupo_115047" data-name="Grupo 115047">
            <path id="Trazado_172840" data-name="Trazado 172840" d="M420.019,269.446c.061-.018.97,2.856,2.03,6.42s1.869,6.468,1.808,6.487-.97-2.856-2.03-6.421S419.957,269.464,420.019,269.446Z" transform="translate(-420.016 -269.446)" fill="#e0e0e0"/>
          </g>
        </g>
      </g>
      <g id="Grupo_115058" data-name="Grupo 115058" transform="translate(49.775 155.604)">
        <g id="Grupo_115050" data-name="Grupo 115050">
          <rect id="Rectángulo_37217" data-name="Rectángulo 37217" width="25.541" height="17.215" transform="matrix(0.895, -0.447, 0.447, 0.895, 0, 11.407)" fill="#ebebeb"/>
        </g>
        <g id="Grupo_115053" data-name="Grupo 115053" transform="translate(0.165 0.149)">
          <g id="Grupo_115052" data-name="Grupo 115052">
            <g id="Grupo_115051" data-name="Grupo 115051">
              <path id="Trazado_172841" data-name="Trazado 172841" d="M186.819,391.788a1.778,1.778,0,0,1-.111.311l-.358.875-1.357,3.2-4.568,10.562-.038.087-.093-.02-.225-.048-11.4-2.473-3.448-.776-.935-.223a1.816,1.816,0,0,1-.323-.093,1.888,1.888,0,0,1,.333.047l.944.18,3.464.7,11.412,2.407.225.048-.131.067,4.631-10.535,1.424-3.175.4-.858A1.735,1.735,0,0,1,186.819,391.788Z" transform="translate(-163.967 -391.788)" fill="#e0e0e0"/>
            </g>
          </g>
        </g>
        <g id="Grupo_115055" data-name="Grupo 115055" transform="translate(7.85 13.751)">
          <g id="Grupo_115054" data-name="Grupo 115054">
            <path id="Trazado_172842" data-name="Trazado 172842" d="M181.1,435.315c-.062-.015.6-2.984,1.484-6.631s1.647-6.592,1.71-6.577-.6,2.984-1.484,6.632S181.163,435.33,181.1,435.315Z" transform="translate(-181.097 -422.107)" fill="#e0e0e0"/>
          </g>
        </g>
        <g id="Grupo_115057" data-name="Grupo 115057" transform="translate(18.547 9.764)">
          <g id="Grupo_115056" data-name="Grupo 115056">
            <path id="Trazado_172843" data-name="Trazado 172843" d="M204.942,413.224c.028-.058,2.772,1.191,6.129,2.788s6.057,2.94,6.03,3-2.772-1.19-6.13-2.788S204.914,413.282,204.942,413.224Z" transform="translate(-204.942 -413.222)" fill="#e0e0e0"/>
          </g>
        </g>
      </g>
      <g id="Grupo_115082" data-name="Grupo 115082" transform="translate(0 38.839)">
        <g id="Grupo_115061" data-name="Grupo 115061" transform="translate(0 0)">
          <g id="Grupo_115060" data-name="Grupo 115060">
            <g id="Grupo_115059" data-name="Grupo 115059">
              <path id="Trazado_172844" data-name="Trazado 172844" d="M87.74,190.13c8.683-5.8,10.8-16.762,10.617-26.65-.031-1.651.179-3.388-.593-4.847s-2.613-2.476-4.121-1.8c-1.25.558-1.813,1.975-2.527,3.144a9.734,9.734,0,0,1-3.977,3.637,3.767,3.767,0,0,1-3.437.255c-1.43-.807-1.569-2.775-1.533-4.417q.1-4.586.2-9.173a15.089,15.089,0,0,0-.426-4.881,5.113,5.113,0,0,0-3.187-3.49,3.137,3.137,0,0,0-3.9,2.011,14.87,14.87,0,0,0-.079,2.043,1.729,1.729,0,0,1-1.049,1.61,2.025,2.025,0,0,1-1.814-.781,21.793,21.793,0,0,1-3.877-5.973,30.212,30.212,0,0,0-3.606-6.157,9.016,9.016,0,0,0-6.04-3.463,5.388,5.388,0,0,0-5.576,3.542c-.64,2.3.692,4.671,2.151,6.566a36.866,36.866,0,0,0,7.614,7.385,3.028,3.028,0,0,1,1.271,1.391c.344,1.1-.724,2.17-1.823,2.514a19.529,19.529,0,0,1-3.887.373,3.75,3.75,0,0,0-3.222,1.876c-.707,1.668.688,3.447,2.068,4.619a31.886,31.886,0,0,0,9.326,5.5,10.789,10.789,0,0,1,3.47,1.729,3.012,3.012,0,0,1,.932,3.493,3.155,3.155,0,0,1-3.427,1.241,22.292,22.292,0,0,1-3.627-1.43c-2.271-.885-5.225-.774-6.718,1.153a5.137,5.137,0,0,0-.632,4.584,11.94,11.94,0,0,0,2.457,4.093,31.951,31.951,0,0,0,13.5,9.672c5.272,1.893,10.176,2.457,15.472.635" transform="translate(-52.648 -131.18)" fill="#ebebeb"/>
            </g>
          </g>
        </g>
        <g id="Grupo_115065" data-name="Grupo 115065" transform="translate(2.602 1.341)">
          <g id="Grupo_115064" data-name="Grupo 115064">
            <g id="Grupo_115063" data-name="Grupo 115063">
              <g id="Grupo_115062" data-name="Grupo 115062">
                <path id="Trazado_172845" data-name="Trazado 172845" d="M88.424,185.55a146.141,146.141,0,0,0-5.669-15.915q-.862-2.074-1.7-4.1c-.561-1.344-1.118-2.675-1.745-3.945a73.289,73.289,0,0,0-4.021-7.092c-1.39-2.195-2.79-4.227-4.112-6.12s-2.6-3.628-3.824-5.164a58.9,58.9,0,0,0-6.325-6.816c-.808-.745-1.453-1.3-1.895-1.676l-.5-.421c-.115-.094-.178-.137-.178-.137s.052.056.161.156l.489.439c.431.385,1.065.954,1.862,1.709a61.588,61.588,0,0,1,6.253,6.854c1.215,1.539,2.475,3.28,3.793,5.173s2.706,3.931,4.088,6.125a73.786,73.786,0,0,1,4,7.076c.622,1.265,1.174,2.587,1.735,3.934l1.7,4.1A148.966,148.966,0,0,1,88.2,185.613" transform="translate(-58.447 -134.169)" fill="#e0e0e0"/>
              </g>
            </g>
          </g>
        </g>
        <g id="Grupo_115069" data-name="Grupo 115069" transform="translate(23.395 10.724)">
          <g id="Grupo_115068" data-name="Grupo 115068">
            <g id="Grupo_115067" data-name="Grupo 115067">
              <g id="Grupo_115066" data-name="Grupo 115066">
                <path id="Trazado_172846" data-name="Trazado 172846" d="M104.8,173.1a3.964,3.964,0,0,0,.162-.7c.091-.453.2-1.111.329-1.926.255-1.631.534-3.894.835-6.391s.618-4.751.908-6.373c.143-.812.266-1.467.358-1.918a3.992,3.992,0,0,0,.114-.709,3.988,3.988,0,0,0-.209.687c-.121.445-.271,1.1-.436,1.907-.336,1.618-.681,3.875-.983,6.375l-.763,6.4c-.1.783-.186,1.433-.251,1.936A3.938,3.938,0,0,0,104.8,173.1Z" transform="translate(-104.797 -155.085)" fill="#e0e0e0"/>
              </g>
            </g>
          </g>
        </g>
        <g id="Grupo_115073" data-name="Grupo 115073" transform="translate(2.086 24.468)">
          <g id="Grupo_115072" data-name="Grupo 115072">
            <g id="Grupo_115071" data-name="Grupo 115071">
              <g id="Grupo_115070" data-name="Grupo 115070">
                <path id="Trazado_172847" data-name="Trazado 172847" d="M57.3,185.732a.779.779,0,0,0,.219.039l.632.063c.549.052,1.342.127,2.319.251,1.955.232,4.645.651,7.591,1.244s5.588,1.256,7.484,1.789c.95.26,1.713.491,2.241.649l.609.179a.725.725,0,0,0,.218.046.768.768,0,0,0-.2-.094l-.6-.223c-.519-.186-1.276-.444-2.222-.726-1.888-.576-4.531-1.262-7.484-1.863s-5.655-.987-7.621-1.176c-.982-.1-1.78-.15-2.331-.173l-.636-.018A.748.748,0,0,0,57.3,185.732Z" transform="translate(-57.298 -185.721)" fill="#e0e0e0"/>
              </g>
            </g>
          </g>
        </g>
        <g id="Grupo_115077" data-name="Grupo 115077" transform="translate(32.346 25.54)">
          <g id="Grupo_115076" data-name="Grupo 115076" transform="translate(0)">
            <g id="Grupo_115075" data-name="Grupo 115075">
              <g id="Grupo_115074" data-name="Grupo 115074">
                <path id="Trazado_172848" data-name="Trazado 172848" d="M124.75,214.893a1.336,1.336,0,0,0,.145-.258l.373-.76c.322-.66.764-1.628,1.294-2.83,1.064-2.4,2.432-5.767,3.893-9.5s2.8-7.1,3.824-9.521l1.221-2.859c.135-.318.244-.576.33-.778a1.3,1.3,0,0,0,.1-.279,1.348,1.348,0,0,0-.145.258l-.372.76c-.322.66-.763,1.628-1.294,2.83-1.065,2.4-2.432,5.767-3.894,9.5s-2.8,7.1-3.824,9.52c-.506,1.185-.921,2.155-1.221,2.859l-.33.779A1.33,1.33,0,0,0,124.75,214.893Z" transform="translate(-124.749 -188.11)" fill="#e0e0e0"/>
              </g>
            </g>
          </g>
        </g>
        <g id="Grupo_115081" data-name="Grupo 115081" transform="translate(4.083 42.863)">
          <g id="Grupo_115080" data-name="Grupo 115080">
            <g id="Grupo_115079" data-name="Grupo 115079">
              <g id="Grupo_115078" data-name="Grupo 115078">
                <path id="Trazado_172849" data-name="Trazado 172849" d="M61.749,226.725a1.486,1.486,0,0,0,.281.113l.823.279,3.03,1.01c2.556.855,6.074,2.08,9.956,3.443s7.413,2.563,9.986,3.376c1.287.408,2.33.727,3.055.935l.836.236a1.383,1.383,0,0,0,.3.066,1.4,1.4,0,0,0-.282-.114l-.822-.28-3.03-1.009c-2.557-.856-6.074-2.082-9.958-3.444s-7.412-2.563-9.984-3.376c-1.287-.407-2.33-.727-3.056-.934l-.836-.236A1.355,1.355,0,0,0,61.749,226.725Z" transform="translate(-61.749 -226.723)" fill="#e0e0e0"/>
              </g>
            </g>
          </g>
        </g>
      </g>
      <g id="Grupo_115083" data-name="Grupo 115083" transform="translate(-17.953)">
        <rect id="Rectángulo_37218" data-name="Rectángulo 37218" width="31.627" height="18.821" rx="7.038" fill="#e0e0e0"/>
        <path id="Trazado_172850" data-name="Trazado 172850" d="M111.243,85.219l7.478,6.64.614-6.523" transform="translate(-92.003 -66.999)" fill="#e0e0e0"/>
        <path id="Trazado_172851" data-name="Trazado 172851" d="M89.909,63.913a1.842,1.842,0,1,1-1.842-1.842A1.842,1.842,0,0,1,89.909,63.913Z" transform="translate(-78.209 -54.235)" fill="#fff"/>
        <path id="Trazado_172852" data-name="Trazado 172852" d="M104.037,63.913a1.842,1.842,0,1,1-1.842-1.842A1.842,1.842,0,0,1,104.037,63.913Z" transform="translate(-85.999 -54.235)" fill="#fff"/>
        <path id="Trazado_172853" data-name="Trazado 172853" d="M118.165,63.913a1.842,1.842,0,1,1-1.842-1.842A1.842,1.842,0,0,1,118.165,63.913Z" transform="translate(-93.789 -54.235)" fill="#fff"/>
      </g>
      <g id="Grupo_115092" data-name="Grupo 115092" transform="translate(139.817 14.174)">
        <g id="Grupo_115084" data-name="Grupo 115084">
          <rect id="Rectángulo_37219" data-name="Rectángulo 37219" width="17.215" height="25.541" transform="translate(0 16.021) rotate(-68.535)" fill="#ebebeb"/>
        </g>
        <g id="Grupo_115087" data-name="Grupo 115087" transform="translate(6.299 0.222)">
          <g id="Grupo_115086" data-name="Grupo 115086">
            <g id="Grupo_115085" data-name="Grupo 115085">
              <path id="Trazado_172854" data-name="Trazado 172854" d="M359.769,99.417a1.758,1.758,0,0,1-.306.127l-.89.319L355.285,101l-10.905,3.675-.09.03-.047-.082-.115-.2L338.338,94.3l-1.732-3.082-.46-.843a1.851,1.851,0,0,1-.147-.3,1.788,1.788,0,0,1,.187.279l.5.822,1.8,3.045,5.848,10.09.114.2-.137-.052,10.927-3.609,3.313-1.066.9-.279A1.809,1.809,0,0,1,359.769,99.417Z" transform="translate(-335.999 -90.071)" fill="#e0e0e0"/>
            </g>
          </g>
        </g>
        <g id="Grupo_115089" data-name="Grupo 115089" transform="translate(0 9.776)">
          <g id="Grupo_115088" data-name="Grupo 115088">
            <path id="Trazado_172855" data-name="Trazado 172855" d="M321.958,117.834c-.03-.056,2.62-1.55,5.92-3.335s6-3.187,6.031-3.131-2.62,1.549-5.921,3.335S321.988,117.89,321.958,117.834Z" transform="translate(-321.957 -111.366)" fill="#e0e0e0"/>
          </g>
        </g>
        <g id="Grupo_115091" data-name="Grupo 115091" transform="translate(19.928 12.684)">
          <g id="Grupo_115090" data-name="Grupo 115090">
            <path id="Trazado_172856" data-name="Trazado 172856" d="M366.382,117.848c.061-.018.97,2.856,2.03,6.42s1.869,6.468,1.808,6.487-.97-2.856-2.03-6.42S366.32,117.866,366.382,117.848Z" transform="translate(-366.379 -117.848)" fill="#e0e0e0"/>
          </g>
        </g>
      </g>
    </g>
    <g id="Speech_bubbles" data-name="Speech bubbles" transform="translate(72.661 104.502)">
      <g id="Grupo_115098" data-name="Grupo 115098" transform="translate(0)">
        <circle id="Elipse_4193" data-name="Elipse 4193" cx="5.788" cy="5.788" r="5.788" transform="translate(66.279 24.672)" fill="#e8505b"/>
        <circle id="Elipse_4194" data-name="Elipse 4194" cx="5.788" cy="5.788" r="5.788" transform="translate(86.198 24.672)" fill="#5000a1"/>
        <g id="Grupo_115094" data-name="Grupo 115094" transform="translate(36.189)">
          <g id="Grupo_115093" data-name="Grupo 115093">
            <path id="Trazado_172857" data-name="Trazado 172857" d="M272.241,178.636a1.168,1.168,0,0,1,.34-.02,4.54,4.54,0,0,1,1,.11,5.421,5.421,0,0,1,1.556.584,5.77,5.77,0,0,1,2.885,4.181,6.637,6.637,0,0,1,.071.829q0,.413.009.844.007.862.017,1.795c.019,2.488.04,5.349.065,8.558.031,6.419.07,14.227.114,23.211q.012,3.369.025,6.956.006,1.793.012,3.637,0,.923.006,1.857,0,.468,0,.938a6.92,6.92,0,0,1-.087,1.012,6.11,6.11,0,0,1-5.824,5.114l-8.173.03.483-.44c-.529,5.746-1.087,11.814-1.667,18.114l-.091.983-.763-.629-21.942-18.08.358.129-44.96.022h-10.61c-.358,0-.686.008-1.067-.008a6.626,6.626,0,0,1-1.148-.134,6.246,6.246,0,0,1-4.724-4.544,8,8,0,0,1-.2-2.2q0-2.067,0-4.118,0-4.1.005-8.135c.012-10.754.023-21.128.034-31.01q0-1.853.005-3.682a6.611,6.611,0,0,1,.248-1.949,6.428,6.428,0,0,1,.84-1.784,6.211,6.211,0,0,1,3.062-2.336,6.019,6.019,0,0,1,1.9-.343c.613-.013,1.183,0,1.774,0l13.62.03,24.447.071,35.4.186,9.624.109,2.5.058a4.645,4.645,0,0,1,.853.06,4.608,4.608,0,0,1-.853.06l-2.5.058-9.624.109-35.4.186-24.447.071-13.62.029c-.58,0-1.185,0-1.75.01a4.989,4.989,0,0,0-1.577.291,5.166,5.166,0,0,0-2.538,1.95,5.264,5.264,0,0,0-.891,3.138q0,1.83.006,3.682c.011,9.882.022,20.256.034,31.01q0,4.033,0,8.135,0,2.051,0,4.118a6.829,6.829,0,0,0,.168,1.91,5.085,5.085,0,0,0,3.844,3.7,5.48,5.48,0,0,0,.934.108c.319.015.692,0,1.035.007h10.61l44.96.022h.2l.155.129,21.893,18.141-.854.354c.606-6.3,1.189-12.363,1.741-18.107l.043-.441h.441l8.144.012a5.206,5.206,0,0,0,4.98-4.33,6.041,6.041,0,0,0,.08-.867q0-.47,0-.938,0-.935.006-1.857.006-1.844.012-3.637.013-3.585.025-6.956c.044-8.984.083-16.792.114-23.211.024-3.209.046-6.07.065-8.558q.009-.933.017-1.795,0-.431.009-.844a6.3,6.3,0,0,0-.05-.78,5.4,5.4,0,0,0-1.02-2.554,5.639,5.639,0,0,0-3.1-2.116C272.7,178.655,272.239,178.679,272.241,178.636Z" transform="translate(-177.925 -178.12)" fill="#5000a1"/>
          </g>
        </g>
        <g id="Grupo_115095" data-name="Grupo 115095" transform="translate(0 29.318)">
          <rect id="Rectángulo_37220" data-name="Rectángulo 37220" width="99.397" height="59.151" rx="13.395" fill="#00ceeb"/>
          <path id="Trazado_172858" data-name="Trazado 172858" d="M232.043,371.112l23.5,20.869,1.929-20.5" transform="translate(-171.576 -313.85)" fill="#00ceeb"/>
          <circle id="Elipse_4195" data-name="Elipse 4195" cx="5.788" cy="5.788" r="5.788" transform="translate(25.196 24.625)" fill="#fff"/>
          <circle id="Elipse_4196" data-name="Elipse 4196" cx="5.788" cy="5.788" r="5.788" transform="translate(45.115 24.625)" fill="#fff"/>
          <circle id="Elipse_4197" data-name="Elipse 4197" cx="5.788" cy="5.788" r="5.788" transform="translate(65.034 24.625)" fill="#fff"/>
        </g>
        <g id="Grupo_115096" data-name="Grupo 115096" transform="translate(14.112 29.3)" opacity="0.3">
          <path id="Trazado_172859" data-name="Trazado 172859" d="M210.3,243.706l-9.343-.275-72.237.018c6,5.968,14.585,9.166,23.018,9.9s16.9-.549,25.243-1.993,16.716-3.06,25.181-3a13.935,13.935,0,0,0,5.3-.571C209.115,247.127,210.54,245.477,210.3,243.706Z" transform="translate(-128.716 -243.431)"/>
        </g>
        <g id="Grupo_115097" data-name="Grupo 115097" transform="translate(106.117 24.672)">
          <circle id="Elipse_4198" data-name="Elipse 4198" cx="5.788" cy="5.788" r="5.788" fill="#5000a1"/>
        </g>
      </g>
    </g>
    <g id="Character" transform="translate(85.798 48.68)">
      <g id="Grupo_115225" data-name="Grupo 115225" transform="translate(0)">
        <path id="Trazado_172860" data-name="Trazado 172860" d="M207.44,56.341a11.041,11.041,0,0,0-10.386,7.782c-.657,2.3-.528,4.753-.947,7.11s-1.611,4.83-3.85,5.68c-1.458.553-3.127.324-4.576.9A4.346,4.346,0,0,0,186.3,85a5.063,5.063,0,0,0,4.885,8.643,3.891,3.891,0,0,0,.415,4.369,6.051,6.051,0,0,0,4.073,2.054,14.174,14.174,0,0,0,4.641-.418c3.4-.751,6.811-1.963,9.366-4.326,2.806-2.594,4.29-6.3,5.414-9.949,2.148-6.977,3.291-14.489,1.535-21.575" transform="translate(-158.544 -55.151)" fill="#263238"/>
        <g id="Grupo_115109" data-name="Grupo 115109" transform="translate(9.62 18.534)">
          <g id="Grupo_115104" data-name="Grupo 115104">
            <g id="Grupo_115103" data-name="Grupo 115103">
              <path id="Trazado_172861" data-name="Trazado 172861" d="M173.091,121.08l-3.78,8.268-8.279-18.254c-.392-1.474-.827-3.14-.917-3.472a4.618,4.618,0,0,1-.14-1.562,7.045,7.045,0,0,1,.349-1.923c.245-.55-.305-1.113-.78-.842s-1.189,1.77-1.167,3.709-6.649-2.661-7.732-1.572l.809,6.414c.733.668,2.8,2.511,3.942,3.532L163.2,134.8a6.67,6.67,0,0,0,12.065.991l5.027-8.868Z" transform="translate(-149.453 -99.536)" fill="#ffbe9d"/>
              <g id="Grupo_115102" data-name="Grupo 115102">
                <g id="Grupo_115101" data-name="Grupo 115101">
                  <g id="Grupo_115099" data-name="Grupo 115099">
                    <path id="Trazado_172862" data-name="Trazado 172862" d="M154.089,95.019a.25.25,0,0,1,.324.177l4.292,12.743a.521.521,0,0,1-.2.619l-5.1,2.861a.389.389,0,0,1-.554-.245l-4.827-13.21a.513.513,0,0,1,.245-.649Z" transform="translate(-147.987 -95.003)" fill="#263238"/>
                  </g>
                  <g id="Grupo_115100" data-name="Grupo 115100" transform="translate(0.803 0.936)">
                    <path id="Trazado_172863" data-name="Trazado 172863" d="M155.215,97.089l3.948,11.37-5.048,2.689-4.339-11.9Z" transform="translate(-149.777 -97.089)" fill="#f5f5f5"/>
                  </g>
                </g>
              </g>
              <path id="Trazado_172864" data-name="Trazado 172864" d="M151.9,101.182c.154.388.405,1.016.562,1.406a.369.369,0,0,0,.486.2l2.68-1.126.927.137-.26-.493.306-.122a.369.369,0,0,0,.2-.489l-.548-1.279a.37.37,0,0,0-.478-.2L152.1,100.7A.37.37,0,0,0,151.9,101.182Z" transform="translate(-150.13 -97.315)" fill="#e0e0e0"/>
              <path id="Trazado_172865" data-name="Trazado 172865" d="M157,116.153c.154.388.405,1.016.561,1.406a.369.369,0,0,0,.486.2l2.68-1.126.927.137-.26-.493.305-.122a.369.369,0,0,0,.2-.489l-.548-1.279a.37.37,0,0,0-.478-.2l-3.67,1.482A.37.37,0,0,0,157,116.153Z" transform="translate(-152.945 -105.569)" fill="#e0e0e0"/>
              <path id="Trazado_172866" data-name="Trazado 172866" d="M158.63,106.894c.169.381.441,1,.609,1.386a.369.369,0,0,1-.2.488l-2.682,1.121-.553.757-.169-.53-.3.132a.37.37,0,0,1-.49-.2l-.527-1.287a.369.369,0,0,1,.195-.479l3.63-1.578A.37.37,0,0,1,158.63,106.894Z" transform="translate(-151.463 -101.438)" fill="#e0e0e0"/>
            </g>
          </g>
          <g id="Grupo_115105" data-name="Grupo 115105" transform="translate(1.193 6.213)">
            <path id="Trazado_172867" data-name="Trazado 172867" d="M150.646,108.852c.869.143,1.93.229,2.8.371a1.569,1.569,0,0,1,.7.234.539.539,0,0,1,.2.656c-.139.248-.481.27-.765.26-.639-.021-1.345.114-1.984.094.815.07,1.569.137,2.48.247a.857.857,0,0,1,.768.742.7.7,0,0,1-.634.636,7.567,7.567,0,0,1-1.006.016s-1.312.019-1.37.19c.819-.006,1.9.171,2.721.245.224.02.326.326.38.544a.5.5,0,0,1-.236.573.759.759,0,0,1-.323.037c-1.059-.033-1.613.035-2.672,0" transform="translate(-150.646 -108.852)" fill="#ffbe9d"/>
          </g>
          <g id="Grupo_115106" data-name="Grupo 115106" transform="translate(19.735 29.734)">
            <path id="Trazado_172868" data-name="Trazado 172868" d="M193.126,167.252a9.948,9.948,0,0,0-1.145-5.969,2.57,2.57,0,0,1,.525.755,7.363,7.363,0,0,1,.828,4.318A2.574,2.574,0,0,1,193.126,167.252Z" transform="translate(-191.977 -161.282)" fill="#eb996e"/>
          </g>
          <g id="Grupo_115107" data-name="Grupo 115107" transform="translate(1.673 9.593)">
            <path id="Trazado_172869" data-name="Trazado 172869" d="M155.343,116.816a7.46,7.46,0,0,1-1.855-.1c-.507-.049-.973-.153-1.283-.152a1.123,1.123,0,0,0-.486.138c-.011-.008,0-.065.079-.137a.708.708,0,0,1,.393-.166,7.09,7.09,0,0,1,1.324.084A7.467,7.467,0,0,1,155.343,116.816Z" transform="translate(-151.717 -116.388)" fill="#eb996e"/>
          </g>
          <g id="Grupo_115108" data-name="Grupo 115108" transform="translate(1.43 7.734)">
            <path id="Trazado_172870" data-name="Trazado 172870" d="M154.75,112.668a7.29,7.29,0,0,1-1.833-.1c-.5-.046-.964-.156-1.265-.146s-.446.182-.474.157c-.031,0,.081-.258.454-.321a2.241,2.241,0,0,1,.6,0l.709.074A7.263,7.263,0,0,1,154.75,112.668Z" transform="translate(-151.174 -112.242)" fill="#eb996e"/>
          </g>
        </g>
        <g id="Grupo_115117" data-name="Grupo 115117" transform="translate(0 62.554)">
          <g id="Grupo_115112" data-name="Grupo 115112" transform="translate(0 2.24)">
            <path id="Trazado_172871" data-name="Trazado 172871" d="M166.769,198.45s-27.3-2.061-35.2,4.121-4.121,16.142-4.121,16.142h44.648l1.717-20.593Z" transform="translate(-126.542 -198.12)" fill="#263238"/>
            <g id="Grupo_115110" data-name="Grupo 115110" transform="translate(6.967 7.333)">
              <path id="Trazado_172872" data-name="Trazado 172872" d="M180.468,221.647a2.586,2.586,0,0,1-.4-.03c-.26-.029-.644-.069-1.137-.134-.986-.124-2.411-.327-4.164-.624a119.552,119.552,0,0,1-13.531-3.13c-2.6-.769-5.064-1.549-7.341-2.111a32.249,32.249,0,0,0-6.136-.976,18.455,18.455,0,0,0-4.177.241c-.493.063-.86.186-1.118.231a2.576,2.576,0,0,1-.393.074,2.574,2.574,0,0,1,.381-.119,10.686,10.686,0,0,1,1.113-.275,17.456,17.456,0,0,1,4.2-.317,31.381,31.381,0,0,1,6.18.932c2.289.554,4.758,1.328,7.356,2.1A132.132,132.132,0,0,0,174.8,220.7c1.747.318,3.166.546,4.148.7l1.13.177A2.564,2.564,0,0,1,180.468,221.647Z" transform="translate(-142.072 -214.466)" fill="#455a64"/>
            </g>
            <g id="Grupo_115111" data-name="Grupo 115111" transform="translate(14.332 5.593)">
              <path id="Trazado_172873" data-name="Trazado 172873" d="M163.75,213.358a11.731,11.731,0,0,0-5.261-2.757,2.552,2.552,0,0,1,.888.1,8.095,8.095,0,0,1,3.788,1.985A2.559,2.559,0,0,1,163.75,213.358Z" transform="translate(-158.49 -210.588)" fill="#455a64"/>
            </g>
          </g>
          <g id="Grupo_115115" data-name="Grupo 115115" transform="translate(22.09)">
            <path id="Trazado_172874" data-name="Trazado 172874" d="M213.682,193.126s-24.977.679-32.876,6.861-4.121,16.142-4.121,16.142l46.836.725v-6.039l-6.073-.659-.045-.274c2.358-2.582.563-11.57-3.358-16.315Z" transform="translate(-175.782 -193.126)" fill="#263238"/>
            <g id="Grupo_115113" data-name="Grupo 115113" transform="translate(6.515 10.236)">
              <path id="Trazado_172875" data-name="Trazado 172875" d="M228.7,223.123a2.51,2.51,0,0,1-.4-.03c-.26-.029-.644-.069-1.137-.134-.986-.124-2.411-.327-4.164-.624a119.6,119.6,0,0,1-13.531-3.13c-2.6-.77-5.064-1.549-7.341-2.111a32.259,32.259,0,0,0-6.136-.976,18.484,18.484,0,0,0-4.178.241c-.492.064-.86.186-1.118.231a2.578,2.578,0,0,1-.393.074,2.57,2.57,0,0,1,.381-.119,10.828,10.828,0,0,1,1.113-.275,17.457,17.457,0,0,1,4.2-.317,31.353,31.353,0,0,1,6.18.932c2.289.553,4.758,1.327,7.356,2.1a131.985,131.985,0,0,0,13.494,3.191c1.747.318,3.166.546,4.148.7l1.13.177A2.543,2.543,0,0,1,228.7,223.123Z" transform="translate(-190.304 -215.942)" fill="#455a64"/>
            </g>
            <g id="Grupo_115114" data-name="Grupo 115114" transform="translate(13.88 8.496)">
              <path id="Trazado_172876" data-name="Trazado 172876" d="M211.982,214.834a11.743,11.743,0,0,0-5.261-2.757,2.548,2.548,0,0,1,.888.1,8.088,8.088,0,0,1,3.789,1.985A2.545,2.545,0,0,1,211.982,214.834Z" transform="translate(-206.722 -212.064)" fill="#455a64"/>
            </g>
          </g>
          <g id="Grupo_115116" data-name="Grupo 115116" transform="translate(21.95 1.037)">
            <path id="Trazado_172877" data-name="Trazado 172877" d="M200.6,195.441a2.489,2.489,0,0,1-.387.064l-1.11.157c-.963.144-2.352.378-4.059.72s-3.733.782-5.971,1.316a24.245,24.245,0,0,0-6.9,2.759,14.433,14.433,0,0,0-3,2.388,13.173,13.173,0,0,0-2.074,2.908,12.747,12.747,0,0,0-1.458,5.837,13.327,13.327,0,0,0,.592,4.046c.144.463.276.817.371,1.055a2.394,2.394,0,0,1,.134.368,2.509,2.509,0,0,1-.178-.349,11.07,11.07,0,0,1-.414-1.046,12.885,12.885,0,0,1,.762-10.01,13.269,13.269,0,0,1,2.1-2.966,14.52,14.52,0,0,1,3.049-2.431,24.073,24.073,0,0,1,6.968-2.769c2.245-.523,4.276-.948,5.99-1.269s3.109-.531,4.078-.648c.484-.057.861-.1,1.117-.114A2.469,2.469,0,0,1,200.6,195.441Z" transform="translate(-175.471 -195.437)" fill="#455a64"/>
          </g>
        </g>
        <g id="Grupo_115120" data-name="Grupo 115120" transform="translate(69.829 80.27)">
          <path id="Trazado_172878" data-name="Trazado 172878" d="M282.2,232.886l4.275-.271,2.827,1.647,5.426.593c2.6.137,3.01,2.929,1.414,2.929-1.269,0-8.865.5-8.865.5l-5.077.133Z" transform="translate(-282.196 -232.615)" fill="#e0e0e0"/>
          <g id="Grupo_115118" data-name="Grupo 115118" transform="translate(2.884 0.09)">
            <path id="Trazado_172879" data-name="Trazado 172879" d="M292.683,234.382a1.3,1.3,0,0,1-.657.305,2.888,2.888,0,0,1-3.115-1.2,1.3,1.3,0,0,1-.281-.668c.035-.015.146.236.414.57a3.079,3.079,0,0,0,2.948,1.139C292.416,234.458,292.667,234.347,292.683,234.382Z" transform="translate(-288.625 -232.816)" fill="#455a64"/>
          </g>
          <g id="Grupo_115119" data-name="Grupo 115119" transform="translate(12.412 2.37)">
            <path id="Trazado_172880" data-name="Trazado 172880" d="M311.174,240.644c.007.027-.217.083-.523-.077a1.568,1.568,0,0,1-.716-1.047,1.68,1.68,0,0,1,.11-1.263c.173-.293.378-.38.39-.355s-.129.155-.242.428a1.772,1.772,0,0,0-.032,1.132,1.616,1.616,0,0,0,.577.964C310.977,240.6,311.176,240.607,311.174,240.644Z" transform="translate(-309.864 -237.897)" fill="#455a64"/>
          </g>
        </g>
        <g id="Grupo_115132" data-name="Grupo 115132" transform="translate(29.438 27.553)">
          <path id="Trazado_172881" data-name="Trazado 172881" d="M212.859,116.122s-5.325,11.7-5.011,13.692,1.851,9.912,1.851,9.912l1.126,12.9s20.112-2.438,20.531-2.438-.628-10.672-.628-10.672l3.062-20.511s-1.4-2.794-7.738-3.761C222.246,114.663,212.859,116.122,212.859,116.122Z" transform="translate(-200.804 -115.108)" fill="#5000a1"/>
          <path id="Trazado_172882" data-name="Trazado 172882" d="M251.767,134.912a16.911,16.911,0,0,0,1.9,5.958,6.622,6.622,0,0,0,1.38,2.153c1,.748,2.427.041,3.331-.816s1.814-1.941,3.06-1.985a9.92,9.92,0,0,1,2.3.549c.776.162,1.783-.086,1.965-.858a2.012,2.012,0,0,0-.31-1.3,54.838,54.838,0,0,1-4.342-11.891,18.761,18.761,0,0,0-1.575-3.358,12.967,12.967,0,0,0-2.749-2.782" transform="translate(-225.027 -118.125)" fill="#5000a1"/>
          <path id="Trazado_172883" data-name="Trazado 172883" d="M208,115.636c-5.532.2-9.683,3.853-10.865,6.493-1.384,3.1-2.463,6.838-4.086,9.815a6.93,6.93,0,0,0-.838,1.807,1.651,1.651,0,0,0,.61,1.77c.833.492,2.043-.148,2.812.44.423.323.547.911.909,1.3a2.778,2.778,0,0,0,1.8.649l3.738.4" transform="translate(-192.162 -115.399)" fill="#5000a1"/>
          <g id="Grupo_115121" data-name="Grupo 115121" transform="translate(24.899 2.446)">
            <path id="Trazado_172884" data-name="Trazado 172884" d="M248.278,129.772a1.677,1.677,0,0,1-.215-.444,5.854,5.854,0,0,1-.333-1.305,6.539,6.539,0,0,1,4.246-7.107,5.856,5.856,0,0,1,1.307-.325,1.709,1.709,0,0,1,.493-.021,12.286,12.286,0,0,0-1.74.5A6.621,6.621,0,0,0,247.894,128,12.226,12.226,0,0,0,248.278,129.772Z" transform="translate(-247.664 -120.56)" fill="#263238"/>
          </g>
          <g id="Grupo_115122" data-name="Grupo 115122" transform="translate(7.406 7.075)">
            <path id="Trazado_172885" data-name="Trazado 172885" d="M211.558,130.879a3.541,3.541,0,0,1-.287.584c-.1.182-.222.407-.345.677s-.284.566-.42.912a19.8,19.8,0,0,0-.875,2.459,19.594,19.594,0,0,0-.716,6.326,19.878,19.878,0,0,0,.3,2.593c.055.369.143.694.205.983s.127.536.185.737a3.488,3.488,0,0,1,.148.633,3.438,3.438,0,0,1-.236-.607,7.382,7.382,0,0,1-.225-.73c-.075-.288-.175-.614-.241-.983a17.823,17.823,0,0,1-.357-2.613,18.555,18.555,0,0,1,.723-6.4,17.858,17.858,0,0,1,.931-2.467c.147-.346.317-.641.455-.905a7.335,7.335,0,0,1,.382-.662A3.408,3.408,0,0,1,211.558,130.879Z" transform="translate(-208.671 -130.878)" fill="#263238"/>
          </g>
          <g id="Grupo_115123" data-name="Grupo 115123" transform="translate(28.55 20.113)">
            <path id="Trazado_172886" data-name="Trazado 172886" d="M267.6,160.03c.007,0-.008.048-.046.131a1.024,1.024,0,0,1-.258.3,1.9,1.9,0,0,1-1.407.316c-.627-.07-1.278-.432-2.035-.58a2.828,2.828,0,0,0-2.3.746c-.705.563-1.279,1.249-1.955,1.711a3.006,3.006,0,0,1-1.052.5,3.673,3.673,0,0,1-1.007.061,2.9,2.9,0,0,1-1.384-.417,1.215,1.215,0,0,1-.29-.271c-.051-.076-.073-.118-.066-.122a2.913,2.913,0,0,0,.4.316,3.037,3.037,0,0,0,1.345.329,3.629,3.629,0,0,0,.954-.084,2.874,2.874,0,0,0,.971-.486c.642-.45,1.2-1.131,1.934-1.719a4.111,4.111,0,0,1,1.194-.684,2.419,2.419,0,0,1,1.289-.09c.808.174,1.438.546,2.019.628a1.881,1.881,0,0,0,1.33-.225A1.936,1.936,0,0,0,267.6,160.03Z" transform="translate(-255.802 -159.941)" fill="#fafafa"/>
          </g>
          <g id="Grupo_115124" data-name="Grupo 115124" transform="translate(27.945 17.547)">
            <path id="Trazado_172887" data-name="Trazado 172887" d="M265.573,154.25c.007,0,0,.047-.029.126a.819.819,0,0,1-.223.3,1.557,1.557,0,0,1-1.311.274,12.984,12.984,0,0,0-1.875-.507,3.737,3.737,0,0,0-2.178.735c-.7.468-1.3,1.028-1.923,1.446a4.16,4.16,0,0,1-1.841.763,2.438,2.438,0,0,1-1.333-.172,1.025,1.025,0,0,1-.406-.28c.012-.018.153.089.44.2a2.525,2.525,0,0,0,1.275.093,4.151,4.151,0,0,0,1.742-.777c.6-.417,1.194-.979,1.917-1.465a3.868,3.868,0,0,1,2.318-.755,3.37,3.37,0,0,1,1.045.265,6.508,6.508,0,0,0,.853.3,1.511,1.511,0,0,0,1.22-.183A1.425,1.425,0,0,0,265.573,154.25Z" transform="translate(-254.453 -154.222)" fill="#fafafa"/>
          </g>
          <g id="Grupo_115125" data-name="Grupo 115125" transform="translate(0.445 17.52)">
            <path id="Trazado_172888" data-name="Trazado 172888" d="M200.345,157.63c.008.006-.083.118-.323.172a1.207,1.207,0,0,1-.961-.258,3.438,3.438,0,0,1-.836-1.2,1.942,1.942,0,0,0-1.14-1.143,4.066,4.066,0,0,0-1.7.088,2.618,2.618,0,0,1-1.471-.066,1.286,1.286,0,0,1-.713-.695.491.491,0,0,1-.033-.363c.023,0,.014.131.116.327a1.261,1.261,0,0,0,.691.578,2.572,2.572,0,0,0,1.371.007,4.04,4.04,0,0,1,1.795-.1,1.592,1.592,0,0,1,.811.527,3.644,3.644,0,0,1,.46.744,3.521,3.521,0,0,0,.748,1.174,1.173,1.173,0,0,0,.843.3A2.925,2.925,0,0,0,200.345,157.63Z" transform="translate(-193.154 -154.161)" fill="#fafafa"/>
          </g>
          <g id="Grupo_115126" data-name="Grupo 115126" transform="translate(1.403 15.841)">
            <path id="Trazado_172889" data-name="Trazado 172889" d="M200.843,152.928c0,.011-.1.051-.27,0a1.127,1.127,0,0,1-.558-.476,2.38,2.38,0,0,0-.6-.782,1.736,1.736,0,0,0-1.172-.081,3.131,3.131,0,0,1-1.312-.006,2.8,2.8,0,0,1-.981-.438,1.671,1.671,0,0,1-.655-.724,8.993,8.993,0,0,0,.745.585,2.941,2.941,0,0,0,2.168.351,1.859,1.859,0,0,1,1.322.131,2.286,2.286,0,0,1,.629.877,1.16,1.16,0,0,0,.451.478C200.747,152.912,200.843,152.908,200.843,152.928Z" transform="translate(-195.291 -150.418)" fill="#fafafa"/>
          </g>
          <g id="Grupo_115127" data-name="Grupo 115127" transform="translate(8.247 19.494)">
            <path id="Trazado_172890" data-name="Trazado 172890" d="M230.336,159.73a6.625,6.625,0,0,1-.791-.174c-.507-.118-1.241-.291-2.156-.459-.457-.085-.959-.17-1.5-.235a8.441,8.441,0,0,0-1.722-.068,5.357,5.357,0,0,0-1.79.586c-.594.3-1.188.659-1.834.975a5.3,5.3,0,0,1-2.024.586,6.673,6.673,0,0,1-1.947-.216,25.44,25.44,0,0,0-3.169-.77,4.5,4.5,0,0,0-2.146.2,7.155,7.155,0,0,0-.712.369c0-.006.048-.055.156-.143a2.758,2.758,0,0,1,.521-.31,4.372,4.372,0,0,1,2.2-.283,23.1,23.1,0,0,1,3.2.725,6.56,6.56,0,0,0,1.884.2,5.128,5.128,0,0,0,1.937-.568c.632-.309,1.227-.67,1.834-.969a5.5,5.5,0,0,1,1.87-.6,8.4,8.4,0,0,1,1.768.091c.546.074,1.05.169,1.507.265.915.19,1.646.388,2.147.533.251.073.444.135.574.181A.723.723,0,0,1,230.336,159.73Z" transform="translate(-210.545 -158.562)" fill="#fafafa"/>
          </g>
          <g id="Grupo_115128" data-name="Grupo 115128" transform="translate(8.921 21.31)">
            <path id="Trazado_172891" data-name="Trazado 172891" d="M231.625,164.216c-.008.016-.267-.107-.745-.308s-1.173-.483-2.055-.753a8.546,8.546,0,0,0-1.462-.328,3.892,3.892,0,0,0-1.668.217c-1.145.39-2.229,1.233-3.573,1.76a5.485,5.485,0,0,1-2.065.36,11.618,11.618,0,0,1-1.93-.209,22.721,22.721,0,0,0-3.205-.494,5.62,5.62,0,0,0-2.141.273c-.483.175-.722.34-.734.319a.726.726,0,0,1,.167-.127,3.118,3.118,0,0,1,.535-.277,5.343,5.343,0,0,1,2.178-.354,20.99,20.99,0,0,1,3.237.447,7.126,7.126,0,0,0,3.874-.158c1.3-.505,2.393-1.347,3.586-1.745a4.041,4.041,0,0,1,1.759-.205,8.377,8.377,0,0,1,1.489.363,17.162,17.162,0,0,1,2.043.827c.234.114.413.208.532.276A.718.718,0,0,1,231.625,164.216Z" transform="translate(-212.048 -162.61)" fill="#fafafa"/>
          </g>
          <g id="Grupo_115129" data-name="Grupo 115129" transform="translate(16.166 17.714)">
            <path id="Trazado_172892" data-name="Trazado 172892" d="M234.539,158.994a.912.912,0,0,1-.326.053,4.257,4.257,0,0,1-.9-.023,5.807,5.807,0,0,1-1.3-.308,6.341,6.341,0,0,1-2.669-1.855,5.812,5.812,0,0,1-.743-1.112,4.242,4.242,0,0,1-.335-.834c-.056-.2-.079-.319-.064-.323.042-.013.173.436.543,1.078a6.518,6.518,0,0,0,.76,1.05,6.711,6.711,0,0,0,2.583,1.794,6.528,6.528,0,0,0,1.249.346C234.069,158.984,234.536,158.95,234.539,158.994Z" transform="translate(-228.198 -154.592)" fill="#263238"/>
          </g>
          <g id="Grupo_115130" data-name="Grupo 115130" transform="translate(16.189 18.196)" opacity="0.3">
            <path id="Trazado_172893" data-name="Trazado 172893" d="M228.248,155.667a8.286,8.286,0,0,0,2.161,4.517,4.558,4.558,0,0,0,4.673,1.162,1.116,1.116,0,0,0,.753-.7.917.917,0,0,0-.611-.96,3.617,3.617,0,0,0-1.218-.17,6.926,6.926,0,0,1-5.659-3.663" transform="translate(-228.248 -155.667)"/>
          </g>
          <g id="Grupo_115131" data-name="Grupo 115131" transform="translate(25.979 13.357)">
            <path id="Trazado_172894" data-name="Trazado 172894" d="M253.435,156.377a1.837,1.837,0,0,1-.195-.431c-.111-.283-.262-.695-.441-1.207-.358-1.024-.823-2.449-1.288-4.038s-.84-3.041-1.089-4.1c-.125-.528-.219-.957-.278-1.255a1.862,1.862,0,0,1-.069-.468,1.836,1.836,0,0,1,.157.446q.145.512.349,1.235c.29,1.044.69,2.486,1.153,4.073s.9,3.017,1.221,4.052l.371,1.229A1.847,1.847,0,0,1,253.435,156.377Z" transform="translate(-250.071 -144.881)" fill="#263238"/>
          </g>
        </g>
        <g id="Grupo_115134" data-name="Grupo 115134" transform="translate(38.529 49.531)">
          <path id="Trazado_172895" data-name="Trazado 172895" d="M212.425,179.816s3.879-4.152,7.269-4.97,15.542-5.106,15.542-5.106l-.767-2.418h0a3.28,3.28,0,0,0,2.039-1.024l.786-.783a3.626,3.626,0,0,1,4.222-1.161l1.173.352,1.228,3.58a5.994,5.994,0,0,1-4.859,7.86Z" transform="translate(-212.425 -164.097)" fill="#ffbe9d"/>
          <g id="Grupo_115133" data-name="Grupo 115133" transform="translate(22.87 5.294)">
            <path id="Trazado_172896" data-name="Trazado 172896" d="M268.384,176.762a9.461,9.461,0,0,0-4.979-.523,5.774,5.774,0,0,1,4.979.523Z" transform="translate(-263.404 -175.897)" fill="#eb996e"/>
          </g>
        </g>
        <g id="Grupo_115224" data-name="Grupo 115224" transform="translate(27.675)">
          <path id="Trazado_172897" data-name="Trazado 172897" d="M213.713,62.156c-.351-5.623,7.015-9.593,12.022-8.178,4.706,1.329,6.713,3.671,7.487,6.819a15.543,15.543,0,0,1-.5,9.558c-.609,1.479-1.7,2.981-3.293,3.166" transform="translate(-202.275 -53.689)" fill="#263238"/>
          <g id="Grupo_115216" data-name="Grupo 115216" transform="translate(12.666 1.345)">
            <g id="Grupo_115215" data-name="Grupo 115215">
              <g id="Grupo_115211" data-name="Grupo 115211" transform="translate(0.432 1.499)">
                <g id="Grupo_115210" data-name="Grupo 115210">
                  <g id="Grupo_115197" data-name="Grupo 115197">
                    <g id="Grupo_115196" data-name="Grupo 115196">
                      <g id="Grupo_115195" data-name="Grupo 115195">
                        <g id="Grupo_115140" data-name="Grupo 115140">
                          <g id="Grupo_115139" data-name="Grupo 115139">
                            <g id="Grupo_115138" data-name="Grupo 115138">
                              <g id="Grupo_115137" data-name="Grupo 115137">
                                <g id="Grupo_115136" data-name="Grupo 115136">
                                  <g id="Grupo_115135" data-name="Grupo 115135">
                                    <path id="Trazado_172898" data-name="Trazado 172898" d="M230.79,62.19a1.6,1.6,0,0,1,1.431,1.622h0l-.906,21.6c-.035,2.551-3.76,3.993-6.491,3.935h0c-2.758-.058-2.85-1.41-2.89-3.837-.067-4.054-.065-5.576-.067-5.553,0,0-3.485-.579-4.207-5.125a48.578,48.578,0,0,1-.055-9c.172-2.728,1.979-6.074,4.7-5.787Z" transform="translate(-217.427 -60.027)" fill="#ffbe9d"/>
                                  </g>
                                </g>
                              </g>
                            </g>
                          </g>
                        </g>
                        <g id="Grupo_115154" data-name="Grupo 115154" transform="translate(0.975 7.12)">
                          <g id="Grupo_115146" data-name="Grupo 115146" transform="translate(0.386 1.101)">
                            <g id="Grupo_115145" data-name="Grupo 115145">
                              <g id="Grupo_115144" data-name="Grupo 115144">
                                <g id="Grupo_115143" data-name="Grupo 115143">
                                  <g id="Grupo_115142" data-name="Grupo 115142">
                                    <g id="Grupo_115141" data-name="Grupo 115141">
                                      <path id="Trazado_172899" data-name="Trazado 172899" d="M220.46,78.878a.583.583,0,0,0,.563.588.557.557,0,0,0,.6-.525.583.583,0,0,0-.561-.589A.559.559,0,0,0,220.46,78.878Z" transform="translate(-220.459 -78.351)" fill="#263238"/>
                                    </g>
                                  </g>
                                </g>
                              </g>
                            </g>
                          </g>
                          <g id="Grupo_115153" data-name="Grupo 115153">
                            <g id="Grupo_115152" data-name="Grupo 115152">
                              <g id="Grupo_115151" data-name="Grupo 115151">
                                <g id="Grupo_115150" data-name="Grupo 115150">
                                  <g id="Grupo_115149" data-name="Grupo 115149">
                                    <g id="Grupo_115148" data-name="Grupo 115148">
                                      <g id="Grupo_115147" data-name="Grupo 115147">
                                        <path id="Trazado_172900" data-name="Trazado 172900" d="M219.609,76.511c.072.076.514-.251,1.142-.249s1.087.315,1.155.239c.034-.034-.04-.171-.241-.317a1.6,1.6,0,0,0-.925-.285,1.54,1.54,0,0,0-.909.293C219.638,76.339,219.573,76.477,219.609,76.511Z" transform="translate(-219.599 -75.898)" fill="#263238"/>
                                      </g>
                                    </g>
                                  </g>
                                </g>
                              </g>
                            </g>
                          </g>
                        </g>
                        <g id="Grupo_115168" data-name="Grupo 115168" transform="translate(7.143 7.237)">
                          <g id="Grupo_115160" data-name="Grupo 115160" transform="translate(0.352 0.983)">
                            <g id="Grupo_115159" data-name="Grupo 115159">
                              <g id="Grupo_115158" data-name="Grupo 115158">
                                <g id="Grupo_115157" data-name="Grupo 115157">
                                  <g id="Grupo_115156" data-name="Grupo 115156">
                                    <g id="Grupo_115155" data-name="Grupo 115155">
                                      <path id="Trazado_172901" data-name="Trazado 172901" d="M234.134,78.878a.583.583,0,0,0,.562.588.557.557,0,0,0,.6-.525.583.583,0,0,0-.562-.589A.558.558,0,0,0,234.134,78.878Z" transform="translate(-234.133 -78.351)" fill="#263238"/>
                                    </g>
                                  </g>
                                </g>
                              </g>
                            </g>
                          </g>
                          <g id="Grupo_115167" data-name="Grupo 115167">
                            <g id="Grupo_115166" data-name="Grupo 115166">
                              <g id="Grupo_115165" data-name="Grupo 115165">
                                <g id="Grupo_115164" data-name="Grupo 115164">
                                  <g id="Grupo_115163" data-name="Grupo 115163">
                                    <g id="Grupo_115162" data-name="Grupo 115162">
                                      <g id="Grupo_115161" data-name="Grupo 115161">
                                        <path id="Trazado_172902" data-name="Trazado 172902" d="M233.358,76.772c.072.076.515-.251,1.142-.249s1.087.315,1.155.239c.034-.034-.039-.171-.241-.317a1.6,1.6,0,0,0-.925-.285,1.54,1.54,0,0,0-.909.293C233.388,76.6,233.322,76.738,233.358,76.772Z" transform="translate(-233.348 -76.159)" fill="#263238"/>
                                      </g>
                                    </g>
                                  </g>
                                </g>
                              </g>
                            </g>
                          </g>
                        </g>
                        <g id="Grupo_115175" data-name="Grupo 115175" transform="translate(3.276 7.275)">
                          <g id="Grupo_115174" data-name="Grupo 115174">
                            <g id="Grupo_115173" data-name="Grupo 115173">
                              <g id="Grupo_115172" data-name="Grupo 115172">
                                <g id="Grupo_115171" data-name="Grupo 115171">
                                  <g id="Grupo_115170" data-name="Grupo 115170">
                                    <g id="Grupo_115169" data-name="Grupo 115169">
                                      <path id="Trazado_172903" data-name="Trazado 172903" d="M226.328,81.473a4.139,4.139,0,0,0-1.019-.184c-.16-.017-.312-.048-.339-.158a.818.818,0,0,1,.107-.475l.474-1.22a20.909,20.909,0,0,0,1.064-3.191,21.051,21.051,0,0,0-1.319,3.1q-.238.643-.454,1.227a.928.928,0,0,0-.083.629.4.4,0,0,0,.263.234,1.072,1.072,0,0,0,.272.038A4.092,4.092,0,0,0,226.328,81.473Z" transform="translate(-224.729 -76.244)" fill="#263238"/>
                                    </g>
                                  </g>
                                </g>
                              </g>
                            </g>
                          </g>
                        </g>
                        <g id="Grupo_115181" data-name="Grupo 115181" transform="translate(4.441 18.305)">
                          <g id="Grupo_115180" data-name="Grupo 115180">
                            <g id="Grupo_115179" data-name="Grupo 115179">
                              <g id="Grupo_115178" data-name="Grupo 115178">
                                <g id="Grupo_115177" data-name="Grupo 115177">
                                  <g id="Grupo_115176" data-name="Grupo 115176">
                                    <path id="Trazado_172904" data-name="Trazado 172904" d="M227.326,102.454a11.567,11.567,0,0,0,6.09-1.624s-1.477,3.123-6.028,2.7Z" transform="translate(-227.326 -100.83)" fill="#eb996e"/>
                                  </g>
                                </g>
                              </g>
                            </g>
                          </g>
                        </g>
                        <g id="Grupo_115187" data-name="Grupo 115187" transform="translate(5.077 13.589)">
                          <g id="Grupo_115186" data-name="Grupo 115186">
                            <g id="Grupo_115185" data-name="Grupo 115185">
                              <g id="Grupo_115184" data-name="Grupo 115184">
                                <g id="Grupo_115183" data-name="Grupo 115183">
                                  <g id="Grupo_115182" data-name="Grupo 115182">
                                    <path id="Trazado_172905" data-name="Trazado 172905" d="M228.807,90.746a1.128,1.128,0,0,1,1.013-.42,1.03,1.03,0,0,1,.713.382.654.654,0,0,1,.05.748.759.759,0,0,1-.822.208,2.384,2.384,0,0,1-.8-.479.705.705,0,0,1-.179-.186.21.21,0,0,1,0-.234" transform="translate(-228.744 -90.319)" fill="#eb996e"/>
                                  </g>
                                </g>
                              </g>
                            </g>
                          </g>
                        </g>
                        <g id="Grupo_115194" data-name="Grupo 115194" transform="translate(4.721 12.938)">
                          <g id="Grupo_115193" data-name="Grupo 115193">
                            <g id="Grupo_115192" data-name="Grupo 115192">
                              <g id="Grupo_115191" data-name="Grupo 115191">
                                <g id="Grupo_115190" data-name="Grupo 115190">
                                  <g id="Grupo_115189" data-name="Grupo 115189">
                                    <g id="Grupo_115188" data-name="Grupo 115188">
                                      <path id="Trazado_172906" data-name="Trazado 172906" d="M229.951,88.866c-.1-.006-.1.675-.686,1.159s-1.308.408-1.313.5c-.01.043.161.132.468.14a1.7,1.7,0,0,0,1.1-.382,1.477,1.477,0,0,0,.532-.972C230.073,89.031,230,88.862,229.951,88.866Z" transform="translate(-227.951 -88.866)" fill="#263238"/>
                                    </g>
                                  </g>
                                </g>
                              </g>
                            </g>
                          </g>
                        </g>
                      </g>
                    </g>
                  </g>
                  <g id="Grupo_115203" data-name="Grupo 115203" transform="translate(6.866 6.281)">
                    <g id="Grupo_115202" data-name="Grupo 115202">
                      <g id="Grupo_115201" data-name="Grupo 115201">
                        <g id="Grupo_115200" data-name="Grupo 115200">
                          <g id="Grupo_115199" data-name="Grupo 115199">
                            <g id="Grupo_115198" data-name="Grupo 115198">
                              <path id="Trazado_172907" data-name="Trazado 172907" d="M232.736,74.5c.061.17.688.09,1.424.179.738.074,1.332.289,1.429.136.044-.074-.06-.234-.3-.4a2.494,2.494,0,0,0-2.174-.24C232.845,74.283,232.709,74.418,232.736,74.5Z" transform="translate(-232.733 -74.028)" fill="#263238"/>
                            </g>
                          </g>
                        </g>
                      </g>
                    </g>
                  </g>
                  <g id="Grupo_115209" data-name="Grupo 115209" transform="translate(1.198 5.267)">
                    <g id="Grupo_115208" data-name="Grupo 115208">
                      <g id="Grupo_115207" data-name="Grupo 115207">
                        <g id="Grupo_115206" data-name="Grupo 115206">
                          <g id="Grupo_115205" data-name="Grupo 115205">
                            <g id="Grupo_115204" data-name="Grupo 115204">
                              <path id="Trazado_172908" data-name="Trazado 172908" d="M220.114,72.418c.11.142.543-.006,1.062-.013.52-.025.96.1,1.061-.053.044-.072-.025-.215-.217-.35a1.537,1.537,0,0,0-1.711.053C220.126,72.2,220.066,72.348,220.114,72.418Z" transform="translate(-220.098 -71.767)" fill="#263238"/>
                            </g>
                          </g>
                        </g>
                      </g>
                    </g>
                  </g>
                </g>
              </g>
              <g id="Grupo_115214" data-name="Grupo 115214">
                <g id="Grupo_115213" data-name="Grupo 115213">
                  <g id="Grupo_115212" data-name="Grupo 115212">
                    <path id="Trazado_172909" data-name="Trazado 172909" d="M224.039,56.688a9.225,9.225,0,0,0-4.368,1.355,6.321,6.321,0,0,0-3.119,3.706,1.3,1.3,0,0,0,.036,1.024,1,1,0,0,0,1.247.269,2.924,2.924,0,0,0,1.014-.935,1.944,1.944,0,0,0,3.775-.042,1.7,1.7,0,0,0,1.753,1.563,2.247,2.247,0,0,0,1.935-1.528,5.7,5.7,0,0,0,.8,2.22,1.942,1.942,0,0,0,2.059.838,4.025,4.025,0,0,0,.03,2.034c.24.642,1.356,14.56,2,14.338.63-.217.472-14.36.62-15.01a15.19,15.19,0,0,0,.487-3.811,5.584,5.584,0,0,0-4.5-5.658,14.739,14.739,0,0,0-3.957-.36" transform="translate(-216.465 -56.687)" fill="#263238"/>
                  </g>
                </g>
              </g>
            </g>
          </g>
          <g id="Grupo_115217" data-name="Grupo 115217" transform="translate(1.687 5.448)">
            <path id="Trazado_172910" data-name="Trazado 172910" d="M194.72,79.741c-.013.009-.052-.084-.181-.21a1.288,1.288,0,0,0-.686-.349,1.5,1.5,0,0,0-1.16.258,1.55,1.55,0,0,0-.523,1.443,1.881,1.881,0,0,0,.343.86,2.027,2.027,0,0,0,.79.619,2.745,2.745,0,0,0,2.2-.015,4.86,4.86,0,0,0,1.932-1.589,8.213,8.213,0,0,0,1.241-2.428,31.01,31.01,0,0,0,1-5.246,15.744,15.744,0,0,1,1.148-4.243,6.9,6.9,0,0,1,1.73-2.4,4.793,4.793,0,0,1,.657-.471,1.241,1.241,0,0,1,.247-.134c.016.025-.328.208-.843.672a7.128,7.128,0,0,0-1.64,2.4,16.125,16.125,0,0,0-1.085,4.206,29.965,29.965,0,0,1-.995,5.289A8.372,8.372,0,0,1,197.61,80.9a5.048,5.048,0,0,1-2.031,1.649,2.936,2.936,0,0,1-2.358-.009,2.2,2.2,0,0,1-.854-.689,2.041,2.041,0,0,1-.362-.946,1.686,1.686,0,0,1,.609-1.567,1.582,1.582,0,0,1,1.257-.243,1.286,1.286,0,0,1,.7.406A.652.652,0,0,1,194.72,79.741Z" transform="translate(-191.992 -65.834)" fill="#263238"/>
          </g>
          <g id="Grupo_115218" data-name="Grupo 115218" transform="translate(28.53 7.106)">
            <path id="Trazado_172911" data-name="Trazado 172911" d="M251.827,89.232c-.012-.024.266-.141.7-.449a6.02,6.02,0,0,0,1.542-1.633,7.96,7.96,0,0,0,1.151-3.117,12.285,12.285,0,0,0-.174-4.088c-.279-1.438-.69-2.779-1.046-4s-.657-2.34-.837-3.292a14.061,14.061,0,0,1-.26-2.278c0-.271,0-.481.009-.623a.764.764,0,0,1,.024-.217c.021,0,.018.3.057.835a16.755,16.755,0,0,0,.331,2.25c.2.941.51,2.044.881,3.264a40.132,40.132,0,0,1,1.069,4.021,12.192,12.192,0,0,1,.158,4.165,7.921,7.921,0,0,1-1.226,3.175,5.736,5.736,0,0,1-1.629,1.617,4.046,4.046,0,0,1-.551.3A.779.779,0,0,1,251.827,89.232Z" transform="translate(-251.826 -69.53)" fill="#263238"/>
          </g>
          <g id="Grupo_115219" data-name="Grupo 115219" transform="translate(24.706 9.594)">
            <path id="Trazado_172912" data-name="Trazado 172912" d="M247.939,89.371c0,.007-.052.034-.16.079a2.314,2.314,0,0,1-.5.122,3.084,3.084,0,0,1-1.826-.381,3.918,3.918,0,0,1-1.757-2.126,7.611,7.611,0,0,1-.353-3.373c.108-1.2.326-2.318.425-3.345s.158-1.956.175-2.737.007-1.414,0-1.852a4.222,4.222,0,0,1,0-.681,3.468,3.468,0,0,1,.087.677c.036.437.073,1.072.076,1.858s-.028,1.722-.127,2.757-.3,2.162-.406,3.344a7.578,7.578,0,0,0,.322,3.278,3.806,3.806,0,0,0,1.636,2.058,3.128,3.128,0,0,0,1.737.435C247.7,89.447,247.932,89.348,247.939,89.371Z" transform="translate(-243.302 -75.075)" fill="#263238"/>
          </g>
          <g id="Grupo_115220" data-name="Grupo 115220" transform="translate(0 1.665)">
            <path id="Trazado_172913" data-name="Trazado 172913" d="M188.232,83.724a1.2,1.2,0,0,1,.068-.429,2.035,2.035,0,0,1,.748-.989,3.411,3.411,0,0,1,1.855-.645c.771-.07,1.646.041,2.594-.022a6.522,6.522,0,0,0,2.911-.987,8.566,8.566,0,0,0,2.521-2.489,10.477,10.477,0,0,0,1.494-3.63,17.99,17.99,0,0,0,.357-4.233c-.023-1.463-.2-2.883-.291-4.271a12.644,12.644,0,0,1,.253-4,6.093,6.093,0,0,1,4.688-4.514,5.817,5.817,0,0,1,2.606.076,6.068,6.068,0,0,1,1.8.792,5.536,5.536,0,0,1,.962.789c.1.1.167.187.215.241a.387.387,0,0,1,.066.088,7.783,7.783,0,0,0-1.292-1.042A6.145,6.145,0,0,0,208,57.715a5.733,5.733,0,0,0-2.541-.04,5.932,5.932,0,0,0-4.514,4.407,12.528,12.528,0,0,0-.233,3.933c.092,1.375.273,2.8.3,4.28a18.067,18.067,0,0,1-.367,4.287,10.638,10.638,0,0,1-1.539,3.7,8.709,8.709,0,0,1-2.6,2.533,6.66,6.66,0,0,1-3,.988c-.974.053-1.841-.071-2.6-.013a3.354,3.354,0,0,0-1.81.588,2.054,2.054,0,0,0-.757.932C188.249,83.573,188.247,83.726,188.232,83.724Z" transform="translate(-188.231 -57.4)" fill="#455a64"/>
          </g>
          <g id="Grupo_115221" data-name="Grupo 115221" transform="translate(22.488 0.386)">
            <path id="Trazado_172914" data-name="Trazado 172914" d="M238.36,54.552c.015-.023.22.079.461.353a2.285,2.285,0,0,1,.227,2.666c-.191.311-.376.445-.395.426s.108-.195.249-.5a2.474,2.474,0,0,0-.211-2.488C238.5,54.726,238.337,54.58,238.36,54.552Z" transform="translate(-238.358 -54.549)" fill="#455a64"/>
          </g>
          <g id="Grupo_115222" data-name="Grupo 115222" transform="translate(23.319 3.112)">
            <path id="Trazado_172915" data-name="Trazado 172915" d="M248.341,69.54a3.049,3.049,0,0,1-.121-.551c-.067-.356-.166-.87-.3-1.5s-.307-1.384-.53-2.208c-.114-.411-.24-.841-.394-1.275a4.372,4.372,0,0,0-.649-1.244,4.9,4.9,0,0,0-2.11-1.666,3.934,3.934,0,0,0-2.182-.21,3.705,3.705,0,0,0-1.388.559c-.3.2-.439.344-.454.328s.025-.046.089-.118a2.321,2.321,0,0,1,.311-.285,3.5,3.5,0,0,1,1.409-.646,4,4,0,0,1,2.292.172,5.01,5.01,0,0,1,2.221,1.728,4.52,4.52,0,0,1,.676,1.306c.156.445.278.881.387,1.3.213.834.368,1.592.484,2.231s.189,1.16.229,1.521A2.338,2.338,0,0,1,248.341,69.54Z" transform="translate(-240.21 -60.627)" fill="#455a64"/>
          </g>
          <g id="Grupo_115223" data-name="Grupo 115223" transform="translate(15.578 3.025)">
            <path id="Trazado_172916" data-name="Trazado 172916" d="M230.334,61.418a5.647,5.647,0,0,1-1.437-.347,9.7,9.7,0,0,0-1.535-.375,3.774,3.774,0,0,0-3.406,1.289,3.806,3.806,0,0,0-.731,1.365,6.169,6.169,0,0,0-.191,1.439,1.037,1.037,0,0,1-.072-.394,3.527,3.527,0,0,1,.1-1.088,3.756,3.756,0,0,1,.724-1.458,3.867,3.867,0,0,1,3.6-1.366,8.529,8.529,0,0,1,1.557.432C229.8,61.232,230.339,61.388,230.334,61.418Z" transform="translate(-222.955 -60.432)" fill="#455a64"/>
          </g>
        </g>
      </g>
    </g>
    <g id="Plants" transform="translate(60.511 162.41)">
      <g id="Grupo_115234" data-name="Grupo 115234" transform="translate(127.332)">
        <path id="Trazado_172917" data-name="Trazado 172917" d="M439.439,389.467A4.943,4.943,0,0,1,442,386.194a5.992,5.992,0,0,1,4.353.255,15.659,15.659,0,0,0,4.262,1.281,3.471,3.471,0,0,0,3.61-2.035c.419-1.336-.388-2.762-1.4-3.733a8.811,8.811,0,0,0-14.437,3.466" transform="translate(-400.536 -347.07)" fill="#263238"/>
        <path id="Trazado_172918" data-name="Trazado 172918" d="M412.323,394.02c-2.182-2.073-2.073-5.68-.985-8.486a12.857,12.857,0,0,1,6.117-6.379,19.369,19.369,0,0,1,16.882-.547,8.013,8.013,0,0,0-6.479,3.8c-1.2,1.986-1.461,4.4-2.449,6.492a10.22,10.22,0,0,1-13.086,5.116" transform="translate(-385.201 -345.649)" fill="#455a64"/>
        <path id="Trazado_172919" data-name="Trazado 172919" d="M408.049,343.118c-2.415-2.851-2.737-7.428-2.381-11.148s1.218-7.463.631-11.154c-.348-2.186-1.2-4.274-1.483-6.469s.12-4.678,1.82-6.094c1.955-1.628,5.034-1.244,7.067.285a13.245,13.245,0,0,1,4.073,6.326c1.892,5.26,2.586,11.093,1.032,16.462s-5.2,10.171-10.55,11.792" transform="translate(-381.975 -307.199)" fill="#455a64"/>
        <g id="Grupo_115226" data-name="Grupo 115226" transform="translate(24.902 33.17)">
          <path id="Trazado_172920" data-name="Trazado 172920" d="M409.526,407.279a1.743,1.743,0,0,1-.013-.329c0-.215,0-.533.015-.942.029-.818.106-2,.288-3.455a45.83,45.83,0,0,1,.925-5.059,23.275,23.275,0,0,1,2.308-5.859,24.378,24.378,0,0,1,3.774-5.044,23.972,23.972,0,0,1,3.958-3.287c.6-.417,1.188-.733,1.691-1.026.516-.27.966-.491,1.335-.668l.87-.362a1.7,1.7,0,0,1,.31-.111,1.809,1.809,0,0,1-.291.155l-.85.4c-.362.189-.8.421-1.31.7-.494.3-1.069.626-1.663,1.048a24.9,24.9,0,0,0-7.621,8.307,30.342,30.342,0,0,0-3.273,10.826c-.2,1.445-.3,2.623-.36,3.437-.024.389-.044.7-.059.939A1.739,1.739,0,0,1,409.526,407.279Z" transform="translate(-409.513 -381.137)" fill="#263238"/>
        </g>
        <g id="Grupo_115228" data-name="Grupo 115228" transform="translate(0 21.57)">
          <path id="Trazado_172921" data-name="Trazado 172921" d="M358.086,362.193c-4.469,2.7-4.455,5.151-3.709,7.467s3.489,3.925,5.763,3.058a7.051,7.051,0,0,0,3.012-2.73,12.634,12.634,0,0,1,2.657-3.13,3.405,3.405,0,0,1,3.85-.315" transform="translate(-354.005 -359.091)" fill="#263238"/>
          <path id="Trazado_172922" data-name="Trazado 172922" d="M355.645,361.337c1.168-1.614,4.055-2.082,5.878-1.276a11.763,11.763,0,0,1,4.353,4,17.8,17.8,0,0,0,4.014,4.389c1.655,1.109,3.968,1.511,5.618.393a4.827,4.827,0,0,0,1.908-3.3,11,11,0,0,0-.262-3.9c-.394-1.874-1.038-3.832-2.538-5.022-1.672-1.327-3.991-1.39-6.125-1.32a22.942,22.942,0,0,0-7.23,1.112,10.038,10.038,0,0,0-5.617,4.927" transform="translate(-354.909 -355.279)" fill="#455a64"/>
          <g id="Grupo_115227" data-name="Grupo 115227" transform="translate(9.687 0.495)">
            <path id="Trazado_172923" data-name="Trazado 172923" d="M387.111,390.05a2.393,2.393,0,0,1-.03-.386l-.042-1.109c-.03-.986-.071-2.373-.122-4.079-.056-1.721-.127-3.772-.252-6.045s-.3-4.772-.642-7.372a23.8,23.8,0,0,0-.739-3.742,19.467,19.467,0,0,0-1.368-3.274,17.719,17.719,0,0,0-3.608-4.782,13.924,13.924,0,0,0-3.34-2.283,10.433,10.433,0,0,0-1.015-.44,2.392,2.392,0,0,1-.355-.155,2.429,2.429,0,0,1,.371.11,8.3,8.3,0,0,1,1.037.4,13.342,13.342,0,0,1,3.412,2.244,17.551,17.551,0,0,1,3.688,4.8,19.376,19.376,0,0,1,1.4,3.307,23.634,23.634,0,0,1,.752,3.779c.346,2.612.509,5.116.625,7.392s.168,4.329.2,6.052.046,3.118.048,4.082q0,.7,0,1.11A2.411,2.411,0,0,1,387.111,390.05Z" transform="translate(-375.597 -356.382)" fill="#263238"/>
          </g>
        </g>
        <g id="Grupo_115229" data-name="Grupo 115229" transform="translate(22.015 8.442)">
          <path id="Trazado_172924" data-name="Trazado 172924" d="M403.87,375.327a12.466,12.466,0,0,1-.5-1.918,20.073,20.073,0,0,1-.21-5.394,35.785,35.785,0,0,1,1.7-7.827c.917-2.876,2.161-5.951,3.224-9.255a42.6,42.6,0,0,0,1.283-4.894,43.676,43.676,0,0,0,.634-4.67,68.514,68.514,0,0,0,.146-7.988c-.075-2.276-.195-4.116-.268-5.388-.035-.623-.063-1.113-.083-1.465-.007-.157-.012-.282-.016-.381a.561.561,0,0,1,0-.131.546.546,0,0,1,.022.129l.039.38c.031.351.073.84.127,1.462.1,1.27.245,3.109.342,5.388a65.789,65.789,0,0,1-.1,8.011,43.006,43.006,0,0,1-.624,4.7,42.1,42.1,0,0,1-1.285,4.922c-1.067,3.317-2.318,6.387-3.242,9.25a36.455,36.455,0,0,0-1.741,7.775,20.855,20.855,0,0,0,.135,5.363c.109.626.208,1.11.3,1.434l.088.371A.528.528,0,0,1,403.87,375.327Z" transform="translate(-403.077 -326.017)" fill="#263238"/>
        </g>
        <path id="Trazado_172925" data-name="Trazado 172925" d="M403.164,435.47H382.181l-.479-4.039h21.462Z" transform="translate(-369.276 -375.698)" fill="#263238"/>
        <path id="Trazado_172926" data-name="Trazado 172926" d="M387.789,439.409l2.623,12.116h11.4l2.454-12.116Z" transform="translate(-372.633 -380.097)" fill="#263238"/>
        <g id="Grupo_115230" data-name="Grupo 115230" transform="translate(13.281 59.623)">
          <path id="Trazado_172927" data-name="Trazado 172927" d="M404.215,440.25c0,.065-4.614.1-10.3.088s-10.3-.081-10.3-.146,4.613-.1,10.3-.088S404.215,440.186,404.215,440.25Z" transform="translate(-383.609 -440.101)" fill="#455a64"/>
        </g>
        <g id="Grupo_115231" data-name="Grupo 115231" transform="translate(16.37 64.037)">
          <path id="Trazado_172928" data-name="Trazado 172928" d="M404.411,451.656a9.255,9.255,0,0,0-1.852-1.048,6.537,6.537,0,0,0-2.244-.447,7.918,7.918,0,0,0-2.757.507c-.956.323-1.849.7-2.721.906a6.477,6.477,0,0,1-2.355.068,4.813,4.813,0,0,1-1.512-.485,2.858,2.858,0,0,1-.363-.235c-.078-.06-.117-.095-.112-.1a5.548,5.548,0,0,0,2.01.657,6.6,6.6,0,0,0,2.284-.114c.838-.21,1.73-.591,2.695-.918a7.862,7.862,0,0,1,2.837-.5,6.419,6.419,0,0,1,2.3.509,5.9,5.9,0,0,1,1.367.8,3.438,3.438,0,0,1,.324.284C404.382,451.611,404.416,451.65,404.411,451.656Z" transform="translate(-390.494 -449.941)" fill="#455a64"/>
        </g>
        <g id="Grupo_115232" data-name="Grupo 115232" transform="translate(16.691 64.866)">
          <path id="Trazado_172929" data-name="Trazado 172929" d="M404.646,453.484a9.831,9.831,0,0,0-1.78-1.034,6.022,6.022,0,0,0-2.162-.442,7.815,7.815,0,0,0-2.667.481c-.923.309-1.791.667-2.621.89a6.725,6.725,0,0,1-2.264.25,3.814,3.814,0,0,1-1.483-.4,2.545,2.545,0,0,1-.352-.227c-.076-.058-.113-.092-.108-.1s.176.1.5.243a4.1,4.1,0,0,0,1.454.319,6.926,6.926,0,0,0,2.2-.293c.81-.229,1.67-.591,2.606-.9a7.74,7.74,0,0,1,2.746-.475,5.921,5.921,0,0,1,2.222.505,5.81,5.81,0,0,1,1.309.8,3.511,3.511,0,0,1,.311.277C404.618,453.44,404.651,453.478,404.646,453.484Z" transform="translate(-391.209 -451.789)" fill="#fff"/>
        </g>
        <g id="Grupo_115233" data-name="Grupo 115233" transform="translate(16.144 63.063)">
          <path id="Trazado_172930" data-name="Trazado 172930" d="M404.341,449.656a10.628,10.628,0,0,0-1.9-1.108,7.007,7.007,0,0,0-2.3-.549,7.454,7.454,0,0,0-2.844.5,25.541,25.541,0,0,1-2.818.919,7.142,7.142,0,0,1-2.432,0,5.393,5.393,0,0,1-1.56-.5,2.791,2.791,0,0,1-.378-.238c-.081-.062-.121-.1-.116-.1s.187.1.533.26a6.071,6.071,0,0,0,1.546.418,7.347,7.347,0,0,0,2.366-.049,28.813,28.813,0,0,0,2.784-.929,7.431,7.431,0,0,1,2.933-.5,6.834,6.834,0,0,1,2.353.613,6.749,6.749,0,0,1,1.4.848,3.665,3.665,0,0,1,.334.293C404.31,449.61,404.346,449.65,404.341,449.656Z" transform="translate(-389.99 -447.77)" fill="#fff"/>
        </g>
      </g>
    </g>
  </g>
</svg>
