<svg xmlns="http://www.w3.org/2000/svg" xmlns:xlink="http://www.w3.org/1999/xlink" width="141.999" height="44.833" viewBox="0 0 141.999 44.833">
  <defs>
    <filter id="Rectángulo_36765" x="0" y="0" width="141.999" height="44.833" filterUnits="userSpaceOnUse">
      <feOffset dy="3" input="SourceAlpha"/>
      <feGaussianBlur stdDeviation="3" result="blur"/>
      <feFlood flood-opacity="0.161"/>
      <feComposite operator="in" in2="blur"/>
      <feComposite in="SourceGraphic"/>
    </filter>
  </defs>
  <g id="Grupo_53800" data-name="Grupo 53800" transform="translate(-2182.959 3239)">
    <g transform="matrix(1, 0, 0, 1, 2182.96, -3239)" filter="url(#Rectángulo_36765)">
      <rect id="Rectángulo_36765-2" data-name="Rectángulo 36765" width="123.999" height="26.833" rx="8.768" transform="translate(9 6)" fill="#f3f9ff"/>
    </g>
    <g id="Grupo_111092" data-name="Grupo 111092" transform="translate(2203.555 -3224.55)">
      <path id="Trazado_170308" data-name="Trazado 170308" d="M2201.072-3224.64l3.491,2.294-3.5,2.3c0-.612,0-1,0-1.333,0-.723,0-1.215,0-3.258m-1.535-2.838c.01,7.739,0,3.94,0,10.264l7.813-5.132-7.813-5.132Z" transform="translate(-2199.537 3227.478)" fill="#12263f"/>
    </g>
    <g id="Grupo_111096" data-name="Grupo 111096" transform="translate(2292.543 -3224.55)">
      <path id="Trazado_170309" data-name="Trazado 170309" d="M2262.4-3224.466v1.157c0,.7,0,1.188,0,3.085l-1.195-.873-1.719-1.244,1.719-1.253,1.2-.872m1.532-3.011-3.629,2.647v-.014h-2.614v5h2.614v-.014l3.629,2.647c-.007-7.738,0-3.94,0-10.264Z" transform="translate(-2257.692 3227.478)" fill="#12263f"/>
      <g id="Grupo_111095" data-name="Grupo 111095" transform="translate(7.708 0.123)">
        <g id="Grupo_111093" data-name="Grupo 111093" transform="translate(1.109)">
          <path id="Trazado_170310" data-name="Trazado 170310" d="M2264.066-3217.379a.612.612,0,0,1-.565-.373.614.614,0,0,1,.326-.8,4.117,4.117,0,0,0,1.323-.892,4.169,4.169,0,0,0,.892-1.322,4.148,4.148,0,0,0,.326-1.619,4.114,4.114,0,0,0-.328-1.618,4.131,4.131,0,0,0-.891-1.323,4.175,4.175,0,0,0-1.323-.892.614.614,0,0,1-.324-.8.61.61,0,0,1,.8-.324,5.371,5.371,0,0,1,1.711,1.154,5.405,5.405,0,0,1,1.154,1.71,5.354,5.354,0,0,1,.423,2.1,5.347,5.347,0,0,1-.423,2.1,5.383,5.383,0,0,1-1.154,1.711,5.364,5.364,0,0,1-1.711,1.154A.594.594,0,0,1,2264.066-3217.379Z" transform="translate(-2263.453 3227.397)" fill="#12263f"/>
        </g>
        <g id="Grupo_111094" data-name="Grupo 111094" transform="translate(0 2.457)">
          <path id="Trazado_170311" data-name="Trazado 170311" d="M2263.3-3220.689a.573.573,0,0,1-.528-.35.572.572,0,0,1,.3-.751,1.593,1.593,0,0,0,.5-.337,1.607,1.607,0,0,0,.337-.5,1.577,1.577,0,0,0,.124-.612,1.548,1.548,0,0,0-.124-.612,1.575,1.575,0,0,0-.337-.5,1.56,1.56,0,0,0-.5-.338.573.573,0,0,1-.3-.751.568.568,0,0,1,.751-.3,2.677,2.677,0,0,1,.864.583,2.694,2.694,0,0,1,.583.863,2.713,2.713,0,0,1,.213,1.058,2.724,2.724,0,0,1-.213,1.059,2.724,2.724,0,0,1-.583.865,2.7,2.7,0,0,1-.864.581A.569.569,0,0,1,2263.3-3220.689Z" transform="translate(-2262.729 3225.792)" fill="#12263f"/>
        </g>
      </g>
    </g>
    <rect id="Rectángulo_36766" data-name="Rectángulo 36766" width="50.171" height="1.041" transform="translate(2226.242 -3219.678)" fill="#b3b3b3"/>
    <g id="Grupo_111097" data-name="Grupo 111097" transform="translate(2226.242 -3221.231)">
      <rect id="Rectángulo_36767" data-name="Rectángulo 36767" width="1.579" height="1.041" transform="translate(0 1.553)" fill="#ff1017"/>
      <path id="Trazado_170312" data-name="Trazado 170312" d="M2218.664-3223.242a2.067,2.067,0,0,1-2.067,2.068,2.068,2.068,0,0,1-2.068-2.068,2.067,2.067,0,0,1,2.068-2.067A2.067,2.067,0,0,1,2218.664-3223.242Z" transform="translate(-2214.275 3225.309)" fill="#ff1017"/>
    </g>
  </g>
</svg>
